;Layer: Drill PTH
;EasyEDA v6.4.0, 2020-08-15T23:10:14+05:30
;5cc65f200d574341adaaee413559fcb0,ac1a8ddbb09a48189df0a8a7e8d705f5,10
;Gerber Generator version 0.2
M48
INCH,LZ,00.0000
;Holesize 1 = 0.030 INCH
T01C0.030
;Holesize 2 = 0.032 INCH
T02C0.032
;Holesize 3 = 0.035 INCH
T03C0.035
;Holesize 4 = 0.035 INCH
T04C0.035
;Holesize 5 = 0.035 INCH
T05C0.035
;Holesize 6 = 0.039 INCH
T06C0.039
;Holesize 7 = 0.040 INCH
T07C0.040
;Holesize 8 = 0.045 INCH
T08C0.045
;Holesize 9 = 0.047 INCH
T09C0.047
;Holesize 10 = 0.047 INCH
T10C0.047
;Holesize 11 = 0.051 INCH
T11C0.051
;Holesize 12 = 0.063 INCH
T12C0.063
;Holesize 13 = 0.100 INCH
T13C0.100
%
G05
G90
T01
X+012400Y+006400
X+012400Y+005400
X+012360Y+007407
T02
X+013000Y+011100
X+017200Y+019700
X+004100Y+003600
X+007700Y+017000
X+005900Y+013800
X+005599Y+001599
X+007799Y+001599
T03
X+014700Y+005000
X+014700Y+004000
X+014700Y+003000
X+014700Y+002000
X+017700Y+002000
X+017700Y+003000
X+017700Y+004000
X+017700Y+005000
T04
X+008900Y+011200
X+008900Y+007200
X+009000Y+017000
X+009000Y+013000
X+009200Y+003000
X+013200Y+003000
X+003988Y+021588
X+003988Y+024580
X+014600Y+016800
X+018600Y+016800
X+023300Y+009800
X+023300Y+005800
X+009000Y+018100
X+009000Y+022100
X+023100Y+018800
X+023100Y+022800
X+021400Y+015100
X+025400Y+015100
X+005900Y+004500
X+005900Y+008500
X+013200Y+001900
X+009200Y+001900
X+013200Y+004200
X+009200Y+004200
T05
X+018900Y+010200
X+018900Y+009200
X+018900Y+008200
X+021900Y+010200
X+021900Y+009200
X+021900Y+008200
T06
X+021800Y+018780
X+021800Y+019780
X+021800Y+020780
X+018800Y+018780
X+018800Y+020780
X+018800Y+019780
X+002696Y+001600
X+002697Y+002600
X+002697Y+003600
T07
X+030400Y+011800
X+030400Y+021800
X+010700Y+010000
X+010700Y+011000
X+010700Y+012000
X+010700Y+013000
X+010700Y+014000
X+010700Y+015000
X+010700Y+016000
X+010700Y+017000
X+010700Y+018000
X+004700Y+018000
X+004700Y+017000
X+004700Y+016000
X+004700Y+015000
X+004700Y+014000
X+004700Y+013000
X+004700Y+012000
X+004700Y+011000
X+004700Y+010000
X+004700Y+009000
X+004700Y+008000
X+004700Y+007000
T08
X+026901Y+007200G85X+026898Y+007200
X+026901Y+008200G85X+026898Y+008200
X+026901Y+006200G85X+026898Y+006200
T09
X+017900Y+025000
X+018885Y+025000
X+014500Y+025000
X+015485Y+025000
X+013600Y+012100
X+013600Y+013084
X+013600Y+014069
X+013600Y+015053
X+002300Y+012000
X+002300Y+011015
X+002300Y+010030
X+002300Y+009046
X+002700Y+005800
X+002700Y+006784
T10
X+018600Y+022900
X+015550Y+022900
X+030400Y+009196
X+030400Y+006203
X+010000Y+025901
T11
X+009050Y+023600
X+011050Y+023600
X+010050Y+023600
X+030340Y+001800
X+031900Y+001794
X+031959Y+024600
X+030400Y+024605
T12
X+025400Y+021900
X+025400Y+023900
X+025400Y+019900
X+025400Y+017900
T13
X+025300Y+002200
X+025300Y+012200
M30
