G04 Layer: BottomPasteMaskLayer*
G04 EasyEDA v6.4.0, 2020-08-15T23:10:14+05:30*
G04 5cc65f200d574341adaaee413559fcb0,ac1a8ddbb09a48189df0a8a7e8d705f5,10*
G04 Gerber Generator version 0.2*
G04 Scale: 100 percent, Rotated: No, Reflected: No *
G04 Dimensions in inches *
G04 leading zeros omitted , absolute positions ,2 integer and 4 decimal *
%FSLAX24Y24*%
%MOIN*%
G90*
G70D02*


%LPD*%
G36*
G01X16328Y14389D02*
G01X15871Y14389D01*
G01X15871Y13810D01*
G01X16328Y13810D01*
G01X16328Y14389D01*
G37*
G36*
G01X15528Y14389D02*
G01X15071Y14389D01*
G01X15071Y13810D01*
G01X15528Y13810D01*
G01X15528Y14389D01*
G37*
G36*
G01X15071Y12810D02*
G01X15528Y12810D01*
G01X15528Y13389D01*
G01X15071Y13389D01*
G01X15071Y12810D01*
G37*
G36*
G01X15871Y12810D02*
G01X16328Y12810D01*
G01X16328Y13389D01*
G01X15871Y13389D01*
G01X15871Y12810D01*
G37*
G36*
G01X15071Y11810D02*
G01X15528Y11810D01*
G01X15528Y12389D01*
G01X15071Y12389D01*
G01X15071Y11810D01*
G37*
G36*
G01X15871Y11810D02*
G01X16328Y11810D01*
G01X16328Y12389D01*
G01X15871Y12389D01*
G01X15871Y11810D01*
G37*
G36*
G01X4010Y2628D02*
G01X4010Y2171D01*
G01X4589Y2171D01*
G01X4589Y2628D01*
G01X4010Y2628D01*
G37*
G36*
G01X4010Y1828D02*
G01X4010Y1371D01*
G01X4589Y1371D01*
G01X4589Y1828D01*
G01X4010Y1828D01*
G37*
M00*
M02*
