G04 Layer: BottomSilkLayer*
G04 EasyEDA v6.4.0, 2020-08-15T23:10:14+05:30*
G04 5cc65f200d574341adaaee413559fcb0,ac1a8ddbb09a48189df0a8a7e8d705f5,10*
G04 Gerber Generator version 0.2*
G04 Scale: 100 percent, Rotated: No, Reflected: No *
G04 Dimensions in inches *
G04 leading zeros omitted , absolute positions ,2 integer and 4 decimal *
%FSLAX24Y24*%
%MOIN*%
G90*
G70D02*

%ADD37C,0.008000*%
%ADD42C,0.007000*%
%ADD43C,0.007870*%

%LPD*%

%LPD*%
G36*
G01X13522Y20386D02*
G01X13503Y20390D01*
G01X13485Y20389D01*
G01X13467Y20385D01*
G01X13453Y20376D01*
G01X13443Y20363D01*
G01X13440Y20340D01*
G01X13449Y20315D01*
G01X13465Y20294D01*
G01X13487Y20281D01*
G01X13517Y20282D01*
G01X13544Y20300D01*
G01X13561Y20326D01*
G01X13562Y20354D01*
G01X13553Y20369D01*
G01X13539Y20379D01*
G01X13522Y20386D01*
G37*

%LPD*%
G36*
G01X12834Y20144D02*
G01X12806Y20145D01*
G01X12778Y20138D01*
G01X12756Y20123D01*
G01X12745Y20107D01*
G01X12742Y20090D01*
G01X12747Y20073D01*
G01X12758Y20059D01*
G01X12773Y20047D01*
G01X12793Y20040D01*
G01X12815Y20038D01*
G01X12839Y20042D01*
G01X12857Y20058D01*
G01X12867Y20084D01*
G01X12867Y20113D01*
G01X12855Y20135D01*
G01X12834Y20144D01*
G37*

%LPD*%
G36*
G01X13256Y20768D02*
G01X13235Y20769D01*
G01X13216Y20768D01*
G01X13199Y20767D01*
G01X13185Y20763D01*
G01X13172Y20759D01*
G01X13160Y20753D01*
G01X13151Y20744D01*
G01X13143Y20734D01*
G01X13136Y20722D01*
G01X13130Y20708D01*
G01X13126Y20691D01*
G01X13122Y20672D01*
G01X13120Y20651D01*
G01X13119Y20627D01*
G01X13118Y20600D01*
G01X13118Y20501D01*
G01X13119Y20462D01*
G01X13124Y20186D01*
G01X13173Y20333D01*
G01X13185Y20366D01*
G01X13197Y20396D01*
G01X13208Y20421D01*
G01X13219Y20442D01*
G01X13230Y20460D01*
G01X13240Y20473D01*
G01X13251Y20483D01*
G01X13261Y20489D01*
G01X13272Y20491D01*
G01X13283Y20490D01*
G01X13294Y20485D01*
G01X13305Y20477D01*
G01X13307Y20474D01*
G01X13310Y20469D01*
G01X13312Y20461D01*
G01X13319Y20440D01*
G01X13322Y20425D01*
G01X13327Y20409D01*
G01X13331Y20390D01*
G01X13336Y20368D01*
G01X13341Y20344D01*
G01X13346Y20319D01*
G01X13352Y20290D01*
G01X13358Y20259D01*
G01X13365Y20226D01*
G01X13372Y20191D01*
G01X13379Y20153D01*
G01X13386Y20113D01*
G01X13394Y20070D01*
G01X13403Y20025D01*
G01X13411Y19977D01*
G01X13423Y19914D01*
G01X13754Y20196D01*
G01X14085Y20479D01*
G01X14001Y20542D01*
G01X13986Y20552D01*
G01X13970Y20561D01*
G01X13952Y20572D01*
G01X13933Y20582D01*
G01X13869Y20614D01*
G01X13823Y20634D01*
G01X13800Y20645D01*
G01X13776Y20655D01*
G01X13752Y20664D01*
G01X13729Y20673D01*
G01X13706Y20681D01*
G01X13684Y20689D01*
G01X13662Y20696D01*
G01X13641Y20702D01*
G01X13622Y20708D01*
G01X13604Y20712D01*
G01X13532Y20729D01*
G01X13532Y20586D01*
G01X13533Y20545D01*
G01X13534Y20511D01*
G01X13536Y20485D01*
G01X13539Y20464D01*
G01X13544Y20448D01*
G01X13551Y20434D01*
G01X13560Y20424D01*
G01X13571Y20414D01*
G01X13588Y20398D01*
G01X13600Y20380D01*
G01X13607Y20361D01*
G01X13610Y20342D01*
G01X13608Y20324D01*
G01X13602Y20306D01*
G01X13592Y20289D01*
G01X13579Y20274D01*
G01X13562Y20261D01*
G01X13543Y20252D01*
G01X13520Y20246D01*
G01X13494Y20243D01*
G01X13469Y20246D01*
G01X13447Y20252D01*
G01X13427Y20261D01*
G01X13411Y20273D01*
G01X13399Y20288D01*
G01X13391Y20304D01*
G01X13386Y20322D01*
G01X13386Y20340D01*
G01X13389Y20359D01*
G01X13398Y20378D01*
G01X13411Y20396D01*
G01X13429Y20413D01*
G01X13444Y20426D01*
G01X13456Y20438D01*
G01X13464Y20451D01*
G01X13469Y20467D01*
G01X13472Y20488D01*
G01X13473Y20515D01*
G01X13473Y20550D01*
G01X13472Y20596D01*
G01X13466Y20740D01*
G01X13400Y20750D01*
G01X13365Y20755D01*
G01X13334Y20759D01*
G01X13306Y20763D01*
G01X13280Y20766D01*
G01X13256Y20768D01*
G37*

%LPD*%
G36*
G01X14489Y19863D02*
G01X14478Y19864D01*
G01X14463Y19857D01*
G01X14443Y19842D01*
G01X14414Y19819D01*
G01X14378Y19788D01*
G01X14284Y19707D01*
G01X14445Y19707D01*
G01X14477Y19709D01*
G01X14499Y19713D01*
G01X14513Y19721D01*
G01X14520Y19735D01*
G01X14521Y19755D01*
G01X14517Y19782D01*
G01X14508Y19818D01*
G01X14503Y19840D01*
G01X14497Y19855D01*
G01X14489Y19863D01*
G37*

%LPD*%
G36*
G01X14416Y20086D02*
G01X14408Y20087D01*
G01X14399Y20084D01*
G01X14387Y20079D01*
G01X14372Y20070D01*
G01X14355Y20058D01*
G01X14310Y20022D01*
G01X14281Y19998D01*
G01X14248Y19969D01*
G01X14209Y19936D01*
G01X14178Y19910D01*
G01X14150Y19886D01*
G01X14125Y19863D01*
G01X14103Y19842D01*
G01X14084Y19823D01*
G01X14068Y19806D01*
G01X14054Y19790D01*
G01X14044Y19776D01*
G01X14036Y19764D01*
G01X14031Y19753D01*
G01X14028Y19743D01*
G01X14029Y19735D01*
G01X14032Y19728D01*
G01X14038Y19721D01*
G01X14046Y19717D01*
G01X14057Y19713D01*
G01X14071Y19710D01*
G01X14088Y19708D01*
G01X14106Y19707D01*
G01X14145Y19707D01*
G01X14161Y19708D01*
G01X14175Y19710D01*
G01X14189Y19713D01*
G01X14202Y19718D01*
G01X14217Y19725D01*
G01X14232Y19734D01*
G01X14249Y19746D01*
G01X14268Y19760D01*
G01X14290Y19778D01*
G01X14316Y19800D01*
G01X14345Y19825D01*
G01X14483Y19944D01*
G01X14452Y20020D01*
G01X14446Y20037D01*
G01X14440Y20052D01*
G01X14434Y20065D01*
G01X14429Y20074D01*
G01X14423Y20081D01*
G01X14416Y20086D01*
G37*

%LPD*%
G36*
G01X12072Y20105D02*
G01X12068Y20107D01*
G01X12063Y20105D01*
G01X12058Y20099D01*
G01X12052Y20090D01*
G01X12046Y20077D01*
G01X12039Y20061D01*
G01X12031Y20040D01*
G01X12022Y20017D01*
G01X12013Y19989D01*
G01X12003Y19958D01*
G01X11993Y19923D01*
G01X11980Y19879D01*
G01X11970Y19842D01*
G01X11962Y19810D01*
G01X11957Y19784D01*
G01X11955Y19762D01*
G01X11956Y19744D01*
G01X11960Y19731D01*
G01X11966Y19721D01*
G01X11976Y19714D01*
G01X11988Y19709D01*
G01X12003Y19707D01*
G01X12089Y19707D01*
G01X12088Y19922D01*
G01X12088Y19957D01*
G01X12087Y19988D01*
G01X12086Y20016D01*
G01X12085Y20040D01*
G01X12083Y20060D01*
G01X12081Y20077D01*
G01X12078Y20090D01*
G01X12075Y20099D01*
G01X12072Y20105D01*
G37*

%LPD*%
G36*
G01X12268Y20272D02*
G01X12254Y20363D01*
G01X12146Y20253D01*
G01X12146Y19707D01*
G01X12279Y19707D01*
G01X12279Y19991D01*
G01X12278Y20026D01*
G01X12278Y20060D01*
G01X12277Y20093D01*
G01X12276Y20125D01*
G01X12275Y20156D01*
G01X12274Y20185D01*
G01X12272Y20211D01*
G01X12271Y20234D01*
G01X12269Y20255D01*
G01X12268Y20272D01*
G37*

%LPD*%
G36*
G01X12469Y19830D02*
G01X12469Y20538D01*
G01X12405Y20496D01*
G01X12393Y20488D01*
G01X12383Y20480D01*
G01X12374Y20472D01*
G01X12365Y20463D01*
G01X12358Y20453D01*
G01X12351Y20441D01*
G01X12345Y20428D01*
G01X12340Y20413D01*
G01X12335Y20396D01*
G01X12331Y20377D01*
G01X12328Y20355D01*
G01X12325Y20330D01*
G01X12323Y20302D01*
G01X12321Y20271D01*
G01X12319Y20236D01*
G01X12318Y20197D01*
G01X12318Y20153D01*
G01X12317Y20106D01*
G01X12317Y19707D01*
G01X12609Y19707D01*
G01X12539Y19768D01*
G01X12469Y19830D01*
G37*

%LPD*%
G36*
G01X13057Y20190D02*
G01X13057Y20749D01*
G01X12986Y20738D01*
G01X12963Y20734D01*
G01X12942Y20731D01*
G01X12923Y20728D01*
G01X12906Y20725D01*
G01X12892Y20721D01*
G01X12879Y20717D01*
G01X12868Y20712D01*
G01X12859Y20706D01*
G01X12852Y20698D01*
G01X12846Y20689D01*
G01X12840Y20678D01*
G01X12837Y20665D01*
G01X12834Y20649D01*
G01X12832Y20630D01*
G01X12831Y20609D01*
G01X12830Y20584D01*
G01X12830Y20347D01*
G01X12831Y20309D01*
G01X12832Y20277D01*
G01X12833Y20251D01*
G01X12835Y20231D01*
G01X12838Y20215D01*
G01X12842Y20203D01*
G01X12847Y20194D01*
G01X12852Y20188D01*
G01X12859Y20182D01*
G01X12868Y20178D01*
G01X12884Y20169D01*
G01X12896Y20158D01*
G01X12906Y20146D01*
G01X12913Y20132D01*
G01X12918Y20118D01*
G01X12919Y20103D01*
G01X12918Y20088D01*
G01X12915Y20073D01*
G01X12909Y20058D01*
G01X12901Y20045D01*
G01X12891Y20032D01*
G01X12879Y20021D01*
G01X12864Y20012D01*
G01X12848Y20005D01*
G01X12831Y20001D01*
G01X12811Y19999D01*
G01X12785Y20002D01*
G01X12760Y20009D01*
G01X12740Y20019D01*
G01X12723Y20032D01*
G01X12710Y20048D01*
G01X12700Y20066D01*
G01X12695Y20084D01*
G01X12695Y20104D01*
G01X12699Y20123D01*
G01X12709Y20141D01*
G01X12724Y20157D01*
G01X12744Y20172D01*
G01X12755Y20178D01*
G01X12764Y20184D01*
G01X12771Y20190D01*
G01X12777Y20198D01*
G01X12782Y20209D01*
G01X12785Y20221D01*
G01X12788Y20238D01*
G01X12790Y20259D01*
G01X12791Y20285D01*
G01X12791Y20316D01*
G01X12792Y20354D01*
G01X12792Y20476D01*
G01X12791Y20506D01*
G01X12790Y20532D01*
G01X12788Y20553D01*
G01X12784Y20569D01*
G01X12780Y20582D01*
G01X12774Y20590D01*
G01X12766Y20596D01*
G01X12756Y20597D01*
G01X12743Y20596D01*
G01X12728Y20591D01*
G01X12711Y20584D01*
G01X12690Y20574D01*
G01X12666Y20562D01*
G01X12639Y20548D01*
G01X12535Y20495D01*
G01X12525Y19847D01*
G01X12637Y19749D01*
G01X12662Y19729D01*
G01X12681Y19717D01*
G01X12695Y19712D01*
G01X12707Y19715D01*
G01X12719Y19726D01*
G01X12733Y19744D01*
G01X12750Y19769D01*
G01X12769Y19797D01*
G01X12786Y19820D01*
G01X12802Y19838D01*
G01X12817Y19850D01*
G01X12831Y19857D01*
G01X12843Y19859D01*
G01X12856Y19857D01*
G01X12868Y19848D01*
G01X12881Y19835D01*
G01X12894Y19816D01*
G01X12907Y19792D01*
G01X12922Y19763D01*
G01X12931Y19743D01*
G01X12939Y19726D01*
G01X12946Y19714D01*
G01X12952Y19707D01*
G01X12958Y19704D01*
G01X12964Y19707D01*
G01X12970Y19715D01*
G01X12977Y19730D01*
G01X12985Y19750D01*
G01X12994Y19778D01*
G01X13005Y19812D01*
G01X13018Y19854D01*
G01X13023Y19870D01*
G01X13028Y19885D01*
G01X13032Y19901D01*
G01X13036Y19916D01*
G01X13045Y19964D01*
G01X13047Y19982D01*
G01X13049Y20001D01*
G01X13051Y20022D01*
G01X13052Y20044D01*
G01X13054Y20069D01*
G01X13055Y20095D01*
G01X13056Y20124D01*
G01X13056Y20156D01*
G01X13057Y20190D01*
G37*

%LPD*%
G36*
G01X14194Y20396D02*
G01X14135Y20458D01*
G01X13785Y20159D01*
G01X13436Y19861D01*
G01X13449Y19772D01*
G01X13454Y19736D01*
G01X13460Y19704D01*
G01X13466Y19681D01*
G01X13471Y19668D01*
G01X13473Y19668D01*
G01X13478Y19671D01*
G01X13485Y19676D01*
G01X13495Y19683D01*
G01X13521Y19703D01*
G01X13538Y19715D01*
G01X13556Y19730D01*
G01X13576Y19745D01*
G01X13597Y19763D01*
G01X13620Y19781D01*
G01X13644Y19801D01*
G01X13669Y19821D01*
G01X13696Y19843D01*
G01X13722Y19865D01*
G01X13750Y19888D01*
G01X13779Y19911D01*
G01X13807Y19936D01*
G01X13837Y19960D01*
G01X13866Y19984D01*
G01X13895Y20009D01*
G01X13953Y20057D01*
G01X14009Y20105D01*
G01X14036Y20128D01*
G01X14062Y20150D01*
G01X14087Y20172D01*
G01X14133Y20212D01*
G01X14154Y20230D01*
G01X14174Y20248D01*
G01X14191Y20263D01*
G01X14207Y20278D01*
G01X14221Y20290D01*
G01X14232Y20301D01*
G01X14242Y20310D01*
G01X14249Y20317D01*
G01X14253Y20322D01*
G01X14254Y20325D01*
G01X14250Y20333D01*
G01X14237Y20349D01*
G01X14218Y20371D01*
G01X14194Y20396D01*
G37*

%LPD*%
G36*
G01X12831Y19685D02*
G01X12823Y19688D01*
G01X12815Y19684D01*
G01X12808Y19673D01*
G01X12800Y19656D01*
G01X12797Y19637D01*
G01X12803Y19618D01*
G01X12819Y19596D01*
G01X12846Y19571D01*
G01X12905Y19521D01*
G01X12873Y19606D01*
G01X12861Y19636D01*
G01X12850Y19660D01*
G01X12840Y19676D01*
G01X12831Y19685D01*
G37*

%LPD*%
G36*
G01X13945Y19678D02*
G01X13940Y19678D01*
G01X13934Y19674D01*
G01X13928Y19665D01*
G01X13921Y19651D01*
G01X13913Y19632D01*
G01X13902Y19607D01*
G01X13890Y19575D01*
G01X13874Y19536D01*
G01X13862Y19504D01*
G01X13851Y19477D01*
G01X13843Y19454D01*
G01X13836Y19435D01*
G01X13831Y19420D01*
G01X13829Y19409D01*
G01X13829Y19401D01*
G01X13831Y19397D01*
G01X13837Y19397D01*
G01X13845Y19401D01*
G01X13856Y19408D01*
G01X13870Y19419D01*
G01X13888Y19433D01*
G01X13908Y19451D01*
G01X13932Y19471D01*
G01X13960Y19496D01*
G01X13997Y19527D01*
G01X14025Y19553D01*
G01X14045Y19572D01*
G01X14059Y19587D01*
G01X14065Y19598D01*
G01X14066Y19604D01*
G01X14061Y19608D01*
G01X14051Y19609D01*
G01X14032Y19612D01*
G01X14011Y19621D01*
G01X13992Y19633D01*
G01X13975Y19648D01*
G01X13965Y19659D01*
G01X13957Y19668D01*
G01X13951Y19675D01*
G01X13945Y19678D01*
G37*

%LPD*%
G36*
G01X13757Y19534D02*
G01X13754Y19540D01*
G01X13738Y19530D01*
G01X13706Y19504D01*
G01X13688Y19489D01*
G01X13674Y19476D01*
G01X13663Y19463D01*
G01X13656Y19448D01*
G01X13651Y19432D01*
G01X13649Y19413D01*
G01X13648Y19388D01*
G01X13648Y19358D01*
G01X13649Y19259D01*
G01X13693Y19368D01*
G01X13703Y19390D01*
G01X13712Y19413D01*
G01X13721Y19435D01*
G01X13729Y19455D01*
G01X13736Y19474D01*
G01X13743Y19491D01*
G01X13748Y19504D01*
G01X13757Y19534D01*
G37*

%LPD*%
G36*
G01X14304Y20263D02*
G01X14298Y20263D01*
G01X14291Y20262D01*
G01X14283Y20260D01*
G01X14274Y20255D01*
G01X14264Y20250D01*
G01X14252Y20242D01*
G01X14238Y20232D01*
G01X14222Y20220D01*
G01X14205Y20206D01*
G01X14185Y20190D01*
G01X14163Y20172D01*
G01X14138Y20151D01*
G01X14111Y20128D01*
G01X14081Y20102D01*
G01X14048Y20073D01*
G01X14011Y20042D01*
G01X13972Y20008D01*
G01X13928Y19971D01*
G01X13882Y19930D01*
G01X13481Y19584D01*
G01X13531Y19332D01*
G01X13580Y19080D01*
G01X13591Y19471D01*
G01X13702Y19568D01*
G01X13732Y19595D01*
G01X13758Y19620D01*
G01X13779Y19643D01*
G01X13797Y19665D01*
G01X13813Y19687D01*
G01X13826Y19709D01*
G01X13837Y19733D01*
G01X13847Y19759D01*
G01X13861Y19793D01*
G01X13874Y19820D01*
G01X13887Y19840D01*
G01X13900Y19853D01*
G01X13914Y19860D01*
G01X13928Y19860D01*
G01X13944Y19854D01*
G01X13961Y19842D01*
G01X13968Y19836D01*
G01X13975Y19833D01*
G01X13983Y19832D01*
G01X13992Y19834D01*
G01X14003Y19838D01*
G01X14017Y19846D01*
G01X14034Y19857D01*
G01X14055Y19873D01*
G01X14081Y19893D01*
G01X14147Y19948D01*
G01X14189Y19984D01*
G01X14386Y20152D01*
G01X14345Y20214D01*
G01X14335Y20230D01*
G01X14331Y20238D01*
G01X14326Y20244D01*
G01X14322Y20250D01*
G01X14318Y20255D01*
G01X14314Y20259D01*
G01X14309Y20262D01*
G01X14304Y20263D01*
G37*

%LPD*%
G36*
G01X12020Y19609D02*
G01X11951Y19609D01*
G01X11964Y19526D01*
G01X11968Y19505D01*
G01X11972Y19483D01*
G01X11977Y19461D01*
G01X11982Y19440D01*
G01X11994Y19396D01*
G01X12001Y19375D01*
G01X12009Y19353D01*
G01X12017Y19332D01*
G01X12026Y19310D01*
G01X12035Y19289D01*
G01X12044Y19267D01*
G01X12054Y19246D01*
G01X12065Y19226D01*
G01X12087Y19184D01*
G01X12099Y19163D01*
G01X12111Y19143D01*
G01X12137Y19103D01*
G01X12150Y19084D01*
G01X12178Y19046D01*
G01X12193Y19027D01*
G01X12208Y19009D01*
G01X12223Y18990D01*
G01X12239Y18973D01*
G01X12255Y18955D01*
G01X12271Y18938D01*
G01X12288Y18922D01*
G01X12305Y18905D01*
G01X12339Y18875D01*
G01X12356Y18859D01*
G01X12375Y18845D01*
G01X12393Y18831D01*
G01X12411Y18818D01*
G01X12430Y18805D01*
G01X12448Y18792D01*
G01X12467Y18780D01*
G01X12526Y18745D01*
G01X12526Y19183D01*
G01X12307Y19357D01*
G01X12269Y19388D01*
G01X12235Y19415D01*
G01X12206Y19440D01*
G01X12180Y19463D01*
G01X12157Y19483D01*
G01X12138Y19501D01*
G01X12122Y19517D01*
G01X12110Y19531D01*
G01X12101Y19543D01*
G01X12094Y19553D01*
G01X12090Y19563D01*
G01X12089Y19570D01*
G01X12086Y19590D01*
G01X12077Y19602D01*
G01X12056Y19608D01*
G01X12020Y19609D01*
G37*

%LPC*%
G36*
G01X12361Y19175D02*
G01X12340Y19180D01*
G01X12321Y19178D01*
G01X12310Y19175D01*
G01X12297Y19172D01*
G01X12286Y19171D01*
G01X12278Y19170D01*
G01X12265Y19166D01*
G01X12253Y19155D01*
G01X12242Y19140D01*
G01X12232Y19121D01*
G01X12225Y19100D01*
G01X12220Y19080D01*
G01X12220Y19060D01*
G01X12223Y19044D01*
G01X12233Y19027D01*
G01X12244Y19014D01*
G01X12258Y19003D01*
G01X12274Y18994D01*
G01X12291Y18989D01*
G01X12308Y18985D01*
G01X12327Y18984D01*
G01X12345Y18986D01*
G01X12363Y18990D01*
G01X12380Y18996D01*
G01X12396Y19004D01*
G01X12411Y19014D01*
G01X12424Y19027D01*
G01X12434Y19041D01*
G01X12442Y19058D01*
G01X12446Y19076D01*
G01X12444Y19094D01*
G01X12436Y19114D01*
G01X12421Y19133D01*
G01X12403Y19150D01*
G01X12382Y19165D01*
G01X12361Y19175D01*
G37*

%LPD*%
G36*
G01X12366Y19132D02*
G01X12335Y19136D01*
G01X12304Y19128D01*
G01X12280Y19107D01*
G01X12274Y19092D01*
G01X12273Y19077D01*
G01X12277Y19062D01*
G01X12285Y19048D01*
G01X12297Y19038D01*
G01X12311Y19030D01*
G01X12328Y19025D01*
G01X12346Y19026D01*
G01X12371Y19037D01*
G01X12387Y19057D01*
G01X12392Y19084D01*
G01X12385Y19114D01*
G01X12366Y19132D01*
G37*

%LPD*%
G36*
G01X14394Y19609D02*
G01X14168Y19609D01*
G01X13814Y19304D01*
G01X13820Y19011D01*
G01X13821Y18962D01*
G01X13822Y18918D01*
G01X13823Y18879D01*
G01X13825Y18845D01*
G01X13826Y18815D01*
G01X13828Y18789D01*
G01X13831Y18767D01*
G01X13834Y18750D01*
G01X13838Y18735D01*
G01X13842Y18724D01*
G01X13848Y18716D01*
G01X13855Y18711D01*
G01X13863Y18709D01*
G01X13872Y18710D01*
G01X13882Y18713D01*
G01X13895Y18718D01*
G01X13909Y18725D01*
G01X13924Y18733D01*
G01X13942Y18744D01*
G01X13961Y18755D01*
G01X13981Y18767D01*
G01X14002Y18781D01*
G01X14022Y18794D01*
G01X14043Y18809D01*
G01X14063Y18823D01*
G01X14082Y18839D01*
G01X14102Y18855D01*
G01X14121Y18871D01*
G01X14159Y18905D01*
G01X14177Y18922D01*
G01X14213Y18958D01*
G01X14264Y19015D01*
G01X14280Y19034D01*
G01X14296Y19054D01*
G01X14341Y19114D01*
G01X14355Y19135D01*
G01X14368Y19155D01*
G01X14382Y19176D01*
G01X14418Y19239D01*
G01X14440Y19281D01*
G01X14450Y19302D01*
G01X14468Y19344D01*
G01X14476Y19365D01*
G01X14483Y19386D01*
G01X14490Y19406D01*
G01X14496Y19427D01*
G01X14502Y19447D01*
G01X14506Y19467D01*
G01X14511Y19488D01*
G01X14514Y19507D01*
G01X14517Y19527D01*
G01X14519Y19546D01*
G01X14520Y19565D01*
G01X14520Y19584D01*
G01X14519Y19591D01*
G01X14513Y19596D01*
G01X14503Y19601D01*
G01X14487Y19604D01*
G01X14464Y19607D01*
G01X14433Y19608D01*
G01X14394Y19609D01*
G37*

%LPC*%
G36*
G01X14026Y19298D02*
G01X14010Y19298D01*
G01X13993Y19294D01*
G01X13975Y19286D01*
G01X13955Y19275D01*
G01X13936Y19261D01*
G01X13922Y19244D01*
G01X13914Y19227D01*
G01X13910Y19208D01*
G01X13910Y19189D01*
G01X13914Y19171D01*
G01X13923Y19153D01*
G01X13935Y19137D01*
G01X13951Y19124D01*
G01X13970Y19114D01*
G01X13992Y19107D01*
G01X14017Y19105D01*
G01X14043Y19107D01*
G01X14067Y19111D01*
G01X14088Y19119D01*
G01X14105Y19130D01*
G01X14118Y19142D01*
G01X14128Y19157D01*
G01X14133Y19173D01*
G01X14135Y19189D01*
G01X14131Y19207D01*
G01X14124Y19225D01*
G01X14111Y19242D01*
G01X14094Y19260D01*
G01X14075Y19275D01*
G01X14057Y19287D01*
G01X14041Y19294D01*
G01X14026Y19298D01*
G37*

%LPD*%
G36*
G01X14070Y19241D02*
G01X14047Y19249D01*
G01X14016Y19246D01*
G01X13985Y19234D01*
G01X13962Y19215D01*
G01X13955Y19200D01*
G01X13955Y19185D01*
G01X13960Y19171D01*
G01X13971Y19159D01*
G01X13985Y19150D01*
G01X14003Y19144D01*
G01X14022Y19142D01*
G01X14043Y19145D01*
G01X14068Y19161D01*
G01X14082Y19188D01*
G01X14084Y19217D01*
G01X14070Y19241D01*
G37*

%LPD*%
G36*
G01X12255Y19609D02*
G01X12232Y19609D01*
G01X12211Y19608D01*
G01X12194Y19606D01*
G01X12179Y19604D01*
G01X12167Y19601D01*
G01X12158Y19597D01*
G01X12152Y19591D01*
G01X12149Y19585D01*
G01X12148Y19577D01*
G01X12152Y19568D01*
G01X12158Y19557D01*
G01X12167Y19544D01*
G01X12180Y19530D01*
G01X12196Y19514D01*
G01X12215Y19496D01*
G01X12238Y19475D01*
G01X12264Y19453D01*
G01X12294Y19428D01*
G01X12327Y19401D01*
G01X12364Y19371D01*
G01X12583Y19195D01*
G01X12583Y18715D01*
G01X12637Y18691D01*
G01X12692Y18667D01*
G01X12703Y18727D01*
G01X12705Y18738D01*
G01X12707Y18753D01*
G01X12708Y18772D01*
G01X12710Y18795D01*
G01X12711Y18821D01*
G01X12712Y18850D01*
G01X12713Y18880D01*
G01X12714Y18914D01*
G01X12714Y18948D01*
G01X12715Y18984D01*
G01X12715Y19059D01*
G01X12716Y19330D01*
G01X12364Y19608D01*
G01X12255Y19609D01*
G37*

%LPD*%
G36*
G01X13771Y19247D02*
G01X13770Y19248D01*
G01X13760Y19238D01*
G01X13751Y19225D01*
G01X13741Y19209D01*
G01X13732Y19190D01*
G01X13723Y19168D01*
G01X13714Y19145D01*
G01X13706Y19119D01*
G01X13698Y19092D01*
G01X13690Y19064D01*
G01X13676Y19004D01*
G01X13664Y18942D01*
G01X13660Y18911D01*
G01X13655Y18881D01*
G01X13652Y18851D01*
G01X13648Y18821D01*
G01X13646Y18793D01*
G01X13645Y18767D01*
G01X13644Y18742D01*
G01X13645Y18718D01*
G01X13646Y18697D01*
G01X13648Y18679D01*
G01X13652Y18663D01*
G01X13656Y18650D01*
G01X13662Y18641D01*
G01X13668Y18635D01*
G01X13676Y18633D01*
G01X13694Y18633D01*
G01X13709Y18634D01*
G01X13722Y18636D01*
G01X13734Y18640D01*
G01X13744Y18646D01*
G01X13752Y18654D01*
G01X13759Y18665D01*
G01X13765Y18679D01*
G01X13769Y18697D01*
G01X13773Y18719D01*
G01X13776Y18746D01*
G01X13777Y18777D01*
G01X13778Y18814D01*
G01X13779Y18857D01*
G01X13779Y18906D01*
G01X13780Y18961D01*
G01X13779Y19002D01*
G01X13779Y19076D01*
G01X13778Y19109D01*
G01X13777Y19140D01*
G01X13777Y19167D01*
G01X13776Y19192D01*
G01X13775Y19212D01*
G01X13773Y19228D01*
G01X13772Y19240D01*
G01X13771Y19247D01*
G37*

%LPD*%
G36*
G01X12887Y19469D02*
G01X12727Y19609D01*
G01X12584Y19608D01*
G01X12440Y19608D01*
G01X12597Y19482D01*
G01X12753Y19357D01*
G01X12758Y19000D01*
G01X12763Y18644D01*
G01X12887Y18600D01*
G01X12887Y19469D01*
G37*

%LPD*%
G36*
G01X13492Y18938D02*
G01X13489Y18938D01*
G01X13487Y18928D01*
G01X13485Y18910D01*
G01X13483Y18880D01*
G01X13481Y18841D01*
G01X13480Y18790D01*
G01X13478Y18740D01*
G01X13477Y18699D01*
G01X13477Y18666D01*
G01X13478Y18639D01*
G01X13480Y18619D01*
G01X13483Y18604D01*
G01X13487Y18594D01*
G01X13494Y18588D01*
G01X13502Y18586D01*
G01X13513Y18586D01*
G01X13526Y18588D01*
G01X13541Y18591D01*
G01X13556Y18598D01*
G01X13569Y18613D01*
G01X13580Y18632D01*
G01X13588Y18657D01*
G01X13593Y18684D01*
G01X13596Y18712D01*
G01X13596Y18740D01*
G01X13593Y18767D01*
G01X13587Y18791D01*
G01X13578Y18811D01*
G01X13567Y18825D01*
G01X13552Y18833D01*
G01X13534Y18840D01*
G01X13520Y18856D01*
G01X13509Y18879D01*
G01X13500Y18912D01*
G01X13496Y18929D01*
G01X13492Y18938D01*
G37*

%LPD*%
G36*
G01X13041Y19556D02*
G01X13039Y19557D01*
G01X13035Y19553D01*
G01X13033Y19549D01*
G01X13031Y19544D01*
G01X13019Y19521D01*
G01X13005Y19502D01*
G01X12989Y19488D01*
G01X12975Y19482D01*
G01X12971Y19481D01*
G01X12967Y19479D01*
G01X12964Y19476D01*
G01X12961Y19472D01*
G01X12958Y19466D01*
G01X12956Y19458D01*
G01X12954Y19449D01*
G01X12952Y19437D01*
G01X12950Y19423D01*
G01X12949Y19405D01*
G01X12947Y19386D01*
G01X12947Y19362D01*
G01X12946Y19336D01*
G01X12945Y19305D01*
G01X12944Y19271D01*
G01X12944Y18588D01*
G01X13001Y18581D01*
G01X13057Y18573D01*
G01X13056Y19087D01*
G01X13056Y19233D01*
G01X13055Y19275D01*
G01X13055Y19348D01*
G01X13054Y19380D01*
G01X13053Y19409D01*
G01X13053Y19435D01*
G01X13052Y19458D01*
G01X13052Y19478D01*
G01X13051Y19496D01*
G01X13050Y19511D01*
G01X13048Y19524D01*
G01X13047Y19535D01*
G01X13046Y19543D01*
G01X13045Y19550D01*
G01X13043Y19554D01*
G01X13041Y19556D01*
G37*

%LPD*%
G36*
G01X13340Y19765D02*
G01X13334Y19765D01*
G01X13325Y19762D01*
G01X13314Y19755D01*
G01X13310Y19751D01*
G01X13305Y19744D01*
G01X13301Y19735D01*
G01X13298Y19724D01*
G01X13294Y19711D01*
G01X13291Y19696D01*
G01X13288Y19679D01*
G01X13285Y19661D01*
G01X13283Y19641D01*
G01X13281Y19619D01*
G01X13279Y19596D01*
G01X13277Y19571D01*
G01X13276Y19546D01*
G01X13275Y19519D01*
G01X13274Y19491D01*
G01X13273Y19462D01*
G01X13273Y19432D01*
G01X13272Y19402D01*
G01X13272Y19370D01*
G01X13273Y19338D01*
G01X13273Y19273D01*
G01X13276Y19174D01*
G01X13278Y19140D01*
G01X13279Y19107D01*
G01X13281Y19073D01*
G01X13283Y19041D01*
G01X13285Y19008D01*
G01X13289Y18944D01*
G01X13292Y18913D01*
G01X13294Y18883D01*
G01X13297Y18853D01*
G01X13303Y18797D01*
G01X13306Y18771D01*
G01X13310Y18746D01*
G01X13313Y18721D01*
G01X13317Y18699D01*
G01X13321Y18678D01*
G01X13325Y18658D01*
G01X13328Y18640D01*
G01X13333Y18624D01*
G01X13337Y18610D01*
G01X13341Y18597D01*
G01X13350Y18579D01*
G01X13355Y18573D01*
G01X13359Y18569D01*
G01X13364Y18568D01*
G01X13418Y18568D01*
G01X13418Y19071D01*
G01X13417Y19104D01*
G01X13417Y19136D01*
G01X13416Y19165D01*
G01X13416Y19193D01*
G01X13415Y19220D01*
G01X13414Y19246D01*
G01X13413Y19271D01*
G01X13412Y19294D01*
G01X13410Y19317D01*
G01X13409Y19338D01*
G01X13405Y19380D01*
G01X13403Y19400D01*
G01X13399Y19438D01*
G01X13393Y19476D01*
G01X13391Y19495D01*
G01X13388Y19514D01*
G01X13384Y19533D01*
G01X13381Y19552D01*
G01X13373Y19592D01*
G01X13366Y19629D01*
G01X13360Y19663D01*
G01X13354Y19694D01*
G01X13350Y19720D01*
G01X13346Y19740D01*
G01X13344Y19755D01*
G01X13343Y19761D01*
G01X13340Y19765D01*
G37*

%LPD*%
G36*
G01X13254Y20179D02*
G01X13250Y20179D01*
G01X13245Y20176D01*
G01X13240Y20169D01*
G01X13235Y20159D01*
G01X13228Y20146D01*
G01X13222Y20128D01*
G01X13214Y20107D01*
G01X13205Y20083D01*
G01X13196Y20054D01*
G01X13185Y20022D01*
G01X13174Y19987D01*
G01X13114Y19803D01*
G01X13114Y18568D01*
G01X13247Y18568D01*
G01X13247Y19299D01*
G01X13248Y19357D01*
G01X13248Y19504D01*
G01X13249Y19544D01*
G01X13249Y19580D01*
G01X13250Y19611D01*
G01X13251Y19640D01*
G01X13252Y19664D01*
G01X13253Y19686D01*
G01X13254Y19705D01*
G01X13256Y19721D01*
G01X13258Y19735D01*
G01X13260Y19747D01*
G01X13262Y19757D01*
G01X13264Y19765D01*
G01X13271Y19779D01*
G01X13274Y19784D01*
G01X13278Y19789D01*
G01X13282Y19793D01*
G01X13287Y19797D01*
G01X13300Y19809D01*
G01X13309Y19821D01*
G01X13315Y19835D01*
G01X13317Y19853D01*
G01X13316Y19878D01*
G01X13312Y19913D01*
G01X13304Y19961D01*
G01X13293Y20023D01*
G01X13288Y20053D01*
G01X13283Y20081D01*
G01X13278Y20105D01*
G01X13274Y20126D01*
G01X13270Y20143D01*
G01X13266Y20157D01*
G01X13262Y20168D01*
G01X13258Y20175D01*
G01X13254Y20179D01*
G37*

%LPD*%
G36*
G01X13189Y18141D02*
G01X13168Y18142D01*
G01X13147Y18140D01*
G01X13129Y18136D01*
G01X13111Y18131D01*
G01X13096Y18124D01*
G01X13082Y18116D01*
G01X13069Y18106D01*
G01X13059Y18096D01*
G01X13050Y18084D01*
G01X13043Y18071D01*
G01X13038Y18058D01*
G01X13035Y18044D01*
G01X13034Y18030D01*
G01X13035Y18016D01*
G01X13038Y18001D01*
G01X13044Y17987D01*
G01X13052Y17973D01*
G01X13062Y17959D01*
G01X13075Y17945D01*
G01X13090Y17932D01*
G01X13109Y17921D01*
G01X13129Y17909D01*
G01X13181Y17884D01*
G01X13110Y17894D01*
G01X13085Y17897D01*
G01X13065Y17896D01*
G01X13050Y17892D01*
G01X13040Y17884D01*
G01X13035Y17872D01*
G01X13036Y17857D01*
G01X13041Y17837D01*
G01X13050Y17813D01*
G01X13057Y17805D01*
G01X13071Y17799D01*
G01X13090Y17794D01*
G01X13113Y17790D01*
G01X13139Y17788D01*
G01X13167Y17787D01*
G01X13195Y17787D01*
G01X13223Y17789D01*
G01X13250Y17792D01*
G01X13273Y17796D01*
G01X13293Y17802D01*
G01X13309Y17809D01*
G01X13325Y17822D01*
G01X13339Y17836D01*
G01X13351Y17852D01*
G01X13361Y17870D01*
G01X13368Y17888D01*
G01X13373Y17907D01*
G01X13376Y17927D01*
G01X13376Y17947D01*
G01X13375Y17968D01*
G01X13371Y17988D01*
G01X13366Y18008D01*
G01X13358Y18027D01*
G01X13349Y18046D01*
G01X13338Y18063D01*
G01X13325Y18080D01*
G01X13310Y18094D01*
G01X13294Y18107D01*
G01X13276Y18119D01*
G01X13256Y18128D01*
G01X13235Y18134D01*
G01X13211Y18139D01*
G01X13189Y18141D01*
G37*

%LPC*%
G36*
G01X13192Y18046D02*
G01X13177Y18046D01*
G01X13172Y18034D01*
G01X13175Y18026D01*
G01X13183Y18015D01*
G01X13195Y18003D01*
G01X13210Y17990D01*
G01X13234Y17974D01*
G01X13246Y17973D01*
G01X13244Y17987D01*
G01X13228Y18016D01*
G01X13211Y18036D01*
G01X13192Y18046D01*
G37*

%LPD*%
G36*
G01X12931Y18157D02*
G01X12899Y18160D01*
G01X12877Y18154D01*
G01X12868Y18138D01*
G01X12865Y18127D01*
G01X12855Y18123D01*
G01X12836Y18123D01*
G01X12806Y18130D01*
G01X12782Y18136D01*
G01X12761Y18140D01*
G01X12746Y18144D01*
G01X12739Y18145D01*
G01X12738Y18140D01*
G01X12736Y18128D01*
G01X12735Y18110D01*
G01X12735Y18088D01*
G01X12736Y18063D01*
G01X12742Y18045D01*
G01X12750Y18034D01*
G01X12763Y18031D01*
G01X12786Y18028D01*
G01X12806Y18020D01*
G01X12824Y18007D01*
G01X12839Y17989D01*
G01X12851Y17967D01*
G01X12860Y17940D01*
G01X12866Y17910D01*
G01X12868Y17877D01*
G01X12868Y17787D01*
G01X13001Y17787D01*
G01X13001Y17957D01*
G01X13000Y18006D01*
G01X12999Y18045D01*
G01X12997Y18076D01*
G01X12994Y18100D01*
G01X12990Y18117D01*
G01X12985Y18129D01*
G01X12977Y18138D01*
G01X12967Y18144D01*
G01X12931Y18157D01*
G37*

%LPD*%
G36*
G01X14022Y18156D02*
G01X13996Y18157D01*
G01X13965Y18156D01*
G01X13934Y18151D01*
G01X13902Y18144D01*
G01X13872Y18134D01*
G01X13846Y18122D01*
G01X13835Y18115D01*
G01X13825Y18107D01*
G01X13816Y18096D01*
G01X13809Y18084D01*
G01X13802Y18069D01*
G01X13796Y18052D01*
G01X13787Y18007D01*
G01X13784Y17980D01*
G01X13780Y17947D01*
G01X13777Y17910D01*
G01X13775Y17869D01*
G01X13770Y17779D01*
G01X13922Y17784D01*
G01X13949Y17786D01*
G01X13974Y17788D01*
G01X13998Y17792D01*
G01X14020Y17796D01*
G01X14040Y17802D01*
G01X14059Y17809D01*
G01X14076Y17816D01*
G01X14092Y17823D01*
G01X14105Y17832D01*
G01X14117Y17841D01*
G01X14127Y17851D01*
G01X14135Y17861D01*
G01X14141Y17872D01*
G01X14146Y17883D01*
G01X14148Y17894D01*
G01X14149Y17906D01*
G01X14148Y17917D01*
G01X14145Y17929D01*
G01X14140Y17941D01*
G01X14133Y17953D01*
G01X14124Y17965D01*
G01X14113Y17976D01*
G01X14100Y17988D01*
G01X14085Y17999D01*
G01X14068Y18009D01*
G01X14048Y18020D01*
G01X14027Y18030D01*
G01X14003Y18039D01*
G01X13941Y18063D01*
G01X14012Y18063D01*
G01X14038Y18065D01*
G01X14059Y18070D01*
G01X14073Y18077D01*
G01X14083Y18087D01*
G01X14086Y18099D01*
G01X14084Y18112D01*
G01X14075Y18127D01*
G01X14060Y18143D01*
G01X14044Y18151D01*
G01X14022Y18156D01*
G37*

%LPC*%
G36*
G01X13949Y17944D02*
G01X13928Y17949D01*
G01X13916Y17943D01*
G01X13912Y17927D01*
G01X13921Y17909D01*
G01X13942Y17896D01*
G01X13968Y17890D01*
G01X13993Y17895D01*
G01X13999Y17901D01*
G01X13998Y17909D01*
G01X13992Y17918D01*
G01X13978Y17928D01*
G01X13949Y17944D01*
G37*

%LPD*%
G36*
G01X13678Y18316D02*
G01X13664Y18320D01*
G01X13650Y18319D01*
G01X13637Y18316D01*
G01X13626Y18308D01*
G01X13615Y18297D01*
G01X13606Y18282D01*
G01X13598Y18265D01*
G01X13592Y18244D01*
G01X13588Y18219D01*
G01X13585Y18192D01*
G01X13580Y18077D01*
G01X13534Y18111D01*
G01X13513Y18125D01*
G01X13493Y18135D01*
G01X13474Y18141D01*
G01X13456Y18144D01*
G01X13439Y18142D01*
G01X13424Y18137D01*
G01X13411Y18128D01*
G01X13401Y18115D01*
G01X13394Y18099D01*
G01X13396Y18084D01*
G01X13408Y18069D01*
G01X13431Y18051D01*
G01X13480Y18017D01*
G01X13446Y17942D01*
G01X13432Y17913D01*
G01X13418Y17887D01*
G01X13406Y17868D01*
G01X13397Y17859D01*
G01X13385Y17850D01*
G01X13378Y17839D01*
G01X13377Y17828D01*
G01X13382Y17815D01*
G01X13391Y17804D01*
G01X13404Y17794D01*
G01X13421Y17786D01*
G01X13441Y17781D01*
G01X13465Y17777D01*
G01X13484Y17776D01*
G01X13498Y17778D01*
G01X13510Y17784D01*
G01X13521Y17796D01*
G01X13531Y17813D01*
G01X13541Y17837D01*
G01X13553Y17869D01*
G01X13580Y17942D01*
G01X13586Y17865D01*
G01X13590Y17820D01*
G01X13599Y17797D01*
G01X13619Y17788D01*
G01X13657Y17787D01*
G01X13722Y17787D01*
G01X13722Y18134D01*
G01X13721Y18164D01*
G01X13720Y18191D01*
G01X13719Y18216D01*
G01X13718Y18238D01*
G01X13716Y18257D01*
G01X13715Y18273D01*
G01X13713Y18285D01*
G01X13710Y18297D01*
G01X13694Y18309D01*
G01X13678Y18316D01*
G37*

%LPD*%
G36*
G01X12245Y18308D02*
G01X12071Y18308D01*
G01X12041Y18307D01*
G01X12012Y18306D01*
G01X11985Y18304D01*
G01X11959Y18301D01*
G01X11934Y18297D01*
G01X11911Y18293D01*
G01X11889Y18288D01*
G01X11869Y18282D01*
G01X11850Y18276D01*
G01X11833Y18269D01*
G01X11818Y18261D01*
G01X11804Y18252D01*
G01X11792Y18244D01*
G01X11781Y18234D01*
G01X11772Y18224D01*
G01X11765Y18214D01*
G01X11760Y18203D01*
G01X11756Y18192D01*
G01X11754Y18180D01*
G01X11754Y18168D01*
G01X11756Y18156D01*
G01X11760Y18143D01*
G01X11765Y18130D01*
G01X11773Y18117D01*
G01X11782Y18103D01*
G01X11794Y18089D01*
G01X11807Y18075D01*
G01X11823Y18061D01*
G01X11845Y18041D01*
G01X11863Y18023D01*
G01X11875Y18009D01*
G01X11880Y18001D01*
G01X11875Y17989D01*
G01X11863Y17965D01*
G01X11845Y17933D01*
G01X11823Y17896D01*
G01X11799Y17856D01*
G01X11782Y17826D01*
G01X11773Y17803D01*
G01X11771Y17788D01*
G01X11777Y17779D01*
G01X11790Y17773D01*
G01X11812Y17771D01*
G01X11867Y17771D01*
G01X11886Y17773D01*
G01X11901Y17777D01*
G01X11914Y17784D01*
G01X11926Y17796D01*
G01X11938Y17813D01*
G01X11952Y17837D01*
G01X11968Y17869D01*
G01X11984Y17897D01*
G01X11998Y17921D01*
G01X12012Y17939D01*
G01X12023Y17953D01*
G01X12034Y17961D01*
G01X12043Y17965D01*
G01X12052Y17963D01*
G01X12058Y17956D01*
G01X12063Y17944D01*
G01X12067Y17928D01*
G01X12069Y17905D01*
G01X12070Y17878D01*
G01X12071Y17831D01*
G01X12077Y17803D01*
G01X12091Y17789D01*
G01X12116Y17781D01*
G01X12134Y17777D01*
G01X12150Y17775D01*
G01X12164Y17773D01*
G01X12177Y17774D01*
G01X12187Y17776D01*
G01X12196Y17781D01*
G01X12203Y17788D01*
G01X12209Y17798D01*
G01X12214Y17810D01*
G01X12217Y17826D01*
G01X12219Y17846D01*
G01X12221Y17869D01*
G01X12222Y17896D01*
G01X12221Y17928D01*
G01X12221Y17964D01*
G01X12220Y18005D01*
G01X12219Y18034D01*
G01X12219Y18119D01*
G01X12220Y18144D01*
G01X12220Y18169D01*
G01X12221Y18191D01*
G01X12223Y18211D01*
G01X12224Y18229D01*
G01X12226Y18244D01*
G01X12227Y18255D01*
G01X12230Y18263D01*
G01X12245Y18308D01*
G37*

%LPC*%
G36*
G01X12029Y18211D02*
G01X12009Y18214D01*
G01X11985Y18211D01*
G01X11960Y18203D01*
G01X11932Y18187D01*
G01X11920Y18176D01*
G01X11915Y18162D01*
G01X11918Y18148D01*
G01X11928Y18133D01*
G01X11943Y18119D01*
G01X11964Y18106D01*
G01X11989Y18095D01*
G01X12018Y18087D01*
G01X12047Y18082D01*
G01X12063Y18087D01*
G01X12069Y18106D01*
G01X12070Y18143D01*
G01X12067Y18168D01*
G01X12059Y18188D01*
G01X12046Y18203D01*
G01X12029Y18211D01*
G37*

%LPD*%
G36*
G01X12603Y18310D02*
G01X12572Y18310D01*
G01X12539Y18309D01*
G01X12506Y18307D01*
G01X12474Y18305D01*
G01X12444Y18301D01*
G01X12415Y18297D01*
G01X12390Y18292D01*
G01X12369Y18286D01*
G01X12353Y18280D01*
G01X12331Y18265D01*
G01X12314Y18248D01*
G01X12303Y18228D01*
G01X12297Y18206D01*
G01X12297Y18183D01*
G01X12303Y18161D01*
G01X12314Y18140D01*
G01X12332Y18120D01*
G01X12350Y18102D01*
G01X12354Y18088D01*
G01X12343Y18073D01*
G01X12313Y18051D01*
G01X12298Y18038D01*
G01X12285Y18026D01*
G01X12275Y18013D01*
G01X12267Y18001D01*
G01X12261Y17987D01*
G01X12257Y17974D01*
G01X12256Y17961D01*
G01X12256Y17947D01*
G01X12259Y17934D01*
G01X12263Y17920D01*
G01X12269Y17907D01*
G01X12277Y17894D01*
G01X12286Y17882D01*
G01X12298Y17869D01*
G01X12310Y17858D01*
G01X12325Y17846D01*
G01X12340Y17836D01*
G01X12376Y17816D01*
G01X12396Y17807D01*
G01X12417Y17799D01*
G01X12439Y17792D01*
G01X12463Y17786D01*
G01X12487Y17781D01*
G01X12512Y17777D01*
G01X12538Y17773D01*
G01X12565Y17771D01*
G01X12697Y17771D01*
G01X12697Y18072D01*
G01X12698Y18102D01*
G01X12699Y18130D01*
G01X12700Y18155D01*
G01X12702Y18178D01*
G01X12704Y18198D01*
G01X12706Y18215D01*
G01X12708Y18230D01*
G01X12710Y18240D01*
G01X12713Y18247D01*
G01X12716Y18251D01*
G01X12723Y18257D01*
G01X12729Y18265D01*
G01X12733Y18274D01*
G01X12735Y18284D01*
G01X12731Y18291D01*
G01X12721Y18296D01*
G01X12706Y18301D01*
G01X12685Y18304D01*
G01X12661Y18307D01*
G01X12633Y18309D01*
G01X12603Y18310D01*
G37*

%LPC*%
G36*
G01X12524Y18208D02*
G01X12507Y18210D01*
G01X12492Y18209D01*
G01X12480Y18206D01*
G01X12472Y18201D01*
G01X12469Y18195D01*
G01X12473Y18171D01*
G01X12484Y18150D01*
G01X12500Y18134D01*
G01X12518Y18129D01*
G01X12529Y18132D01*
G01X12537Y18140D01*
G01X12543Y18153D01*
G01X12545Y18169D01*
G01X12543Y18188D01*
G01X12536Y18201D01*
G01X12524Y18208D01*
G37*
G36*
G01X12526Y18012D02*
G01X12514Y18012D01*
G01X12496Y18010D01*
G01X12473Y18005D01*
G01X12456Y17999D01*
G01X12444Y17990D01*
G01X12436Y17980D01*
G01X12432Y17968D01*
G01X12433Y17955D01*
G01X12439Y17941D01*
G01X12449Y17927D01*
G01X12464Y17914D01*
G01X12488Y17897D01*
G01X12507Y17885D01*
G01X12522Y17879D01*
G01X12531Y17878D01*
G01X12538Y17884D01*
G01X12542Y17896D01*
G01X12544Y17915D01*
G01X12545Y17941D01*
G01X12544Y17967D01*
G01X12543Y17986D01*
G01X12540Y17999D01*
G01X12535Y18008D01*
G01X12526Y18012D01*
G37*

%LPD*%
G36*
G01X14257Y18308D02*
G01X14169Y18308D01*
G01X14169Y17779D01*
G01X14291Y17769D01*
G01X14296Y17945D01*
G01X14302Y18121D01*
G01X14349Y17995D01*
G01X14358Y17973D01*
G01X14368Y17954D01*
G01X14377Y17938D01*
G01X14388Y17923D01*
G01X14399Y17911D01*
G01X14410Y17901D01*
G01X14422Y17894D01*
G01X14433Y17888D01*
G01X14445Y17885D01*
G01X14457Y17884D01*
G01X14468Y17885D01*
G01X14480Y17888D01*
G01X14491Y17893D01*
G01X14502Y17900D01*
G01X14513Y17909D01*
G01X14523Y17920D01*
G01X14533Y17933D01*
G01X14542Y17948D01*
G01X14551Y17965D01*
G01X14559Y17984D01*
G01X14566Y18004D01*
G01X14572Y18026D01*
G01X14577Y18051D01*
G01X14581Y18076D01*
G01X14582Y18079D01*
G01X14583Y18075D01*
G01X14585Y18064D01*
G01X14586Y18048D01*
G01X14589Y18028D01*
G01X14591Y18003D01*
G01X14593Y17974D01*
G01X14595Y17942D01*
G01X14606Y17779D01*
G01X14754Y17769D01*
G01X14738Y17920D01*
G01X14733Y17963D01*
G01X14730Y18003D01*
G01X14727Y18041D01*
G01X14725Y18075D01*
G01X14724Y18107D01*
G01X14723Y18136D01*
G01X14724Y18162D01*
G01X14725Y18186D01*
G01X14727Y18209D01*
G01X14730Y18229D01*
G01X14734Y18247D01*
G01X14738Y18263D01*
G01X14753Y18308D01*
G01X14526Y18308D01*
G01X14500Y18238D01*
G01X14486Y18203D01*
G01X14473Y18173D01*
G01X14460Y18147D01*
G01X14449Y18127D01*
G01X14439Y18113D01*
G01X14432Y18107D01*
G01X14427Y18108D01*
G01X14425Y18118D01*
G01X14424Y18143D01*
G01X14419Y18167D01*
G01X14411Y18190D01*
G01X14402Y18212D01*
G01X14389Y18232D01*
G01X14375Y18251D01*
G01X14359Y18267D01*
G01X14340Y18281D01*
G01X14321Y18292D01*
G01X14301Y18301D01*
G01X14279Y18306D01*
G01X14257Y18308D01*
G37*

%LPD*%
G54D43*
G01X15481Y13692D02*
G01X14961Y13692D01*
G01X14961Y14507D01*
G01X15481Y14507D01*
G01X15927Y13692D02*
G01X16446Y13692D01*
G01X16446Y14507D01*
G01X15927Y14507D01*
G01X15918Y13507D02*
G01X16438Y13507D01*
G01X16438Y12692D01*
G01X15918Y12692D01*
G01X15472Y13507D02*
G01X14953Y13507D01*
G01X14953Y12692D01*
G01X15472Y12692D01*
G01X15918Y12507D02*
G01X16438Y12507D01*
G01X16438Y11692D01*
G01X15918Y11692D01*
G01X15472Y12507D02*
G01X14953Y12507D01*
G01X14953Y11692D01*
G01X15472Y11692D01*
G01X4707Y1781D02*
G01X4707Y1261D01*
G01X3892Y1261D01*
G01X3892Y1781D01*
G01X4707Y2227D02*
G01X4707Y2746D01*
G01X3892Y2746D01*
G01X3892Y2227D01*
G54D37*
G01X18799Y4599D02*
G01X19562Y4599D01*
G01X19162Y4599D02*
G01X19090Y4526D01*
G01X19053Y4453D01*
G01X19053Y4344D01*
G01X19090Y4271D01*
G01X19162Y4199D01*
G01X19271Y4162D01*
G01X19344Y4162D01*
G01X19453Y4199D01*
G01X19526Y4271D01*
G01X19562Y4344D01*
G01X19562Y4453D01*
G01X19526Y4526D01*
G01X19453Y4599D01*
G01X19053Y3886D02*
G01X19562Y3668D01*
G01X19053Y3450D02*
G01X19562Y3668D01*
G01X19708Y3740D01*
G01X19780Y3813D01*
G01X19817Y3886D01*
G01X19817Y3922D01*
G01X18799Y2650D02*
G01X19562Y2650D01*
G01X18799Y2650D02*
G01X19562Y2359D01*
G01X18799Y2068D02*
G01X19562Y2359D01*
G01X18799Y2068D02*
G01X19562Y2068D01*
G01X18799Y1828D02*
G01X19562Y1828D01*
G01X18799Y1828D02*
G01X18799Y1500D01*
G01X18835Y1391D01*
G01X18871Y1355D01*
G01X18944Y1319D01*
G01X19017Y1319D01*
G01X19090Y1355D01*
G01X19126Y1391D01*
G01X19162Y1500D01*
G01X19162Y1828D02*
G01X19162Y1500D01*
G01X19199Y1391D01*
G01X19235Y1355D01*
G01X19308Y1319D01*
G01X19417Y1319D01*
G01X19490Y1355D01*
G01X19526Y1391D01*
G01X19562Y1500D01*
G01X19562Y1828D01*
G01X18799Y1079D02*
G01X19562Y1079D01*
G01X18799Y1079D02*
G01X18799Y751D01*
G01X18835Y642D01*
G01X18871Y606D01*
G01X18944Y570D01*
G01X19017Y570D01*
G01X19090Y606D01*
G01X19126Y642D01*
G01X19162Y751D01*
G01X19162Y1079D01*
G01X19162Y824D02*
G01X19562Y570D01*
G54D42*
G01X16836Y14098D02*
G01X16857Y14139D01*
G01X16898Y14180D01*
G01X16938Y14200D01*
G01X17020Y14200D01*
G01X17061Y14180D01*
G01X17102Y14139D01*
G01X17123Y14098D01*
G01X17143Y14037D01*
G01X17143Y13935D01*
G01X17123Y13873D01*
G01X17102Y13832D01*
G01X17061Y13791D01*
G01X17020Y13771D01*
G01X16938Y13771D01*
G01X16898Y13791D01*
G01X16857Y13832D01*
G01X16836Y13873D01*
G01X16701Y14119D02*
G01X16660Y14139D01*
G01X16599Y14200D01*
G01X16599Y13771D01*
G01X17020Y13098D02*
G01X17041Y13139D01*
G01X17082Y13180D01*
G01X17122Y13200D01*
G01X17204Y13200D01*
G01X17245Y13180D01*
G01X17286Y13139D01*
G01X17307Y13098D01*
G01X17327Y13037D01*
G01X17327Y12935D01*
G01X17307Y12873D01*
G01X17286Y12832D01*
G01X17245Y12791D01*
G01X17204Y12771D01*
G01X17122Y12771D01*
G01X17082Y12791D01*
G01X17041Y12832D01*
G01X17020Y12873D01*
G01X16865Y13098D02*
G01X16865Y13119D01*
G01X16844Y13160D01*
G01X16824Y13180D01*
G01X16783Y13200D01*
G01X16701Y13200D01*
G01X16660Y13180D01*
G01X16640Y13160D01*
G01X16619Y13119D01*
G01X16619Y13078D01*
G01X16640Y13037D01*
G01X16681Y12975D01*
G01X16885Y12771D01*
G01X16599Y12771D01*
G01X17020Y12098D02*
G01X17041Y12139D01*
G01X17082Y12180D01*
G01X17122Y12200D01*
G01X17204Y12200D01*
G01X17245Y12180D01*
G01X17286Y12139D01*
G01X17307Y12098D01*
G01X17327Y12037D01*
G01X17327Y11935D01*
G01X17307Y11873D01*
G01X17286Y11832D01*
G01X17245Y11791D01*
G01X17204Y11771D01*
G01X17122Y11771D01*
G01X17082Y11791D01*
G01X17041Y11832D01*
G01X17020Y11873D01*
G01X16844Y12200D02*
G01X16619Y12200D01*
G01X16742Y12037D01*
G01X16681Y12037D01*
G01X16640Y12016D01*
G01X16619Y11996D01*
G01X16599Y11935D01*
G01X16599Y11894D01*
G01X16619Y11832D01*
G01X16660Y11791D01*
G01X16722Y11771D01*
G01X16783Y11771D01*
G01X16844Y11791D01*
G01X16865Y11812D01*
G01X16885Y11853D01*
G01X5226Y2457D02*
G01X5267Y2436D01*
G01X5308Y2396D01*
G01X5328Y2355D01*
G01X5328Y2273D01*
G01X5308Y2232D01*
G01X5267Y2192D01*
G01X5226Y2171D01*
G01X5165Y2151D01*
G01X5063Y2151D01*
G01X5001Y2171D01*
G01X4960Y2192D01*
G01X4919Y2232D01*
G01X4899Y2273D01*
G01X4899Y2355D01*
G01X4919Y2396D01*
G01X4960Y2436D01*
G01X5001Y2457D01*
G01X5328Y2796D02*
G01X5042Y2592D01*
G01X5042Y2900D01*
G01X5328Y2796D02*
G01X4899Y2796D01*
M00*
M02*
