G04 Layer: TopSilkLayer*
G04 EasyEDA v6.4.0, 2020-08-15T23:10:14+05:30*
G04 5cc65f200d574341adaaee413559fcb0,ac1a8ddbb09a48189df0a8a7e8d705f5,10*
G04 Gerber Generator version 0.2*
G04 Scale: 100 percent, Rotated: No, Reflected: No *
G04 Dimensions in inches *
G04 leading zeros omitted , absolute positions ,2 integer and 4 decimal *
%FSLAX24Y24*%
%MOIN*%
G90*
G70D02*

%ADD10C,0.010000*%
%ADD34C,0.005905*%
%ADD35C,0.009000*%
%ADD36C,0.007874*%
%ADD37C,0.008000*%
%ADD38C,0.015748*%
%ADD39C,0.009842*%
%ADD40C,0.023622*%
%ADD41C,0.011811*%
%ADD42C,0.007000*%

%LPD*%
G54D10*
G01X7963Y24702D02*
G01X12136Y24702D01*
G01X12136Y22813D01*
G01X7963Y22813D01*
G01X7963Y24702D01*
G01X12136Y24505D02*
G01X7963Y24505D01*
G54D34*
G01X26250Y9100D02*
G01X27600Y9100D01*
G01X26250Y5300D02*
G01X27600Y5300D01*
G01X25800Y9300D02*
G01X25800Y5100D01*
G01X26200Y7900D02*
G01X25700Y7900D01*
G01X26200Y6500D02*
G01X25700Y6500D01*
G01X26250Y5100D02*
G01X26250Y9300D01*
G01X25700Y5100D02*
G01X25700Y9300D01*
G01X27600Y9300D01*
G01X27600Y5100D01*
G01X25700Y5100D01*
G54D10*
G01X32710Y225D02*
G01X32710Y3965D01*
G01X29527Y225D02*
G01X29527Y3965D01*
G01X32686Y3965D02*
G01X29538Y3965D01*
G01X32686Y225D02*
G01X29538Y225D01*
G01X32686Y619D02*
G01X29538Y619D01*
G01X16939Y26319D02*
G01X16939Y24036D01*
G01X16939Y26319D02*
G01X19893Y26319D01*
G01X19900Y26319D02*
G01X19900Y24040D01*
G01X16947Y24040D02*
G01X19900Y24040D01*
G01X17180Y26069D02*
G01X19650Y26069D01*
G01X19650Y24280D01*
G01X19880Y26309D02*
G01X19880Y26280D01*
G01X19639Y26040D01*
G01X16950Y26309D02*
G01X16950Y26280D01*
G01X17189Y26040D01*
G01X17180Y25409D02*
G01X19650Y25409D01*
G01X17180Y25200D02*
G01X19650Y25200D01*
G01X16939Y24619D02*
G01X17169Y24619D01*
G01X19660Y24550D02*
G01X19889Y24550D01*
G01X17430Y24050D02*
G01X17430Y24280D01*
G01X19650Y24280D02*
G01X17180Y24280D01*
G01X17180Y24280D02*
G01X17180Y26059D01*
G01X17189Y26059D01*
G01X17735Y24044D02*
G01X17735Y24275D01*
G01X19100Y24050D02*
G01X19100Y24280D01*
G01X19405Y24044D02*
G01X19405Y24275D01*
G01X13539Y26319D02*
G01X13539Y24036D01*
G01X13539Y26319D02*
G01X16493Y26319D01*
G01X16500Y26319D02*
G01X16500Y24040D01*
G01X13547Y24040D02*
G01X16500Y24040D01*
G01X13780Y26069D02*
G01X16250Y26069D01*
G01X16250Y24280D01*
G01X16480Y26309D02*
G01X16480Y26280D01*
G01X16239Y26040D01*
G01X13550Y26309D02*
G01X13550Y26280D01*
G01X13789Y26040D01*
G01X13780Y25409D02*
G01X16250Y25409D01*
G01X13780Y25200D02*
G01X16250Y25200D01*
G01X13539Y24619D02*
G01X13769Y24619D01*
G01X16260Y24550D02*
G01X16489Y24550D01*
G01X14030Y24050D02*
G01X14030Y24280D01*
G01X16250Y24280D02*
G01X13780Y24280D01*
G01X13780Y24280D02*
G01X13780Y26059D01*
G01X13789Y26059D01*
G01X14335Y24044D02*
G01X14335Y24275D01*
G01X15700Y24050D02*
G01X15700Y24280D01*
G01X16005Y24044D02*
G01X16005Y24275D01*
G01X11900Y5300D02*
G01X11750Y5300D01*
G01X11600Y5300D01*
G01X11750Y5300D01*
G01X11400Y4900D02*
G01X11400Y7900D01*
G01X13300Y7900D01*
G01X13150Y7700D01*
G01X13150Y5100D01*
G01X13300Y4900D01*
G01X13200Y4900D01*
G01X11400Y4900D01*
G01X12269Y11119D02*
G01X14553Y11119D01*
G01X12269Y11119D02*
G01X12269Y16080D01*
G01X12469Y11390D02*
G01X14360Y11390D01*
G01X13519Y12909D02*
G01X13689Y12909D01*
G01X14560Y11119D02*
G01X14560Y16080D01*
G01X12280Y16090D02*
G01X14560Y16090D01*
G01X12480Y15850D02*
G01X14369Y15850D01*
G01X14369Y15330D02*
G01X14369Y15850D01*
G01X14369Y15330D02*
G01X14539Y15330D01*
G01X14369Y11909D02*
G01X14369Y11390D01*
G01X14369Y11909D02*
G01X14539Y11909D01*
G01X14360Y12490D02*
G01X14360Y14650D01*
G01X14360Y12480D02*
G01X14530Y12480D01*
G01X14360Y14659D02*
G01X14530Y14659D01*
G01X14730Y14650D02*
G01X14730Y12490D01*
G01X14730Y14659D02*
G01X14560Y14659D01*
G01X14730Y12480D02*
G01X14560Y12480D01*
G01X12469Y11390D02*
G01X12469Y15850D01*
G01X8430Y10440D02*
G01X9369Y10440D01*
G01X9369Y10440D02*
G01X9369Y7959D01*
G01X9369Y7959D02*
G01X8430Y7959D01*
G01X8430Y7959D02*
G01X8430Y10440D01*
G01X8530Y16240D02*
G01X9469Y16240D01*
G01X9469Y16240D02*
G01X9469Y13759D01*
G01X9469Y13759D02*
G01X8530Y13759D01*
G01X8530Y13759D02*
G01X8530Y16240D01*
G01X9960Y2530D02*
G01X9960Y3469D01*
G01X9960Y3469D02*
G01X12439Y3469D01*
G01X12439Y3469D02*
G01X12439Y2530D01*
G01X12439Y2530D02*
G01X9960Y2530D01*
G01X3300Y21780D02*
G01X3300Y22180D01*
G01X3100Y21980D02*
G01X3500Y21980D01*
G01X15360Y16330D02*
G01X15360Y17269D01*
G01X15360Y17269D02*
G01X17839Y17269D01*
G01X17839Y17269D02*
G01X17839Y16330D01*
G01X17839Y16330D02*
G01X15360Y16330D01*
G01X22830Y9040D02*
G01X23769Y9040D01*
G01X23769Y9040D02*
G01X23769Y6559D01*
G01X23769Y6559D02*
G01X22830Y6559D01*
G01X22830Y6559D02*
G01X22830Y9040D01*
G01X9469Y18859D02*
G01X8530Y18859D01*
G01X8530Y18859D02*
G01X8530Y21340D01*
G01X8530Y21340D02*
G01X9469Y21340D01*
G01X9469Y21340D02*
G01X9469Y18859D01*
G01X23569Y19559D02*
G01X22630Y19559D01*
G01X22630Y19559D02*
G01X22630Y22040D01*
G01X22630Y22040D02*
G01X23569Y22040D01*
G01X23569Y22040D02*
G01X23569Y19559D01*
G01X22160Y14630D02*
G01X22160Y15569D01*
G01X22160Y15569D02*
G01X24639Y15569D01*
G01X24639Y15569D02*
G01X24639Y14630D01*
G01X24639Y14630D02*
G01X22160Y14630D01*
G54D35*
G01X18100Y22359D02*
G01X16050Y22359D01*
G01X16050Y23440D01*
G01X18100Y23440D01*
G01X18100Y22359D01*
G01X16300Y22359D02*
G01X16300Y23440D01*
G54D10*
G01X31400Y10553D02*
G01X31400Y4846D01*
G01X31400Y4846D02*
G01X29400Y4846D01*
G01X29400Y4846D02*
G01X29400Y10553D01*
G01X29400Y10553D02*
G01X31400Y10553D01*
G54D36*
G01X20150Y10750D02*
G01X19356Y10750D01*
G01X19356Y7700D01*
G01X21443Y7700D01*
G01X21443Y10750D01*
G01X20650Y10750D01*
G54D10*
G01X6369Y5259D02*
G01X5430Y5259D01*
G01X5430Y5259D02*
G01X5430Y7740D01*
G01X5430Y7740D02*
G01X6369Y7740D01*
G01X6369Y7740D02*
G01X6369Y5259D01*
G01X27550Y3950D02*
G01X25600Y4050D01*
G01X25600Y5030D01*
G01X25010Y5030D01*
G01X27500Y1980D02*
G01X26660Y2209D01*
G01X26619Y2130D01*
G01X27639Y709D01*
G01X27630Y2500D02*
G01X25969Y3159D01*
G01X25969Y3269D01*
G01X27580Y3450D01*
G01X27300Y350D02*
G01X26400Y1390D01*
G01X26330Y1340D01*
G01X26500Y650D01*
G01X23050Y10450D02*
G01X25000Y10350D01*
G01X25000Y4050D01*
G01X23050Y3950D01*
G01X23100Y12419D02*
G01X23939Y12190D01*
G01X23980Y12269D01*
G01X22960Y13690D01*
G01X22969Y11900D02*
G01X24630Y11240D01*
G01X24630Y11130D01*
G01X23030Y10950D01*
G01X23300Y14050D02*
G01X24100Y13109D01*
G01X24169Y13159D01*
G01X24100Y13750D01*
G01X23100Y1980D02*
G01X23989Y2209D01*
G01X24030Y2130D01*
G01X22960Y709D01*
G01X22969Y2500D02*
G01X24630Y3159D01*
G01X24630Y3269D01*
G01X23039Y3450D01*
G01X23300Y350D02*
G01X24200Y1390D01*
G01X24269Y1340D01*
G01X24100Y650D01*
G01X27550Y10450D02*
G01X25600Y10350D01*
G01X25600Y9369D01*
G01X25600Y5030D01*
G01X27500Y12419D02*
G01X26660Y12190D01*
G01X26619Y12269D01*
G01X27639Y13690D01*
G01X27630Y11900D02*
G01X25969Y11240D01*
G01X25969Y11130D01*
G01X27569Y10950D01*
G01X27300Y14050D02*
G01X26450Y13109D01*
G01X26380Y13159D01*
G01X26500Y13750D01*
G01X25750Y1250D02*
G01X26050Y440D01*
G01X24850Y1250D02*
G01X24550Y430D01*
G01X25750Y13150D02*
G01X26050Y13969D01*
G01X24850Y13150D02*
G01X24550Y13969D01*
G01X26300Y10100D02*
G01X25700Y10100D01*
G01X25850Y10150D01*
G01X25850Y10200D01*
G01X25650Y10100D01*
G01X25850Y10000D01*
G01X25850Y10050D01*
G01X25850Y10150D01*
G01X25700Y10100D02*
G01X25650Y10100D01*
G01X25850Y10050D01*
G01X25600Y9369D02*
G01X25010Y9369D01*
G01X7637Y24718D02*
G01X7637Y24718D01*
G01X12380Y24718D01*
G01X12559Y22750D01*
G01X12952Y26096D02*
G01X12952Y22750D01*
G01X12952Y28065D02*
G01X12952Y25900D01*
G01X7637Y25506D02*
G01X12362Y25506D01*
G01X12559Y28065D01*
G01X12559Y28065D01*
G01X10787Y28065D02*
G01X10590Y25506D01*
G01X10590Y25506D01*
G01X11181Y28065D02*
G01X11377Y25506D01*
G01X7637Y24718D02*
G01X7637Y24718D01*
G01X7401Y22750D01*
G01X7401Y22750D01*
G01X7015Y26079D02*
G01X7007Y22750D01*
G01X7015Y28048D02*
G01X7015Y25883D01*
G01X7637Y25506D02*
G01X7637Y25506D01*
G01X7409Y28048D01*
G01X7409Y28048D01*
G01X9180Y28048D02*
G01X9409Y25506D01*
G01X9409Y25506D01*
G01X8787Y28048D02*
G01X8622Y25506D01*
G01X29589Y26175D02*
G01X29589Y22434D01*
G01X32772Y26175D02*
G01X32772Y22434D01*
G01X29613Y22434D02*
G01X32761Y22434D01*
G01X29613Y26175D02*
G01X32761Y26175D01*
G01X29613Y25780D02*
G01X32761Y25780D01*
G01X30400Y20300D02*
G01X30400Y21800D01*
G01X28900Y13300D02*
G01X28900Y20300D01*
G01X31900Y20300D01*
G01X31900Y13300D01*
G01X30400Y13300D01*
G01X28900Y13300D01*
G01X30400Y11800D02*
G01X30400Y13300D01*
G01X26451Y25151D02*
G01X24888Y25151D01*
G54D37*
G01X26108Y18128D02*
G01X26108Y17734D01*
G01X26108Y24128D02*
G01X26108Y23734D01*
G01X26305Y23931D02*
G01X25911Y23931D01*
G54D10*
G01X24848Y25309D02*
G01X26451Y25309D01*
G01X26451Y16490D01*
G01X24848Y16490D01*
G01X24848Y25309D01*
G01X21560Y21196D02*
G01X21560Y18363D01*
G01X21560Y21196D02*
G01X19039Y21196D01*
G01X19039Y18363D02*
G01X19039Y21196D01*
G01X19039Y18363D02*
G01X21560Y18363D01*
G01X3630Y12980D02*
G01X1346Y12980D01*
G01X3630Y12980D02*
G01X3630Y8019D01*
G01X3430Y12709D02*
G01X1539Y12709D01*
G01X2380Y11190D02*
G01X2210Y11190D01*
G01X1339Y12980D02*
G01X1339Y8019D01*
G01X3619Y8009D02*
G01X1339Y8009D01*
G01X3419Y8250D02*
G01X1530Y8250D01*
G01X1530Y8769D02*
G01X1530Y8250D01*
G01X1530Y8769D02*
G01X1360Y8769D01*
G01X1530Y12190D02*
G01X1530Y12709D01*
G01X1530Y12190D02*
G01X1360Y12190D01*
G01X1539Y11609D02*
G01X1539Y9450D01*
G01X1539Y11619D02*
G01X1369Y11619D01*
G01X1539Y9440D02*
G01X1369Y9440D01*
G01X1169Y9450D02*
G01X1169Y11609D01*
G01X1169Y9440D02*
G01X1339Y9440D01*
G01X1169Y11619D02*
G01X1339Y11619D01*
G01X3430Y12709D02*
G01X3430Y8250D01*
G01X15200Y1500D02*
G01X17200Y1500D01*
G01X17200Y1500D02*
G01X17200Y5500D01*
G01X15200Y1500D02*
G01X15200Y5500D01*
G01X15200Y5500D02*
G01X15700Y5500D01*
G01X16700Y5500D02*
G01X17200Y5500D01*
G01X12439Y2369D02*
G01X12439Y1430D01*
G01X12439Y1430D02*
G01X9960Y1430D01*
G01X9960Y1430D02*
G01X9960Y2369D01*
G01X9960Y2369D02*
G01X12439Y2369D01*
G01X12439Y4669D02*
G01X12439Y3730D01*
G01X12439Y3730D02*
G01X9960Y3730D01*
G01X9960Y3730D02*
G01X9960Y4669D01*
G01X9960Y4669D02*
G01X12439Y4669D01*
G01X1377Y639D02*
G01X1377Y4576D01*
G01X1377Y4576D02*
G01X3622Y4576D01*
G01X3622Y4576D02*
G01X3622Y639D01*
G01X3622Y639D02*
G01X1377Y639D01*
G01X1380Y4840D02*
G01X3663Y4840D01*
G01X1380Y4840D02*
G01X1380Y7792D01*
G01X1380Y7800D02*
G01X3660Y7800D01*
G01X3660Y4847D02*
G01X3660Y7800D01*
G01X1630Y5080D02*
G01X1630Y7550D01*
G01X3419Y7550D01*
G01X1389Y7780D02*
G01X1419Y7780D01*
G01X1660Y7540D01*
G01X1389Y4850D02*
G01X1419Y4850D01*
G01X1660Y5090D01*
G01X2289Y5080D02*
G01X2289Y7550D01*
G01X2500Y5080D02*
G01X2500Y7550D01*
G01X3080Y4840D02*
G01X3080Y5069D01*
G01X3150Y7559D02*
G01X3150Y7790D01*
G01X3650Y5330D02*
G01X3419Y5330D01*
G01X3419Y7550D02*
G01X3419Y5080D01*
G01X3419Y5080D02*
G01X1639Y5080D01*
G01X1639Y5090D01*
G01X3655Y5634D02*
G01X3425Y5634D01*
G01X3650Y7000D02*
G01X3419Y7000D01*
G01X3655Y7305D02*
G01X3425Y7305D01*
G54D37*
G01X336Y12948D02*
G01X1100Y12948D01*
G01X336Y13457D02*
G01X1100Y13457D01*
G01X700Y12948D02*
G01X700Y13457D01*
G01X590Y13880D02*
G01X627Y13807D01*
G01X700Y13734D01*
G01X809Y13698D01*
G01X881Y13698D01*
G01X990Y13734D01*
G01X1064Y13807D01*
G01X1100Y13880D01*
G01X1100Y13988D01*
G01X1064Y14061D01*
G01X990Y14134D01*
G01X881Y14171D01*
G01X809Y14171D01*
G01X700Y14134D01*
G01X627Y14061D01*
G01X590Y13988D01*
G01X590Y13880D01*
G01X336Y14519D02*
G01X955Y14519D01*
G01X1064Y14555D01*
G01X1100Y14628D01*
G01X1100Y14701D01*
G01X590Y14411D02*
G01X590Y14665D01*
G01X336Y15792D02*
G01X1100Y15501D01*
G01X336Y15792D02*
G01X1100Y16084D01*
G01X846Y15611D02*
G01X846Y15973D01*
G01X336Y16323D02*
G01X372Y16359D01*
G01X336Y16396D01*
G01X300Y16359D01*
G01X336Y16323D01*
G01X590Y16359D02*
G01X1100Y16359D01*
G01X590Y16636D02*
G01X1100Y16636D01*
G01X809Y16636D02*
G01X700Y16673D01*
G01X627Y16744D01*
G01X590Y16817D01*
G01X590Y16927D01*
G01X336Y17727D02*
G01X1100Y17727D01*
G01X336Y17727D02*
G01X336Y18053D01*
G01X372Y18163D01*
G01X409Y18200D01*
G01X481Y18236D01*
G01X555Y18236D01*
G01X627Y18200D01*
G01X664Y18163D01*
G01X700Y18053D01*
G01X700Y17727D01*
G01X700Y17982D02*
G01X1100Y18236D01*
G01X809Y18476D02*
G01X809Y18913D01*
G01X736Y18913D01*
G01X664Y18876D01*
G01X627Y18840D01*
G01X590Y18767D01*
G01X590Y18657D01*
G01X627Y18584D01*
G01X700Y18513D01*
G01X809Y18476D01*
G01X881Y18476D01*
G01X990Y18513D01*
G01X1064Y18584D01*
G01X1100Y18657D01*
G01X1100Y18767D01*
G01X1064Y18840D01*
G01X990Y18913D01*
G01X590Y19153D02*
G01X1100Y19298D01*
G01X590Y19444D02*
G01X1100Y19298D01*
G01X590Y19444D02*
G01X1100Y19588D01*
G01X590Y19734D02*
G01X1100Y19588D01*
G01X590Y20155D02*
G01X627Y20084D01*
G01X700Y20011D01*
G01X809Y19973D01*
G01X881Y19973D01*
G01X990Y20011D01*
G01X1064Y20084D01*
G01X1100Y20155D01*
G01X1100Y20265D01*
G01X1064Y20338D01*
G01X990Y20411D01*
G01X881Y20446D01*
G01X809Y20446D01*
G01X700Y20411D01*
G01X627Y20338D01*
G01X590Y20265D01*
G01X590Y20155D01*
G01X590Y20686D02*
G01X1100Y20686D01*
G01X809Y20686D02*
G01X700Y20723D01*
G01X627Y20796D01*
G01X590Y20869D01*
G01X590Y20978D01*
G01X336Y21217D02*
G01X1100Y21217D01*
G01X590Y21582D02*
G01X955Y21217D01*
G01X809Y21363D02*
G01X1100Y21617D01*
G01X446Y22927D02*
G01X372Y22853D01*
G01X336Y22744D01*
G01X336Y22600D01*
G01X372Y22490D01*
G01X446Y22417D01*
G01X518Y22417D01*
G01X590Y22453D01*
G01X627Y22490D01*
G01X664Y22563D01*
G01X736Y22782D01*
G01X772Y22853D01*
G01X809Y22890D01*
G01X881Y22927D01*
G01X990Y22927D01*
G01X1064Y22853D01*
G01X1100Y22744D01*
G01X1100Y22600D01*
G01X1064Y22490D01*
G01X990Y22417D01*
G01X590Y23603D02*
G01X1100Y23603D01*
G01X700Y23603D02*
G01X627Y23530D01*
G01X590Y23457D01*
G01X590Y23348D01*
G01X627Y23276D01*
G01X700Y23203D01*
G01X809Y23167D01*
G01X881Y23167D01*
G01X990Y23203D01*
G01X1064Y23276D01*
G01X1100Y23348D01*
G01X1100Y23457D01*
G01X1064Y23530D01*
G01X990Y23603D01*
G01X336Y23953D02*
G01X955Y23953D01*
G01X1064Y23988D01*
G01X1100Y24061D01*
G01X1100Y24134D01*
G01X590Y23844D02*
G01X590Y24098D01*
G01X336Y24373D02*
G01X372Y24411D01*
G01X336Y24446D01*
G01X300Y24411D01*
G01X336Y24373D01*
G01X590Y24411D02*
G01X1100Y24411D01*
G01X590Y24869D02*
G01X627Y24796D01*
G01X700Y24723D01*
G01X809Y24686D01*
G01X881Y24686D01*
G01X990Y24723D01*
G01X1064Y24796D01*
G01X1100Y24869D01*
G01X1100Y24978D01*
G01X1064Y25051D01*
G01X990Y25123D01*
G01X881Y25159D01*
G01X809Y25159D01*
G01X700Y25123D01*
G01X627Y25051D01*
G01X590Y24978D01*
G01X590Y24869D01*
G01X590Y25400D02*
G01X1100Y25400D01*
G01X736Y25400D02*
G01X627Y25509D01*
G01X590Y25582D01*
G01X590Y25690D01*
G01X627Y25763D01*
G01X736Y25800D01*
G01X1100Y25800D01*
G54D42*
G01X11468Y22480D02*
G01X11427Y22460D01*
G01X11386Y22419D01*
G01X11365Y22378D01*
G01X11345Y22317D01*
G01X11345Y22215D01*
G01X11365Y22153D01*
G01X11386Y22112D01*
G01X11427Y22071D01*
G01X11468Y22051D01*
G01X11550Y22051D01*
G01X11590Y22071D01*
G01X11631Y22112D01*
G01X11652Y22153D01*
G01X11672Y22215D01*
G01X11672Y22317D01*
G01X11652Y22378D01*
G01X11631Y22419D01*
G01X11590Y22460D01*
G01X11550Y22480D01*
G01X11468Y22480D01*
G01X11529Y22133D02*
G01X11652Y22010D01*
G01X11807Y22399D02*
G01X11848Y22419D01*
G01X11910Y22480D01*
G01X11910Y22051D01*
G01X26868Y9896D02*
G01X26827Y9876D01*
G01X26786Y9834D01*
G01X26765Y9794D01*
G01X26745Y9732D01*
G01X26745Y9630D01*
G01X26765Y9569D01*
G01X26786Y9528D01*
G01X26827Y9486D01*
G01X26868Y9467D01*
G01X26950Y9467D01*
G01X26990Y9486D01*
G01X27031Y9528D01*
G01X27052Y9569D01*
G01X27072Y9630D01*
G01X27072Y9732D01*
G01X27052Y9794D01*
G01X27031Y9834D01*
G01X26990Y9876D01*
G01X26950Y9896D01*
G01X26868Y9896D01*
G01X26929Y9548D02*
G01X27052Y9426D01*
G01X27228Y9794D02*
G01X27228Y9815D01*
G01X27248Y9855D01*
G01X27269Y9876D01*
G01X27310Y9896D01*
G01X27391Y9896D01*
G01X27432Y9876D01*
G01X27453Y9855D01*
G01X27473Y9815D01*
G01X27473Y9773D01*
G01X27453Y9732D01*
G01X27412Y9671D01*
G01X27207Y9467D01*
G01X27494Y9467D01*
G01X31900Y4800D02*
G01X31900Y4371D01*
G01X31900Y4800D02*
G01X32084Y4800D01*
G01X32144Y4780D01*
G01X32165Y4759D01*
G01X32185Y4719D01*
G01X32185Y4657D01*
G01X32165Y4615D01*
G01X32144Y4596D01*
G01X32084Y4575D01*
G01X31900Y4575D01*
G01X32342Y4698D02*
G01X32342Y4719D01*
G01X32361Y4759D01*
G01X32382Y4780D01*
G01X32423Y4800D01*
G01X32505Y4800D01*
G01X32546Y4780D01*
G01X32567Y4759D01*
G01X32586Y4719D01*
G01X32586Y4678D01*
G01X32567Y4636D01*
G01X32526Y4575D01*
G01X32321Y4371D01*
G01X32607Y4371D01*
G01X19500Y23700D02*
G01X19500Y23271D01*
G01X19500Y23700D02*
G01X19684Y23700D01*
G01X19744Y23680D01*
G01X19765Y23659D01*
G01X19785Y23619D01*
G01X19785Y23557D01*
G01X19765Y23515D01*
G01X19744Y23496D01*
G01X19684Y23475D01*
G01X19500Y23475D01*
G01X19961Y23700D02*
G01X20186Y23700D01*
G01X20064Y23536D01*
G01X20126Y23536D01*
G01X20167Y23515D01*
G01X20186Y23496D01*
G01X20207Y23434D01*
G01X20207Y23394D01*
G01X20186Y23332D01*
G01X20146Y23290D01*
G01X20085Y23271D01*
G01X20023Y23271D01*
G01X19961Y23290D01*
G01X19942Y23311D01*
G01X19921Y23353D01*
G01X13600Y23744D02*
G01X13600Y23315D01*
G01X13600Y23744D02*
G01X13784Y23744D01*
G01X13844Y23725D01*
G01X13865Y23705D01*
G01X13885Y23663D01*
G01X13885Y23602D01*
G01X13865Y23561D01*
G01X13844Y23540D01*
G01X13784Y23519D01*
G01X13600Y23519D01*
G01X14226Y23744D02*
G01X14021Y23459D01*
G01X14327Y23459D01*
G01X14226Y23744D02*
G01X14226Y23315D01*
G01X11400Y8500D02*
G01X11400Y8071D01*
G01X11400Y8500D02*
G01X11584Y8500D01*
G01X11644Y8480D01*
G01X11665Y8459D01*
G01X11685Y8419D01*
G01X11685Y8378D01*
G01X11665Y8336D01*
G01X11644Y8315D01*
G01X11584Y8296D01*
G01X11400Y8296D01*
G01X11543Y8296D02*
G01X11685Y8071D01*
G01X11821Y8419D02*
G01X11861Y8438D01*
G01X11923Y8500D01*
G01X11923Y8071D01*
G01X12245Y16636D02*
G01X12245Y16207D01*
G01X12245Y16636D02*
G01X12429Y16636D01*
G01X12490Y16616D01*
G01X12511Y16596D01*
G01X12531Y16555D01*
G01X12531Y16493D01*
G01X12511Y16452D01*
G01X12490Y16432D01*
G01X12429Y16411D01*
G01X12245Y16411D01*
G01X12912Y16636D02*
G01X12707Y16636D01*
G01X12687Y16452D01*
G01X12707Y16473D01*
G01X12769Y16493D01*
G01X12830Y16493D01*
G01X12891Y16473D01*
G01X12932Y16432D01*
G01X12953Y16371D01*
G01X12953Y16330D01*
G01X12932Y16268D01*
G01X12891Y16227D01*
G01X12830Y16207D01*
G01X12769Y16207D01*
G01X12707Y16227D01*
G01X12687Y16248D01*
G01X12666Y16289D01*
G01X7800Y7991D02*
G01X8229Y7991D01*
G01X7800Y7991D02*
G01X7800Y8175D01*
G01X7820Y8236D01*
G01X7840Y8257D01*
G01X7881Y8277D01*
G01X7922Y8277D01*
G01X7963Y8257D01*
G01X7984Y8236D01*
G01X8004Y8175D01*
G01X8004Y7991D01*
G01X8004Y8134D02*
G01X8229Y8277D01*
G01X7800Y8453D02*
G01X7800Y8678D01*
G01X7963Y8556D01*
G01X7963Y8617D01*
G01X7984Y8658D01*
G01X8004Y8678D01*
G01X8065Y8699D01*
G01X8106Y8699D01*
G01X8168Y8678D01*
G01X8209Y8637D01*
G01X8229Y8576D01*
G01X8229Y8515D01*
G01X8209Y8453D01*
G01X8188Y8433D01*
G01X8147Y8412D01*
G01X9600Y15471D02*
G01X10029Y15471D01*
G01X9600Y15471D02*
G01X9600Y15655D01*
G01X9620Y15717D01*
G01X9640Y15738D01*
G01X9681Y15757D01*
G01X9722Y15757D01*
G01X9763Y15738D01*
G01X9784Y15717D01*
G01X9804Y15655D01*
G01X9804Y15471D01*
G01X9804Y15615D02*
G01X10029Y15757D01*
G01X9600Y16098D02*
G01X9886Y15892D01*
G01X9886Y16200D01*
G01X9600Y16098D02*
G01X10029Y16098D01*
G01X10700Y3200D02*
G01X10700Y2771D01*
G01X10700Y3200D02*
G01X10884Y3200D01*
G01X10944Y3180D01*
G01X10965Y3159D01*
G01X10985Y3119D01*
G01X10985Y3078D01*
G01X10965Y3036D01*
G01X10944Y3015D01*
G01X10884Y2996D01*
G01X10700Y2996D01*
G01X10843Y2996D02*
G01X10985Y2771D01*
G01X11367Y3200D02*
G01X11161Y3200D01*
G01X11142Y3015D01*
G01X11161Y3036D01*
G01X11223Y3057D01*
G01X11285Y3057D01*
G01X11346Y3036D01*
G01X11386Y2996D01*
G01X11407Y2934D01*
G01X11407Y2894D01*
G01X11386Y2832D01*
G01X11346Y2790D01*
G01X11285Y2771D01*
G01X11223Y2771D01*
G01X11161Y2790D01*
G01X11142Y2811D01*
G01X11121Y2853D01*
G01X2645Y26234D02*
G01X2645Y25805D01*
G01X2645Y26234D02*
G01X2829Y26234D01*
G01X2890Y26214D01*
G01X2911Y26194D01*
G01X2931Y26153D01*
G01X2931Y26112D01*
G01X2911Y26071D01*
G01X2890Y26050D01*
G01X2829Y26030D01*
G01X2645Y26030D02*
G01X2829Y26030D01*
G01X2890Y26009D01*
G01X2911Y25989D01*
G01X2931Y25948D01*
G01X2931Y25887D01*
G01X2911Y25846D01*
G01X2890Y25825D01*
G01X2829Y25805D01*
G01X2645Y25805D01*
G01X3066Y26234D02*
G01X3066Y25928D01*
G01X3087Y25866D01*
G01X3128Y25825D01*
G01X3189Y25805D01*
G01X3230Y25805D01*
G01X3291Y25825D01*
G01X3332Y25866D01*
G01X3353Y25928D01*
G01X3353Y26234D01*
G01X3774Y26234D02*
G01X3488Y25805D01*
G01X3488Y26234D02*
G01X3774Y26234D01*
G01X3488Y25805D02*
G01X3774Y25805D01*
G01X4195Y26234D02*
G01X3909Y25805D01*
G01X3909Y26234D02*
G01X4195Y26234D01*
G01X3909Y25805D02*
G01X4195Y25805D01*
G01X4330Y26234D02*
G01X4330Y25805D01*
G01X4330Y26234D02*
G01X4596Y26234D01*
G01X4330Y26030D02*
G01X4494Y26030D01*
G01X4330Y25805D02*
G01X4596Y25805D01*
G01X4731Y26234D02*
G01X4731Y25805D01*
G01X4731Y26234D02*
G01X4915Y26234D01*
G01X4977Y26214D01*
G01X4997Y26194D01*
G01X5018Y26153D01*
G01X5018Y26112D01*
G01X4997Y26071D01*
G01X4977Y26050D01*
G01X4915Y26030D01*
G01X4731Y26030D01*
G01X4875Y26030D02*
G01X5018Y25805D01*
G01X5153Y26153D02*
G01X5194Y26173D01*
G01X5255Y26234D01*
G01X5255Y25805D01*
G01X16500Y18044D02*
G01X16500Y17615D01*
G01X16500Y18044D02*
G01X16684Y18044D01*
G01X16744Y18025D01*
G01X16765Y18005D01*
G01X16785Y17963D01*
G01X16785Y17923D01*
G01X16765Y17882D01*
G01X16744Y17861D01*
G01X16684Y17840D01*
G01X16500Y17840D01*
G01X16643Y17840D02*
G01X16785Y17615D01*
G01X17167Y17984D02*
G01X17146Y18025D01*
G01X17085Y18044D01*
G01X17043Y18044D01*
G01X16982Y18025D01*
G01X16942Y17963D01*
G01X16921Y17861D01*
G01X16921Y17759D01*
G01X16942Y17677D01*
G01X16982Y17636D01*
G01X17043Y17615D01*
G01X17064Y17615D01*
G01X17126Y17636D01*
G01X17167Y17677D01*
G01X17186Y17738D01*
G01X17186Y17759D01*
G01X17167Y17819D01*
G01X17126Y17861D01*
G01X17064Y17882D01*
G01X17043Y17882D01*
G01X16982Y17861D01*
G01X16942Y17819D01*
G01X16921Y17759D01*
G01X22000Y6691D02*
G01X22429Y6691D01*
G01X22000Y6691D02*
G01X22000Y6875D01*
G01X22020Y6936D01*
G01X22040Y6957D01*
G01X22081Y6977D01*
G01X22122Y6977D01*
G01X22163Y6957D01*
G01X22184Y6936D01*
G01X22204Y6875D01*
G01X22204Y6691D01*
G01X22204Y6834D02*
G01X22429Y6977D01*
G01X22000Y7399D02*
G01X22429Y7194D01*
G01X22000Y7112D02*
G01X22000Y7399D01*
G01X7900Y19155D02*
G01X8329Y19155D01*
G01X7900Y19155D02*
G01X7900Y19338D01*
G01X7920Y19400D01*
G01X7940Y19421D01*
G01X7981Y19440D01*
G01X8022Y19440D01*
G01X8063Y19421D01*
G01X8084Y19400D01*
G01X8104Y19338D01*
G01X8104Y19155D01*
G01X8104Y19298D02*
G01X8329Y19440D01*
G01X7981Y19576D02*
G01X7961Y19617D01*
G01X7900Y19678D01*
G01X8329Y19678D01*
G01X7900Y19936D02*
G01X7920Y19875D01*
G01X7981Y19834D01*
G01X8084Y19813D01*
G01X8145Y19813D01*
G01X8247Y19834D01*
G01X8309Y19875D01*
G01X8329Y19936D01*
G01X8329Y19977D01*
G01X8309Y20038D01*
G01X8247Y20080D01*
G01X8145Y20100D01*
G01X8084Y20100D01*
G01X7981Y20080D01*
G01X7920Y20038D01*
G01X7900Y19977D01*
G01X7900Y19936D01*
G01X23800Y21338D02*
G01X24229Y21338D01*
G01X23800Y21338D02*
G01X23800Y21522D01*
G01X23820Y21583D01*
G01X23840Y21604D01*
G01X23881Y21624D01*
G01X23922Y21624D01*
G01X23963Y21604D01*
G01X23984Y21583D01*
G01X24004Y21522D01*
G01X24004Y21338D01*
G01X24004Y21481D02*
G01X24229Y21624D01*
G01X23881Y21759D02*
G01X23861Y21800D01*
G01X23800Y21862D01*
G01X24229Y21862D01*
G01X23881Y21997D02*
G01X23861Y22038D01*
G01X23800Y22099D01*
G01X24229Y22099D01*
G01X23300Y16344D02*
G01X23300Y15915D01*
G01X23300Y16344D02*
G01X23484Y16344D01*
G01X23544Y16325D01*
G01X23565Y16305D01*
G01X23585Y16263D01*
G01X23585Y16223D01*
G01X23565Y16182D01*
G01X23544Y16161D01*
G01X23484Y16140D01*
G01X23300Y16140D01*
G01X23443Y16140D02*
G01X23585Y15915D01*
G01X23721Y16263D02*
G01X23761Y16284D01*
G01X23823Y16344D01*
G01X23823Y15915D01*
G01X23978Y16242D02*
G01X23978Y16263D01*
G01X24000Y16305D01*
G01X24019Y16325D01*
G01X24060Y16344D01*
G01X24143Y16344D01*
G01X24184Y16325D01*
G01X24203Y16305D01*
G01X24225Y16263D01*
G01X24225Y16223D01*
G01X24203Y16182D01*
G01X24163Y16119D01*
G01X23959Y15915D01*
G01X24244Y15915D01*
G01X17100Y22044D02*
G01X17100Y21615D01*
G01X17100Y22044D02*
G01X17243Y22044D01*
G01X17305Y22025D01*
G01X17344Y21984D01*
G01X17365Y21942D01*
G01X17385Y21882D01*
G01X17385Y21780D01*
G01X17365Y21717D01*
G01X17344Y21677D01*
G01X17305Y21636D01*
G01X17243Y21615D01*
G01X17100Y21615D01*
G01X17521Y21963D02*
G01X17561Y21984D01*
G01X17623Y22044D01*
G01X17623Y21615D01*
G01X30402Y7878D02*
G01X30361Y7857D01*
G01X30320Y7817D01*
G01X30300Y7776D01*
G01X30300Y7694D01*
G01X30320Y7653D01*
G01X30361Y7613D01*
G01X30402Y7592D01*
G01X30463Y7571D01*
G01X30565Y7571D01*
G01X30627Y7592D01*
G01X30668Y7613D01*
G01X30709Y7653D01*
G01X30729Y7694D01*
G01X30729Y7776D01*
G01X30709Y7817D01*
G01X30668Y7857D01*
G01X30627Y7878D01*
G01X30300Y8259D02*
G01X30300Y8055D01*
G01X30484Y8034D01*
G01X30463Y8055D01*
G01X30443Y8115D01*
G01X30443Y8176D01*
G01X30463Y8238D01*
G01X30504Y8280D01*
G01X30565Y8300D01*
G01X30606Y8300D01*
G01X30668Y8280D01*
G01X30709Y8238D01*
G01X30729Y8176D01*
G01X30729Y8115D01*
G01X30709Y8055D01*
G01X30688Y8034D01*
G01X30647Y8013D01*
G01X19445Y11436D02*
G01X19445Y11130D01*
G01X19465Y11068D01*
G01X19506Y11027D01*
G01X19568Y11007D01*
G01X19609Y11007D01*
G01X19670Y11027D01*
G01X19711Y11068D01*
G01X19731Y11130D01*
G01X19731Y11436D01*
G01X19887Y11334D02*
G01X19887Y11355D01*
G01X19907Y11396D01*
G01X19928Y11416D01*
G01X19969Y11436D01*
G01X20050Y11436D01*
G01X20091Y11416D01*
G01X20112Y11396D01*
G01X20132Y11355D01*
G01X20132Y11314D01*
G01X20112Y11273D01*
G01X20071Y11211D01*
G01X19866Y11007D01*
G01X20153Y11007D01*
G01X6500Y5675D02*
G01X6929Y5675D01*
G01X6500Y5675D02*
G01X6500Y5859D01*
G01X6520Y5919D01*
G01X6540Y5940D01*
G01X6581Y5961D01*
G01X6622Y5961D01*
G01X6663Y5940D01*
G01X6684Y5919D01*
G01X6704Y5859D01*
G01X6704Y5675D01*
G01X6704Y5817D02*
G01X6929Y5961D01*
G01X6581Y6096D02*
G01X6561Y6136D01*
G01X6500Y6198D01*
G01X6929Y6198D01*
G01X6561Y6578D02*
G01X6520Y6559D01*
G01X6500Y6496D01*
G01X6500Y6455D01*
G01X6520Y6394D01*
G01X6581Y6353D01*
G01X6684Y6334D01*
G01X6786Y6334D01*
G01X6868Y6353D01*
G01X6909Y6394D01*
G01X6929Y6455D01*
G01X6929Y6476D01*
G01X6909Y6538D01*
G01X6868Y6578D01*
G01X6806Y6600D01*
G01X6786Y6600D01*
G01X6725Y6578D01*
G01X6684Y6538D01*
G01X6663Y6476D01*
G01X6663Y6455D01*
G01X6684Y6394D01*
G01X6725Y6353D01*
G01X6786Y6334D01*
G01X24300Y4355D02*
G01X24729Y4355D01*
G01X24300Y4640D02*
G01X24586Y4355D01*
G01X24484Y4457D02*
G01X24729Y4640D01*
G01X24300Y4776D02*
G01X24729Y4776D01*
G01X24300Y5063D02*
G01X24586Y4776D01*
G01X24484Y4878D02*
G01X24729Y5063D01*
G01X24381Y5198D02*
G01X24361Y5238D01*
G01X24300Y5300D01*
G01X24729Y5300D01*
G01X6355Y25500D02*
G01X6660Y25500D01*
G01X6722Y25519D01*
G01X6764Y25561D01*
G01X6784Y25623D01*
G01X6784Y25663D01*
G01X6764Y25725D01*
G01X6722Y25765D01*
G01X6660Y25786D01*
G01X6355Y25786D01*
G01X6355Y26167D02*
G01X6355Y25961D01*
G01X6539Y25942D01*
G01X6518Y25961D01*
G01X6497Y26023D01*
G01X6497Y26084D01*
G01X6518Y26146D01*
G01X6559Y26186D01*
G01X6619Y26207D01*
G01X6660Y26207D01*
G01X6722Y26186D01*
G01X6764Y26146D01*
G01X6784Y26084D01*
G01X6784Y26023D01*
G01X6764Y25961D01*
G01X6743Y25942D01*
G01X6702Y25921D01*
G01X32200Y22144D02*
G01X32200Y21715D01*
G01X32200Y22144D02*
G01X32384Y22144D01*
G01X32444Y22125D01*
G01X32465Y22105D01*
G01X32485Y22063D01*
G01X32485Y22002D01*
G01X32465Y21961D01*
G01X32444Y21940D01*
G01X32384Y21919D01*
G01X32200Y21919D01*
G01X32621Y22063D02*
G01X32661Y22084D01*
G01X32723Y22144D01*
G01X32723Y21715D01*
G01X30200Y16535D02*
G01X30629Y16535D01*
G01X30200Y16535D02*
G01X30200Y16719D01*
G01X30220Y16780D01*
G01X30240Y16801D01*
G01X30281Y16821D01*
G01X30322Y16821D01*
G01X30363Y16801D01*
G01X30384Y16780D01*
G01X30404Y16719D01*
G01X30404Y16535D01*
G01X30404Y16678D02*
G01X30629Y16821D01*
G01X30281Y16956D02*
G01X30261Y16997D01*
G01X30200Y17059D01*
G01X30629Y17059D01*
G01X30200Y17398D02*
G01X30486Y17194D01*
G01X30486Y17500D01*
G01X30200Y17398D02*
G01X30629Y17398D01*
G01X25650Y16294D02*
G01X25650Y15865D01*
G01X25650Y16294D02*
G01X25793Y16294D01*
G01X25855Y16275D01*
G01X25894Y16234D01*
G01X25915Y16192D01*
G01X25935Y16132D01*
G01X25935Y16030D01*
G01X25915Y15967D01*
G01X25894Y15926D01*
G01X25855Y15886D01*
G01X25793Y15865D01*
G01X25650Y15865D01*
G01X26092Y16192D02*
G01X26092Y16213D01*
G01X26111Y16255D01*
G01X26132Y16275D01*
G01X26173Y16294D01*
G01X26255Y16294D01*
G01X26296Y16275D01*
G01X26317Y16255D01*
G01X26336Y16213D01*
G01X26336Y16173D01*
G01X26317Y16132D01*
G01X26276Y16069D01*
G01X26071Y15865D01*
G01X26357Y15865D01*
G01X19000Y21900D02*
G01X19000Y21594D01*
G01X19019Y21532D01*
G01X19060Y21490D01*
G01X19122Y21471D01*
G01X19164Y21471D01*
G01X19225Y21490D01*
G01X19265Y21532D01*
G01X19285Y21594D01*
G01X19285Y21900D01*
G01X19461Y21900D02*
G01X19686Y21900D01*
G01X19564Y21736D01*
G01X19626Y21736D01*
G01X19667Y21715D01*
G01X19686Y21696D01*
G01X19707Y21634D01*
G01X19707Y21594D01*
G01X19686Y21532D01*
G01X19646Y21490D01*
G01X19585Y21471D01*
G01X19523Y21471D01*
G01X19461Y21490D01*
G01X19442Y21511D01*
G01X19421Y21553D01*
G01X454Y8855D02*
G01X883Y8855D01*
G01X454Y8855D02*
G01X454Y9039D01*
G01X474Y9100D01*
G01X494Y9121D01*
G01X535Y9141D01*
G01X597Y9141D01*
G01X638Y9121D01*
G01X658Y9100D01*
G01X679Y9039D01*
G01X679Y8855D01*
G01X515Y9522D02*
G01X474Y9501D01*
G01X454Y9440D01*
G01X454Y9399D01*
G01X474Y9338D01*
G01X535Y9297D01*
G01X638Y9276D01*
G01X740Y9276D01*
G01X822Y9297D01*
G01X863Y9338D01*
G01X883Y9399D01*
G01X883Y9420D01*
G01X863Y9481D01*
G01X822Y9522D01*
G01X760Y9542D01*
G01X740Y9542D01*
G01X679Y9522D01*
G01X638Y9481D01*
G01X617Y9420D01*
G01X617Y9399D01*
G01X638Y9338D01*
G01X679Y9297D01*
G01X740Y9276D01*
G01X4300Y19200D02*
G01X4300Y18894D01*
G01X4319Y18832D01*
G01X4360Y18790D01*
G01X4422Y18771D01*
G01X4464Y18771D01*
G01X4525Y18790D01*
G01X4565Y18832D01*
G01X4585Y18894D01*
G01X4585Y19200D01*
G01X4926Y19200D02*
G01X4721Y18913D01*
G01X5027Y18913D01*
G01X4926Y19200D02*
G01X4926Y18771D01*
G01X13823Y5790D02*
G01X13823Y5484D01*
G01X13843Y5421D01*
G01X13884Y5380D01*
G01X13946Y5361D01*
G01X13987Y5361D01*
G01X14048Y5380D01*
G01X14089Y5421D01*
G01X14109Y5484D01*
G01X14109Y5790D01*
G01X14244Y5709D02*
G01X14285Y5728D01*
G01X14347Y5790D01*
G01X14347Y5361D01*
G01X10800Y2100D02*
G01X10800Y1671D01*
G01X10800Y2100D02*
G01X10984Y2100D01*
G01X11044Y2080D01*
G01X11065Y2059D01*
G01X11085Y2019D01*
G01X11085Y1978D01*
G01X11065Y1936D01*
G01X11044Y1915D01*
G01X10984Y1896D01*
G01X10800Y1896D01*
G01X10943Y1896D02*
G01X11085Y1671D01*
G01X11486Y1957D02*
G01X11467Y1896D01*
G01X11426Y1855D01*
G01X11364Y1834D01*
G01X11343Y1834D01*
G01X11282Y1855D01*
G01X11242Y1896D01*
G01X11221Y1957D01*
G01X11221Y1978D01*
G01X11242Y2038D01*
G01X11282Y2080D01*
G01X11343Y2100D01*
G01X11364Y2100D01*
G01X11426Y2080D01*
G01X11467Y2038D01*
G01X11486Y1957D01*
G01X11486Y1855D01*
G01X11467Y1753D01*
G01X11426Y1690D01*
G01X11364Y1671D01*
G01X11323Y1671D01*
G01X11261Y1690D01*
G01X11242Y1732D01*
G01X10500Y4400D02*
G01X10500Y3971D01*
G01X10500Y4400D02*
G01X10684Y4400D01*
G01X10744Y4380D01*
G01X10765Y4359D01*
G01X10785Y4319D01*
G01X10785Y4278D01*
G01X10765Y4236D01*
G01X10744Y4215D01*
G01X10684Y4196D01*
G01X10500Y4196D01*
G01X10643Y4196D02*
G01X10785Y3971D01*
G01X10921Y4319D02*
G01X10961Y4338D01*
G01X11023Y4400D01*
G01X11023Y3971D01*
G01X11200Y4400D02*
G01X11425Y4400D01*
G01X11302Y4236D01*
G01X11363Y4236D01*
G01X11403Y4215D01*
G01X11425Y4196D01*
G01X11444Y4134D01*
G01X11444Y4094D01*
G01X11425Y4032D01*
G01X11384Y3990D01*
G01X11322Y3971D01*
G01X11260Y3971D01*
G01X11200Y3990D01*
G01X11178Y4011D01*
G01X11159Y4053D01*
G01X656Y2907D02*
G01X615Y2886D01*
G01X575Y2844D01*
G01X555Y2805D01*
G01X555Y2723D01*
G01X575Y2682D01*
G01X615Y2640D01*
G01X656Y2619D01*
G01X718Y2600D01*
G01X819Y2600D01*
G01X881Y2619D01*
G01X922Y2640D01*
G01X964Y2682D01*
G01X984Y2723D01*
G01X984Y2805D01*
G01X964Y2844D01*
G01X922Y2886D01*
G01X881Y2907D01*
G01X555Y3042D02*
G01X984Y3042D01*
G01X555Y3042D02*
G01X984Y3328D01*
G01X555Y3328D02*
G01X984Y3328D01*
G01X635Y3463D02*
G01X615Y3503D01*
G01X555Y3565D01*
G01X984Y3565D01*
G01X555Y6300D02*
G01X984Y6300D01*
G01X555Y6300D02*
G01X555Y6484D01*
G01X575Y6544D01*
G01X594Y6565D01*
G01X635Y6586D01*
G01X697Y6586D01*
G01X739Y6565D01*
G01X759Y6544D01*
G01X780Y6484D01*
G01X780Y6300D01*
G01X555Y7007D02*
G01X984Y6803D01*
G01X555Y6721D02*
G01X555Y7007D01*
G54D38*
G75*
G01X8357Y23679D02*
G03X8358Y23679I0J-79D01*
G01*
G54D10*
G75*
G01X11538Y5300D02*
G03X11538Y5304I212J2D01*
G01*
G54D36*
G75*
G01X20150Y10750D02*
G03X20650Y10750I250J0D01*
G01*
G54D39*
G75*
G01X18900Y10761D02*
G03X18901Y10761I1J-49D01*
G01*
G54D40*
G75*
G01X19732Y10518D02*
G03X19734Y10518I1J-118D01*
G01*
G54D10*
G75*
G01X27550Y3950D02*
G02X27550Y3450I0J-250D01*
G01*
G75*
G01X27600Y750D02*
G02X27300Y350I-150J-200D01*
G01*
G75*
G01X27630Y2500D02*
G02X27486Y1984I-100J-250D01*
G01*
G75*
G01X26500Y650D02*
G02X26042Y446I-230J-100D01*
G01*
G75*
G01X23050Y10950D02*
G03X23050Y10450I0J-250D01*
G01*
G75*
G01X23300Y14050D02*
G03X23000Y13650I-149J-201D01*
G01*
G75*
G01X23114Y12416D02*
G03X22970Y11900I-44J-266D01*
G01*
G75*
G01X24558Y13954D02*
G03X24100Y13750I-228J-104D01*
G01*
G75*
G01X23050Y3950D02*
G03X23050Y3450I0J-250D01*
G01*
G75*
G01X23000Y750D02*
G03X23300Y350I151J-199D01*
G01*
G75*
G01X22970Y2500D02*
G03X23114Y1984I100J-250D01*
G01*
G75*
G01X24100Y650D02*
G03X24558Y446I230J-100D01*
G01*
G75*
G01X27550Y10950D02*
G02X27550Y10450I0J-250D01*
G01*
G75*
G01X27300Y14050D02*
G02X27600Y13650I150J-200D01*
G01*
G75*
G01X27486Y12416D02*
G02X27630Y11900I44J-266D01*
G01*
G75*
G01X26042Y13954D02*
G02X26500Y13750I228J-104D01*
G01*
G75*
G01X10786Y28065D02*
G02X11180Y28066I197J47D01*
G01*
G75*
G01X12559Y22750D02*
G03X12952Y22749I196J-50D01*
G01*
G75*
G01X12559Y28065D02*
G02X12953Y28065I197J47D01*
G01*
G75*
G01X9179Y28050D02*
G03X8785Y28051I-197J47D01*
G01*
G75*
G01X7402Y22750D02*
G02X7009Y22749I-196J-50D01*
G01*
G75*
G01X7406Y28050D02*
G03X7012Y28050I-197J47D01*
G01*
G54D37*
G75*
G01X26069Y19680D02*
G03X26069Y19916I-5J118D01*
G01*
G75*
G01X26069Y20152D02*
G03X26069Y19916I5J-118D01*
G01*
G75*
G01X26069Y22152D02*
G03X26069Y21916I5J-118D01*
G01*
G75*
G01X26069Y21680D02*
G03X26069Y21916I-5J118D01*
G01*
G54D40*
G75*
G01X21150Y18600D02*
G03X21148Y18600I-1J118D01*
G01*
G54D41*
G75*
G01X21866Y18257D02*
G03X21865Y18257I-1J59D01*
G01*
G54D10*
G75*
G01X16700Y5500D02*
G02X15700Y5500I-500J0D01*
G01*
G75*
G01X6362Y23080D02*
G03X6362Y23080I-2362J0D01*
G01*
M00*
M02*
