G04 Layer: TopLayer*
G04 EasyEDA v6.4.0, 2020-08-15T23:10:14+05:30*
G04 5cc65f200d574341adaaee413559fcb0,ac1a8ddbb09a48189df0a8a7e8d705f5,10*
G04 Gerber Generator version 0.2*
G04 Scale: 100 percent, Rotated: No, Reflected: No *
G04 Dimensions in inches *
G04 leading zeros omitted , absolute positions ,2 integer and 4 decimal *
%FSLAX24Y24*%
%MOIN*%
G90*
G70D02*

%ADD11C,0.050000*%
%ADD12C,0.059056*%
%ADD13C,0.060000*%
%ADD15C,0.098425*%
%ADD16C,0.070866*%
%ADD17C,0.074000*%
%ADD18C,0.070000*%
%ADD19C,0.085000*%
%ADD21C,0.200000*%
%ADD22C,0.078740*%
%ADD23C,0.100000*%
%ADD25C,0.062992*%
%ADD26R,0.063000X0.063000*%
%ADD27C,0.063000*%
%ADD28R,0.062992X0.062992*%
%ADD29C,0.080000*%
%ADD30C,0.059055*%

%LPD*%
G54D11*
G01X5900Y8500D02*
G01X5900Y9300D01*
G01X5599Y1599D02*
G01X7799Y1599D01*
G01X7800Y1600D01*
G01X5900Y13800D02*
G01X5900Y9300D01*
G01X4100Y3600D02*
G01X5500Y3600D01*
G01X7300Y3600D01*
G01X7300Y16600D01*
G01X7700Y17000D01*
G01X13000Y11100D02*
G01X16600Y11100D01*
G01X17200Y11700D01*
G01X17200Y19700D01*
G54D13*
G01X21000Y24800D03*
G01X21000Y1700D03*
G01X2300Y14500D03*
G36*
G01X8656Y24092D02*
G01X9443Y24092D01*
G01X9443Y23107D01*
G01X8656Y23107D01*
G01X8656Y24092D01*
G37*
G54D15*
G01X30340Y1800D03*
G01X31900Y1794D03*
G54D16*
G01X17900Y25000D03*
G01X18885Y25000D03*
G01X14500Y25000D03*
G01X15485Y25000D03*
G54D13*
G01X12400Y6400D03*
G01X12400Y5400D03*
G01X12360Y7407D03*
G54D16*
G01X13600Y12100D03*
G01X13600Y13084D03*
G01X13600Y14069D03*
G01X13600Y15053D03*
G54D17*
G01X8900Y11200D03*
G01X8900Y7200D03*
G01X9000Y17000D03*
G01X9000Y13000D03*
G01X9200Y3000D03*
G01X13200Y3000D03*
G54D18*
G01X3988Y21588D03*
G01X3988Y24580D03*
G54D17*
G01X14600Y16800D03*
G01X18600Y16800D03*
G01X23300Y9800D03*
G01X23300Y5800D03*
G01X9000Y18100D03*
G01X9000Y22100D03*
G01X23100Y18800D03*
G01X23100Y22800D03*
G01X21400Y15100D03*
G01X25400Y15100D03*
G54D19*
G01X18600Y22900D03*
G01X15550Y22900D03*
G54D16*
G01X30400Y9196D03*
G01X30400Y6203D03*
G36*
G01X18506Y10494D02*
G01X19293Y10494D01*
G01X19293Y9905D01*
G01X18506Y9905D01*
G01X18506Y10494D01*
G37*
G54D17*
G01X5900Y4500D03*
G01X5900Y8500D03*
G54D21*
G01X25300Y2200D03*
G01X25300Y12200D03*
G54D22*
G01X10000Y25901D03*
G54D15*
G01X31959Y24600D03*
G01X30400Y24605D03*
G54D23*
G01X30400Y11800D03*
G01X30400Y21800D03*
G36*
G01X22094Y18465D02*
G01X21505Y18465D01*
G01X21505Y19094D01*
G01X22094Y19094D01*
G01X22094Y18465D01*
G37*
G54D25*
G01X21800Y19780D03*
G01X21800Y20780D03*
G01X18800Y18780D03*
G01X18800Y20780D03*
G01X18800Y19780D03*
G54D16*
G01X2300Y12000D03*
G01X2300Y11015D03*
G01X2300Y10030D03*
G01X2300Y9046D03*
G54D17*
G01X10700Y10000D03*
G01X10700Y11000D03*
G01X10700Y12000D03*
G01X10700Y13000D03*
G01X10700Y14000D03*
G01X10700Y15000D03*
G01X10700Y16000D03*
G01X10700Y17000D03*
G01X10700Y18000D03*
G01X4700Y18000D03*
G01X4700Y17000D03*
G01X4700Y16000D03*
G01X4700Y15000D03*
G01X4700Y14000D03*
G01X4700Y13000D03*
G01X4700Y12000D03*
G01X4700Y11000D03*
G01X4700Y10000D03*
G01X4700Y9000D03*
G01X4700Y8000D03*
G01X4700Y7000D03*
G54D26*
G01X14700Y5000D03*
G54D27*
G01X14700Y4000D03*
G01X14700Y3000D03*
G01X14700Y2000D03*
G01X17700Y2000D03*
G01X17700Y3000D03*
G01X17700Y4000D03*
G01X17700Y5000D03*
G54D17*
G01X13200Y1900D03*
G01X9200Y1900D03*
G01X13200Y4200D03*
G01X9200Y4200D03*
G54D28*
G01X2696Y1600D03*
G54D25*
G01X2697Y2600D03*
G01X2697Y3600D03*
G54D16*
G01X2700Y5800D03*
G01X2700Y6784D03*
G54D12*
G01X13000Y11100D03*
G01X17200Y19700D03*
G01X4100Y3600D03*
G01X7700Y17000D03*
G01X5900Y13800D03*
G01X5599Y1599D03*
G01X7799Y1599D03*
G54D22*
G01X11050Y23698D02*
G01X11050Y23501D01*
G01X10050Y23698D02*
G01X10050Y23501D01*
G54D29*
G01X26800Y7200D02*
G01X27000Y7200D01*
G01X26800Y8200D02*
G01X27000Y8200D01*
G01X26800Y6200D02*
G01X27000Y6200D01*
G54D30*
G01X18801Y9200D02*
G01X18998Y9200D01*
G01X18801Y8200D02*
G01X18998Y8200D01*
G01X21801Y10200D02*
G01X21998Y10200D01*
G01X21801Y9200D02*
G01X21998Y9200D01*
G01X21801Y8200D02*
G01X21998Y8200D01*
G54D22*
G01X25400Y21801D02*
G01X25400Y21998D01*
G01X25400Y23801D02*
G01X25400Y23998D01*
G01X25400Y19801D02*
G01X25400Y19998D01*
G01X25400Y17801D02*
G01X25400Y17998D01*
M00*
M02*
