G04 Layer: BottomLayer*
G04 EasyEDA v6.4.0, 2020-08-15T23:10:14+05:30*
G04 5cc65f200d574341adaaee413559fcb0,ac1a8ddbb09a48189df0a8a7e8d705f5,10*
G04 Gerber Generator version 0.2*
G04 Scale: 100 percent, Rotated: No, Reflected: No *
G04 Dimensions in inches *
G04 leading zeros omitted , absolute positions ,2 integer and 4 decimal *
%FSLAX24Y24*%
%MOIN*%
G90*
G70D02*

%ADD11C,0.050000*%
%ADD12C,0.059056*%
%ADD13C,0.060000*%
%ADD15C,0.098425*%
%ADD16C,0.070866*%
%ADD17C,0.074000*%
%ADD18C,0.070000*%
%ADD19C,0.085000*%
%ADD21C,0.200000*%
%ADD22C,0.078740*%
%ADD23C,0.100000*%
%ADD25C,0.062992*%
%ADD26R,0.063000X0.063000*%
%ADD27C,0.063000*%
%ADD28R,0.062992X0.062992*%
%ADD29C,0.080000*%
%ADD30C,0.059055*%
%ADD31C,0.075000*%

%LPD*%
G36*
G01X19965Y26698D02*
G01X35Y26698D01*
G01X29Y26697D01*
G01X24Y26695D01*
G01X14Y26689D01*
G01X10Y26685D01*
G01X4Y26675D01*
G01X2Y26670D01*
G01X1Y26664D01*
G01X1Y35D01*
G01X2Y29D01*
G01X4Y24D01*
G01X10Y14D01*
G01X14Y10D01*
G01X24Y4D01*
G01X29Y2D01*
G01X35Y1D01*
G01X19965Y1D01*
G01X19971Y2D01*
G01X19976Y4D01*
G01X19986Y10D01*
G01X19990Y14D01*
G01X19996Y24D01*
G01X19998Y29D01*
G01X19999Y35D01*
G01X20000Y40D01*
G01X20000Y26659D01*
G01X19999Y26664D01*
G01X19998Y26670D01*
G01X19996Y26675D01*
G01X19990Y26685D01*
G01X19986Y26689D01*
G01X19976Y26695D01*
G01X19971Y26697D01*
G01X19965Y26698D01*
G37*

%LPC*%
G36*
G01X10021Y26445D02*
G01X9978Y26445D01*
G01X9957Y26444D01*
G01X9935Y26442D01*
G01X9914Y26438D01*
G01X9893Y26435D01*
G01X9872Y26430D01*
G01X9852Y26425D01*
G01X9831Y26419D01*
G01X9811Y26411D01*
G01X9791Y26404D01*
G01X9772Y26395D01*
G01X9752Y26386D01*
G01X9733Y26376D01*
G01X9715Y26365D01*
G01X9679Y26341D01*
G01X9662Y26328D01*
G01X9646Y26315D01*
G01X9630Y26301D01*
G01X9614Y26286D01*
G01X9600Y26270D01*
G01X9585Y26254D01*
G01X9572Y26238D01*
G01X9559Y26221D01*
G01X9535Y26185D01*
G01X9524Y26167D01*
G01X9514Y26148D01*
G01X9505Y26128D01*
G01X9496Y26109D01*
G01X9489Y26089D01*
G01X9481Y26069D01*
G01X9475Y26048D01*
G01X9470Y26028D01*
G01X9465Y26007D01*
G01X9461Y25986D01*
G01X9459Y25965D01*
G01X9456Y25943D01*
G01X9455Y25922D01*
G01X9455Y25879D01*
G01X9456Y25858D01*
G01X9459Y25836D01*
G01X9461Y25815D01*
G01X9465Y25794D01*
G01X9470Y25773D01*
G01X9475Y25753D01*
G01X9481Y25732D01*
G01X9489Y25712D01*
G01X9496Y25692D01*
G01X9505Y25673D01*
G01X9514Y25653D01*
G01X9524Y25634D01*
G01X9535Y25616D01*
G01X9559Y25580D01*
G01X9572Y25563D01*
G01X9585Y25547D01*
G01X9600Y25531D01*
G01X9614Y25515D01*
G01X9630Y25501D01*
G01X9646Y25486D01*
G01X9662Y25473D01*
G01X9679Y25460D01*
G01X9715Y25436D01*
G01X9733Y25425D01*
G01X9752Y25415D01*
G01X9772Y25406D01*
G01X9791Y25397D01*
G01X9811Y25390D01*
G01X9831Y25382D01*
G01X9852Y25376D01*
G01X9872Y25371D01*
G01X9893Y25366D01*
G01X9914Y25363D01*
G01X9935Y25359D01*
G01X9957Y25357D01*
G01X9978Y25356D01*
G01X10021Y25356D01*
G01X10042Y25357D01*
G01X10064Y25359D01*
G01X10085Y25363D01*
G01X10106Y25366D01*
G01X10127Y25371D01*
G01X10147Y25376D01*
G01X10168Y25382D01*
G01X10188Y25390D01*
G01X10208Y25397D01*
G01X10227Y25406D01*
G01X10247Y25415D01*
G01X10266Y25425D01*
G01X10284Y25436D01*
G01X10320Y25460D01*
G01X10337Y25473D01*
G01X10353Y25486D01*
G01X10369Y25501D01*
G01X10385Y25515D01*
G01X10400Y25531D01*
G01X10414Y25547D01*
G01X10427Y25563D01*
G01X10440Y25580D01*
G01X10464Y25616D01*
G01X10475Y25634D01*
G01X10485Y25653D01*
G01X10494Y25673D01*
G01X10503Y25692D01*
G01X10510Y25712D01*
G01X10518Y25732D01*
G01X10524Y25753D01*
G01X10529Y25773D01*
G01X10534Y25794D01*
G01X10538Y25815D01*
G01X10540Y25836D01*
G01X10543Y25858D01*
G01X10544Y25879D01*
G01X10544Y25922D01*
G01X10543Y25943D01*
G01X10540Y25965D01*
G01X10538Y25986D01*
G01X10534Y26007D01*
G01X10529Y26028D01*
G01X10524Y26048D01*
G01X10518Y26069D01*
G01X10510Y26089D01*
G01X10503Y26109D01*
G01X10494Y26128D01*
G01X10485Y26148D01*
G01X10475Y26167D01*
G01X10464Y26185D01*
G01X10440Y26221D01*
G01X10427Y26238D01*
G01X10414Y26254D01*
G01X10400Y26270D01*
G01X10385Y26286D01*
G01X10369Y26301D01*
G01X10353Y26315D01*
G01X10337Y26328D01*
G01X10320Y26341D01*
G01X10284Y26365D01*
G01X10266Y26376D01*
G01X10247Y26386D01*
G01X10227Y26395D01*
G01X10208Y26404D01*
G01X10188Y26411D01*
G01X10168Y26419D01*
G01X10147Y26425D01*
G01X10127Y26430D01*
G01X10106Y26435D01*
G01X10085Y26438D01*
G01X10064Y26442D01*
G01X10042Y26444D01*
G01X10021Y26445D01*
G37*
G36*
G01X12989Y1690D02*
G01X12723Y1690D01*
G01X12732Y1670D01*
G01X12752Y1632D01*
G01X12776Y1596D01*
G01X12789Y1579D01*
G01X12802Y1563D01*
G01X12816Y1546D01*
G01X12831Y1531D01*
G01X12847Y1516D01*
G01X12879Y1488D01*
G01X12897Y1476D01*
G01X12914Y1463D01*
G01X12932Y1452D01*
G01X12970Y1432D01*
G01X12989Y1423D01*
G01X12989Y1690D01*
G37*
G36*
G01X13676Y1690D02*
G01X13410Y1690D01*
G01X13410Y1423D01*
G01X13429Y1432D01*
G01X13467Y1452D01*
G01X13485Y1463D01*
G01X13502Y1476D01*
G01X13520Y1488D01*
G01X13552Y1516D01*
G01X13568Y1531D01*
G01X13583Y1546D01*
G01X13597Y1563D01*
G01X13610Y1579D01*
G01X13623Y1596D01*
G01X13647Y1632D01*
G01X13667Y1670D01*
G01X13676Y1690D01*
G37*
G36*
G01X4008Y22089D02*
G01X3988Y22090D01*
G01X3967Y22089D01*
G01X3947Y22088D01*
G01X3927Y22086D01*
G01X3907Y22083D01*
G01X3887Y22079D01*
G01X3868Y22075D01*
G01X3848Y22070D01*
G01X3829Y22064D01*
G01X3791Y22050D01*
G01X3755Y22032D01*
G01X3737Y22022D01*
G01X3720Y22012D01*
G01X3703Y22001D01*
G01X3686Y21989D01*
G01X3671Y21977D01*
G01X3655Y21963D01*
G01X3640Y21950D01*
G01X3626Y21936D01*
G01X3613Y21921D01*
G01X3600Y21905D01*
G01X3587Y21890D01*
G01X3575Y21873D01*
G01X3564Y21856D01*
G01X3554Y21839D01*
G01X3544Y21821D01*
G01X3535Y21803D01*
G01X3527Y21785D01*
G01X3519Y21766D01*
G01X3512Y21747D01*
G01X3506Y21728D01*
G01X3501Y21708D01*
G01X3497Y21689D01*
G01X3493Y21669D01*
G01X3490Y21649D01*
G01X3488Y21629D01*
G01X3487Y21609D01*
G01X3486Y21588D01*
G01X3488Y21548D01*
G01X3490Y21528D01*
G01X3493Y21508D01*
G01X3497Y21488D01*
G01X3501Y21469D01*
G01X3506Y21449D01*
G01X3512Y21430D01*
G01X3519Y21411D01*
G01X3527Y21392D01*
G01X3535Y21374D01*
G01X3544Y21356D01*
G01X3554Y21338D01*
G01X3564Y21321D01*
G01X3575Y21304D01*
G01X3587Y21288D01*
G01X3613Y21256D01*
G01X3626Y21242D01*
G01X3640Y21227D01*
G01X3655Y21213D01*
G01X3671Y21201D01*
G01X3686Y21188D01*
G01X3703Y21176D01*
G01X3720Y21165D01*
G01X3737Y21155D01*
G01X3755Y21145D01*
G01X3773Y21136D01*
G01X3791Y21128D01*
G01X3810Y21120D01*
G01X3829Y21113D01*
G01X3848Y21107D01*
G01X3868Y21102D01*
G01X3887Y21098D01*
G01X3907Y21094D01*
G01X3927Y21091D01*
G01X3947Y21089D01*
G01X3967Y21088D01*
G01X4008Y21088D01*
G01X4029Y21089D01*
G01X4049Y21091D01*
G01X4070Y21094D01*
G01X4090Y21098D01*
G01X4130Y21108D01*
G01X4150Y21115D01*
G01X4169Y21121D01*
G01X4188Y21129D01*
G01X4207Y21138D01*
G01X4243Y21158D01*
G01X4261Y21169D01*
G01X4278Y21180D01*
G01X4283Y21183D01*
G01X4289Y21186D01*
G01X4301Y21188D01*
G01X4922Y21188D01*
G01X4934Y21186D01*
G01X4940Y21183D01*
G01X4946Y21179D01*
G01X4951Y21175D01*
G01X5688Y20401D01*
G01X5694Y20391D01*
G01X5697Y20385D01*
G01X5698Y20379D01*
G01X5698Y15800D01*
G01X5699Y15781D01*
G01X5700Y15763D01*
G01X5702Y15744D01*
G01X5705Y15726D01*
G01X5709Y15708D01*
G01X5719Y15672D01*
G01X5740Y15621D01*
G01X5749Y15604D01*
G01X5759Y15588D01*
G01X5769Y15573D01*
G01X5791Y15543D01*
G01X5803Y15529D01*
G01X6629Y14703D01*
G01X6643Y14691D01*
G01X6673Y14669D01*
G01X6689Y14659D01*
G01X6704Y14649D01*
G01X6721Y14640D01*
G01X6772Y14619D01*
G01X6808Y14609D01*
G01X6826Y14605D01*
G01X6844Y14602D01*
G01X6863Y14600D01*
G01X6881Y14599D01*
G01X6900Y14598D01*
G01X10359Y14598D01*
G01X10366Y14596D01*
G01X10372Y14594D01*
G01X10377Y14590D01*
G01X10398Y14575D01*
G01X10419Y14561D01*
G01X10441Y14547D01*
G01X10463Y14535D01*
G01X10468Y14532D01*
G01X10473Y14528D01*
G01X10481Y14518D01*
G01X10485Y14506D01*
G01X10485Y14493D01*
G01X10481Y14481D01*
G01X10473Y14471D01*
G01X10468Y14467D01*
G01X10463Y14464D01*
G01X10427Y14444D01*
G01X10410Y14433D01*
G01X10393Y14421D01*
G01X10377Y14409D01*
G01X10361Y14396D01*
G01X10331Y14368D01*
G01X10303Y14338D01*
G01X10290Y14322D01*
G01X10278Y14306D01*
G01X10266Y14289D01*
G01X10255Y14272D01*
G01X10235Y14236D01*
G01X10227Y14218D01*
G01X10218Y14199D01*
G01X10204Y14161D01*
G01X10198Y14141D01*
G01X10193Y14121D01*
G01X10185Y14081D01*
G01X10182Y14061D01*
G01X10180Y14040D01*
G01X10178Y14000D01*
G01X10179Y13979D01*
G01X10180Y13959D01*
G01X10182Y13938D01*
G01X10185Y13918D01*
G01X10193Y13878D01*
G01X10198Y13858D01*
G01X10204Y13838D01*
G01X10218Y13800D01*
G01X10227Y13781D01*
G01X10235Y13763D01*
G01X10255Y13727D01*
G01X10266Y13710D01*
G01X10278Y13693D01*
G01X10290Y13677D01*
G01X10303Y13661D01*
G01X10331Y13631D01*
G01X10361Y13603D01*
G01X10377Y13590D01*
G01X10393Y13578D01*
G01X10410Y13566D01*
G01X10427Y13555D01*
G01X10463Y13535D01*
G01X10468Y13532D01*
G01X10473Y13528D01*
G01X10481Y13518D01*
G01X10485Y13506D01*
G01X10485Y13493D01*
G01X10481Y13481D01*
G01X10473Y13471D01*
G01X10468Y13467D01*
G01X10463Y13464D01*
G01X10427Y13444D01*
G01X10410Y13433D01*
G01X10393Y13421D01*
G01X10377Y13409D01*
G01X10361Y13396D01*
G01X10331Y13368D01*
G01X10303Y13338D01*
G01X10290Y13322D01*
G01X10278Y13306D01*
G01X10266Y13289D01*
G01X10255Y13272D01*
G01X10235Y13236D01*
G01X10227Y13218D01*
G01X10218Y13199D01*
G01X10204Y13161D01*
G01X10198Y13141D01*
G01X10193Y13121D01*
G01X10185Y13081D01*
G01X10182Y13061D01*
G01X10180Y13040D01*
G01X10178Y13000D01*
G01X10179Y12979D01*
G01X10180Y12959D01*
G01X10182Y12938D01*
G01X10185Y12918D01*
G01X10193Y12878D01*
G01X10198Y12858D01*
G01X10204Y12838D01*
G01X10218Y12800D01*
G01X10227Y12781D01*
G01X10235Y12763D01*
G01X10255Y12727D01*
G01X10266Y12710D01*
G01X10278Y12693D01*
G01X10290Y12677D01*
G01X10303Y12661D01*
G01X10331Y12631D01*
G01X10361Y12603D01*
G01X10377Y12590D01*
G01X10393Y12578D01*
G01X10410Y12566D01*
G01X10427Y12555D01*
G01X10463Y12535D01*
G01X10468Y12532D01*
G01X10473Y12528D01*
G01X10481Y12518D01*
G01X10485Y12506D01*
G01X10485Y12493D01*
G01X10481Y12481D01*
G01X10473Y12471D01*
G01X10468Y12467D01*
G01X10463Y12464D01*
G01X10427Y12444D01*
G01X10410Y12433D01*
G01X10393Y12421D01*
G01X10377Y12409D01*
G01X10361Y12396D01*
G01X10331Y12368D01*
G01X10303Y12338D01*
G01X10290Y12322D01*
G01X10278Y12306D01*
G01X10266Y12289D01*
G01X10255Y12272D01*
G01X10235Y12236D01*
G01X10227Y12218D01*
G01X10218Y12199D01*
G01X10204Y12161D01*
G01X10198Y12141D01*
G01X10193Y12121D01*
G01X10185Y12081D01*
G01X10182Y12061D01*
G01X10180Y12040D01*
G01X10178Y12000D01*
G01X10179Y11978D01*
G01X10180Y11957D01*
G01X10182Y11936D01*
G01X10185Y11915D01*
G01X10189Y11894D01*
G01X10194Y11873D01*
G01X10200Y11853D01*
G01X10206Y11832D01*
G01X10213Y11812D01*
G01X10221Y11792D01*
G01X10230Y11773D01*
G01X10240Y11754D01*
G01X10250Y11736D01*
G01X10261Y11717D01*
G01X10273Y11700D01*
G01X10299Y11666D01*
G01X10303Y11661D01*
G01X10306Y11654D01*
G01X10308Y11648D01*
G01X10309Y11640D01*
G01X10308Y11635D01*
G01X10307Y11629D01*
G01X10305Y11624D01*
G01X10299Y11614D01*
G01X10295Y11610D01*
G01X10285Y11604D01*
G01X10280Y11602D01*
G01X10274Y11601D01*
G01X9240Y11601D01*
G01X9233Y11603D01*
G01X9227Y11605D01*
G01X9222Y11609D01*
G01X9205Y11621D01*
G01X9189Y11633D01*
G01X9171Y11644D01*
G01X9154Y11654D01*
G01X9136Y11664D01*
G01X9117Y11673D01*
G01X9098Y11681D01*
G01X9080Y11688D01*
G01X9060Y11695D01*
G01X9041Y11701D01*
G01X9001Y11711D01*
G01X8961Y11717D01*
G01X8940Y11719D01*
G01X8900Y11721D01*
G01X8878Y11720D01*
G01X8857Y11719D01*
G01X8836Y11717D01*
G01X8815Y11714D01*
G01X8794Y11710D01*
G01X8773Y11705D01*
G01X8753Y11700D01*
G01X8713Y11686D01*
G01X8693Y11678D01*
G01X8674Y11669D01*
G01X8636Y11649D01*
G01X8618Y11638D01*
G01X8584Y11614D01*
G01X8567Y11601D01*
G01X8561Y11597D01*
G01X8555Y11594D01*
G01X8548Y11592D01*
G01X8536Y11592D01*
G01X8530Y11593D01*
G01X8525Y11595D01*
G01X8515Y11601D01*
G01X8511Y11605D01*
G01X8505Y11615D01*
G01X8503Y11620D01*
G01X8502Y11626D01*
G01X8502Y11924D01*
G01X8503Y11930D01*
G01X8506Y11936D01*
G01X8509Y11941D01*
G01X8513Y11946D01*
G01X9038Y12471D01*
G01X9043Y12475D01*
G01X9055Y12481D01*
G01X9061Y12482D01*
G01X9082Y12485D01*
G01X9122Y12493D01*
G01X9142Y12498D01*
G01X9161Y12504D01*
G01X9199Y12518D01*
G01X9218Y12526D01*
G01X9236Y12536D01*
G01X9255Y12545D01*
G01X9272Y12555D01*
G01X9289Y12567D01*
G01X9306Y12578D01*
G01X9322Y12591D01*
G01X9338Y12603D01*
G01X9368Y12631D01*
G01X9396Y12661D01*
G01X9409Y12677D01*
G01X9421Y12694D01*
G01X9433Y12710D01*
G01X9444Y12728D01*
G01X9454Y12745D01*
G01X9464Y12763D01*
G01X9473Y12782D01*
G01X9481Y12800D01*
G01X9488Y12819D01*
G01X9495Y12839D01*
G01X9501Y12858D01*
G01X9506Y12878D01*
G01X9514Y12918D01*
G01X9517Y12938D01*
G01X9519Y12959D01*
G01X9520Y12979D01*
G01X9521Y13000D01*
G01X9519Y13040D01*
G01X9517Y13061D01*
G01X9514Y13081D01*
G01X9506Y13121D01*
G01X9501Y13141D01*
G01X9495Y13161D01*
G01X9481Y13199D01*
G01X9473Y13218D01*
G01X9464Y13236D01*
G01X9444Y13272D01*
G01X9433Y13289D01*
G01X9421Y13306D01*
G01X9409Y13322D01*
G01X9396Y13338D01*
G01X9368Y13368D01*
G01X9338Y13396D01*
G01X9322Y13409D01*
G01X9306Y13421D01*
G01X9289Y13433D01*
G01X9272Y13444D01*
G01X9236Y13464D01*
G01X9218Y13473D01*
G01X9199Y13481D01*
G01X9180Y13488D01*
G01X9160Y13495D01*
G01X9141Y13501D01*
G01X9101Y13511D01*
G01X9061Y13517D01*
G01X9040Y13519D01*
G01X9000Y13521D01*
G01X8979Y13520D01*
G01X8959Y13519D01*
G01X8938Y13517D01*
G01X8898Y13511D01*
G01X8858Y13501D01*
G01X8839Y13495D01*
G01X8819Y13488D01*
G01X8800Y13481D01*
G01X8781Y13473D01*
G01X8763Y13464D01*
G01X8727Y13444D01*
G01X8710Y13433D01*
G01X8693Y13421D01*
G01X8677Y13409D01*
G01X8661Y13396D01*
G01X8631Y13368D01*
G01X8603Y13338D01*
G01X8591Y13322D01*
G01X8578Y13306D01*
G01X8545Y13255D01*
G01X8535Y13236D01*
G01X8527Y13218D01*
G01X8518Y13199D01*
G01X8504Y13161D01*
G01X8498Y13142D01*
G01X8493Y13122D01*
G01X8485Y13082D01*
G01X8482Y13061D01*
G01X8481Y13055D01*
G01X8475Y13043D01*
G01X8471Y13038D01*
G01X7804Y12371D01*
G01X7792Y12357D01*
G01X7770Y12327D01*
G01X7760Y12311D01*
G01X7750Y12296D01*
G01X7742Y12279D01*
G01X7734Y12263D01*
G01X7727Y12245D01*
G01X7720Y12228D01*
G01X7710Y12192D01*
G01X7706Y12174D01*
G01X7703Y12156D01*
G01X7701Y12138D01*
G01X7700Y12119D01*
G01X7700Y10440D01*
G01X7699Y10435D01*
G01X7698Y10429D01*
G01X7696Y10424D01*
G01X7690Y10414D01*
G01X7686Y10410D01*
G01X7676Y10404D01*
G01X7671Y10402D01*
G01X7665Y10401D01*
G01X5040Y10401D01*
G01X5033Y10403D01*
G01X5027Y10405D01*
G01X5022Y10409D01*
G01X5001Y10424D01*
G01X4980Y10438D01*
G01X4958Y10452D01*
G01X4936Y10464D01*
G01X4931Y10467D01*
G01X4926Y10471D01*
G01X4918Y10481D01*
G01X4914Y10493D01*
G01X4914Y10506D01*
G01X4918Y10518D01*
G01X4926Y10528D01*
G01X4931Y10532D01*
G01X4936Y10535D01*
G01X4972Y10555D01*
G01X4989Y10566D01*
G01X5006Y10578D01*
G01X5022Y10590D01*
G01X5038Y10603D01*
G01X5068Y10631D01*
G01X5096Y10661D01*
G01X5109Y10677D01*
G01X5121Y10693D01*
G01X5133Y10710D01*
G01X5144Y10727D01*
G01X5164Y10763D01*
G01X5172Y10781D01*
G01X5181Y10800D01*
G01X5195Y10838D01*
G01X5201Y10858D01*
G01X5206Y10878D01*
G01X5214Y10918D01*
G01X5217Y10938D01*
G01X5219Y10959D01*
G01X5220Y10979D01*
G01X5221Y11000D01*
G01X5219Y11040D01*
G01X5217Y11061D01*
G01X5214Y11081D01*
G01X5206Y11121D01*
G01X5201Y11141D01*
G01X5195Y11161D01*
G01X5181Y11199D01*
G01X5172Y11218D01*
G01X5164Y11236D01*
G01X5144Y11272D01*
G01X5133Y11289D01*
G01X5121Y11306D01*
G01X5109Y11322D01*
G01X5096Y11338D01*
G01X5068Y11368D01*
G01X5038Y11396D01*
G01X5022Y11409D01*
G01X5006Y11421D01*
G01X4989Y11433D01*
G01X4972Y11444D01*
G01X4936Y11464D01*
G01X4931Y11467D01*
G01X4926Y11471D01*
G01X4918Y11481D01*
G01X4914Y11493D01*
G01X4914Y11506D01*
G01X4918Y11518D01*
G01X4926Y11528D01*
G01X4931Y11532D01*
G01X4936Y11535D01*
G01X4972Y11555D01*
G01X4989Y11566D01*
G01X5006Y11578D01*
G01X5022Y11590D01*
G01X5038Y11603D01*
G01X5068Y11631D01*
G01X5096Y11661D01*
G01X5109Y11677D01*
G01X5121Y11693D01*
G01X5133Y11710D01*
G01X5144Y11727D01*
G01X5164Y11763D01*
G01X5172Y11781D01*
G01X5181Y11800D01*
G01X5195Y11838D01*
G01X5201Y11858D01*
G01X5206Y11878D01*
G01X5214Y11918D01*
G01X5217Y11938D01*
G01X5219Y11959D01*
G01X5220Y11979D01*
G01X5221Y12000D01*
G01X5219Y12040D01*
G01X5217Y12061D01*
G01X5214Y12081D01*
G01X5206Y12121D01*
G01X5201Y12141D01*
G01X5195Y12161D01*
G01X5181Y12199D01*
G01X5172Y12218D01*
G01X5164Y12236D01*
G01X5144Y12272D01*
G01X5133Y12289D01*
G01X5121Y12306D01*
G01X5109Y12322D01*
G01X5096Y12338D01*
G01X5068Y12368D01*
G01X5038Y12396D01*
G01X5022Y12409D01*
G01X5006Y12421D01*
G01X4989Y12433D01*
G01X4972Y12444D01*
G01X4936Y12464D01*
G01X4931Y12467D01*
G01X4926Y12471D01*
G01X4918Y12481D01*
G01X4914Y12493D01*
G01X4914Y12506D01*
G01X4918Y12518D01*
G01X4926Y12528D01*
G01X4931Y12532D01*
G01X4936Y12535D01*
G01X4972Y12555D01*
G01X4989Y12566D01*
G01X5006Y12578D01*
G01X5022Y12590D01*
G01X5038Y12603D01*
G01X5068Y12631D01*
G01X5096Y12661D01*
G01X5109Y12677D01*
G01X5121Y12693D01*
G01X5133Y12710D01*
G01X5144Y12727D01*
G01X5164Y12763D01*
G01X5172Y12781D01*
G01X5181Y12800D01*
G01X5195Y12838D01*
G01X5201Y12858D01*
G01X5206Y12878D01*
G01X5214Y12918D01*
G01X5217Y12938D01*
G01X5219Y12959D01*
G01X5220Y12979D01*
G01X5221Y13000D01*
G01X5219Y13040D01*
G01X5217Y13061D01*
G01X5214Y13081D01*
G01X5206Y13121D01*
G01X5201Y13141D01*
G01X5195Y13161D01*
G01X5181Y13199D01*
G01X5172Y13218D01*
G01X5164Y13236D01*
G01X5144Y13272D01*
G01X5133Y13289D01*
G01X5121Y13306D01*
G01X5109Y13322D01*
G01X5096Y13338D01*
G01X5068Y13368D01*
G01X5038Y13396D01*
G01X5022Y13409D01*
G01X5006Y13421D01*
G01X4989Y13433D01*
G01X4972Y13444D01*
G01X4936Y13464D01*
G01X4931Y13467D01*
G01X4926Y13471D01*
G01X4918Y13481D01*
G01X4914Y13493D01*
G01X4914Y13506D01*
G01X4918Y13518D01*
G01X4926Y13528D01*
G01X4931Y13532D01*
G01X4936Y13535D01*
G01X4958Y13547D01*
G01X4980Y13561D01*
G01X5001Y13575D01*
G01X5022Y13590D01*
G01X5027Y13594D01*
G01X5033Y13596D01*
G01X5040Y13598D01*
G01X5483Y13598D01*
G01X5489Y13597D01*
G01X5494Y13594D01*
G01X5500Y13592D01*
G01X5505Y13588D01*
G01X5509Y13583D01*
G01X5512Y13578D01*
G01X5522Y13561D01*
G01X5544Y13529D01*
G01X5556Y13514D01*
G01X5569Y13499D01*
G01X5597Y13471D01*
G01X5611Y13459D01*
G01X5627Y13446D01*
G01X5675Y13413D01*
G01X5693Y13404D01*
G01X5710Y13396D01*
G01X5746Y13380D01*
G01X5765Y13374D01*
G01X5784Y13369D01*
G01X5802Y13364D01*
G01X5822Y13360D01*
G01X5841Y13357D01*
G01X5860Y13355D01*
G01X5900Y13353D01*
G01X5918Y13354D01*
G01X5937Y13355D01*
G01X5956Y13357D01*
G01X5975Y13360D01*
G01X5993Y13363D01*
G01X6012Y13368D01*
G01X6030Y13373D01*
G01X6048Y13379D01*
G01X6066Y13386D01*
G01X6083Y13393D01*
G01X6101Y13401D01*
G01X6117Y13410D01*
G01X6134Y13419D01*
G01X6150Y13430D01*
G01X6180Y13452D01*
G01X6194Y13465D01*
G01X6208Y13477D01*
G01X6222Y13491D01*
G01X6235Y13505D01*
G01X6247Y13519D01*
G01X6258Y13534D01*
G01X6269Y13550D01*
G01X6280Y13565D01*
G01X6289Y13582D01*
G01X6298Y13598D01*
G01X6306Y13616D01*
G01X6314Y13633D01*
G01X6326Y13669D01*
G01X6336Y13705D01*
G01X6342Y13743D01*
G01X6344Y13762D01*
G01X6345Y13780D01*
G01X6346Y13800D01*
G01X6344Y13838D01*
G01X6342Y13858D01*
G01X6339Y13877D01*
G01X6331Y13915D01*
G01X6325Y13934D01*
G01X6319Y13952D01*
G01X6312Y13970D01*
G01X6304Y13988D01*
G01X6296Y14005D01*
G01X6286Y14023D01*
G01X6276Y14039D01*
G01X6254Y14071D01*
G01X6242Y14086D01*
G01X6229Y14101D01*
G01X6215Y14115D01*
G01X6187Y14141D01*
G01X6172Y14153D01*
G01X6156Y14165D01*
G01X6140Y14176D01*
G01X6123Y14186D01*
G01X6089Y14204D01*
G01X6071Y14211D01*
G01X6053Y14219D01*
G01X6047Y14221D01*
G01X6043Y14224D01*
G01X6038Y14228D01*
G01X5970Y14296D01*
G01X5956Y14308D01*
G01X5926Y14330D01*
G01X5910Y14340D01*
G01X5895Y14350D01*
G01X5878Y14359D01*
G01X5827Y14380D01*
G01X5791Y14390D01*
G01X5773Y14394D01*
G01X5755Y14397D01*
G01X5736Y14399D01*
G01X5700Y14401D01*
G01X5040Y14401D01*
G01X5033Y14403D01*
G01X5027Y14405D01*
G01X5022Y14409D01*
G01X5001Y14424D01*
G01X4980Y14438D01*
G01X4958Y14452D01*
G01X4936Y14464D01*
G01X4931Y14467D01*
G01X4926Y14471D01*
G01X4918Y14481D01*
G01X4914Y14493D01*
G01X4914Y14506D01*
G01X4918Y14518D01*
G01X4926Y14528D01*
G01X4931Y14532D01*
G01X4936Y14535D01*
G01X4972Y14555D01*
G01X4989Y14566D01*
G01X5006Y14578D01*
G01X5022Y14590D01*
G01X5038Y14603D01*
G01X5068Y14631D01*
G01X5096Y14661D01*
G01X5109Y14677D01*
G01X5121Y14693D01*
G01X5133Y14710D01*
G01X5144Y14727D01*
G01X5164Y14763D01*
G01X5172Y14781D01*
G01X5181Y14800D01*
G01X5195Y14838D01*
G01X5201Y14858D01*
G01X5206Y14878D01*
G01X5214Y14918D01*
G01X5217Y14938D01*
G01X5219Y14959D01*
G01X5220Y14979D01*
G01X5221Y15000D01*
G01X5219Y15040D01*
G01X5217Y15061D01*
G01X5214Y15081D01*
G01X5206Y15121D01*
G01X5201Y15141D01*
G01X5195Y15161D01*
G01X5181Y15199D01*
G01X5172Y15218D01*
G01X5164Y15236D01*
G01X5144Y15272D01*
G01X5133Y15289D01*
G01X5121Y15306D01*
G01X5109Y15322D01*
G01X5096Y15338D01*
G01X5068Y15368D01*
G01X5038Y15396D01*
G01X5022Y15409D01*
G01X5006Y15421D01*
G01X4989Y15433D01*
G01X4972Y15444D01*
G01X4936Y15464D01*
G01X4931Y15467D01*
G01X4926Y15471D01*
G01X4918Y15481D01*
G01X4914Y15493D01*
G01X4914Y15506D01*
G01X4918Y15518D01*
G01X4926Y15528D01*
G01X4931Y15532D01*
G01X4936Y15535D01*
G01X4972Y15555D01*
G01X4989Y15566D01*
G01X5006Y15578D01*
G01X5022Y15590D01*
G01X5038Y15603D01*
G01X5068Y15631D01*
G01X5096Y15661D01*
G01X5109Y15677D01*
G01X5121Y15693D01*
G01X5133Y15710D01*
G01X5144Y15727D01*
G01X5164Y15763D01*
G01X5172Y15781D01*
G01X5181Y15800D01*
G01X5195Y15838D01*
G01X5201Y15858D01*
G01X5206Y15878D01*
G01X5214Y15918D01*
G01X5217Y15938D01*
G01X5219Y15959D01*
G01X5220Y15979D01*
G01X5221Y16000D01*
G01X5219Y16040D01*
G01X5217Y16061D01*
G01X5214Y16081D01*
G01X5206Y16121D01*
G01X5201Y16141D01*
G01X5195Y16161D01*
G01X5181Y16199D01*
G01X5172Y16218D01*
G01X5164Y16236D01*
G01X5144Y16272D01*
G01X5133Y16289D01*
G01X5121Y16306D01*
G01X5109Y16322D01*
G01X5096Y16338D01*
G01X5068Y16368D01*
G01X5038Y16396D01*
G01X5022Y16409D01*
G01X5006Y16421D01*
G01X4989Y16433D01*
G01X4972Y16444D01*
G01X4936Y16464D01*
G01X4931Y16467D01*
G01X4926Y16471D01*
G01X4918Y16481D01*
G01X4914Y16493D01*
G01X4914Y16506D01*
G01X4918Y16518D01*
G01X4926Y16528D01*
G01X4931Y16532D01*
G01X4936Y16535D01*
G01X4972Y16555D01*
G01X4989Y16566D01*
G01X5006Y16578D01*
G01X5022Y16590D01*
G01X5038Y16603D01*
G01X5068Y16631D01*
G01X5096Y16661D01*
G01X5109Y16677D01*
G01X5121Y16693D01*
G01X5133Y16710D01*
G01X5144Y16727D01*
G01X5164Y16763D01*
G01X5172Y16781D01*
G01X5181Y16800D01*
G01X5195Y16838D01*
G01X5201Y16858D01*
G01X5206Y16878D01*
G01X5214Y16918D01*
G01X5217Y16938D01*
G01X5219Y16959D01*
G01X5220Y16979D01*
G01X5221Y17000D01*
G01X5219Y17040D01*
G01X5217Y17061D01*
G01X5214Y17081D01*
G01X5206Y17121D01*
G01X5201Y17141D01*
G01X5195Y17161D01*
G01X5181Y17199D01*
G01X5172Y17218D01*
G01X5164Y17236D01*
G01X5144Y17272D01*
G01X5133Y17289D01*
G01X5121Y17306D01*
G01X5109Y17322D01*
G01X5096Y17338D01*
G01X5068Y17368D01*
G01X5038Y17396D01*
G01X5022Y17409D01*
G01X5006Y17421D01*
G01X4989Y17433D01*
G01X4972Y17444D01*
G01X4936Y17464D01*
G01X4931Y17467D01*
G01X4926Y17471D01*
G01X4918Y17481D01*
G01X4914Y17493D01*
G01X4914Y17506D01*
G01X4918Y17518D01*
G01X4926Y17528D01*
G01X4931Y17532D01*
G01X4936Y17535D01*
G01X4972Y17555D01*
G01X4989Y17566D01*
G01X5006Y17578D01*
G01X5022Y17590D01*
G01X5038Y17603D01*
G01X5068Y17631D01*
G01X5096Y17661D01*
G01X5109Y17677D01*
G01X5121Y17693D01*
G01X5133Y17710D01*
G01X5144Y17727D01*
G01X5164Y17763D01*
G01X5172Y17781D01*
G01X5181Y17800D01*
G01X5195Y17838D01*
G01X5201Y17858D01*
G01X5206Y17878D01*
G01X5214Y17918D01*
G01X5217Y17938D01*
G01X5219Y17959D01*
G01X5220Y17979D01*
G01X5221Y18000D01*
G01X5219Y18040D01*
G01X5217Y18061D01*
G01X5214Y18081D01*
G01X5206Y18121D01*
G01X5201Y18141D01*
G01X5195Y18161D01*
G01X5181Y18199D01*
G01X5173Y18218D01*
G01X5164Y18236D01*
G01X5144Y18272D01*
G01X5133Y18289D01*
G01X5121Y18306D01*
G01X5109Y18322D01*
G01X5096Y18338D01*
G01X5068Y18368D01*
G01X5038Y18396D01*
G01X5022Y18409D01*
G01X5006Y18421D01*
G01X4989Y18433D01*
G01X4972Y18444D01*
G01X4936Y18464D01*
G01X4918Y18473D01*
G01X4899Y18481D01*
G01X4880Y18488D01*
G01X4860Y18495D01*
G01X4841Y18501D01*
G01X4801Y18511D01*
G01X4761Y18517D01*
G01X4740Y18519D01*
G01X4700Y18521D01*
G01X4679Y18520D01*
G01X4659Y18519D01*
G01X4638Y18517D01*
G01X4598Y18511D01*
G01X4558Y18501D01*
G01X4539Y18495D01*
G01X4519Y18488D01*
G01X4500Y18481D01*
G01X4481Y18473D01*
G01X4463Y18464D01*
G01X4427Y18444D01*
G01X4410Y18433D01*
G01X4393Y18421D01*
G01X4377Y18409D01*
G01X4361Y18396D01*
G01X4331Y18368D01*
G01X4303Y18338D01*
G01X4290Y18322D01*
G01X4278Y18306D01*
G01X4266Y18289D01*
G01X4255Y18272D01*
G01X4235Y18236D01*
G01X4226Y18218D01*
G01X4218Y18199D01*
G01X4204Y18161D01*
G01X4198Y18141D01*
G01X4193Y18121D01*
G01X4185Y18081D01*
G01X4182Y18061D01*
G01X4180Y18040D01*
G01X4178Y18000D01*
G01X4179Y17979D01*
G01X4180Y17959D01*
G01X4182Y17938D01*
G01X4185Y17918D01*
G01X4193Y17878D01*
G01X4198Y17858D01*
G01X4204Y17838D01*
G01X4218Y17800D01*
G01X4227Y17781D01*
G01X4235Y17763D01*
G01X4255Y17727D01*
G01X4266Y17710D01*
G01X4278Y17693D01*
G01X4290Y17677D01*
G01X4303Y17661D01*
G01X4331Y17631D01*
G01X4361Y17603D01*
G01X4377Y17590D01*
G01X4393Y17578D01*
G01X4410Y17566D01*
G01X4427Y17555D01*
G01X4463Y17535D01*
G01X4468Y17532D01*
G01X4473Y17528D01*
G01X4481Y17518D01*
G01X4485Y17506D01*
G01X4485Y17493D01*
G01X4481Y17481D01*
G01X4473Y17471D01*
G01X4468Y17467D01*
G01X4463Y17464D01*
G01X4427Y17444D01*
G01X4410Y17433D01*
G01X4393Y17421D01*
G01X4377Y17409D01*
G01X4361Y17396D01*
G01X4331Y17368D01*
G01X4303Y17338D01*
G01X4290Y17322D01*
G01X4278Y17306D01*
G01X4266Y17289D01*
G01X4255Y17272D01*
G01X4235Y17236D01*
G01X4227Y17218D01*
G01X4218Y17199D01*
G01X4204Y17161D01*
G01X4198Y17141D01*
G01X4193Y17121D01*
G01X4185Y17081D01*
G01X4182Y17061D01*
G01X4180Y17040D01*
G01X4178Y17000D01*
G01X4179Y16979D01*
G01X4180Y16959D01*
G01X4182Y16938D01*
G01X4185Y16918D01*
G01X4193Y16878D01*
G01X4198Y16858D01*
G01X4204Y16838D01*
G01X4218Y16800D01*
G01X4227Y16781D01*
G01X4235Y16763D01*
G01X4255Y16727D01*
G01X4266Y16710D01*
G01X4278Y16693D01*
G01X4290Y16677D01*
G01X4303Y16661D01*
G01X4331Y16631D01*
G01X4361Y16603D01*
G01X4377Y16590D01*
G01X4393Y16578D01*
G01X4410Y16566D01*
G01X4427Y16555D01*
G01X4463Y16535D01*
G01X4468Y16532D01*
G01X4473Y16528D01*
G01X4481Y16518D01*
G01X4485Y16506D01*
G01X4485Y16493D01*
G01X4481Y16481D01*
G01X4473Y16471D01*
G01X4468Y16467D01*
G01X4463Y16464D01*
G01X4427Y16444D01*
G01X4410Y16433D01*
G01X4393Y16421D01*
G01X4377Y16409D01*
G01X4361Y16396D01*
G01X4331Y16368D01*
G01X4303Y16338D01*
G01X4290Y16322D01*
G01X4278Y16306D01*
G01X4266Y16289D01*
G01X4255Y16272D01*
G01X4235Y16236D01*
G01X4227Y16218D01*
G01X4218Y16199D01*
G01X4204Y16161D01*
G01X4198Y16141D01*
G01X4193Y16121D01*
G01X4185Y16081D01*
G01X4182Y16061D01*
G01X4180Y16040D01*
G01X4178Y16000D01*
G01X4179Y15979D01*
G01X4180Y15959D01*
G01X4182Y15938D01*
G01X4185Y15918D01*
G01X4193Y15878D01*
G01X4198Y15858D01*
G01X4204Y15838D01*
G01X4218Y15800D01*
G01X4227Y15781D01*
G01X4235Y15763D01*
G01X4255Y15727D01*
G01X4266Y15710D01*
G01X4278Y15693D01*
G01X4290Y15677D01*
G01X4303Y15661D01*
G01X4331Y15631D01*
G01X4361Y15603D01*
G01X4377Y15590D01*
G01X4393Y15578D01*
G01X4410Y15566D01*
G01X4427Y15555D01*
G01X4463Y15535D01*
G01X4468Y15532D01*
G01X4473Y15528D01*
G01X4481Y15518D01*
G01X4485Y15506D01*
G01X4485Y15493D01*
G01X4481Y15481D01*
G01X4473Y15471D01*
G01X4468Y15467D01*
G01X4463Y15464D01*
G01X4427Y15444D01*
G01X4410Y15433D01*
G01X4393Y15421D01*
G01X4377Y15409D01*
G01X4361Y15396D01*
G01X4331Y15368D01*
G01X4303Y15338D01*
G01X4290Y15322D01*
G01X4278Y15306D01*
G01X4266Y15289D01*
G01X4255Y15272D01*
G01X4235Y15236D01*
G01X4227Y15218D01*
G01X4218Y15199D01*
G01X4204Y15161D01*
G01X4198Y15141D01*
G01X4193Y15121D01*
G01X4185Y15081D01*
G01X4182Y15061D01*
G01X4180Y15040D01*
G01X4178Y15000D01*
G01X4179Y14979D01*
G01X4180Y14959D01*
G01X4182Y14938D01*
G01X4185Y14918D01*
G01X4193Y14878D01*
G01X4198Y14858D01*
G01X4204Y14838D01*
G01X4218Y14800D01*
G01X4227Y14781D01*
G01X4235Y14763D01*
G01X4255Y14727D01*
G01X4266Y14710D01*
G01X4278Y14693D01*
G01X4290Y14677D01*
G01X4303Y14661D01*
G01X4331Y14631D01*
G01X4361Y14603D01*
G01X4377Y14590D01*
G01X4393Y14578D01*
G01X4410Y14566D01*
G01X4427Y14555D01*
G01X4463Y14535D01*
G01X4468Y14532D01*
G01X4473Y14528D01*
G01X4481Y14518D01*
G01X4485Y14506D01*
G01X4485Y14493D01*
G01X4481Y14481D01*
G01X4473Y14471D01*
G01X4468Y14467D01*
G01X4463Y14464D01*
G01X4427Y14444D01*
G01X4410Y14433D01*
G01X4393Y14421D01*
G01X4377Y14409D01*
G01X4361Y14396D01*
G01X4331Y14368D01*
G01X4303Y14338D01*
G01X4290Y14322D01*
G01X4278Y14306D01*
G01X4266Y14289D01*
G01X4255Y14272D01*
G01X4235Y14236D01*
G01X4227Y14218D01*
G01X4218Y14199D01*
G01X4204Y14161D01*
G01X4198Y14141D01*
G01X4193Y14121D01*
G01X4185Y14081D01*
G01X4182Y14061D01*
G01X4180Y14040D01*
G01X4178Y14000D01*
G01X4179Y13979D01*
G01X4180Y13959D01*
G01X4182Y13938D01*
G01X4185Y13918D01*
G01X4193Y13878D01*
G01X4198Y13858D01*
G01X4204Y13838D01*
G01X4218Y13800D01*
G01X4227Y13781D01*
G01X4235Y13763D01*
G01X4255Y13727D01*
G01X4266Y13710D01*
G01X4278Y13693D01*
G01X4290Y13677D01*
G01X4303Y13661D01*
G01X4331Y13631D01*
G01X4361Y13603D01*
G01X4377Y13590D01*
G01X4393Y13578D01*
G01X4410Y13566D01*
G01X4427Y13555D01*
G01X4463Y13535D01*
G01X4468Y13532D01*
G01X4473Y13528D01*
G01X4481Y13518D01*
G01X4485Y13506D01*
G01X4485Y13493D01*
G01X4481Y13481D01*
G01X4473Y13471D01*
G01X4468Y13467D01*
G01X4463Y13464D01*
G01X4427Y13444D01*
G01X4410Y13433D01*
G01X4393Y13421D01*
G01X4377Y13409D01*
G01X4361Y13396D01*
G01X4331Y13368D01*
G01X4303Y13338D01*
G01X4290Y13322D01*
G01X4278Y13306D01*
G01X4266Y13289D01*
G01X4255Y13272D01*
G01X4235Y13236D01*
G01X4227Y13218D01*
G01X4218Y13199D01*
G01X4204Y13161D01*
G01X4198Y13141D01*
G01X4193Y13121D01*
G01X4185Y13081D01*
G01X4182Y13061D01*
G01X4180Y13040D01*
G01X4178Y13000D01*
G01X4179Y12979D01*
G01X4180Y12959D01*
G01X4182Y12938D01*
G01X4185Y12918D01*
G01X4193Y12878D01*
G01X4198Y12858D01*
G01X4204Y12838D01*
G01X4218Y12800D01*
G01X4227Y12781D01*
G01X4235Y12763D01*
G01X4255Y12727D01*
G01X4266Y12710D01*
G01X4278Y12693D01*
G01X4290Y12677D01*
G01X4303Y12661D01*
G01X4331Y12631D01*
G01X4361Y12603D01*
G01X4377Y12590D01*
G01X4393Y12578D01*
G01X4410Y12566D01*
G01X4427Y12555D01*
G01X4463Y12535D01*
G01X4468Y12532D01*
G01X4473Y12528D01*
G01X4481Y12518D01*
G01X4485Y12506D01*
G01X4485Y12493D01*
G01X4481Y12481D01*
G01X4473Y12471D01*
G01X4468Y12467D01*
G01X4463Y12464D01*
G01X4441Y12452D01*
G01X4419Y12438D01*
G01X4398Y12424D01*
G01X4377Y12409D01*
G01X4372Y12405D01*
G01X4366Y12403D01*
G01X4359Y12401D01*
G01X2614Y12401D01*
G01X2602Y12405D01*
G01X2597Y12408D01*
G01X2561Y12432D01*
G01X2543Y12442D01*
G01X2524Y12452D01*
G01X2505Y12461D01*
G01X2486Y12469D01*
G01X2466Y12477D01*
G01X2446Y12483D01*
G01X2425Y12489D01*
G01X2405Y12494D01*
G01X2384Y12498D01*
G01X2363Y12501D01*
G01X2342Y12503D01*
G01X2300Y12505D01*
G01X2279Y12505D01*
G01X2239Y12501D01*
G01X2218Y12498D01*
G01X2198Y12495D01*
G01X2178Y12490D01*
G01X2159Y12485D01*
G01X2139Y12479D01*
G01X2120Y12472D01*
G01X2102Y12464D01*
G01X2083Y12456D01*
G01X2065Y12447D01*
G01X2047Y12437D01*
G01X2013Y12415D01*
G01X1996Y12403D01*
G01X1980Y12391D01*
G01X1964Y12378D01*
G01X1950Y12364D01*
G01X1935Y12350D01*
G01X1921Y12334D01*
G01X1908Y12319D01*
G01X1896Y12303D01*
G01X1872Y12269D01*
G01X1862Y12252D01*
G01X1852Y12234D01*
G01X1843Y12216D01*
G01X1835Y12198D01*
G01X1827Y12179D01*
G01X1820Y12159D01*
G01X1814Y12140D01*
G01X1809Y12121D01*
G01X1804Y12101D01*
G01X1801Y12080D01*
G01X1798Y12061D01*
G01X1796Y12040D01*
G01X1794Y12020D01*
G01X1794Y11979D01*
G01X1798Y11939D01*
G01X1801Y11919D01*
G01X1804Y11898D01*
G01X1809Y11879D01*
G01X1814Y11859D01*
G01X1820Y11840D01*
G01X1827Y11821D01*
G01X1835Y11801D01*
G01X1843Y11783D01*
G01X1852Y11765D01*
G01X1862Y11747D01*
G01X1872Y11730D01*
G01X1884Y11713D01*
G01X1895Y11696D01*
G01X1908Y11680D01*
G01X1921Y11665D01*
G01X1949Y11635D01*
G01X1964Y11621D01*
G01X1980Y11608D01*
G01X2012Y11584D01*
G01X2029Y11573D01*
G01X2047Y11562D01*
G01X2064Y11552D01*
G01X2088Y11540D01*
G01X2093Y11536D01*
G01X2101Y11526D01*
G01X2103Y11520D01*
G01X2105Y11513D01*
G01X2105Y11501D01*
G01X2103Y11494D01*
G01X2101Y11488D01*
G01X2093Y11478D01*
G01X2088Y11474D01*
G01X2064Y11462D01*
G01X2047Y11452D01*
G01X2029Y11442D01*
G01X2012Y11430D01*
G01X1980Y11406D01*
G01X1964Y11392D01*
G01X1949Y11379D01*
G01X1935Y11364D01*
G01X1921Y11350D01*
G01X1895Y11318D01*
G01X1884Y11301D01*
G01X1872Y11284D01*
G01X1862Y11267D01*
G01X1852Y11249D01*
G01X1843Y11231D01*
G01X1835Y11213D01*
G01X1827Y11194D01*
G01X1820Y11175D01*
G01X1814Y11155D01*
G01X1804Y11115D01*
G01X1801Y11096D01*
G01X1798Y11075D01*
G01X1794Y11035D01*
G01X1794Y10994D01*
G01X1798Y10954D01*
G01X1804Y10914D01*
G01X1814Y10874D01*
G01X1820Y10855D01*
G01X1827Y10836D01*
G01X1843Y10798D01*
G01X1852Y10780D01*
G01X1861Y10763D01*
G01X1872Y10745D01*
G01X1883Y10728D01*
G01X1895Y10711D01*
G01X1907Y10696D01*
G01X1921Y10680D01*
G01X1934Y10665D01*
G01X1964Y10637D01*
G01X1979Y10624D01*
G01X1995Y10611D01*
G01X2011Y10599D01*
G01X2028Y10588D01*
G01X2064Y10568D01*
G01X2081Y10559D01*
G01X2087Y10555D01*
G01X2092Y10551D01*
G01X2100Y10541D01*
G01X2104Y10529D01*
G01X2104Y10516D01*
G01X2100Y10504D01*
G01X2096Y10498D01*
G01X2092Y10494D01*
G01X2087Y10490D01*
G01X2081Y10486D01*
G01X2064Y10477D01*
G01X2028Y10457D01*
G01X2011Y10446D01*
G01X1995Y10434D01*
G01X1979Y10421D01*
G01X1964Y10408D01*
G01X1934Y10380D01*
G01X1921Y10365D01*
G01X1907Y10350D01*
G01X1895Y10334D01*
G01X1883Y10317D01*
G01X1872Y10300D01*
G01X1861Y10282D01*
G01X1852Y10265D01*
G01X1843Y10247D01*
G01X1827Y10209D01*
G01X1820Y10190D01*
G01X1814Y10171D01*
G01X1804Y10131D01*
G01X1798Y10091D01*
G01X1794Y10051D01*
G01X1794Y10010D01*
G01X1798Y9970D01*
G01X1804Y9930D01*
G01X1814Y9890D01*
G01X1820Y9871D01*
G01X1827Y9852D01*
G01X1843Y9814D01*
G01X1861Y9778D01*
G01X1883Y9744D01*
G01X1895Y9728D01*
G01X1907Y9711D01*
G01X1921Y9696D01*
G01X1934Y9681D01*
G01X1964Y9653D01*
G01X1979Y9640D01*
G01X1995Y9627D01*
G01X2011Y9615D01*
G01X2028Y9604D01*
G01X2064Y9584D01*
G01X2081Y9575D01*
G01X2087Y9571D01*
G01X2092Y9567D01*
G01X2096Y9563D01*
G01X2100Y9557D01*
G01X2104Y9545D01*
G01X2104Y9532D01*
G01X2107Y9536D01*
G01X2111Y9540D01*
G01X2116Y9544D01*
G01X2126Y9548D01*
G01X2132Y9550D01*
G01X2137Y9550D01*
G01X2149Y9548D01*
G01X2170Y9542D01*
G01X2191Y9537D01*
G01X2213Y9533D01*
G01X2234Y9529D01*
G01X2256Y9527D01*
G01X2300Y9525D01*
G01X2321Y9526D01*
G01X2343Y9527D01*
G01X2365Y9529D01*
G01X2386Y9533D01*
G01X2408Y9537D01*
G01X2429Y9542D01*
G01X2450Y9548D01*
G01X2462Y9550D01*
G01X2467Y9550D01*
G01X2473Y9548D01*
G01X2483Y9544D01*
G01X2488Y9540D01*
G01X2492Y9536D01*
G01X2495Y9532D01*
G01X2495Y9545D01*
G01X2499Y9557D01*
G01X2503Y9563D01*
G01X2507Y9567D01*
G01X2512Y9571D01*
G01X2518Y9575D01*
G01X2552Y9593D01*
G01X2559Y9596D01*
G01X2566Y9598D01*
G01X4359Y9598D01*
G01X4366Y9596D01*
G01X4372Y9594D01*
G01X4377Y9590D01*
G01X4398Y9575D01*
G01X4419Y9561D01*
G01X4441Y9547D01*
G01X4463Y9535D01*
G01X4468Y9532D01*
G01X4473Y9528D01*
G01X4481Y9518D01*
G01X4485Y9506D01*
G01X4485Y9493D01*
G01X4481Y9481D01*
G01X4473Y9471D01*
G01X4468Y9467D01*
G01X4463Y9464D01*
G01X4427Y9444D01*
G01X4410Y9433D01*
G01X4393Y9421D01*
G01X4377Y9409D01*
G01X4361Y9396D01*
G01X4331Y9368D01*
G01X4303Y9338D01*
G01X4290Y9322D01*
G01X4278Y9306D01*
G01X4266Y9289D01*
G01X4255Y9272D01*
G01X4235Y9236D01*
G01X4227Y9218D01*
G01X4218Y9199D01*
G01X4204Y9161D01*
G01X4198Y9141D01*
G01X4193Y9121D01*
G01X4185Y9081D01*
G01X4182Y9061D01*
G01X4180Y9040D01*
G01X4178Y9000D01*
G01X4179Y8979D01*
G01X4180Y8959D01*
G01X4182Y8938D01*
G01X4185Y8918D01*
G01X4193Y8878D01*
G01X4198Y8858D01*
G01X4204Y8838D01*
G01X4218Y8800D01*
G01X4227Y8781D01*
G01X4235Y8763D01*
G01X4255Y8727D01*
G01X4266Y8710D01*
G01X4278Y8693D01*
G01X4290Y8677D01*
G01X4303Y8661D01*
G01X4331Y8631D01*
G01X4361Y8603D01*
G01X4377Y8590D01*
G01X4393Y8578D01*
G01X4410Y8566D01*
G01X4427Y8555D01*
G01X4463Y8535D01*
G01X4468Y8532D01*
G01X4473Y8528D01*
G01X4481Y8518D01*
G01X4485Y8506D01*
G01X4485Y8493D01*
G01X4481Y8481D01*
G01X4473Y8471D01*
G01X4468Y8467D01*
G01X4463Y8464D01*
G01X4445Y8454D01*
G01X4409Y8432D01*
G01X4392Y8420D01*
G01X4375Y8407D01*
G01X4359Y8394D01*
G01X4343Y8380D01*
G01X4328Y8365D01*
G01X4314Y8350D01*
G01X4300Y8334D01*
G01X4287Y8317D01*
G01X4274Y8301D01*
G01X4241Y8247D01*
G01X4231Y8228D01*
G01X4223Y8209D01*
G01X4489Y8209D01*
G01X4489Y8465D01*
G01X4490Y8471D01*
G01X4491Y8476D01*
G01X4493Y8482D01*
G01X4496Y8486D01*
G01X4499Y8491D01*
G01X4503Y8495D01*
G01X4513Y8501D01*
G01X4518Y8503D01*
G01X4524Y8505D01*
G01X4536Y8505D01*
G01X4542Y8503D01*
G01X4564Y8496D01*
G01X4608Y8486D01*
G01X4654Y8480D01*
G01X4700Y8478D01*
G01X4722Y8479D01*
G01X4745Y8480D01*
G01X4791Y8486D01*
G01X4835Y8496D01*
G01X4857Y8503D01*
G01X4863Y8505D01*
G01X4875Y8505D01*
G01X4881Y8503D01*
G01X4886Y8501D01*
G01X4896Y8495D01*
G01X4900Y8491D01*
G01X4903Y8486D01*
G01X4906Y8482D01*
G01X4908Y8476D01*
G01X4909Y8471D01*
G01X4910Y8465D01*
G01X4910Y8209D01*
G01X5176Y8209D01*
G01X5168Y8228D01*
G01X5158Y8247D01*
G01X5125Y8301D01*
G01X5112Y8317D01*
G01X5099Y8334D01*
G01X5085Y8350D01*
G01X5071Y8365D01*
G01X5056Y8380D01*
G01X5040Y8394D01*
G01X5024Y8407D01*
G01X5007Y8420D01*
G01X4990Y8432D01*
G01X4954Y8454D01*
G01X4936Y8464D01*
G01X4931Y8467D01*
G01X4926Y8471D01*
G01X4918Y8481D01*
G01X4914Y8493D01*
G01X4914Y8506D01*
G01X4918Y8518D01*
G01X4926Y8528D01*
G01X4931Y8532D01*
G01X4936Y8535D01*
G01X4972Y8555D01*
G01X4989Y8566D01*
G01X5006Y8578D01*
G01X5022Y8590D01*
G01X5038Y8603D01*
G01X5068Y8631D01*
G01X5096Y8661D01*
G01X5109Y8677D01*
G01X5121Y8693D01*
G01X5133Y8710D01*
G01X5144Y8727D01*
G01X5164Y8763D01*
G01X5172Y8781D01*
G01X5181Y8800D01*
G01X5195Y8838D01*
G01X5201Y8858D01*
G01X5206Y8878D01*
G01X5214Y8918D01*
G01X5217Y8938D01*
G01X5219Y8959D01*
G01X5220Y8979D01*
G01X5221Y9000D01*
G01X5219Y9040D01*
G01X5217Y9061D01*
G01X5214Y9081D01*
G01X5206Y9121D01*
G01X5201Y9141D01*
G01X5195Y9161D01*
G01X5181Y9199D01*
G01X5172Y9218D01*
G01X5164Y9236D01*
G01X5144Y9272D01*
G01X5133Y9289D01*
G01X5121Y9306D01*
G01X5109Y9322D01*
G01X5096Y9338D01*
G01X5068Y9368D01*
G01X5038Y9396D01*
G01X5022Y9409D01*
G01X5006Y9421D01*
G01X4989Y9433D01*
G01X4972Y9444D01*
G01X4936Y9464D01*
G01X4931Y9467D01*
G01X4926Y9471D01*
G01X4918Y9481D01*
G01X4914Y9493D01*
G01X4914Y9506D01*
G01X4918Y9518D01*
G01X4926Y9528D01*
G01X4931Y9532D01*
G01X4936Y9535D01*
G01X4958Y9547D01*
G01X4980Y9561D01*
G01X5001Y9575D01*
G01X5022Y9590D01*
G01X5027Y9594D01*
G01X5033Y9596D01*
G01X5040Y9598D01*
G01X8464Y9598D01*
G01X8470Y9597D01*
G01X8475Y9595D01*
G01X8485Y9589D01*
G01X8489Y9585D01*
G01X8495Y9575D01*
G01X8497Y9570D01*
G01X8498Y9564D01*
G01X8498Y7540D01*
G01X8496Y7533D01*
G01X8494Y7527D01*
G01X8490Y7521D01*
G01X8477Y7504D01*
G01X8464Y7486D01*
G01X8442Y7448D01*
G01X8432Y7429D01*
G01X8422Y7409D01*
G01X8414Y7389D01*
G01X8406Y7368D01*
G01X8394Y7326D01*
G01X8389Y7305D01*
G01X8385Y7283D01*
G01X8382Y7261D01*
G01X8381Y7255D01*
G01X8375Y7243D01*
G01X8371Y7238D01*
G01X7345Y6212D01*
G01X7340Y6208D01*
G01X7335Y6205D01*
G01X7323Y6201D01*
G01X3014Y6201D01*
G01X3002Y6205D01*
G01X2997Y6208D01*
G01X2977Y6221D01*
G01X2958Y6234D01*
G01X2937Y6245D01*
G01X2917Y6256D01*
G01X2911Y6259D01*
G01X2906Y6263D01*
G01X2898Y6273D01*
G01X2896Y6279D01*
G01X2894Y6286D01*
G01X2894Y6296D01*
G01X2890Y6292D01*
G01X2880Y6284D01*
G01X2874Y6282D01*
G01X2862Y6280D01*
G01X2850Y6282D01*
G01X2829Y6288D01*
G01X2808Y6293D01*
G01X2786Y6297D01*
G01X2765Y6301D01*
G01X2743Y6303D01*
G01X2721Y6304D01*
G01X2700Y6305D01*
G01X2656Y6303D01*
G01X2634Y6301D01*
G01X2613Y6297D01*
G01X2591Y6293D01*
G01X2570Y6288D01*
G01X2549Y6282D01*
G01X2537Y6280D01*
G01X2525Y6282D01*
G01X2519Y6284D01*
G01X2509Y6292D01*
G01X2505Y6296D01*
G01X2505Y6286D01*
G01X2503Y6279D01*
G01X2501Y6273D01*
G01X2493Y6263D01*
G01X2488Y6259D01*
G01X2464Y6247D01*
G01X2447Y6237D01*
G01X2429Y6226D01*
G01X2412Y6215D01*
G01X2380Y6191D01*
G01X2364Y6178D01*
G01X2349Y6164D01*
G01X2321Y6134D01*
G01X2308Y6119D01*
G01X2295Y6103D01*
G01X2284Y6086D01*
G01X2272Y6069D01*
G01X2262Y6052D01*
G01X2252Y6034D01*
G01X2243Y6016D01*
G01X2235Y5998D01*
G01X2227Y5978D01*
G01X2220Y5959D01*
G01X2214Y5940D01*
G01X2209Y5920D01*
G01X2204Y5901D01*
G01X2201Y5880D01*
G01X2198Y5860D01*
G01X2194Y5820D01*
G01X2194Y5779D01*
G01X2196Y5759D01*
G01X2198Y5738D01*
G01X2201Y5719D01*
G01X2204Y5698D01*
G01X2209Y5678D01*
G01X2214Y5659D01*
G01X2220Y5640D01*
G01X2227Y5620D01*
G01X2235Y5601D01*
G01X2243Y5583D01*
G01X2252Y5565D01*
G01X2262Y5547D01*
G01X2272Y5530D01*
G01X2296Y5496D01*
G01X2308Y5480D01*
G01X2321Y5465D01*
G01X2335Y5450D01*
G01X2364Y5421D01*
G01X2380Y5408D01*
G01X2396Y5396D01*
G01X2413Y5384D01*
G01X2447Y5362D01*
G01X2465Y5352D01*
G01X2483Y5343D01*
G01X2502Y5335D01*
G01X2520Y5327D01*
G01X2539Y5320D01*
G01X2559Y5314D01*
G01X2578Y5309D01*
G01X2598Y5304D01*
G01X2618Y5301D01*
G01X2639Y5298D01*
G01X2679Y5294D01*
G01X2700Y5294D01*
G01X2742Y5296D01*
G01X2763Y5298D01*
G01X2784Y5301D01*
G01X2805Y5305D01*
G01X2825Y5310D01*
G01X2846Y5316D01*
G01X2866Y5322D01*
G01X2886Y5330D01*
G01X2905Y5338D01*
G01X2924Y5347D01*
G01X2943Y5357D01*
G01X2961Y5367D01*
G01X2997Y5391D01*
G01X3002Y5394D01*
G01X3014Y5398D01*
G01X7500Y5398D01*
G01X7536Y5400D01*
G01X7555Y5402D01*
G01X7573Y5405D01*
G01X7591Y5409D01*
G01X7627Y5419D01*
G01X7678Y5440D01*
G01X7695Y5449D01*
G01X7710Y5459D01*
G01X7726Y5469D01*
G01X7756Y5491D01*
G01X7770Y5503D01*
G01X8938Y6671D01*
G01X8943Y6675D01*
G01X8955Y6681D01*
G01X8961Y6682D01*
G01X8982Y6685D01*
G01X9022Y6693D01*
G01X9042Y6698D01*
G01X9061Y6704D01*
G01X9099Y6718D01*
G01X9118Y6726D01*
G01X9136Y6736D01*
G01X9155Y6745D01*
G01X9172Y6755D01*
G01X9189Y6767D01*
G01X9206Y6778D01*
G01X9222Y6791D01*
G01X9238Y6803D01*
G01X9268Y6831D01*
G01X9296Y6861D01*
G01X9309Y6877D01*
G01X9321Y6894D01*
G01X9333Y6910D01*
G01X9344Y6928D01*
G01X9354Y6945D01*
G01X9364Y6963D01*
G01X9373Y6982D01*
G01X9381Y7000D01*
G01X9388Y7019D01*
G01X9395Y7039D01*
G01X9401Y7058D01*
G01X9406Y7078D01*
G01X9414Y7118D01*
G01X9417Y7138D01*
G01X9419Y7159D01*
G01X9420Y7179D01*
G01X9421Y7200D01*
G01X9419Y7240D01*
G01X9417Y7261D01*
G01X9414Y7281D01*
G01X9406Y7321D01*
G01X9401Y7341D01*
G01X9395Y7360D01*
G01X9389Y7380D01*
G01X9381Y7398D01*
G01X9373Y7417D01*
G01X9364Y7436D01*
G01X9354Y7454D01*
G01X9344Y7471D01*
G01X9333Y7488D01*
G01X9321Y7505D01*
G01X9309Y7521D01*
G01X9305Y7527D01*
G01X9303Y7533D01*
G01X9301Y7540D01*
G01X9301Y8573D01*
G01X9302Y8578D01*
G01X9304Y8584D01*
G01X9307Y8589D01*
G01X9310Y8593D01*
G01X9314Y8597D01*
G01X9319Y8601D01*
G01X9329Y8605D01*
G01X9335Y8607D01*
G01X11434Y8607D01*
G01X11442Y8606D01*
G01X11461Y8603D01*
G01X11501Y8599D01*
G01X11521Y8598D01*
G01X15523Y8598D01*
G01X15535Y8594D01*
G01X15540Y8591D01*
G01X15545Y8587D01*
G01X16287Y7845D01*
G01X16291Y7840D01*
G01X16294Y7835D01*
G01X16297Y7829D01*
G01X16298Y7823D01*
G01X16298Y4400D01*
G01X16299Y4381D01*
G01X16300Y4363D01*
G01X16302Y4344D01*
G01X16305Y4326D01*
G01X16309Y4308D01*
G01X16319Y4272D01*
G01X16340Y4221D01*
G01X16349Y4204D01*
G01X16359Y4188D01*
G01X16369Y4173D01*
G01X16391Y4143D01*
G01X16403Y4129D01*
G01X16829Y3703D01*
G01X16843Y3691D01*
G01X16873Y3669D01*
G01X16889Y3659D01*
G01X16904Y3649D01*
G01X16921Y3640D01*
G01X16972Y3619D01*
G01X17008Y3609D01*
G01X17026Y3605D01*
G01X17044Y3602D01*
G01X17063Y3600D01*
G01X17081Y3599D01*
G01X17100Y3598D01*
G01X17458Y3598D01*
G01X17465Y3596D01*
G01X17489Y3584D01*
G01X17508Y3575D01*
G01X17527Y3567D01*
G01X17547Y3559D01*
G01X17587Y3547D01*
G01X17607Y3543D01*
G01X17628Y3539D01*
G01X17634Y3538D01*
G01X17639Y3536D01*
G01X17644Y3533D01*
G01X17648Y3530D01*
G01X17652Y3526D01*
G01X17656Y3521D01*
G01X17660Y3511D01*
G01X17661Y3505D01*
G01X17662Y3500D01*
G01X17660Y3488D01*
G01X17656Y3478D01*
G01X17652Y3473D01*
G01X17648Y3469D01*
G01X17644Y3466D01*
G01X17639Y3463D01*
G01X17634Y3461D01*
G01X17628Y3460D01*
G01X17607Y3456D01*
G01X17587Y3452D01*
G01X17547Y3440D01*
G01X17527Y3432D01*
G01X17508Y3425D01*
G01X17489Y3415D01*
G01X17465Y3403D01*
G01X17458Y3401D01*
G01X16176Y3401D01*
G01X16164Y3405D01*
G01X16159Y3408D01*
G01X16154Y3412D01*
G01X16112Y3454D01*
G01X16108Y3459D01*
G01X16105Y3464D01*
G01X16102Y3470D01*
G01X16101Y3476D01*
G01X16101Y5800D01*
G01X16099Y5836D01*
G01X16097Y5855D01*
G01X16094Y5873D01*
G01X16090Y5891D01*
G01X16080Y5927D01*
G01X16059Y5978D01*
G01X16050Y5995D01*
G01X16040Y6011D01*
G01X16030Y6026D01*
G01X16008Y6056D01*
G01X15996Y6070D01*
G01X15370Y6696D01*
G01X15356Y6708D01*
G01X15326Y6730D01*
G01X15310Y6740D01*
G01X15295Y6750D01*
G01X15278Y6759D01*
G01X15227Y6780D01*
G01X15191Y6790D01*
G01X15173Y6794D01*
G01X15155Y6797D01*
G01X15136Y6799D01*
G01X15100Y6801D01*
G01X12796Y6801D01*
G01X12790Y6802D01*
G01X12785Y6804D01*
G01X12775Y6810D01*
G01X12771Y6814D01*
G01X12765Y6824D01*
G01X12763Y6829D01*
G01X12761Y6835D01*
G01X12761Y7198D01*
G01X12763Y7203D01*
G01X12765Y7209D01*
G01X12774Y7228D01*
G01X12788Y7266D01*
G01X12800Y7306D01*
G01X12804Y7326D01*
G01X12807Y7346D01*
G01X12809Y7366D01*
G01X12811Y7387D01*
G01X12811Y7426D01*
G01X12810Y7446D01*
G01X12807Y7465D01*
G01X12805Y7484D01*
G01X12801Y7503D01*
G01X12797Y7521D01*
G01X12791Y7540D01*
G01X12785Y7558D01*
G01X12778Y7576D01*
G01X12771Y7593D01*
G01X12763Y7611D01*
G01X12754Y7627D01*
G01X12744Y7644D01*
G01X12734Y7660D01*
G01X12723Y7676D01*
G01X12711Y7691D01*
G01X12699Y7705D01*
G01X12686Y7719D01*
G01X12672Y7733D01*
G01X12658Y7746D01*
G01X12628Y7770D01*
G01X12613Y7781D01*
G01X12597Y7792D01*
G01X12563Y7810D01*
G01X12546Y7818D01*
G01X12528Y7826D01*
G01X12510Y7833D01*
G01X12492Y7839D01*
G01X12474Y7844D01*
G01X12436Y7852D01*
G01X12417Y7855D01*
G01X12398Y7857D01*
G01X12379Y7858D01*
G01X12341Y7858D01*
G01X12322Y7857D01*
G01X12303Y7855D01*
G01X12284Y7852D01*
G01X12265Y7848D01*
G01X12247Y7844D01*
G01X12228Y7839D01*
G01X12210Y7833D01*
G01X12192Y7826D01*
G01X12174Y7818D01*
G01X12157Y7810D01*
G01X12140Y7801D01*
G01X12124Y7792D01*
G01X12107Y7781D01*
G01X12092Y7770D01*
G01X12062Y7746D01*
G01X12048Y7733D01*
G01X12009Y7691D01*
G01X11997Y7676D01*
G01X11986Y7660D01*
G01X11976Y7644D01*
G01X11966Y7627D01*
G01X11957Y7611D01*
G01X11949Y7593D01*
G01X11942Y7576D01*
G01X11935Y7558D01*
G01X11929Y7540D01*
G01X11924Y7521D01*
G01X11919Y7503D01*
G01X11915Y7484D01*
G01X11911Y7446D01*
G01X11910Y7426D01*
G01X11909Y7407D01*
G01X11910Y7387D01*
G01X11911Y7366D01*
G01X11913Y7346D01*
G01X11921Y7306D01*
G01X11926Y7286D01*
G01X11932Y7266D01*
G01X11939Y7247D01*
G01X11955Y7209D01*
G01X11957Y7203D01*
G01X11959Y7198D01*
G01X11959Y6835D01*
G01X11957Y6829D01*
G01X11956Y6824D01*
G01X11953Y6819D01*
G01X11949Y6814D01*
G01X11945Y6810D01*
G01X11941Y6807D01*
G01X11936Y6804D01*
G01X11930Y6802D01*
G01X11925Y6801D01*
G01X9900Y6801D01*
G01X9881Y6800D01*
G01X9863Y6799D01*
G01X9844Y6797D01*
G01X9826Y6794D01*
G01X9808Y6790D01*
G01X9772Y6780D01*
G01X9721Y6759D01*
G01X9704Y6750D01*
G01X9689Y6740D01*
G01X9673Y6730D01*
G01X9643Y6708D01*
G01X9629Y6696D01*
G01X7845Y4912D01*
G01X7840Y4908D01*
G01X7835Y4905D01*
G01X7823Y4901D01*
G01X6240Y4901D01*
G01X6233Y4903D01*
G01X6227Y4905D01*
G01X6222Y4909D01*
G01X6205Y4921D01*
G01X6189Y4933D01*
G01X6171Y4944D01*
G01X6154Y4954D01*
G01X6136Y4964D01*
G01X6117Y4973D01*
G01X6098Y4981D01*
G01X6080Y4988D01*
G01X6060Y4995D01*
G01X6041Y5001D01*
G01X6001Y5011D01*
G01X5961Y5017D01*
G01X5940Y5019D01*
G01X5900Y5021D01*
G01X5879Y5020D01*
G01X5859Y5019D01*
G01X5838Y5017D01*
G01X5798Y5011D01*
G01X5758Y5001D01*
G01X5739Y4995D01*
G01X5719Y4988D01*
G01X5700Y4981D01*
G01X5681Y4973D01*
G01X5663Y4964D01*
G01X5627Y4944D01*
G01X5610Y4933D01*
G01X5593Y4921D01*
G01X5577Y4909D01*
G01X5561Y4896D01*
G01X5531Y4868D01*
G01X5503Y4838D01*
G01X5490Y4822D01*
G01X5478Y4806D01*
G01X5466Y4789D01*
G01X5455Y4772D01*
G01X5435Y4736D01*
G01X5426Y4718D01*
G01X5418Y4699D01*
G01X5404Y4661D01*
G01X5398Y4641D01*
G01X5393Y4621D01*
G01X5385Y4581D01*
G01X5382Y4561D01*
G01X5380Y4540D01*
G01X5378Y4500D01*
G01X5379Y4479D01*
G01X5380Y4459D01*
G01X5382Y4438D01*
G01X5385Y4418D01*
G01X5393Y4378D01*
G01X5398Y4358D01*
G01X5404Y4338D01*
G01X5418Y4300D01*
G01X5426Y4281D01*
G01X5435Y4263D01*
G01X5455Y4227D01*
G01X5466Y4210D01*
G01X5478Y4193D01*
G01X5490Y4177D01*
G01X5503Y4161D01*
G01X5531Y4131D01*
G01X5561Y4103D01*
G01X5577Y4090D01*
G01X5593Y4078D01*
G01X5610Y4066D01*
G01X5627Y4055D01*
G01X5663Y4035D01*
G01X5681Y4026D01*
G01X5700Y4018D01*
G01X5719Y4011D01*
G01X5739Y4004D01*
G01X5758Y3998D01*
G01X5798Y3988D01*
G01X5838Y3982D01*
G01X5859Y3980D01*
G01X5879Y3979D01*
G01X5900Y3978D01*
G01X5940Y3980D01*
G01X5961Y3982D01*
G01X6001Y3988D01*
G01X6041Y3998D01*
G01X6060Y4004D01*
G01X6080Y4011D01*
G01X6098Y4018D01*
G01X6117Y4026D01*
G01X6136Y4035D01*
G01X6154Y4045D01*
G01X6171Y4055D01*
G01X6189Y4066D01*
G01X6205Y4078D01*
G01X6222Y4090D01*
G01X6227Y4094D01*
G01X6233Y4096D01*
G01X6240Y4098D01*
G01X8000Y4098D01*
G01X8036Y4100D01*
G01X8055Y4102D01*
G01X8073Y4105D01*
G01X8091Y4109D01*
G01X8127Y4119D01*
G01X8178Y4140D01*
G01X8195Y4149D01*
G01X8210Y4159D01*
G01X8226Y4169D01*
G01X8256Y4191D01*
G01X8270Y4203D01*
G01X10054Y5987D01*
G01X10059Y5991D01*
G01X10064Y5994D01*
G01X10076Y5998D01*
G01X12190Y5998D01*
G01X12196Y5997D01*
G01X12201Y5994D01*
G01X12239Y5978D01*
G01X12258Y5971D01*
G01X12278Y5965D01*
G01X12298Y5960D01*
G01X12318Y5956D01*
G01X12338Y5953D01*
G01X12359Y5950D01*
G01X12379Y5949D01*
G01X12400Y5948D01*
G01X12440Y5950D01*
G01X12461Y5953D01*
G01X12481Y5956D01*
G01X12501Y5960D01*
G01X12521Y5965D01*
G01X12541Y5971D01*
G01X12560Y5978D01*
G01X12598Y5994D01*
G01X12603Y5997D01*
G01X12609Y5998D01*
G01X14923Y5998D01*
G01X14935Y5994D01*
G01X14940Y5991D01*
G01X14945Y5987D01*
G01X15287Y5645D01*
G01X15291Y5640D01*
G01X15294Y5635D01*
G01X15297Y5629D01*
G01X15298Y5623D01*
G01X15298Y3300D01*
G01X15299Y3281D01*
G01X15300Y3263D01*
G01X15302Y3244D01*
G01X15305Y3226D01*
G01X15309Y3208D01*
G01X15319Y3172D01*
G01X15340Y3121D01*
G01X15349Y3104D01*
G01X15359Y3088D01*
G01X15369Y3073D01*
G01X15391Y3043D01*
G01X15403Y3029D01*
G01X15729Y2703D01*
G01X15743Y2691D01*
G01X15773Y2669D01*
G01X15789Y2659D01*
G01X15804Y2649D01*
G01X15821Y2640D01*
G01X15872Y2619D01*
G01X15908Y2609D01*
G01X15926Y2605D01*
G01X15944Y2602D01*
G01X15963Y2600D01*
G01X15981Y2599D01*
G01X16000Y2598D01*
G01X17458Y2598D01*
G01X17465Y2596D01*
G01X17489Y2584D01*
G01X17508Y2575D01*
G01X17527Y2567D01*
G01X17547Y2559D01*
G01X17587Y2547D01*
G01X17607Y2543D01*
G01X17628Y2539D01*
G01X17634Y2538D01*
G01X17639Y2536D01*
G01X17644Y2533D01*
G01X17648Y2530D01*
G01X17652Y2526D01*
G01X17656Y2521D01*
G01X17660Y2511D01*
G01X17661Y2505D01*
G01X17662Y2500D01*
G01X17660Y2488D01*
G01X17656Y2478D01*
G01X17652Y2473D01*
G01X17648Y2469D01*
G01X17644Y2466D01*
G01X17639Y2463D01*
G01X17634Y2461D01*
G01X17628Y2460D01*
G01X17609Y2457D01*
G01X17590Y2453D01*
G01X17571Y2448D01*
G01X17552Y2442D01*
G01X17516Y2428D01*
G01X17498Y2420D01*
G01X17464Y2402D01*
G01X17448Y2392D01*
G01X17431Y2381D01*
G01X17401Y2357D01*
G01X17386Y2344D01*
G01X17372Y2331D01*
G01X17346Y2303D01*
G01X17333Y2288D01*
G01X17322Y2272D01*
G01X17310Y2256D01*
G01X17300Y2240D01*
G01X17290Y2223D01*
G01X17281Y2206D01*
G01X17273Y2188D01*
G01X17259Y2152D01*
G01X17253Y2134D01*
G01X17243Y2096D01*
G01X17240Y2077D01*
G01X17237Y2057D01*
G01X17235Y2038D01*
G01X17234Y2019D01*
G01X17234Y1980D01*
G01X17235Y1960D01*
G01X17237Y1940D01*
G01X17240Y1921D01*
G01X17244Y1901D01*
G01X17248Y1882D01*
G01X17260Y1844D01*
G01X17267Y1826D01*
G01X17275Y1807D01*
G01X17283Y1790D01*
G01X17293Y1772D01*
G01X17303Y1755D01*
G01X17314Y1738D01*
G01X17325Y1723D01*
G01X17337Y1707D01*
G01X17363Y1677D01*
G01X17377Y1663D01*
G01X17407Y1637D01*
G01X17422Y1625D01*
G01X17439Y1613D01*
G01X17455Y1603D01*
G01X17472Y1593D01*
G01X17490Y1583D01*
G01X17507Y1575D01*
G01X17526Y1567D01*
G01X17544Y1560D01*
G01X17582Y1548D01*
G01X17601Y1544D01*
G01X17621Y1540D01*
G01X17640Y1537D01*
G01X17660Y1535D01*
G01X17680Y1534D01*
G01X17719Y1534D01*
G01X17739Y1535D01*
G01X17759Y1537D01*
G01X17778Y1540D01*
G01X17798Y1544D01*
G01X17817Y1548D01*
G01X17855Y1560D01*
G01X17873Y1567D01*
G01X17892Y1575D01*
G01X17909Y1583D01*
G01X17927Y1593D01*
G01X17944Y1603D01*
G01X17960Y1613D01*
G01X17977Y1625D01*
G01X17992Y1637D01*
G01X18022Y1663D01*
G01X18036Y1677D01*
G01X18062Y1707D01*
G01X18074Y1723D01*
G01X18085Y1738D01*
G01X18096Y1755D01*
G01X18106Y1772D01*
G01X18116Y1790D01*
G01X18124Y1807D01*
G01X18132Y1826D01*
G01X18139Y1844D01*
G01X18151Y1882D01*
G01X18155Y1901D01*
G01X18159Y1921D01*
G01X18162Y1940D01*
G01X18164Y1960D01*
G01X18165Y1980D01*
G01X18165Y2019D01*
G01X18164Y2038D01*
G01X18162Y2057D01*
G01X18159Y2077D01*
G01X18156Y2096D01*
G01X18146Y2134D01*
G01X18140Y2152D01*
G01X18126Y2188D01*
G01X18118Y2206D01*
G01X18109Y2223D01*
G01X18099Y2240D01*
G01X18089Y2256D01*
G01X18077Y2272D01*
G01X18066Y2288D01*
G01X18053Y2303D01*
G01X18027Y2331D01*
G01X18013Y2344D01*
G01X17998Y2357D01*
G01X17968Y2381D01*
G01X17951Y2392D01*
G01X17935Y2402D01*
G01X17901Y2420D01*
G01X17883Y2428D01*
G01X17847Y2442D01*
G01X17828Y2448D01*
G01X17809Y2453D01*
G01X17790Y2457D01*
G01X17771Y2460D01*
G01X17765Y2461D01*
G01X17760Y2463D01*
G01X17755Y2466D01*
G01X17751Y2469D01*
G01X17747Y2473D01*
G01X17743Y2478D01*
G01X17739Y2488D01*
G01X17737Y2500D01*
G01X17738Y2505D01*
G01X17739Y2511D01*
G01X17743Y2521D01*
G01X17747Y2526D01*
G01X17751Y2530D01*
G01X17755Y2533D01*
G01X17760Y2536D01*
G01X17765Y2538D01*
G01X17771Y2539D01*
G01X17790Y2542D01*
G01X17809Y2546D01*
G01X17828Y2551D01*
G01X17847Y2557D01*
G01X17883Y2571D01*
G01X17901Y2579D01*
G01X17935Y2597D01*
G01X17951Y2607D01*
G01X17968Y2618D01*
G01X17998Y2642D01*
G01X18013Y2655D01*
G01X18027Y2668D01*
G01X18053Y2696D01*
G01X18066Y2711D01*
G01X18077Y2727D01*
G01X18089Y2743D01*
G01X18099Y2759D01*
G01X18109Y2776D01*
G01X18118Y2793D01*
G01X18126Y2811D01*
G01X18140Y2847D01*
G01X18146Y2865D01*
G01X18156Y2903D01*
G01X18159Y2922D01*
G01X18162Y2942D01*
G01X18164Y2961D01*
G01X18165Y2980D01*
G01X18165Y3019D01*
G01X18164Y3038D01*
G01X18162Y3057D01*
G01X18159Y3077D01*
G01X18156Y3096D01*
G01X18146Y3134D01*
G01X18140Y3152D01*
G01X18126Y3188D01*
G01X18118Y3206D01*
G01X18109Y3223D01*
G01X18099Y3240D01*
G01X18089Y3256D01*
G01X18077Y3272D01*
G01X18066Y3288D01*
G01X18053Y3303D01*
G01X18027Y3331D01*
G01X18013Y3344D01*
G01X17998Y3357D01*
G01X17968Y3381D01*
G01X17951Y3392D01*
G01X17935Y3402D01*
G01X17901Y3420D01*
G01X17883Y3428D01*
G01X17847Y3442D01*
G01X17828Y3448D01*
G01X17809Y3453D01*
G01X17790Y3457D01*
G01X17771Y3460D01*
G01X17765Y3461D01*
G01X17760Y3463D01*
G01X17755Y3466D01*
G01X17751Y3469D01*
G01X17747Y3473D01*
G01X17743Y3478D01*
G01X17739Y3488D01*
G01X17737Y3500D01*
G01X17738Y3505D01*
G01X17739Y3511D01*
G01X17743Y3521D01*
G01X17747Y3526D01*
G01X17751Y3530D01*
G01X17755Y3533D01*
G01X17760Y3536D01*
G01X17765Y3538D01*
G01X17771Y3539D01*
G01X17790Y3542D01*
G01X17809Y3546D01*
G01X17828Y3551D01*
G01X17847Y3557D01*
G01X17883Y3571D01*
G01X17901Y3579D01*
G01X17935Y3597D01*
G01X17951Y3607D01*
G01X17968Y3618D01*
G01X17998Y3642D01*
G01X18013Y3655D01*
G01X18027Y3668D01*
G01X18053Y3696D01*
G01X18066Y3711D01*
G01X18077Y3727D01*
G01X18089Y3743D01*
G01X18099Y3759D01*
G01X18109Y3776D01*
G01X18118Y3793D01*
G01X18126Y3811D01*
G01X18140Y3847D01*
G01X18146Y3865D01*
G01X18156Y3903D01*
G01X18159Y3922D01*
G01X18162Y3942D01*
G01X18164Y3961D01*
G01X18165Y3980D01*
G01X18165Y4019D01*
G01X18164Y4038D01*
G01X18162Y4057D01*
G01X18159Y4077D01*
G01X18156Y4096D01*
G01X18146Y4134D01*
G01X18140Y4152D01*
G01X18126Y4188D01*
G01X18118Y4206D01*
G01X18109Y4223D01*
G01X18099Y4240D01*
G01X18089Y4256D01*
G01X18077Y4272D01*
G01X18066Y4288D01*
G01X18053Y4303D01*
G01X18027Y4331D01*
G01X18013Y4344D01*
G01X17998Y4357D01*
G01X17968Y4381D01*
G01X17951Y4392D01*
G01X17935Y4402D01*
G01X17901Y4420D01*
G01X17883Y4428D01*
G01X17847Y4442D01*
G01X17828Y4448D01*
G01X17809Y4453D01*
G01X17790Y4457D01*
G01X17771Y4460D01*
G01X17765Y4461D01*
G01X17760Y4463D01*
G01X17755Y4466D01*
G01X17751Y4469D01*
G01X17747Y4473D01*
G01X17743Y4478D01*
G01X17739Y4488D01*
G01X17737Y4500D01*
G01X17738Y4505D01*
G01X17739Y4511D01*
G01X17743Y4521D01*
G01X17747Y4526D01*
G01X17751Y4530D01*
G01X17755Y4533D01*
G01X17760Y4536D01*
G01X17765Y4538D01*
G01X17771Y4539D01*
G01X17790Y4542D01*
G01X17809Y4546D01*
G01X17828Y4551D01*
G01X17847Y4557D01*
G01X17883Y4571D01*
G01X17901Y4579D01*
G01X17935Y4597D01*
G01X17951Y4607D01*
G01X17968Y4618D01*
G01X17998Y4642D01*
G01X18013Y4655D01*
G01X18027Y4668D01*
G01X18053Y4696D01*
G01X18066Y4711D01*
G01X18077Y4727D01*
G01X18089Y4743D01*
G01X18099Y4759D01*
G01X18109Y4776D01*
G01X18118Y4793D01*
G01X18126Y4811D01*
G01X18140Y4847D01*
G01X18146Y4865D01*
G01X18156Y4903D01*
G01X18159Y4922D01*
G01X18162Y4942D01*
G01X18164Y4961D01*
G01X18165Y4980D01*
G01X18165Y5019D01*
G01X18164Y5039D01*
G01X18162Y5059D01*
G01X18159Y5078D01*
G01X18155Y5098D01*
G01X18151Y5117D01*
G01X18139Y5155D01*
G01X18132Y5173D01*
G01X18124Y5192D01*
G01X18116Y5209D01*
G01X18106Y5227D01*
G01X18096Y5244D01*
G01X18085Y5261D01*
G01X18074Y5276D01*
G01X18062Y5292D01*
G01X18036Y5322D01*
G01X18022Y5336D01*
G01X17992Y5362D01*
G01X17977Y5374D01*
G01X17960Y5386D01*
G01X17944Y5396D01*
G01X17927Y5406D01*
G01X17909Y5416D01*
G01X17892Y5424D01*
G01X17873Y5432D01*
G01X17855Y5439D01*
G01X17817Y5451D01*
G01X17798Y5455D01*
G01X17778Y5459D01*
G01X17759Y5462D01*
G01X17739Y5464D01*
G01X17719Y5465D01*
G01X17680Y5465D01*
G01X17660Y5464D01*
G01X17640Y5462D01*
G01X17621Y5459D01*
G01X17601Y5455D01*
G01X17582Y5451D01*
G01X17544Y5439D01*
G01X17526Y5432D01*
G01X17507Y5424D01*
G01X17490Y5416D01*
G01X17472Y5406D01*
G01X17455Y5396D01*
G01X17439Y5386D01*
G01X17422Y5374D01*
G01X17407Y5362D01*
G01X17377Y5336D01*
G01X17363Y5322D01*
G01X17337Y5292D01*
G01X17325Y5276D01*
G01X17314Y5261D01*
G01X17303Y5244D01*
G01X17293Y5227D01*
G01X17283Y5209D01*
G01X17275Y5192D01*
G01X17267Y5173D01*
G01X17260Y5155D01*
G01X17248Y5117D01*
G01X17244Y5098D01*
G01X17240Y5078D01*
G01X17237Y5059D01*
G01X17235Y5039D01*
G01X17234Y5019D01*
G01X17234Y4980D01*
G01X17235Y4961D01*
G01X17237Y4942D01*
G01X17240Y4922D01*
G01X17243Y4903D01*
G01X17253Y4865D01*
G01X17259Y4847D01*
G01X17273Y4811D01*
G01X17281Y4793D01*
G01X17290Y4776D01*
G01X17300Y4759D01*
G01X17310Y4743D01*
G01X17322Y4727D01*
G01X17333Y4711D01*
G01X17346Y4696D01*
G01X17372Y4668D01*
G01X17386Y4655D01*
G01X17401Y4642D01*
G01X17431Y4618D01*
G01X17448Y4607D01*
G01X17464Y4597D01*
G01X17498Y4579D01*
G01X17516Y4571D01*
G01X17552Y4557D01*
G01X17571Y4551D01*
G01X17590Y4546D01*
G01X17609Y4542D01*
G01X17628Y4539D01*
G01X17634Y4538D01*
G01X17639Y4536D01*
G01X17644Y4533D01*
G01X17648Y4530D01*
G01X17652Y4526D01*
G01X17656Y4521D01*
G01X17660Y4511D01*
G01X17661Y4505D01*
G01X17662Y4500D01*
G01X17660Y4488D01*
G01X17656Y4478D01*
G01X17652Y4473D01*
G01X17648Y4469D01*
G01X17644Y4466D01*
G01X17639Y4463D01*
G01X17634Y4461D01*
G01X17628Y4460D01*
G01X17607Y4456D01*
G01X17587Y4452D01*
G01X17547Y4440D01*
G01X17527Y4432D01*
G01X17508Y4425D01*
G01X17489Y4415D01*
G01X17465Y4403D01*
G01X17458Y4401D01*
G01X17276Y4401D01*
G01X17264Y4405D01*
G01X17259Y4408D01*
G01X17254Y4412D01*
G01X17112Y4554D01*
G01X17108Y4559D01*
G01X17105Y4564D01*
G01X17102Y4570D01*
G01X17101Y4576D01*
G01X17101Y8000D01*
G01X17099Y8036D01*
G01X17097Y8055D01*
G01X17094Y8073D01*
G01X17090Y8091D01*
G01X17080Y8127D01*
G01X17059Y8178D01*
G01X17050Y8195D01*
G01X17040Y8211D01*
G01X17030Y8226D01*
G01X17008Y8256D01*
G01X16996Y8270D01*
G01X15970Y9296D01*
G01X15956Y9308D01*
G01X15926Y9330D01*
G01X15910Y9340D01*
G01X15895Y9350D01*
G01X15878Y9359D01*
G01X15827Y9380D01*
G01X15791Y9390D01*
G01X15773Y9394D01*
G01X15755Y9397D01*
G01X15736Y9399D01*
G01X15700Y9401D01*
G01X11590Y9401D01*
G01X11571Y9405D01*
G01X11551Y9407D01*
G01X11532Y9409D01*
G01X9335Y9409D01*
G01X9329Y9411D01*
G01X9319Y9415D01*
G01X9314Y9419D01*
G01X9310Y9423D01*
G01X9307Y9427D01*
G01X9304Y9432D01*
G01X9302Y9438D01*
G01X9301Y9443D01*
G01X9301Y10000D01*
G01X9300Y10017D01*
G01X9299Y10036D01*
G01X9297Y10053D01*
G01X9294Y10071D01*
G01X9290Y10089D01*
G01X9286Y10106D01*
G01X9281Y10123D01*
G01X9275Y10140D01*
G01X9268Y10157D01*
G01X9261Y10173D01*
G01X9253Y10190D01*
G01X9244Y10205D01*
G01X9234Y10221D01*
G01X9224Y10235D01*
G01X9213Y10250D01*
G01X9202Y10263D01*
G01X9189Y10277D01*
G01X9177Y10289D01*
G01X9163Y10301D01*
G01X9150Y10313D01*
G01X9135Y10324D01*
G01X9121Y10334D01*
G01X9105Y10344D01*
G01X9089Y10353D01*
G01X9073Y10361D01*
G01X9057Y10368D01*
G01X9040Y10375D01*
G01X9023Y10381D01*
G01X9006Y10386D01*
G01X8989Y10390D01*
G01X8971Y10394D01*
G01X8953Y10397D01*
G01X8935Y10399D01*
G01X8918Y10400D01*
G01X8900Y10401D01*
G01X8536Y10401D01*
G01X8530Y10402D01*
G01X8525Y10404D01*
G01X8515Y10410D01*
G01X8511Y10414D01*
G01X8505Y10424D01*
G01X8503Y10429D01*
G01X8502Y10435D01*
G01X8502Y10773D01*
G01X8503Y10779D01*
G01X8505Y10784D01*
G01X8511Y10794D01*
G01X8515Y10798D01*
G01X8525Y10804D01*
G01X8530Y10806D01*
G01X8536Y10807D01*
G01X8548Y10807D01*
G01X8555Y10805D01*
G01X8561Y10802D01*
G01X8567Y10798D01*
G01X8584Y10785D01*
G01X8618Y10761D01*
G01X8636Y10750D01*
G01X8674Y10730D01*
G01X8693Y10721D01*
G01X8713Y10713D01*
G01X8733Y10706D01*
G01X8773Y10694D01*
G01X8794Y10689D01*
G01X8815Y10685D01*
G01X8836Y10682D01*
G01X8857Y10680D01*
G01X8878Y10679D01*
G01X8900Y10678D01*
G01X8940Y10680D01*
G01X8961Y10682D01*
G01X9001Y10688D01*
G01X9041Y10698D01*
G01X9060Y10704D01*
G01X9080Y10711D01*
G01X9098Y10718D01*
G01X9117Y10726D01*
G01X9136Y10735D01*
G01X9154Y10745D01*
G01X9171Y10755D01*
G01X9189Y10766D01*
G01X9205Y10778D01*
G01X9222Y10790D01*
G01X9227Y10794D01*
G01X9233Y10796D01*
G01X9240Y10798D01*
G01X10199Y10798D01*
G01X10206Y10796D01*
G01X10211Y10794D01*
G01X10217Y10790D01*
G01X10222Y10786D01*
G01X10226Y10781D01*
G01X10229Y10776D01*
G01X10249Y10738D01*
G01X10260Y10720D01*
G01X10272Y10702D01*
G01X10285Y10684D01*
G01X10298Y10668D01*
G01X10326Y10636D01*
G01X10342Y10621D01*
G01X10357Y10607D01*
G01X10374Y10593D01*
G01X10390Y10580D01*
G01X10426Y10556D01*
G01X10444Y10545D01*
G01X10463Y10535D01*
G01X10468Y10532D01*
G01X10473Y10528D01*
G01X10481Y10518D01*
G01X10485Y10506D01*
G01X10485Y10493D01*
G01X10481Y10481D01*
G01X10473Y10471D01*
G01X10468Y10467D01*
G01X10463Y10464D01*
G01X10445Y10454D01*
G01X10409Y10432D01*
G01X10392Y10420D01*
G01X10375Y10407D01*
G01X10359Y10394D01*
G01X10343Y10380D01*
G01X10328Y10365D01*
G01X10314Y10350D01*
G01X10300Y10334D01*
G01X10287Y10317D01*
G01X10274Y10301D01*
G01X10241Y10247D01*
G01X10231Y10228D01*
G01X10223Y10209D01*
G01X10489Y10209D01*
G01X10489Y10465D01*
G01X10490Y10471D01*
G01X10491Y10476D01*
G01X10493Y10482D01*
G01X10496Y10486D01*
G01X10499Y10491D01*
G01X10503Y10495D01*
G01X10513Y10501D01*
G01X10518Y10503D01*
G01X10524Y10505D01*
G01X10536Y10505D01*
G01X10542Y10503D01*
G01X10564Y10496D01*
G01X10608Y10486D01*
G01X10654Y10480D01*
G01X10700Y10478D01*
G01X10722Y10479D01*
G01X10745Y10480D01*
G01X10791Y10486D01*
G01X10835Y10496D01*
G01X10857Y10503D01*
G01X10863Y10505D01*
G01X10875Y10505D01*
G01X10881Y10503D01*
G01X10886Y10501D01*
G01X10896Y10495D01*
G01X10900Y10491D01*
G01X10903Y10486D01*
G01X10906Y10482D01*
G01X10908Y10476D01*
G01X10909Y10471D01*
G01X10910Y10465D01*
G01X10910Y10209D01*
G01X11176Y10209D01*
G01X11168Y10228D01*
G01X11158Y10247D01*
G01X11125Y10301D01*
G01X11112Y10317D01*
G01X11099Y10334D01*
G01X11085Y10350D01*
G01X11071Y10365D01*
G01X11056Y10380D01*
G01X11040Y10394D01*
G01X11024Y10407D01*
G01X11007Y10420D01*
G01X10990Y10432D01*
G01X10954Y10454D01*
G01X10936Y10464D01*
G01X10931Y10467D01*
G01X10926Y10471D01*
G01X10918Y10481D01*
G01X10914Y10493D01*
G01X10914Y10506D01*
G01X10918Y10518D01*
G01X10926Y10528D01*
G01X10931Y10532D01*
G01X10936Y10535D01*
G01X10958Y10547D01*
G01X10980Y10561D01*
G01X11001Y10575D01*
G01X11022Y10590D01*
G01X11027Y10594D01*
G01X11033Y10596D01*
G01X11040Y10598D01*
G01X13000Y10598D01*
G01X13036Y10600D01*
G01X13055Y10602D01*
G01X13073Y10605D01*
G01X13091Y10609D01*
G01X13127Y10619D01*
G01X13144Y10626D01*
G01X13161Y10632D01*
G01X13178Y10640D01*
G01X13194Y10649D01*
G01X13226Y10669D01*
G01X13241Y10679D01*
G01X13256Y10691D01*
G01X13269Y10703D01*
G01X13283Y10716D01*
G01X13296Y10729D01*
G01X13308Y10743D01*
G01X13319Y10757D01*
G01X13330Y10773D01*
G01X13340Y10788D01*
G01X13350Y10804D01*
G01X13358Y10820D01*
G01X13366Y10837D01*
G01X13373Y10854D01*
G01X13377Y10861D01*
G01X13387Y10878D01*
G01X13396Y10894D01*
G01X13405Y10912D01*
G01X13419Y10948D01*
G01X13425Y10966D01*
G01X13431Y10985D01*
G01X13435Y11003D01*
G01X13439Y11023D01*
G01X13442Y11042D01*
G01X13444Y11061D01*
G01X13445Y11080D01*
G01X13446Y11100D01*
G01X13444Y11138D01*
G01X13442Y11156D01*
G01X13436Y11194D01*
G01X13426Y11230D01*
G01X13414Y11266D01*
G01X13406Y11284D01*
G01X13398Y11301D01*
G01X13389Y11318D01*
G01X13369Y11350D01*
G01X13358Y11365D01*
G01X13334Y11395D01*
G01X13321Y11409D01*
G01X13308Y11422D01*
G01X13294Y11435D01*
G01X13264Y11459D01*
G01X13248Y11470D01*
G01X13216Y11490D01*
G01X13199Y11498D01*
G01X13182Y11507D01*
G01X13165Y11514D01*
G01X13147Y11521D01*
G01X13141Y11523D01*
G01X13136Y11526D01*
G01X13127Y11535D01*
G01X13124Y11541D01*
G01X13122Y11546D01*
G01X13121Y11552D01*
G01X13120Y11559D01*
G01X13121Y11564D01*
G01X13122Y11570D01*
G01X13124Y11575D01*
G01X13130Y11585D01*
G01X13134Y11589D01*
G01X13139Y11592D01*
G01X13143Y11595D01*
G01X13149Y11597D01*
G01X13154Y11598D01*
G01X13536Y11598D01*
G01X13557Y11596D01*
G01X13578Y11595D01*
G01X13600Y11594D01*
G01X13642Y11596D01*
G01X13663Y11598D01*
G01X13684Y11601D01*
G01X13705Y11605D01*
G01X13725Y11610D01*
G01X13746Y11616D01*
G01X13766Y11622D01*
G01X13786Y11630D01*
G01X13805Y11638D01*
G01X13824Y11647D01*
G01X13843Y11657D01*
G01X13861Y11667D01*
G01X13897Y11691D01*
G01X13902Y11694D01*
G01X13914Y11698D01*
G01X14962Y11698D01*
G01X14974Y11694D01*
G01X14980Y11690D01*
G01X14990Y11683D01*
G01X15000Y11677D01*
G01X15011Y11672D01*
G01X15023Y11667D01*
G01X15047Y11661D01*
G01X15071Y11659D01*
G01X15528Y11659D01*
G01X15539Y11660D01*
G01X15551Y11661D01*
G01X15561Y11663D01*
G01X15583Y11669D01*
G01X15603Y11679D01*
G01X15613Y11685D01*
G01X15622Y11692D01*
G01X15630Y11699D01*
G01X15646Y11715D01*
G01X15652Y11725D01*
G01X15658Y11734D01*
G01X15664Y11744D01*
G01X15667Y11750D01*
G01X15676Y11759D01*
G01X15681Y11762D01*
G01X15687Y11765D01*
G01X15693Y11766D01*
G01X15700Y11767D01*
G01X15712Y11765D01*
G01X15718Y11762D01*
G01X15723Y11759D01*
G01X15732Y11750D01*
G01X15735Y11744D01*
G01X15741Y11734D01*
G01X15747Y11725D01*
G01X15754Y11715D01*
G01X15761Y11707D01*
G01X15769Y11699D01*
G01X15777Y11692D01*
G01X15786Y11685D01*
G01X15796Y11679D01*
G01X15816Y11669D01*
G01X15838Y11663D01*
G01X15849Y11661D01*
G01X15871Y11659D01*
G01X15960Y11659D01*
G01X15960Y11930D01*
G01X15715Y11930D01*
G01X15700Y11936D01*
G01X15695Y11940D01*
G01X15691Y11944D01*
G01X15688Y11948D01*
G01X15685Y11953D01*
G01X15683Y11959D01*
G01X15681Y11964D01*
G01X15681Y11976D01*
G01X15683Y11982D01*
G01X15693Y12020D01*
G01X15699Y12060D01*
G01X15701Y12100D01*
G01X15700Y12119D01*
G01X15699Y12140D01*
G01X15696Y12159D01*
G01X15693Y12179D01*
G01X15683Y12217D01*
G01X15681Y12223D01*
G01X15681Y12235D01*
G01X15683Y12240D01*
G01X15685Y12246D01*
G01X15688Y12251D01*
G01X15691Y12255D01*
G01X15695Y12259D01*
G01X15700Y12263D01*
G01X15705Y12266D01*
G01X15710Y12268D01*
G01X15715Y12269D01*
G01X15960Y12269D01*
G01X15960Y12540D01*
G01X15860Y12540D01*
G01X15838Y12536D01*
G01X15816Y12530D01*
G01X15796Y12520D01*
G01X15786Y12514D01*
G01X15777Y12507D01*
G01X15769Y12500D01*
G01X15761Y12492D01*
G01X15754Y12484D01*
G01X15747Y12475D01*
G01X15732Y12450D01*
G01X15728Y12445D01*
G01X15723Y12440D01*
G01X15718Y12437D01*
G01X15706Y12433D01*
G01X15693Y12433D01*
G01X15681Y12437D01*
G01X15676Y12440D01*
G01X15671Y12445D01*
G01X15667Y12450D01*
G01X15652Y12475D01*
G01X15646Y12484D01*
G01X15630Y12500D01*
G01X15622Y12507D01*
G01X15613Y12514D01*
G01X15603Y12520D01*
G01X15583Y12530D01*
G01X15561Y12536D01*
G01X15551Y12538D01*
G01X15539Y12540D01*
G01X15071Y12540D01*
G01X15047Y12538D01*
G01X15023Y12532D01*
G01X15011Y12528D01*
G01X14989Y12516D01*
G01X14980Y12509D01*
G01X14974Y12505D01*
G01X14962Y12501D01*
G01X13914Y12501D01*
G01X13902Y12505D01*
G01X13897Y12508D01*
G01X13877Y12521D01*
G01X13858Y12534D01*
G01X13837Y12545D01*
G01X13817Y12556D01*
G01X13811Y12559D01*
G01X13806Y12563D01*
G01X13798Y12573D01*
G01X13796Y12579D01*
G01X13794Y12586D01*
G01X13794Y12598D01*
G01X13796Y12605D01*
G01X13798Y12611D01*
G01X13806Y12621D01*
G01X13811Y12625D01*
G01X13817Y12628D01*
G01X13837Y12639D01*
G01X13858Y12650D01*
G01X13877Y12663D01*
G01X13897Y12676D01*
G01X13902Y12679D01*
G01X13908Y12682D01*
G01X13920Y12684D01*
G01X14978Y12684D01*
G01X14985Y12683D01*
G01X14992Y12681D01*
G01X14997Y12678D01*
G01X15007Y12673D01*
G01X15018Y12669D01*
G01X15028Y12665D01*
G01X15039Y12663D01*
G01X15049Y12661D01*
G01X15071Y12659D01*
G01X15528Y12659D01*
G01X15539Y12660D01*
G01X15551Y12661D01*
G01X15561Y12663D01*
G01X15583Y12669D01*
G01X15603Y12679D01*
G01X15613Y12685D01*
G01X15622Y12692D01*
G01X15630Y12699D01*
G01X15646Y12715D01*
G01X15652Y12725D01*
G01X15658Y12734D01*
G01X15664Y12744D01*
G01X15667Y12750D01*
G01X15676Y12759D01*
G01X15681Y12762D01*
G01X15687Y12765D01*
G01X15693Y12766D01*
G01X15700Y12767D01*
G01X15712Y12765D01*
G01X15718Y12762D01*
G01X15723Y12759D01*
G01X15732Y12750D01*
G01X15735Y12744D01*
G01X15741Y12734D01*
G01X15747Y12725D01*
G01X15754Y12715D01*
G01X15761Y12707D01*
G01X15769Y12699D01*
G01X15777Y12692D01*
G01X15786Y12685D01*
G01X15796Y12679D01*
G01X15816Y12669D01*
G01X15838Y12663D01*
G01X15849Y12661D01*
G01X15871Y12659D01*
G01X15960Y12659D01*
G01X15960Y12930D01*
G01X15715Y12930D01*
G01X15700Y12936D01*
G01X15695Y12940D01*
G01X15691Y12944D01*
G01X15688Y12948D01*
G01X15685Y12953D01*
G01X15683Y12959D01*
G01X15681Y12964D01*
G01X15681Y12976D01*
G01X15683Y12982D01*
G01X15693Y13020D01*
G01X15699Y13060D01*
G01X15701Y13100D01*
G01X15700Y13119D01*
G01X15699Y13140D01*
G01X15696Y13159D01*
G01X15693Y13179D01*
G01X15683Y13217D01*
G01X15681Y13223D01*
G01X15681Y13235D01*
G01X15683Y13240D01*
G01X15685Y13246D01*
G01X15688Y13251D01*
G01X15691Y13255D01*
G01X15695Y13259D01*
G01X15700Y13263D01*
G01X15705Y13266D01*
G01X15710Y13268D01*
G01X15715Y13269D01*
G01X15960Y13269D01*
G01X15960Y13540D01*
G01X15860Y13540D01*
G01X15838Y13536D01*
G01X15816Y13530D01*
G01X15796Y13520D01*
G01X15786Y13514D01*
G01X15777Y13507D01*
G01X15769Y13500D01*
G01X15761Y13492D01*
G01X15754Y13484D01*
G01X15747Y13475D01*
G01X15732Y13450D01*
G01X15728Y13445D01*
G01X15723Y13440D01*
G01X15718Y13437D01*
G01X15706Y13433D01*
G01X15693Y13433D01*
G01X15681Y13437D01*
G01X15676Y13440D01*
G01X15671Y13445D01*
G01X15667Y13450D01*
G01X15652Y13475D01*
G01X15646Y13484D01*
G01X15630Y13500D01*
G01X15622Y13507D01*
G01X15613Y13514D01*
G01X15603Y13520D01*
G01X15583Y13530D01*
G01X15561Y13536D01*
G01X15551Y13538D01*
G01X15539Y13540D01*
G01X15060Y13540D01*
G01X15036Y13536D01*
G01X15025Y13533D01*
G01X15014Y13529D01*
G01X15004Y13524D01*
G01X14993Y13518D01*
G01X14984Y13512D01*
G01X14975Y13505D01*
G01X14966Y13497D01*
G01X14961Y13493D01*
G01X14956Y13490D01*
G01X14944Y13486D01*
G01X13914Y13486D01*
G01X13902Y13490D01*
G01X13897Y13493D01*
G01X13878Y13506D01*
G01X13858Y13519D01*
G01X13838Y13530D01*
G01X13818Y13540D01*
G01X13812Y13544D01*
G01X13807Y13548D01*
G01X13799Y13558D01*
G01X13795Y13570D01*
G01X13795Y13583D01*
G01X13799Y13595D01*
G01X13803Y13601D01*
G01X13807Y13605D01*
G01X13812Y13609D01*
G01X13818Y13613D01*
G01X13838Y13623D01*
G01X13858Y13634D01*
G01X13878Y13647D01*
G01X13897Y13660D01*
G01X13902Y13663D01*
G01X13914Y13667D01*
G01X15021Y13667D01*
G01X15027Y13666D01*
G01X15038Y13663D01*
G01X15060Y13659D01*
G01X15539Y13659D01*
G01X15561Y13663D01*
G01X15583Y13669D01*
G01X15603Y13679D01*
G01X15613Y13685D01*
G01X15622Y13692D01*
G01X15630Y13699D01*
G01X15646Y13715D01*
G01X15652Y13725D01*
G01X15658Y13734D01*
G01X15667Y13749D01*
G01X15671Y13754D01*
G01X15676Y13759D01*
G01X15681Y13762D01*
G01X15693Y13766D01*
G01X15706Y13766D01*
G01X15718Y13762D01*
G01X15723Y13759D01*
G01X15728Y13754D01*
G01X15732Y13749D01*
G01X15741Y13734D01*
G01X15747Y13725D01*
G01X15753Y13715D01*
G01X15769Y13699D01*
G01X15777Y13692D01*
G01X15786Y13685D01*
G01X15796Y13679D01*
G01X15816Y13669D01*
G01X15838Y13663D01*
G01X15860Y13659D01*
G01X15960Y13659D01*
G01X15960Y13930D01*
G01X15715Y13930D01*
G01X15710Y13931D01*
G01X15704Y13933D01*
G01X15699Y13936D01*
G01X15687Y13948D01*
G01X15685Y13953D01*
G01X15682Y13959D01*
G01X15681Y13964D01*
G01X15681Y13976D01*
G01X15683Y13982D01*
G01X15693Y14020D01*
G01X15696Y14040D01*
G01X15698Y14059D01*
G01X15700Y14080D01*
G01X15701Y14099D01*
G01X15701Y14100D01*
G01X15700Y14119D01*
G01X15696Y14159D01*
G01X15693Y14179D01*
G01X15683Y14217D01*
G01X15681Y14223D01*
G01X15681Y14235D01*
G01X15682Y14240D01*
G01X15685Y14246D01*
G01X15687Y14251D01*
G01X15699Y14263D01*
G01X15704Y14265D01*
G01X15710Y14267D01*
G01X15715Y14269D01*
G01X15960Y14269D01*
G01X15960Y14540D01*
G01X15871Y14540D01*
G01X15849Y14538D01*
G01X15838Y14536D01*
G01X15816Y14530D01*
G01X15796Y14520D01*
G01X15786Y14514D01*
G01X15777Y14507D01*
G01X15769Y14500D01*
G01X15753Y14484D01*
G01X15747Y14475D01*
G01X15732Y14450D01*
G01X15728Y14445D01*
G01X15723Y14440D01*
G01X15718Y14437D01*
G01X15712Y14434D01*
G01X15700Y14432D01*
G01X15693Y14433D01*
G01X15687Y14434D01*
G01X15681Y14437D01*
G01X15676Y14440D01*
G01X15671Y14445D01*
G01X15667Y14450D01*
G01X15652Y14475D01*
G01X15646Y14484D01*
G01X15630Y14500D01*
G01X15622Y14507D01*
G01X15613Y14514D01*
G01X15603Y14520D01*
G01X15583Y14530D01*
G01X15561Y14536D01*
G01X15550Y14538D01*
G01X15528Y14540D01*
G01X15071Y14540D01*
G01X15049Y14538D01*
G01X15038Y14536D01*
G01X15027Y14533D01*
G01X15017Y14530D01*
G01X15006Y14525D01*
G01X14997Y14520D01*
G01X14987Y14514D01*
G01X14978Y14508D01*
G01X14969Y14501D01*
G01X14961Y14493D01*
G01X14954Y14484D01*
G01X14946Y14476D01*
G01X14940Y14473D01*
G01X14935Y14471D01*
G01X14923Y14469D01*
G01X13920Y14469D01*
G01X13908Y14471D01*
G01X13902Y14474D01*
G01X13897Y14477D01*
G01X13878Y14490D01*
G01X13858Y14503D01*
G01X13818Y14525D01*
G01X13812Y14528D01*
G01X13807Y14532D01*
G01X13803Y14536D01*
G01X13799Y14542D01*
G01X13795Y14554D01*
G01X13795Y14567D01*
G01X13792Y14563D01*
G01X13788Y14559D01*
G01X13783Y14555D01*
G01X13773Y14551D01*
G01X13767Y14550D01*
G01X13762Y14549D01*
G01X13750Y14551D01*
G01X13729Y14557D01*
G01X13708Y14562D01*
G01X13686Y14566D01*
G01X13665Y14570D01*
G01X13643Y14572D01*
G01X13621Y14573D01*
G01X13600Y14574D01*
G01X13556Y14572D01*
G01X13534Y14570D01*
G01X13513Y14566D01*
G01X13491Y14562D01*
G01X13470Y14557D01*
G01X13449Y14551D01*
G01X13437Y14549D01*
G01X13432Y14550D01*
G01X13426Y14551D01*
G01X13416Y14555D01*
G01X13411Y14559D01*
G01X13407Y14563D01*
G01X13404Y14567D01*
G01X13404Y14554D01*
G01X13400Y14542D01*
G01X13396Y14536D01*
G01X13392Y14532D01*
G01X13387Y14528D01*
G01X13381Y14525D01*
G01X13363Y14515D01*
G01X13344Y14505D01*
G01X13327Y14494D01*
G01X13309Y14482D01*
G01X13292Y14470D01*
G01X13276Y14457D01*
G01X13260Y14443D01*
G01X13230Y14413D01*
G01X13220Y14405D01*
G01X13214Y14403D01*
G01X13207Y14401D01*
G01X11040Y14401D01*
G01X11033Y14403D01*
G01X11027Y14405D01*
G01X11022Y14409D01*
G01X11001Y14424D01*
G01X10980Y14438D01*
G01X10958Y14452D01*
G01X10936Y14464D01*
G01X10931Y14467D01*
G01X10926Y14471D01*
G01X10918Y14481D01*
G01X10914Y14493D01*
G01X10914Y14506D01*
G01X10918Y14518D01*
G01X10926Y14528D01*
G01X10931Y14532D01*
G01X10936Y14535D01*
G01X10972Y14555D01*
G01X10989Y14566D01*
G01X11006Y14578D01*
G01X11022Y14590D01*
G01X11038Y14603D01*
G01X11068Y14631D01*
G01X11096Y14661D01*
G01X11109Y14677D01*
G01X11121Y14693D01*
G01X11133Y14710D01*
G01X11144Y14727D01*
G01X11164Y14763D01*
G01X11172Y14781D01*
G01X11181Y14800D01*
G01X11195Y14838D01*
G01X11201Y14858D01*
G01X11206Y14878D01*
G01X11214Y14918D01*
G01X11217Y14938D01*
G01X11219Y14959D01*
G01X11220Y14979D01*
G01X11221Y15000D01*
G01X11219Y15040D01*
G01X11217Y15061D01*
G01X11214Y15081D01*
G01X11206Y15121D01*
G01X11201Y15141D01*
G01X11195Y15161D01*
G01X11181Y15199D01*
G01X11172Y15218D01*
G01X11164Y15236D01*
G01X11144Y15272D01*
G01X11133Y15289D01*
G01X11121Y15306D01*
G01X11109Y15322D01*
G01X11096Y15338D01*
G01X11068Y15368D01*
G01X11038Y15396D01*
G01X11022Y15409D01*
G01X11006Y15421D01*
G01X10989Y15433D01*
G01X10972Y15444D01*
G01X10936Y15464D01*
G01X10931Y15467D01*
G01X10926Y15471D01*
G01X10918Y15481D01*
G01X10914Y15493D01*
G01X10914Y15506D01*
G01X10918Y15518D01*
G01X10926Y15528D01*
G01X10931Y15532D01*
G01X10936Y15535D01*
G01X10958Y15547D01*
G01X10980Y15561D01*
G01X11001Y15575D01*
G01X11022Y15590D01*
G01X11027Y15594D01*
G01X11033Y15596D01*
G01X11040Y15598D01*
G01X13403Y15598D01*
G01X13410Y15596D01*
G01X13417Y15593D01*
G01X13423Y15596D01*
G01X13430Y15598D01*
G01X13769Y15598D01*
G01X13776Y15596D01*
G01X13782Y15593D01*
G01X13789Y15596D01*
G01X13796Y15598D01*
G01X14200Y15598D01*
G01X14236Y15600D01*
G01X14255Y15602D01*
G01X14273Y15605D01*
G01X14291Y15609D01*
G01X14327Y15619D01*
G01X14378Y15640D01*
G01X14395Y15649D01*
G01X14410Y15659D01*
G01X14426Y15669D01*
G01X14456Y15691D01*
G01X14470Y15703D01*
G01X14583Y15816D01*
G01X14609Y15844D01*
G01X14621Y15859D01*
G01X14631Y15875D01*
G01X14642Y15891D01*
G01X14652Y15907D01*
G01X14660Y15924D01*
G01X14668Y15942D01*
G01X14831Y16323D01*
G01X14835Y16329D01*
G01X14839Y16334D01*
G01X14843Y16338D01*
G01X14849Y16342D01*
G01X14867Y16353D01*
G01X14885Y16363D01*
G01X14902Y16375D01*
G01X14918Y16387D01*
G01X14934Y16400D01*
G01X14950Y16414D01*
G01X14965Y16428D01*
G01X14993Y16458D01*
G01X15019Y16490D01*
G01X15031Y16507D01*
G01X15042Y16525D01*
G01X15053Y16542D01*
G01X15063Y16561D01*
G01X15072Y16579D01*
G01X15088Y16617D01*
G01X15094Y16637D01*
G01X15101Y16657D01*
G01X15106Y16677D01*
G01X15114Y16717D01*
G01X15117Y16738D01*
G01X15119Y16758D01*
G01X15121Y16800D01*
G01X15119Y16840D01*
G01X15117Y16861D01*
G01X15114Y16881D01*
G01X15106Y16921D01*
G01X15101Y16941D01*
G01X15095Y16961D01*
G01X15081Y16999D01*
G01X15073Y17018D01*
G01X15064Y17036D01*
G01X15044Y17072D01*
G01X15033Y17089D01*
G01X15021Y17106D01*
G01X15009Y17122D01*
G01X14996Y17138D01*
G01X14968Y17168D01*
G01X14938Y17196D01*
G01X14922Y17209D01*
G01X14906Y17221D01*
G01X14889Y17233D01*
G01X14872Y17244D01*
G01X14836Y17264D01*
G01X14818Y17273D01*
G01X14799Y17281D01*
G01X14780Y17288D01*
G01X14760Y17295D01*
G01X14741Y17301D01*
G01X14701Y17311D01*
G01X14661Y17317D01*
G01X14640Y17319D01*
G01X14600Y17321D01*
G01X14579Y17320D01*
G01X14559Y17319D01*
G01X14538Y17317D01*
G01X14498Y17311D01*
G01X14458Y17301D01*
G01X14439Y17295D01*
G01X14419Y17288D01*
G01X14400Y17281D01*
G01X14381Y17273D01*
G01X14363Y17264D01*
G01X14327Y17244D01*
G01X14310Y17233D01*
G01X14293Y17221D01*
G01X14277Y17209D01*
G01X14261Y17196D01*
G01X14231Y17168D01*
G01X14203Y17138D01*
G01X14190Y17122D01*
G01X14178Y17106D01*
G01X14166Y17089D01*
G01X14155Y17072D01*
G01X14135Y17036D01*
G01X14126Y17018D01*
G01X14118Y16999D01*
G01X14104Y16961D01*
G01X14098Y16941D01*
G01X14093Y16921D01*
G01X14085Y16881D01*
G01X14082Y16861D01*
G01X14080Y16840D01*
G01X14078Y16800D01*
G01X14079Y16777D01*
G01X14081Y16754D01*
G01X14083Y16732D01*
G01X14086Y16709D01*
G01X14096Y16665D01*
G01X14097Y16655D01*
G01X14097Y16646D01*
G01X14094Y16639D01*
G01X14003Y16425D01*
G01X14000Y16419D01*
G01X13997Y16415D01*
G01X13993Y16411D01*
G01X13988Y16407D01*
G01X13983Y16404D01*
G01X13977Y16402D01*
G01X13972Y16401D01*
G01X11040Y16401D01*
G01X11033Y16403D01*
G01X11027Y16405D01*
G01X11022Y16409D01*
G01X11001Y16424D01*
G01X10980Y16438D01*
G01X10958Y16452D01*
G01X10936Y16464D01*
G01X10931Y16467D01*
G01X10926Y16471D01*
G01X10918Y16481D01*
G01X10914Y16493D01*
G01X10914Y16506D01*
G01X10918Y16518D01*
G01X10926Y16528D01*
G01X10931Y16532D01*
G01X10936Y16535D01*
G01X10972Y16555D01*
G01X10989Y16566D01*
G01X11006Y16578D01*
G01X11022Y16590D01*
G01X11038Y16603D01*
G01X11068Y16631D01*
G01X11096Y16661D01*
G01X11109Y16677D01*
G01X11121Y16693D01*
G01X11133Y16710D01*
G01X11144Y16727D01*
G01X11164Y16763D01*
G01X11172Y16781D01*
G01X11181Y16800D01*
G01X11195Y16838D01*
G01X11201Y16858D01*
G01X11206Y16878D01*
G01X11214Y16918D01*
G01X11217Y16938D01*
G01X11219Y16959D01*
G01X11220Y16979D01*
G01X11221Y17000D01*
G01X11219Y17040D01*
G01X11217Y17061D01*
G01X11214Y17081D01*
G01X11206Y17121D01*
G01X11201Y17141D01*
G01X11195Y17161D01*
G01X11181Y17199D01*
G01X11172Y17218D01*
G01X11164Y17236D01*
G01X11144Y17272D01*
G01X11133Y17289D01*
G01X11121Y17306D01*
G01X11109Y17322D01*
G01X11096Y17338D01*
G01X11068Y17368D01*
G01X11038Y17396D01*
G01X11022Y17409D01*
G01X11006Y17421D01*
G01X10989Y17433D01*
G01X10972Y17444D01*
G01X10936Y17464D01*
G01X10931Y17467D01*
G01X10926Y17471D01*
G01X10918Y17481D01*
G01X10914Y17493D01*
G01X10914Y17506D01*
G01X10918Y17518D01*
G01X10926Y17528D01*
G01X10931Y17532D01*
G01X10936Y17535D01*
G01X10972Y17555D01*
G01X10989Y17566D01*
G01X11006Y17578D01*
G01X11022Y17590D01*
G01X11038Y17603D01*
G01X11068Y17631D01*
G01X11096Y17661D01*
G01X11109Y17677D01*
G01X11121Y17693D01*
G01X11133Y17710D01*
G01X11144Y17727D01*
G01X11164Y17763D01*
G01X11172Y17781D01*
G01X11181Y17800D01*
G01X11195Y17838D01*
G01X11201Y17858D01*
G01X11206Y17878D01*
G01X11214Y17918D01*
G01X11217Y17938D01*
G01X11219Y17959D01*
G01X11220Y17979D01*
G01X11221Y18000D01*
G01X11219Y18044D01*
G01X11213Y18088D01*
G01X11209Y18110D01*
G01X11203Y18131D01*
G01X11197Y18153D01*
G01X11193Y18177D01*
G01X11189Y18194D01*
G01X11179Y18230D01*
G01X11172Y18247D01*
G01X11165Y18263D01*
G01X11158Y18280D01*
G01X11140Y18312D01*
G01X11130Y18327D01*
G01X11119Y18342D01*
G01X11108Y18356D01*
G01X11096Y18370D01*
G01X11070Y18396D01*
G01X11056Y18408D01*
G01X11042Y18419D01*
G01X11027Y18430D01*
G01X11012Y18440D01*
G01X10980Y18458D01*
G01X10964Y18465D01*
G01X10947Y18473D01*
G01X10930Y18479D01*
G01X10894Y18489D01*
G01X10877Y18493D01*
G01X10859Y18496D01*
G01X10853Y18498D01*
G01X10831Y18503D01*
G01X10810Y18509D01*
G01X10788Y18513D01*
G01X10744Y18519D01*
G01X10700Y18521D01*
G01X10676Y18520D01*
G01X10653Y18519D01*
G01X10630Y18516D01*
G01X10607Y18512D01*
G01X10584Y18507D01*
G01X10562Y18502D01*
G01X10551Y18501D01*
G01X9340Y18501D01*
G01X9333Y18503D01*
G01X9327Y18505D01*
G01X9322Y18509D01*
G01X9305Y18521D01*
G01X9289Y18533D01*
G01X9271Y18544D01*
G01X9254Y18554D01*
G01X9236Y18564D01*
G01X9217Y18573D01*
G01X9198Y18581D01*
G01X9180Y18588D01*
G01X9160Y18595D01*
G01X9141Y18601D01*
G01X9101Y18611D01*
G01X9061Y18617D01*
G01X9040Y18619D01*
G01X9000Y18621D01*
G01X8979Y18620D01*
G01X8959Y18619D01*
G01X8938Y18617D01*
G01X8898Y18611D01*
G01X8858Y18601D01*
G01X8839Y18595D01*
G01X8819Y18588D01*
G01X8800Y18581D01*
G01X8781Y18573D01*
G01X8763Y18564D01*
G01X8727Y18544D01*
G01X8710Y18533D01*
G01X8693Y18521D01*
G01X8677Y18509D01*
G01X8661Y18496D01*
G01X8631Y18468D01*
G01X8603Y18438D01*
G01X8590Y18422D01*
G01X8578Y18406D01*
G01X8566Y18389D01*
G01X8555Y18372D01*
G01X8535Y18336D01*
G01X8526Y18318D01*
G01X8518Y18299D01*
G01X8504Y18261D01*
G01X8498Y18241D01*
G01X8493Y18221D01*
G01X8485Y18181D01*
G01X8482Y18161D01*
G01X8480Y18140D01*
G01X8478Y18100D01*
G01X8479Y18079D01*
G01X8480Y18059D01*
G01X8482Y18038D01*
G01X8485Y18018D01*
G01X8493Y17978D01*
G01X8498Y17958D01*
G01X8504Y17939D01*
G01X8511Y17919D01*
G01X8518Y17900D01*
G01X8526Y17882D01*
G01X8535Y17863D01*
G01X8545Y17845D01*
G01X8555Y17828D01*
G01X8566Y17811D01*
G01X8590Y17777D01*
G01X8603Y17761D01*
G01X8617Y17746D01*
G01X8631Y17732D01*
G01X8645Y17717D01*
G01X8693Y17678D01*
G01X8744Y17645D01*
G01X8762Y17636D01*
G01X8781Y17627D01*
G01X8799Y17619D01*
G01X8818Y17611D01*
G01X8838Y17604D01*
G01X8857Y17598D01*
G01X8877Y17593D01*
G01X8897Y17589D01*
G01X8903Y17587D01*
G01X8913Y17581D01*
G01X8918Y17577D01*
G01X8922Y17573D01*
G01X8925Y17567D01*
G01X8927Y17561D01*
G01X8928Y17555D01*
G01X8929Y17550D01*
G01X8927Y17538D01*
G01X8925Y17532D01*
G01X8922Y17527D01*
G01X8918Y17522D01*
G01X8913Y17518D01*
G01X8903Y17512D01*
G01X8897Y17510D01*
G01X8875Y17505D01*
G01X8854Y17500D01*
G01X8812Y17486D01*
G01X8791Y17477D01*
G01X8771Y17468D01*
G01X8752Y17458D01*
G01X8732Y17447D01*
G01X8714Y17435D01*
G01X8695Y17422D01*
G01X8677Y17409D01*
G01X8672Y17405D01*
G01X8666Y17403D01*
G01X8659Y17401D01*
G01X7899Y17401D01*
G01X7893Y17402D01*
G01X7888Y17404D01*
G01X7870Y17412D01*
G01X7852Y17419D01*
G01X7833Y17425D01*
G01X7815Y17431D01*
G01X7777Y17439D01*
G01X7757Y17442D01*
G01X7738Y17444D01*
G01X7700Y17446D01*
G01X7662Y17444D01*
G01X7643Y17442D01*
G01X7624Y17439D01*
G01X7606Y17436D01*
G01X7587Y17431D01*
G01X7569Y17426D01*
G01X7551Y17420D01*
G01X7533Y17413D01*
G01X7516Y17406D01*
G01X7498Y17398D01*
G01X7482Y17389D01*
G01X7465Y17380D01*
G01X7450Y17369D01*
G01X7434Y17358D01*
G01X7419Y17347D01*
G01X7405Y17334D01*
G01X7391Y17322D01*
G01X7377Y17308D01*
G01X7364Y17294D01*
G01X7352Y17280D01*
G01X7330Y17250D01*
G01X7319Y17234D01*
G01X7310Y17217D01*
G01X7301Y17201D01*
G01X7293Y17183D01*
G01X7285Y17166D01*
G01X7273Y17130D01*
G01X7263Y17094D01*
G01X7257Y17056D01*
G01X7255Y17037D01*
G01X7254Y17019D01*
G01X7253Y17000D01*
G01X7254Y16980D01*
G01X7255Y16962D01*
G01X7257Y16943D01*
G01X7263Y16905D01*
G01X7273Y16869D01*
G01X7285Y16833D01*
G01X7293Y16816D01*
G01X7301Y16798D01*
G01X7310Y16782D01*
G01X7319Y16765D01*
G01X7330Y16750D01*
G01X7341Y16734D01*
G01X7352Y16719D01*
G01X7364Y16705D01*
G01X7377Y16691D01*
G01X7391Y16677D01*
G01X7405Y16665D01*
G01X7419Y16652D01*
G01X7434Y16641D01*
G01X7450Y16630D01*
G01X7465Y16619D01*
G01X7482Y16610D01*
G01X7498Y16601D01*
G01X7516Y16593D01*
G01X7533Y16586D01*
G01X7551Y16579D01*
G01X7569Y16573D01*
G01X7587Y16568D01*
G01X7606Y16563D01*
G01X7624Y16560D01*
G01X7643Y16557D01*
G01X7662Y16555D01*
G01X7700Y16553D01*
G01X7738Y16555D01*
G01X7757Y16557D01*
G01X7777Y16560D01*
G01X7815Y16568D01*
G01X7833Y16574D01*
G01X7852Y16580D01*
G01X7870Y16587D01*
G01X7888Y16595D01*
G01X7893Y16597D01*
G01X7899Y16598D01*
G01X8659Y16598D01*
G01X8666Y16596D01*
G01X8672Y16594D01*
G01X8677Y16590D01*
G01X8694Y16578D01*
G01X8710Y16566D01*
G01X8728Y16555D01*
G01X8745Y16545D01*
G01X8763Y16535D01*
G01X8782Y16526D01*
G01X8801Y16518D01*
G01X8819Y16511D01*
G01X8839Y16504D01*
G01X8858Y16498D01*
G01X8898Y16488D01*
G01X8938Y16482D01*
G01X8959Y16480D01*
G01X8979Y16479D01*
G01X9000Y16478D01*
G01X9040Y16480D01*
G01X9061Y16482D01*
G01X9101Y16488D01*
G01X9141Y16498D01*
G01X9160Y16504D01*
G01X9180Y16511D01*
G01X9198Y16518D01*
G01X9217Y16526D01*
G01X9236Y16535D01*
G01X9254Y16545D01*
G01X9271Y16555D01*
G01X9289Y16566D01*
G01X9305Y16578D01*
G01X9322Y16590D01*
G01X9327Y16594D01*
G01X9333Y16596D01*
G01X9340Y16598D01*
G01X10359Y16598D01*
G01X10366Y16596D01*
G01X10372Y16594D01*
G01X10377Y16590D01*
G01X10398Y16575D01*
G01X10419Y16561D01*
G01X10441Y16547D01*
G01X10463Y16535D01*
G01X10468Y16532D01*
G01X10473Y16528D01*
G01X10481Y16518D01*
G01X10485Y16506D01*
G01X10485Y16493D01*
G01X10481Y16481D01*
G01X10473Y16471D01*
G01X10468Y16467D01*
G01X10463Y16464D01*
G01X10427Y16444D01*
G01X10410Y16433D01*
G01X10393Y16421D01*
G01X10377Y16409D01*
G01X10361Y16396D01*
G01X10331Y16368D01*
G01X10303Y16338D01*
G01X10290Y16322D01*
G01X10278Y16306D01*
G01X10266Y16289D01*
G01X10255Y16272D01*
G01X10235Y16236D01*
G01X10227Y16218D01*
G01X10218Y16199D01*
G01X10204Y16161D01*
G01X10198Y16141D01*
G01X10193Y16121D01*
G01X10185Y16081D01*
G01X10182Y16061D01*
G01X10180Y16040D01*
G01X10178Y16000D01*
G01X10179Y15979D01*
G01X10180Y15959D01*
G01X10182Y15938D01*
G01X10185Y15918D01*
G01X10193Y15878D01*
G01X10198Y15858D01*
G01X10204Y15838D01*
G01X10218Y15800D01*
G01X10227Y15781D01*
G01X10235Y15763D01*
G01X10255Y15727D01*
G01X10266Y15710D01*
G01X10278Y15693D01*
G01X10290Y15677D01*
G01X10303Y15661D01*
G01X10331Y15631D01*
G01X10361Y15603D01*
G01X10377Y15590D01*
G01X10393Y15578D01*
G01X10410Y15566D01*
G01X10427Y15555D01*
G01X10463Y15535D01*
G01X10468Y15532D01*
G01X10473Y15528D01*
G01X10481Y15518D01*
G01X10485Y15506D01*
G01X10485Y15493D01*
G01X10481Y15481D01*
G01X10473Y15471D01*
G01X10468Y15467D01*
G01X10463Y15464D01*
G01X10441Y15452D01*
G01X10419Y15438D01*
G01X10398Y15424D01*
G01X10377Y15409D01*
G01X10372Y15405D01*
G01X10366Y15403D01*
G01X10359Y15401D01*
G01X7076Y15401D01*
G01X7064Y15405D01*
G01X7059Y15408D01*
G01X7054Y15412D01*
G01X6512Y15954D01*
G01X6508Y15959D01*
G01X6505Y15964D01*
G01X6502Y15970D01*
G01X6501Y15976D01*
G01X6501Y20550D01*
G01X6500Y20567D01*
G01X6499Y20585D01*
G01X6497Y20603D01*
G01X6494Y20621D01*
G01X6490Y20638D01*
G01X6486Y20656D01*
G01X6481Y20673D01*
G01X6475Y20690D01*
G01X6468Y20707D01*
G01X6461Y20723D01*
G01X6453Y20739D01*
G01X6444Y20755D01*
G01X6435Y20770D01*
G01X6424Y20785D01*
G01X6414Y20799D01*
G01X6402Y20813D01*
G01X6390Y20826D01*
G01X5401Y21865D01*
G01X5388Y21878D01*
G01X5375Y21890D01*
G01X5361Y21902D01*
G01X5347Y21913D01*
G01X5332Y21923D01*
G01X5317Y21932D01*
G01X5285Y21950D01*
G01X5268Y21957D01*
G01X5252Y21964D01*
G01X5235Y21970D01*
G01X5218Y21975D01*
G01X5182Y21983D01*
G01X5164Y21986D01*
G01X5147Y21988D01*
G01X5128Y21989D01*
G01X5110Y21990D01*
G01X4295Y21990D01*
G01X4289Y21991D01*
G01X4283Y21994D01*
G01X4278Y21997D01*
G01X4261Y22009D01*
G01X4243Y22019D01*
G01X4225Y22030D01*
G01X4207Y22039D01*
G01X4188Y22048D01*
G01X4169Y22055D01*
G01X4150Y22063D01*
G01X4130Y22069D01*
G01X4090Y22079D01*
G01X4070Y22083D01*
G01X4049Y22086D01*
G01X4029Y22088D01*
G01X4008Y22089D01*
G37*
G36*
G01X15128Y1817D02*
G01X14882Y1817D01*
G01X14882Y1571D01*
G01X14900Y1579D01*
G01X14918Y1588D01*
G01X14952Y1608D01*
G01X14968Y1619D01*
G01X15000Y1643D01*
G01X15015Y1656D01*
G01X15043Y1684D01*
G01X15056Y1699D01*
G01X15068Y1715D01*
G01X15080Y1730D01*
G01X15102Y1764D01*
G01X15111Y1781D01*
G01X15120Y1799D01*
G01X15128Y1817D01*
G37*
G36*
G01X14517Y1817D02*
G01X14271Y1817D01*
G01X14279Y1799D01*
G01X14288Y1781D01*
G01X14297Y1764D01*
G01X14319Y1730D01*
G01X14331Y1715D01*
G01X14343Y1699D01*
G01X14356Y1684D01*
G01X14384Y1656D01*
G01X14399Y1643D01*
G01X14431Y1619D01*
G01X14447Y1608D01*
G01X14481Y1588D01*
G01X14499Y1579D01*
G01X14517Y1571D01*
G01X14517Y1817D01*
G37*
G36*
G01X13429Y2367D02*
G01X13410Y2376D01*
G01X13410Y2109D01*
G01X13676Y2109D01*
G01X13667Y2129D01*
G01X13647Y2167D01*
G01X13623Y2203D01*
G01X13610Y2220D01*
G01X13597Y2236D01*
G01X13583Y2253D01*
G01X13568Y2268D01*
G01X13552Y2283D01*
G01X13520Y2311D01*
G01X13502Y2323D01*
G01X13485Y2336D01*
G01X13467Y2347D01*
G01X13429Y2367D01*
G37*
G36*
G01X12989Y2109D02*
G01X12989Y2376D01*
G01X12970Y2367D01*
G01X12932Y2347D01*
G01X12914Y2336D01*
G01X12897Y2323D01*
G01X12879Y2311D01*
G01X12847Y2283D01*
G01X12831Y2268D01*
G01X12816Y2253D01*
G01X12802Y2236D01*
G01X12789Y2220D01*
G01X12776Y2203D01*
G01X12752Y2167D01*
G01X12732Y2129D01*
G01X12723Y2109D01*
G01X12989Y2109D01*
G37*
G36*
G01X3125Y2417D02*
G01X2879Y2417D01*
G01X2879Y2171D01*
G01X2897Y2179D01*
G01X2915Y2188D01*
G01X2949Y2208D01*
G01X2965Y2219D01*
G01X2997Y2243D01*
G01X3012Y2256D01*
G01X3040Y2284D01*
G01X3053Y2299D01*
G01X3065Y2315D01*
G01X3077Y2330D01*
G01X3088Y2347D01*
G01X3108Y2381D01*
G01X3117Y2399D01*
G01X3125Y2417D01*
G37*
G36*
G01X2514Y2417D02*
G01X2268Y2417D01*
G01X2276Y2399D01*
G01X2285Y2381D01*
G01X2294Y2364D01*
G01X2316Y2330D01*
G01X2328Y2315D01*
G01X2340Y2299D01*
G01X2353Y2284D01*
G01X2381Y2256D01*
G01X2396Y2243D01*
G01X2412Y2231D01*
G01X2427Y2219D01*
G01X2444Y2208D01*
G01X2478Y2188D01*
G01X2496Y2179D01*
G01X2514Y2171D01*
G01X2514Y2417D01*
G37*
G36*
G01X14517Y2182D02*
G01X14517Y2428D01*
G01X14499Y2420D01*
G01X14481Y2411D01*
G01X14447Y2391D01*
G01X14431Y2380D01*
G01X14399Y2356D01*
G01X14384Y2343D01*
G01X14356Y2315D01*
G01X14343Y2300D01*
G01X14331Y2284D01*
G01X14319Y2269D01*
G01X14297Y2235D01*
G01X14288Y2218D01*
G01X14279Y2200D01*
G01X14271Y2182D01*
G01X14517Y2182D01*
G37*
G36*
G01X14900Y2420D02*
G01X14882Y2428D01*
G01X14882Y2182D01*
G01X15128Y2182D01*
G01X15120Y2200D01*
G01X15111Y2218D01*
G01X15102Y2235D01*
G01X15080Y2269D01*
G01X15068Y2284D01*
G01X15056Y2300D01*
G01X15043Y2315D01*
G01X15015Y2343D01*
G01X15000Y2356D01*
G01X14968Y2380D01*
G01X14952Y2391D01*
G01X14918Y2411D01*
G01X14900Y2420D01*
G37*
G36*
G01X4589Y2779D02*
G01X4469Y2779D01*
G01X4469Y2538D01*
G01X4740Y2538D01*
G01X4740Y2628D01*
G01X4738Y2650D01*
G01X4736Y2661D01*
G01X4730Y2683D01*
G01X4720Y2703D01*
G01X4714Y2713D01*
G01X4707Y2722D01*
G01X4700Y2730D01*
G01X4692Y2738D01*
G01X4683Y2746D01*
G01X4674Y2753D01*
G01X4664Y2759D01*
G01X4655Y2764D01*
G01X4644Y2768D01*
G01X4634Y2772D01*
G01X4622Y2775D01*
G01X4611Y2777D01*
G01X4589Y2779D01*
G37*
G36*
G01X4130Y2779D02*
G01X4010Y2779D01*
G01X3988Y2777D01*
G01X3977Y2775D01*
G01X3966Y2772D01*
G01X3955Y2768D01*
G01X3945Y2764D01*
G01X3935Y2759D01*
G01X3925Y2753D01*
G01X3916Y2746D01*
G01X3907Y2738D01*
G01X3900Y2730D01*
G01X3892Y2722D01*
G01X3885Y2713D01*
G01X3880Y2703D01*
G01X3874Y2693D01*
G01X3870Y2683D01*
G01X3866Y2672D01*
G01X3863Y2661D01*
G01X3861Y2650D01*
G01X3859Y2628D01*
G01X3859Y2538D01*
G01X4130Y2538D01*
G01X4130Y2779D01*
G37*
G36*
G01X2514Y2782D02*
G01X2514Y3028D01*
G01X2496Y3020D01*
G01X2478Y3011D01*
G01X2444Y2991D01*
G01X2427Y2980D01*
G01X2412Y2968D01*
G01X2396Y2956D01*
G01X2381Y2943D01*
G01X2353Y2915D01*
G01X2340Y2900D01*
G01X2328Y2884D01*
G01X2316Y2869D01*
G01X2294Y2835D01*
G01X2285Y2818D01*
G01X2276Y2800D01*
G01X2268Y2782D01*
G01X2514Y2782D01*
G37*
G36*
G01X2897Y3020D02*
G01X2879Y3028D01*
G01X2879Y2782D01*
G01X3125Y2782D01*
G01X3117Y2800D01*
G01X3108Y2818D01*
G01X3088Y2852D01*
G01X3077Y2869D01*
G01X3065Y2884D01*
G01X3053Y2900D01*
G01X3040Y2915D01*
G01X3012Y2943D01*
G01X2997Y2956D01*
G01X2965Y2980D01*
G01X2949Y2991D01*
G01X2915Y3011D01*
G01X2897Y3020D01*
G37*
G36*
G01X2716Y4065D02*
G01X2677Y4065D01*
G01X2657Y4064D01*
G01X2637Y4062D01*
G01X2618Y4059D01*
G01X2598Y4055D01*
G01X2579Y4051D01*
G01X2541Y4039D01*
G01X2523Y4032D01*
G01X2505Y4024D01*
G01X2469Y4006D01*
G01X2435Y3986D01*
G01X2419Y3974D01*
G01X2404Y3962D01*
G01X2374Y3936D01*
G01X2360Y3922D01*
G01X2334Y3892D01*
G01X2322Y3876D01*
G01X2310Y3861D01*
G01X2290Y3827D01*
G01X2281Y3809D01*
G01X2272Y3792D01*
G01X2264Y3773D01*
G01X2257Y3755D01*
G01X2251Y3736D01*
G01X2241Y3698D01*
G01X2237Y3678D01*
G01X2234Y3659D01*
G01X2232Y3639D01*
G01X2231Y3619D01*
G01X2231Y3580D01*
G01X2232Y3561D01*
G01X2234Y3541D01*
G01X2237Y3522D01*
G01X2245Y3484D01*
G01X2250Y3465D01*
G01X2256Y3447D01*
G01X2263Y3429D01*
G01X2279Y3393D01*
G01X2297Y3359D01*
G01X2330Y3311D01*
G01X2343Y3296D01*
G01X2369Y3268D01*
G01X2383Y3255D01*
G01X2398Y3242D01*
G01X2413Y3230D01*
G01X2429Y3218D01*
G01X2445Y3207D01*
G01X2461Y3197D01*
G01X2478Y3188D01*
G01X2496Y3179D01*
G01X2514Y3171D01*
G01X2531Y3164D01*
G01X2550Y3157D01*
G01X2568Y3151D01*
G01X2587Y3146D01*
G01X2606Y3142D01*
G01X2625Y3139D01*
G01X2649Y3136D01*
G01X2673Y3134D01*
G01X2720Y3134D01*
G01X2744Y3136D01*
G01X2768Y3139D01*
G01X2788Y3143D01*
G01X2809Y3147D01*
G01X2849Y3159D01*
G01X2868Y3167D01*
G01X2888Y3175D01*
G01X2906Y3184D01*
G01X2925Y3193D01*
G01X2931Y3196D01*
G01X2938Y3198D01*
G01X3900Y3198D01*
G01X3906Y3197D01*
G01X3911Y3195D01*
G01X3929Y3187D01*
G01X3947Y3180D01*
G01X3966Y3174D01*
G01X3984Y3168D01*
G01X4022Y3160D01*
G01X4042Y3157D01*
G01X4061Y3155D01*
G01X4080Y3154D01*
G01X4100Y3153D01*
G01X4118Y3154D01*
G01X4137Y3155D01*
G01X4156Y3157D01*
G01X4175Y3160D01*
G01X4193Y3163D01*
G01X4212Y3168D01*
G01X4230Y3173D01*
G01X4248Y3179D01*
G01X4266Y3186D01*
G01X4283Y3193D01*
G01X4301Y3201D01*
G01X4317Y3210D01*
G01X4334Y3219D01*
G01X4350Y3230D01*
G01X4380Y3252D01*
G01X4394Y3265D01*
G01X4408Y3277D01*
G01X4422Y3291D01*
G01X4435Y3305D01*
G01X4447Y3319D01*
G01X4458Y3334D01*
G01X4469Y3350D01*
G01X4480Y3365D01*
G01X4489Y3382D01*
G01X4498Y3398D01*
G01X4506Y3416D01*
G01X4514Y3433D01*
G01X4526Y3469D01*
G01X4536Y3505D01*
G01X4542Y3543D01*
G01X4544Y3562D01*
G01X4545Y3580D01*
G01X4546Y3600D01*
G01X4545Y3619D01*
G01X4544Y3637D01*
G01X4542Y3656D01*
G01X4536Y3694D01*
G01X4526Y3730D01*
G01X4514Y3766D01*
G01X4506Y3783D01*
G01X4498Y3801D01*
G01X4489Y3817D01*
G01X4480Y3834D01*
G01X4469Y3850D01*
G01X4447Y3880D01*
G01X4435Y3894D01*
G01X4422Y3908D01*
G01X4408Y3922D01*
G01X4394Y3934D01*
G01X4380Y3947D01*
G01X4350Y3969D01*
G01X4334Y3980D01*
G01X4317Y3989D01*
G01X4301Y3998D01*
G01X4283Y4006D01*
G01X4266Y4013D01*
G01X4248Y4020D01*
G01X4230Y4026D01*
G01X4212Y4031D01*
G01X4193Y4036D01*
G01X4175Y4039D01*
G01X4156Y4042D01*
G01X4137Y4044D01*
G01X4118Y4045D01*
G01X4100Y4046D01*
G01X4080Y4045D01*
G01X4061Y4044D01*
G01X4042Y4042D01*
G01X4022Y4039D01*
G01X3984Y4031D01*
G01X3966Y4025D01*
G01X3947Y4019D01*
G01X3929Y4012D01*
G01X3911Y4004D01*
G01X3906Y4002D01*
G01X3900Y4001D01*
G01X2938Y4001D01*
G01X2931Y4003D01*
G01X2889Y4024D01*
G01X2871Y4032D01*
G01X2852Y4038D01*
G01X2834Y4045D01*
G01X2814Y4050D01*
G01X2795Y4055D01*
G01X2776Y4059D01*
G01X2756Y4062D01*
G01X2736Y4064D01*
G01X2716Y4065D01*
G37*
G36*
G01X12438Y5849D02*
G01X12400Y5851D01*
G01X12379Y5850D01*
G01X12359Y5849D01*
G01X12338Y5846D01*
G01X12318Y5843D01*
G01X12298Y5839D01*
G01X12278Y5834D01*
G01X12258Y5828D01*
G01X12239Y5821D01*
G01X12201Y5805D01*
G01X12196Y5802D01*
G01X12190Y5801D01*
G01X10400Y5801D01*
G01X10381Y5800D01*
G01X10363Y5799D01*
G01X10344Y5797D01*
G01X10326Y5794D01*
G01X10308Y5790D01*
G01X10272Y5780D01*
G01X10221Y5759D01*
G01X10204Y5750D01*
G01X10189Y5740D01*
G01X10173Y5730D01*
G01X10143Y5708D01*
G01X10129Y5696D01*
G01X9161Y4728D01*
G01X9156Y4724D01*
G01X9144Y4718D01*
G01X9138Y4717D01*
G01X9117Y4714D01*
G01X9077Y4706D01*
G01X9057Y4701D01*
G01X9038Y4695D01*
G01X9000Y4681D01*
G01X8981Y4673D01*
G01X8963Y4663D01*
G01X8944Y4654D01*
G01X8927Y4644D01*
G01X8910Y4632D01*
G01X8893Y4621D01*
G01X8877Y4608D01*
G01X8861Y4596D01*
G01X8831Y4568D01*
G01X8803Y4538D01*
G01X8790Y4522D01*
G01X8778Y4505D01*
G01X8766Y4489D01*
G01X8755Y4471D01*
G01X8745Y4454D01*
G01X8735Y4436D01*
G01X8726Y4417D01*
G01X8718Y4399D01*
G01X8711Y4380D01*
G01X8704Y4360D01*
G01X8698Y4341D01*
G01X8693Y4321D01*
G01X8685Y4281D01*
G01X8682Y4261D01*
G01X8680Y4240D01*
G01X8678Y4200D01*
G01X8679Y4179D01*
G01X8680Y4159D01*
G01X8682Y4138D01*
G01X8685Y4118D01*
G01X8693Y4078D01*
G01X8698Y4058D01*
G01X8704Y4038D01*
G01X8718Y4000D01*
G01X8726Y3981D01*
G01X8735Y3963D01*
G01X8755Y3927D01*
G01X8766Y3910D01*
G01X8778Y3893D01*
G01X8790Y3877D01*
G01X8803Y3861D01*
G01X8831Y3831D01*
G01X8861Y3803D01*
G01X8877Y3790D01*
G01X8893Y3778D01*
G01X8910Y3766D01*
G01X8927Y3755D01*
G01X8963Y3735D01*
G01X8981Y3726D01*
G01X9000Y3718D01*
G01X9019Y3711D01*
G01X9039Y3704D01*
G01X9058Y3698D01*
G01X9098Y3688D01*
G01X9138Y3682D01*
G01X9159Y3680D01*
G01X9179Y3679D01*
G01X9200Y3678D01*
G01X9244Y3680D01*
G01X9288Y3686D01*
G01X9310Y3690D01*
G01X9331Y3696D01*
G01X9353Y3701D01*
G01X9359Y3703D01*
G01X9377Y3706D01*
G01X9394Y3710D01*
G01X9430Y3720D01*
G01X9447Y3726D01*
G01X9464Y3734D01*
G01X9480Y3741D01*
G01X9512Y3759D01*
G01X9527Y3769D01*
G01X9542Y3780D01*
G01X9556Y3791D01*
G01X9570Y3803D01*
G01X9596Y3829D01*
G01X9608Y3843D01*
G01X9619Y3857D01*
G01X9630Y3872D01*
G01X9640Y3887D01*
G01X9658Y3919D01*
G01X9665Y3936D01*
G01X9672Y3952D01*
G01X9679Y3969D01*
G01X9689Y4005D01*
G01X9693Y4022D01*
G01X9697Y4046D01*
G01X9704Y4069D01*
G01X9714Y4115D01*
G01X9717Y4138D01*
G01X9718Y4144D01*
G01X9724Y4156D01*
G01X9728Y4161D01*
G01X10554Y4987D01*
G01X10559Y4991D01*
G01X10564Y4994D01*
G01X10576Y4998D01*
G01X12190Y4998D01*
G01X12196Y4997D01*
G01X12201Y4994D01*
G01X12239Y4978D01*
G01X12258Y4971D01*
G01X12278Y4965D01*
G01X12298Y4960D01*
G01X12318Y4956D01*
G01X12338Y4953D01*
G01X12359Y4950D01*
G01X12379Y4949D01*
G01X12400Y4948D01*
G01X12438Y4950D01*
G01X12457Y4952D01*
G01X12476Y4955D01*
G01X12494Y4959D01*
G01X12513Y4963D01*
G01X12531Y4968D01*
G01X12550Y4974D01*
G01X12568Y4981D01*
G01X12585Y4988D01*
G01X12636Y5015D01*
G01X12668Y5037D01*
G01X12683Y5049D01*
G01X12697Y5061D01*
G01X12711Y5074D01*
G01X12738Y5101D01*
G01X12762Y5131D01*
G01X12784Y5163D01*
G01X12793Y5180D01*
G01X12802Y5196D01*
G01X12810Y5214D01*
G01X12818Y5231D01*
G01X12825Y5249D01*
G01X12831Y5267D01*
G01X12836Y5286D01*
G01X12840Y5305D01*
G01X12844Y5323D01*
G01X12847Y5342D01*
G01X12849Y5361D01*
G01X12850Y5380D01*
G01X12851Y5400D01*
G01X12849Y5438D01*
G01X12847Y5457D01*
G01X12844Y5476D01*
G01X12840Y5494D01*
G01X12836Y5513D01*
G01X12831Y5532D01*
G01X12825Y5550D01*
G01X12818Y5568D01*
G01X12810Y5585D01*
G01X12802Y5603D01*
G01X12793Y5619D01*
G01X12784Y5636D01*
G01X12762Y5668D01*
G01X12738Y5698D01*
G01X12711Y5725D01*
G01X12697Y5738D01*
G01X12683Y5750D01*
G01X12668Y5762D01*
G01X12636Y5784D01*
G01X12585Y5811D01*
G01X12568Y5818D01*
G01X12550Y5825D01*
G01X12531Y5831D01*
G01X12513Y5836D01*
G01X12494Y5840D01*
G01X12476Y5844D01*
G01X12457Y5847D01*
G01X12438Y5849D01*
G37*
G36*
G01X2497Y6582D02*
G01X2236Y6582D01*
G01X2245Y6563D01*
G01X2255Y6544D01*
G01X2265Y6526D01*
G01X2289Y6490D01*
G01X2302Y6473D01*
G01X2315Y6457D01*
G01X2329Y6441D01*
G01X2359Y6411D01*
G01X2375Y6397D01*
G01X2409Y6371D01*
G01X2427Y6359D01*
G01X2445Y6348D01*
G01X2464Y6338D01*
G01X2482Y6328D01*
G01X2488Y6325D01*
G01X2493Y6321D01*
G01X2497Y6316D01*
G01X2497Y6582D01*
G37*
G36*
G01X3163Y6582D02*
G01X2902Y6582D01*
G01X2902Y6316D01*
G01X2906Y6321D01*
G01X2911Y6325D01*
G01X2917Y6328D01*
G01X2935Y6338D01*
G01X2954Y6348D01*
G01X2972Y6359D01*
G01X2990Y6371D01*
G01X3024Y6397D01*
G01X3040Y6411D01*
G01X3070Y6441D01*
G01X3084Y6457D01*
G01X3097Y6473D01*
G01X3110Y6490D01*
G01X3134Y6526D01*
G01X3144Y6544D01*
G01X3154Y6563D01*
G01X3163Y6582D01*
G37*
G36*
G01X4489Y7790D02*
G01X4223Y7790D01*
G01X4231Y7771D01*
G01X4241Y7752D01*
G01X4274Y7698D01*
G01X4287Y7682D01*
G01X4300Y7665D01*
G01X4314Y7649D01*
G01X4328Y7634D01*
G01X4343Y7619D01*
G01X4359Y7605D01*
G01X4375Y7592D01*
G01X4392Y7579D01*
G01X4409Y7567D01*
G01X4445Y7545D01*
G01X4463Y7535D01*
G01X4468Y7532D01*
G01X4473Y7528D01*
G01X4481Y7518D01*
G01X4485Y7506D01*
G01X4485Y7493D01*
G01X4481Y7481D01*
G01X4473Y7471D01*
G01X4468Y7467D01*
G01X4463Y7464D01*
G01X4427Y7444D01*
G01X4410Y7433D01*
G01X4393Y7421D01*
G01X4377Y7409D01*
G01X4361Y7396D01*
G01X4331Y7368D01*
G01X4303Y7338D01*
G01X4290Y7322D01*
G01X4278Y7306D01*
G01X4266Y7289D01*
G01X4255Y7272D01*
G01X4235Y7236D01*
G01X4227Y7218D01*
G01X4218Y7199D01*
G01X4204Y7161D01*
G01X4198Y7141D01*
G01X4193Y7121D01*
G01X4185Y7081D01*
G01X4182Y7061D01*
G01X4180Y7040D01*
G01X4178Y7000D01*
G01X4179Y6979D01*
G01X4180Y6959D01*
G01X4182Y6938D01*
G01X4185Y6918D01*
G01X4193Y6878D01*
G01X4198Y6858D01*
G01X4204Y6838D01*
G01X4218Y6800D01*
G01X4226Y6781D01*
G01X4235Y6763D01*
G01X4255Y6727D01*
G01X4266Y6710D01*
G01X4278Y6693D01*
G01X4290Y6677D01*
G01X4303Y6661D01*
G01X4331Y6631D01*
G01X4361Y6603D01*
G01X4377Y6590D01*
G01X4393Y6578D01*
G01X4410Y6566D01*
G01X4427Y6555D01*
G01X4463Y6535D01*
G01X4481Y6526D01*
G01X4500Y6518D01*
G01X4519Y6511D01*
G01X4539Y6504D01*
G01X4558Y6498D01*
G01X4598Y6488D01*
G01X4638Y6482D01*
G01X4659Y6480D01*
G01X4679Y6479D01*
G01X4700Y6478D01*
G01X4740Y6480D01*
G01X4761Y6482D01*
G01X4801Y6488D01*
G01X4841Y6498D01*
G01X4860Y6504D01*
G01X4880Y6511D01*
G01X4899Y6518D01*
G01X4918Y6526D01*
G01X4936Y6535D01*
G01X4972Y6555D01*
G01X4989Y6566D01*
G01X5006Y6578D01*
G01X5022Y6590D01*
G01X5038Y6603D01*
G01X5068Y6631D01*
G01X5096Y6661D01*
G01X5109Y6677D01*
G01X5121Y6693D01*
G01X5133Y6710D01*
G01X5144Y6727D01*
G01X5164Y6763D01*
G01X5173Y6781D01*
G01X5181Y6800D01*
G01X5195Y6838D01*
G01X5201Y6858D01*
G01X5206Y6878D01*
G01X5214Y6918D01*
G01X5217Y6938D01*
G01X5219Y6959D01*
G01X5220Y6979D01*
G01X5221Y7000D01*
G01X5219Y7040D01*
G01X5217Y7061D01*
G01X5214Y7081D01*
G01X5206Y7121D01*
G01X5201Y7141D01*
G01X5195Y7161D01*
G01X5181Y7199D01*
G01X5172Y7218D01*
G01X5164Y7236D01*
G01X5144Y7272D01*
G01X5133Y7289D01*
G01X5121Y7306D01*
G01X5109Y7322D01*
G01X5096Y7338D01*
G01X5068Y7368D01*
G01X5038Y7396D01*
G01X5022Y7409D01*
G01X5006Y7421D01*
G01X4989Y7433D01*
G01X4972Y7444D01*
G01X4936Y7464D01*
G01X4931Y7467D01*
G01X4926Y7471D01*
G01X4918Y7481D01*
G01X4914Y7493D01*
G01X4914Y7506D01*
G01X4918Y7518D01*
G01X4926Y7528D01*
G01X4931Y7532D01*
G01X4936Y7535D01*
G01X4954Y7545D01*
G01X4990Y7567D01*
G01X5007Y7579D01*
G01X5024Y7592D01*
G01X5040Y7605D01*
G01X5056Y7619D01*
G01X5071Y7634D01*
G01X5085Y7649D01*
G01X5099Y7665D01*
G01X5112Y7682D01*
G01X5125Y7698D01*
G01X5158Y7752D01*
G01X5168Y7771D01*
G01X5176Y7790D01*
G01X4910Y7790D01*
G01X4910Y7534D01*
G01X4909Y7528D01*
G01X4908Y7523D01*
G01X4906Y7517D01*
G01X4903Y7513D01*
G01X4900Y7508D01*
G01X4896Y7504D01*
G01X4886Y7498D01*
G01X4881Y7496D01*
G01X4875Y7494D01*
G01X4863Y7494D01*
G01X4857Y7496D01*
G01X4835Y7503D01*
G01X4791Y7513D01*
G01X4745Y7519D01*
G01X4722Y7520D01*
G01X4700Y7521D01*
G01X4654Y7519D01*
G01X4608Y7513D01*
G01X4564Y7503D01*
G01X4542Y7496D01*
G01X4536Y7494D01*
G01X4524Y7494D01*
G01X4518Y7496D01*
G01X4513Y7498D01*
G01X4503Y7504D01*
G01X4499Y7508D01*
G01X4496Y7513D01*
G01X4493Y7517D01*
G01X4491Y7523D01*
G01X4490Y7528D01*
G01X4489Y7534D01*
G01X4489Y7790D01*
G37*
G36*
G01X2921Y7239D02*
G01X2902Y7248D01*
G01X2902Y6987D01*
G01X3163Y6987D01*
G01X3154Y7006D01*
G01X3144Y7024D01*
G01X3134Y7043D01*
G01X3123Y7061D01*
G01X3111Y7078D01*
G01X3098Y7095D01*
G01X3085Y7111D01*
G01X3071Y7127D01*
G01X3057Y7142D01*
G01X3042Y7156D01*
G01X3010Y7184D01*
G01X2976Y7208D01*
G01X2958Y7219D01*
G01X2939Y7229D01*
G01X2921Y7239D01*
G37*
G36*
G01X2497Y6987D02*
G01X2497Y7248D01*
G01X2478Y7239D01*
G01X2460Y7229D01*
G01X2441Y7219D01*
G01X2423Y7208D01*
G01X2389Y7184D01*
G01X2357Y7156D01*
G01X2342Y7142D01*
G01X2328Y7127D01*
G01X2314Y7111D01*
G01X2301Y7095D01*
G01X2288Y7078D01*
G01X2276Y7061D01*
G01X2265Y7043D01*
G01X2255Y7024D01*
G01X2245Y7006D01*
G01X2236Y6987D01*
G01X2497Y6987D01*
G37*
G36*
G01X18998Y8646D02*
G01X18801Y8646D01*
G01X18763Y8644D01*
G01X18744Y8642D01*
G01X18726Y8639D01*
G01X18707Y8636D01*
G01X18671Y8626D01*
G01X18652Y8620D01*
G01X18618Y8606D01*
G01X18600Y8598D01*
G01X18584Y8589D01*
G01X18567Y8580D01*
G01X18551Y8569D01*
G01X18521Y8547D01*
G01X18506Y8534D01*
G01X18493Y8522D01*
G01X18479Y8508D01*
G01X18466Y8494D01*
G01X18454Y8480D01*
G01X18443Y8465D01*
G01X18431Y8450D01*
G01X18421Y8434D01*
G01X18412Y8417D01*
G01X18403Y8401D01*
G01X18394Y8383D01*
G01X18387Y8366D01*
G01X18369Y8312D01*
G01X18365Y8294D01*
G01X18361Y8275D01*
G01X18359Y8256D01*
G01X18356Y8237D01*
G01X18355Y8219D01*
G01X18355Y8180D01*
G01X18356Y8162D01*
G01X18359Y8143D01*
G01X18361Y8124D01*
G01X18365Y8105D01*
G01X18369Y8087D01*
G01X18387Y8033D01*
G01X18394Y8016D01*
G01X18403Y7998D01*
G01X18412Y7982D01*
G01X18421Y7965D01*
G01X18431Y7950D01*
G01X18443Y7934D01*
G01X18454Y7919D01*
G01X18466Y7905D01*
G01X18479Y7891D01*
G01X18493Y7877D01*
G01X18506Y7865D01*
G01X18521Y7852D01*
G01X18551Y7830D01*
G01X18567Y7819D01*
G01X18584Y7810D01*
G01X18600Y7801D01*
G01X18618Y7793D01*
G01X18652Y7779D01*
G01X18671Y7773D01*
G01X18707Y7763D01*
G01X18726Y7760D01*
G01X18744Y7757D01*
G01X18763Y7755D01*
G01X18801Y7753D01*
G01X18998Y7753D01*
G01X19036Y7755D01*
G01X19055Y7757D01*
G01X19073Y7760D01*
G01X19092Y7763D01*
G01X19128Y7773D01*
G01X19147Y7779D01*
G01X19181Y7793D01*
G01X19199Y7801D01*
G01X19215Y7810D01*
G01X19232Y7819D01*
G01X19248Y7830D01*
G01X19278Y7852D01*
G01X19293Y7865D01*
G01X19306Y7877D01*
G01X19320Y7891D01*
G01X19333Y7905D01*
G01X19345Y7919D01*
G01X19356Y7934D01*
G01X19368Y7950D01*
G01X19378Y7965D01*
G01X19387Y7982D01*
G01X19396Y7998D01*
G01X19405Y8016D01*
G01X19412Y8033D01*
G01X19418Y8051D01*
G01X19425Y8069D01*
G01X19430Y8087D01*
G01X19434Y8105D01*
G01X19438Y8124D01*
G01X19440Y8143D01*
G01X19443Y8162D01*
G01X19444Y8180D01*
G01X19444Y8219D01*
G01X19443Y8237D01*
G01X19440Y8256D01*
G01X19438Y8275D01*
G01X19434Y8294D01*
G01X19430Y8312D01*
G01X19425Y8330D01*
G01X19418Y8348D01*
G01X19412Y8366D01*
G01X19405Y8383D01*
G01X19396Y8401D01*
G01X19387Y8417D01*
G01X19378Y8434D01*
G01X19368Y8450D01*
G01X19356Y8465D01*
G01X19345Y8480D01*
G01X19333Y8494D01*
G01X19320Y8508D01*
G01X19306Y8522D01*
G01X19293Y8534D01*
G01X19278Y8547D01*
G01X19248Y8569D01*
G01X19232Y8580D01*
G01X19215Y8589D01*
G01X19199Y8598D01*
G01X19181Y8606D01*
G01X19147Y8620D01*
G01X19128Y8626D01*
G01X19092Y8636D01*
G01X19073Y8639D01*
G01X19055Y8642D01*
G01X19036Y8644D01*
G01X18998Y8646D01*
G37*
G36*
G01X5940Y9019D02*
G01X5900Y9021D01*
G01X5879Y9020D01*
G01X5859Y9019D01*
G01X5838Y9017D01*
G01X5798Y9011D01*
G01X5758Y9001D01*
G01X5739Y8995D01*
G01X5719Y8988D01*
G01X5700Y8981D01*
G01X5681Y8973D01*
G01X5663Y8964D01*
G01X5627Y8944D01*
G01X5610Y8933D01*
G01X5593Y8921D01*
G01X5577Y8909D01*
G01X5561Y8896D01*
G01X5531Y8868D01*
G01X5503Y8838D01*
G01X5490Y8822D01*
G01X5478Y8806D01*
G01X5466Y8789D01*
G01X5455Y8772D01*
G01X5435Y8736D01*
G01X5426Y8718D01*
G01X5418Y8699D01*
G01X5404Y8661D01*
G01X5398Y8641D01*
G01X5393Y8621D01*
G01X5385Y8581D01*
G01X5382Y8561D01*
G01X5380Y8540D01*
G01X5378Y8500D01*
G01X5379Y8479D01*
G01X5380Y8459D01*
G01X5382Y8438D01*
G01X5385Y8418D01*
G01X5393Y8378D01*
G01X5398Y8358D01*
G01X5404Y8338D01*
G01X5418Y8300D01*
G01X5426Y8281D01*
G01X5435Y8263D01*
G01X5455Y8227D01*
G01X5466Y8210D01*
G01X5478Y8193D01*
G01X5490Y8177D01*
G01X5503Y8161D01*
G01X5531Y8131D01*
G01X5561Y8103D01*
G01X5577Y8090D01*
G01X5593Y8078D01*
G01X5610Y8066D01*
G01X5627Y8055D01*
G01X5663Y8035D01*
G01X5681Y8026D01*
G01X5700Y8018D01*
G01X5719Y8011D01*
G01X5739Y8004D01*
G01X5758Y7998D01*
G01X5798Y7988D01*
G01X5838Y7982D01*
G01X5859Y7980D01*
G01X5879Y7979D01*
G01X5900Y7978D01*
G01X5940Y7980D01*
G01X5961Y7982D01*
G01X6001Y7988D01*
G01X6041Y7998D01*
G01X6060Y8004D01*
G01X6080Y8011D01*
G01X6099Y8018D01*
G01X6118Y8026D01*
G01X6136Y8035D01*
G01X6172Y8055D01*
G01X6189Y8066D01*
G01X6206Y8078D01*
G01X6222Y8090D01*
G01X6238Y8103D01*
G01X6268Y8131D01*
G01X6296Y8161D01*
G01X6309Y8177D01*
G01X6321Y8193D01*
G01X6333Y8210D01*
G01X6344Y8227D01*
G01X6364Y8263D01*
G01X6373Y8281D01*
G01X6381Y8300D01*
G01X6395Y8338D01*
G01X6401Y8358D01*
G01X6406Y8378D01*
G01X6414Y8418D01*
G01X6417Y8438D01*
G01X6419Y8459D01*
G01X6420Y8479D01*
G01X6421Y8500D01*
G01X6419Y8540D01*
G01X6417Y8561D01*
G01X6414Y8581D01*
G01X6406Y8621D01*
G01X6401Y8641D01*
G01X6395Y8661D01*
G01X6381Y8699D01*
G01X6373Y8718D01*
G01X6364Y8736D01*
G01X6344Y8772D01*
G01X6333Y8789D01*
G01X6321Y8806D01*
G01X6309Y8822D01*
G01X6296Y8838D01*
G01X6268Y8868D01*
G01X6238Y8896D01*
G01X6222Y8909D01*
G01X6206Y8921D01*
G01X6189Y8933D01*
G01X6172Y8944D01*
G01X6136Y8964D01*
G01X6118Y8973D01*
G01X6099Y8981D01*
G01X6080Y8988D01*
G01X6060Y8995D01*
G01X6041Y9001D01*
G01X6001Y9011D01*
G01X5961Y9017D01*
G01X5940Y9019D01*
G37*
G36*
G01X2097Y8844D02*
G01X1836Y8844D01*
G01X1845Y8825D01*
G01X1855Y8807D01*
G01X1865Y8788D01*
G01X1876Y8771D01*
G01X1888Y8753D01*
G01X1901Y8736D01*
G01X1914Y8720D01*
G01X1928Y8704D01*
G01X1942Y8689D01*
G01X1957Y8675D01*
G01X1973Y8661D01*
G01X1989Y8648D01*
G01X2006Y8635D01*
G01X2023Y8623D01*
G01X2041Y8612D01*
G01X2060Y8602D01*
G01X2078Y8592D01*
G01X2097Y8583D01*
G01X2097Y8844D01*
G37*
G36*
G01X2763Y8844D02*
G01X2502Y8844D01*
G01X2502Y8583D01*
G01X2521Y8592D01*
G01X2539Y8602D01*
G01X2558Y8612D01*
G01X2576Y8623D01*
G01X2593Y8635D01*
G01X2610Y8648D01*
G01X2626Y8661D01*
G01X2642Y8675D01*
G01X2657Y8689D01*
G01X2671Y8704D01*
G01X2685Y8720D01*
G01X2698Y8736D01*
G01X2711Y8753D01*
G01X2723Y8771D01*
G01X2734Y8788D01*
G01X2744Y8807D01*
G01X2754Y8825D01*
G01X2763Y8844D01*
G37*
G36*
G01X18678Y9027D02*
G01X18390Y9027D01*
G01X18397Y9009D01*
G01X18406Y8992D01*
G01X18415Y8976D01*
G01X18435Y8944D01*
G01X18447Y8928D01*
G01X18471Y8900D01*
G01X18484Y8886D01*
G01X18512Y8860D01*
G01X18542Y8836D01*
G01X18557Y8826D01*
G01X18573Y8816D01*
G01X18590Y8806D01*
G01X18624Y8790D01*
G01X18660Y8776D01*
G01X18678Y8771D01*
G01X18678Y9027D01*
G37*
G36*
G01X19409Y9027D02*
G01X19121Y9027D01*
G01X19121Y8771D01*
G01X19139Y8776D01*
G01X19175Y8790D01*
G01X19209Y8806D01*
G01X19226Y8816D01*
G01X19242Y8826D01*
G01X19257Y8836D01*
G01X19287Y8860D01*
G01X19315Y8886D01*
G01X19328Y8900D01*
G01X19352Y8928D01*
G01X19364Y8944D01*
G01X19384Y8976D01*
G01X19393Y8992D01*
G01X19402Y9009D01*
G01X19409Y9027D01*
G37*
G36*
G01X2506Y9511D02*
G01X2501Y9517D01*
G01X2502Y9510D01*
G01X2502Y9249D01*
G01X2763Y9249D01*
G01X2754Y9268D01*
G01X2744Y9287D01*
G01X2734Y9305D01*
G01X2710Y9341D01*
G01X2698Y9358D01*
G01X2670Y9390D01*
G01X2656Y9405D01*
G01X2640Y9420D01*
G01X2624Y9434D01*
G01X2608Y9447D01*
G01X2590Y9459D01*
G01X2573Y9471D01*
G01X2555Y9482D01*
G01X2536Y9493D01*
G01X2518Y9503D01*
G01X2511Y9506D01*
G01X2506Y9511D01*
G37*
G36*
G01X2097Y9510D02*
G01X2098Y9517D01*
G01X2093Y9511D01*
G01X2088Y9506D01*
G01X2081Y9503D01*
G01X2063Y9493D01*
G01X2044Y9482D01*
G01X2026Y9471D01*
G01X2009Y9459D01*
G01X1991Y9447D01*
G01X1975Y9434D01*
G01X1959Y9420D01*
G01X1943Y9405D01*
G01X1929Y9390D01*
G01X1901Y9358D01*
G01X1889Y9341D01*
G01X1865Y9305D01*
G01X1855Y9287D01*
G01X1845Y9268D01*
G01X1836Y9249D01*
G01X2097Y9249D01*
G01X2097Y9510D01*
G37*
G36*
G01X18678Y9372D02*
G01X18678Y9628D01*
G01X18660Y9623D01*
G01X18624Y9609D01*
G01X18590Y9593D01*
G01X18573Y9583D01*
G01X18557Y9573D01*
G01X18542Y9563D01*
G01X18512Y9539D01*
G01X18484Y9513D01*
G01X18471Y9500D01*
G01X18459Y9485D01*
G01X18447Y9471D01*
G01X18435Y9455D01*
G01X18415Y9423D01*
G01X18406Y9407D01*
G01X18397Y9390D01*
G01X18390Y9372D01*
G01X18678Y9372D01*
G37*
G36*
G01X19139Y9623D02*
G01X19121Y9628D01*
G01X19121Y9372D01*
G01X19409Y9372D01*
G01X19402Y9390D01*
G01X19393Y9407D01*
G01X19384Y9423D01*
G01X19364Y9455D01*
G01X19352Y9471D01*
G01X19340Y9485D01*
G01X19328Y9500D01*
G01X19315Y9513D01*
G01X19287Y9539D01*
G01X19257Y9563D01*
G01X19242Y9573D01*
G01X19226Y9583D01*
G01X19209Y9593D01*
G01X19175Y9609D01*
G01X19139Y9623D01*
G37*
G36*
G01X15026Y5465D02*
G01X14373Y5465D01*
G01X14362Y5464D01*
G01X14351Y5462D01*
G01X14340Y5459D01*
G01X14329Y5455D01*
G01X14319Y5451D01*
G01X14309Y5445D01*
G01X14300Y5439D01*
G01X14290Y5432D01*
G01X14282Y5425D01*
G01X14274Y5417D01*
G01X14267Y5409D01*
G01X14260Y5400D01*
G01X14248Y5380D01*
G01X14244Y5370D01*
G01X14240Y5359D01*
G01X14237Y5348D01*
G01X14235Y5337D01*
G01X14234Y5326D01*
G01X14234Y4673D01*
G01X14235Y4661D01*
G01X14238Y4650D01*
G01X14239Y4640D01*
G01X14238Y4635D01*
G01X14237Y4629D01*
G01X14235Y4624D01*
G01X14229Y4614D01*
G01X14225Y4610D01*
G01X14215Y4604D01*
G01X14210Y4602D01*
G01X14204Y4601D01*
G01X13540Y4601D01*
G01X13533Y4603D01*
G01X13527Y4605D01*
G01X13522Y4609D01*
G01X13505Y4621D01*
G01X13489Y4633D01*
G01X13471Y4644D01*
G01X13454Y4654D01*
G01X13436Y4664D01*
G01X13417Y4673D01*
G01X13398Y4681D01*
G01X13380Y4688D01*
G01X13360Y4695D01*
G01X13341Y4701D01*
G01X13301Y4711D01*
G01X13261Y4717D01*
G01X13240Y4719D01*
G01X13200Y4721D01*
G01X13179Y4720D01*
G01X13159Y4719D01*
G01X13138Y4717D01*
G01X13098Y4711D01*
G01X13058Y4701D01*
G01X13039Y4695D01*
G01X13019Y4688D01*
G01X13001Y4681D01*
G01X12982Y4673D01*
G01X12963Y4664D01*
G01X12945Y4654D01*
G01X12928Y4644D01*
G01X12910Y4633D01*
G01X12894Y4621D01*
G01X12877Y4609D01*
G01X12872Y4605D01*
G01X12866Y4603D01*
G01X12859Y4601D01*
G01X12300Y4601D01*
G01X12281Y4600D01*
G01X12263Y4599D01*
G01X12244Y4597D01*
G01X12226Y4594D01*
G01X12208Y4590D01*
G01X12172Y4580D01*
G01X12121Y4559D01*
G01X12104Y4550D01*
G01X12089Y4540D01*
G01X12073Y4530D01*
G01X12043Y4508D01*
G01X12029Y4496D01*
G01X10803Y3270D01*
G01X10791Y3256D01*
G01X10769Y3226D01*
G01X10759Y3211D01*
G01X10749Y3195D01*
G01X10740Y3178D01*
G01X10719Y3127D01*
G01X10709Y3091D01*
G01X10705Y3073D01*
G01X10702Y3055D01*
G01X10700Y3036D01*
G01X10698Y3000D01*
G01X10698Y2335D01*
G01X10697Y2329D01*
G01X10695Y2324D01*
G01X10689Y2314D01*
G01X10685Y2310D01*
G01X10675Y2304D01*
G01X10670Y2302D01*
G01X10664Y2301D01*
G01X9540Y2301D01*
G01X9533Y2303D01*
G01X9527Y2305D01*
G01X9522Y2309D01*
G01X9504Y2322D01*
G01X9485Y2335D01*
G01X9467Y2347D01*
G01X9447Y2358D01*
G01X9428Y2368D01*
G01X9408Y2377D01*
G01X9387Y2386D01*
G01X9345Y2400D01*
G01X9324Y2405D01*
G01X9302Y2410D01*
G01X9296Y2412D01*
G01X9286Y2418D01*
G01X9281Y2422D01*
G01X9277Y2426D01*
G01X9274Y2432D01*
G01X9272Y2438D01*
G01X9270Y2450D01*
G01X9271Y2455D01*
G01X9272Y2461D01*
G01X9274Y2467D01*
G01X9277Y2473D01*
G01X9281Y2477D01*
G01X9286Y2481D01*
G01X9296Y2487D01*
G01X9302Y2489D01*
G01X9322Y2493D01*
G01X9342Y2498D01*
G01X9361Y2504D01*
G01X9381Y2511D01*
G01X9400Y2519D01*
G01X9418Y2527D01*
G01X9437Y2536D01*
G01X9455Y2545D01*
G01X9506Y2578D01*
G01X9554Y2617D01*
G01X9568Y2632D01*
G01X9582Y2646D01*
G01X9596Y2661D01*
G01X9609Y2677D01*
G01X9633Y2711D01*
G01X9644Y2728D01*
G01X9654Y2745D01*
G01X9664Y2763D01*
G01X9673Y2782D01*
G01X9681Y2800D01*
G01X9688Y2819D01*
G01X9695Y2839D01*
G01X9701Y2858D01*
G01X9706Y2878D01*
G01X9714Y2918D01*
G01X9717Y2938D01*
G01X9719Y2959D01*
G01X9720Y2979D01*
G01X9721Y3000D01*
G01X9719Y3040D01*
G01X9717Y3061D01*
G01X9714Y3081D01*
G01X9706Y3121D01*
G01X9701Y3141D01*
G01X9695Y3161D01*
G01X9681Y3199D01*
G01X9673Y3218D01*
G01X9664Y3236D01*
G01X9644Y3272D01*
G01X9633Y3289D01*
G01X9621Y3306D01*
G01X9609Y3322D01*
G01X9596Y3338D01*
G01X9568Y3368D01*
G01X9538Y3396D01*
G01X9522Y3409D01*
G01X9506Y3421D01*
G01X9489Y3433D01*
G01X9472Y3444D01*
G01X9436Y3464D01*
G01X9418Y3473D01*
G01X9399Y3481D01*
G01X9380Y3488D01*
G01X9360Y3495D01*
G01X9341Y3501D01*
G01X9301Y3511D01*
G01X9261Y3517D01*
G01X9240Y3519D01*
G01X9200Y3521D01*
G01X9179Y3520D01*
G01X9159Y3519D01*
G01X9138Y3517D01*
G01X9098Y3511D01*
G01X9058Y3501D01*
G01X9039Y3495D01*
G01X9019Y3488D01*
G01X9000Y3481D01*
G01X8981Y3473D01*
G01X8963Y3464D01*
G01X8927Y3444D01*
G01X8910Y3433D01*
G01X8893Y3421D01*
G01X8877Y3409D01*
G01X8861Y3396D01*
G01X8831Y3368D01*
G01X8803Y3338D01*
G01X8791Y3322D01*
G01X8778Y3306D01*
G01X8745Y3255D01*
G01X8735Y3236D01*
G01X8727Y3218D01*
G01X8718Y3199D01*
G01X8704Y3161D01*
G01X8698Y3142D01*
G01X8693Y3122D01*
G01X8685Y3082D01*
G01X8682Y3061D01*
G01X8681Y3055D01*
G01X8675Y3043D01*
G01X8671Y3038D01*
G01X7661Y2028D01*
G01X7656Y2024D01*
G01X7652Y2021D01*
G01X7646Y2019D01*
G01X7628Y2011D01*
G01X7610Y2004D01*
G01X7576Y1986D01*
G01X7559Y1976D01*
G01X7543Y1965D01*
G01X7527Y1953D01*
G01X7512Y1941D01*
G01X7497Y1928D01*
G01X7470Y1901D01*
G01X7457Y1886D01*
G01X7445Y1871D01*
G01X7423Y1839D01*
G01X7403Y1805D01*
G01X7395Y1788D01*
G01X7387Y1770D01*
G01X7380Y1752D01*
G01X7374Y1734D01*
G01X7368Y1715D01*
G01X7360Y1677D01*
G01X7357Y1657D01*
G01X7353Y1619D01*
G01X7353Y1580D01*
G01X7355Y1561D01*
G01X7357Y1543D01*
G01X7363Y1505D01*
G01X7373Y1469D01*
G01X7385Y1433D01*
G01X7393Y1415D01*
G01X7401Y1398D01*
G01X7410Y1382D01*
G01X7419Y1365D01*
G01X7430Y1350D01*
G01X7440Y1334D01*
G01X7452Y1319D01*
G01X7464Y1305D01*
G01X7477Y1291D01*
G01X7491Y1277D01*
G01X7505Y1264D01*
G01X7519Y1252D01*
G01X7534Y1240D01*
G01X7550Y1230D01*
G01X7565Y1219D01*
G01X7582Y1210D01*
G01X7598Y1201D01*
G01X7615Y1193D01*
G01X7633Y1185D01*
G01X7687Y1167D01*
G01X7705Y1163D01*
G01X7724Y1159D01*
G01X7743Y1157D01*
G01X7761Y1155D01*
G01X7781Y1153D01*
G01X7819Y1153D01*
G01X7857Y1157D01*
G01X7877Y1160D01*
G01X7915Y1168D01*
G01X7934Y1174D01*
G01X7952Y1180D01*
G01X7970Y1187D01*
G01X7988Y1195D01*
G01X8005Y1203D01*
G01X8039Y1223D01*
G01X8071Y1245D01*
G01X8086Y1257D01*
G01X8101Y1270D01*
G01X8115Y1284D01*
G01X8141Y1312D01*
G01X8153Y1327D01*
G01X8165Y1343D01*
G01X8176Y1359D01*
G01X8186Y1376D01*
G01X8204Y1410D01*
G01X8218Y1446D01*
G01X8224Y1456D01*
G01X8228Y1461D01*
G01X8616Y1849D01*
G01X8621Y1853D01*
G01X8626Y1856D01*
G01X8632Y1859D01*
G01X8644Y1861D01*
G01X8650Y1860D01*
G01X8655Y1859D01*
G01X8661Y1857D01*
G01X8666Y1854D01*
G01X8670Y1851D01*
G01X8674Y1847D01*
G01X8678Y1842D01*
G01X8681Y1837D01*
G01X8682Y1832D01*
G01X8684Y1826D01*
G01X8687Y1806D01*
G01X8691Y1785D01*
G01X8696Y1765D01*
G01X8702Y1746D01*
G01X8708Y1726D01*
G01X8715Y1707D01*
G01X8724Y1687D01*
G01X8732Y1669D01*
G01X8742Y1650D01*
G01X8752Y1632D01*
G01X8763Y1615D01*
G01X8787Y1581D01*
G01X8800Y1565D01*
G01X8814Y1549D01*
G01X8828Y1534D01*
G01X8858Y1506D01*
G01X8890Y1480D01*
G01X8907Y1468D01*
G01X8925Y1457D01*
G01X8942Y1446D01*
G01X8960Y1436D01*
G01X8979Y1428D01*
G01X8998Y1419D01*
G01X9017Y1411D01*
G01X9037Y1405D01*
G01X9056Y1398D01*
G01X9077Y1393D01*
G01X9117Y1385D01*
G01X9138Y1382D01*
G01X9158Y1380D01*
G01X9200Y1378D01*
G01X9240Y1380D01*
G01X9261Y1382D01*
G01X9301Y1388D01*
G01X9341Y1398D01*
G01X9360Y1404D01*
G01X9380Y1411D01*
G01X9398Y1418D01*
G01X9417Y1426D01*
G01X9436Y1435D01*
G01X9454Y1445D01*
G01X9471Y1455D01*
G01X9489Y1466D01*
G01X9505Y1478D01*
G01X9522Y1490D01*
G01X9527Y1494D01*
G01X9533Y1496D01*
G01X9540Y1498D01*
G01X10900Y1498D01*
G01X10936Y1500D01*
G01X10955Y1502D01*
G01X10973Y1505D01*
G01X10991Y1509D01*
G01X11027Y1519D01*
G01X11078Y1540D01*
G01X11095Y1549D01*
G01X11110Y1559D01*
G01X11126Y1569D01*
G01X11156Y1591D01*
G01X11170Y1603D01*
G01X11396Y1829D01*
G01X11408Y1843D01*
G01X11430Y1873D01*
G01X11440Y1888D01*
G01X11450Y1904D01*
G01X11459Y1921D01*
G01X11480Y1972D01*
G01X11490Y2008D01*
G01X11494Y2026D01*
G01X11497Y2044D01*
G01X11499Y2063D01*
G01X11500Y2081D01*
G01X11501Y2100D01*
G01X11501Y2823D01*
G01X11502Y2829D01*
G01X11505Y2835D01*
G01X11508Y2840D01*
G01X11512Y2845D01*
G01X12454Y3787D01*
G01X12459Y3791D01*
G01X12464Y3794D01*
G01X12476Y3798D01*
G01X12859Y3798D01*
G01X12866Y3796D01*
G01X12872Y3794D01*
G01X12877Y3790D01*
G01X12894Y3778D01*
G01X12910Y3766D01*
G01X12928Y3755D01*
G01X12945Y3745D01*
G01X12963Y3735D01*
G01X12982Y3726D01*
G01X13001Y3718D01*
G01X13019Y3711D01*
G01X13039Y3704D01*
G01X13058Y3698D01*
G01X13098Y3688D01*
G01X13138Y3682D01*
G01X13159Y3680D01*
G01X13179Y3679D01*
G01X13200Y3678D01*
G01X13240Y3680D01*
G01X13261Y3682D01*
G01X13301Y3688D01*
G01X13341Y3698D01*
G01X13360Y3704D01*
G01X13380Y3711D01*
G01X13398Y3718D01*
G01X13417Y3726D01*
G01X13436Y3735D01*
G01X13454Y3745D01*
G01X13471Y3755D01*
G01X13489Y3766D01*
G01X13505Y3778D01*
G01X13522Y3790D01*
G01X13527Y3794D01*
G01X13533Y3796D01*
G01X13540Y3798D01*
G01X14261Y3798D01*
G01X14267Y3797D01*
G01X14272Y3794D01*
G01X14278Y3791D01*
G01X14286Y3783D01*
G01X14290Y3778D01*
G01X14299Y3761D01*
G01X14310Y3744D01*
G01X14321Y3728D01*
G01X14332Y3713D01*
G01X14345Y3697D01*
G01X14371Y3669D01*
G01X14385Y3655D01*
G01X14400Y3642D01*
G01X14415Y3630D01*
G01X14447Y3608D01*
G01X14481Y3588D01*
G01X14498Y3579D01*
G01X14516Y3571D01*
G01X14552Y3557D01*
G01X14609Y3542D01*
G01X14628Y3539D01*
G01X14634Y3538D01*
G01X14639Y3536D01*
G01X14644Y3533D01*
G01X14648Y3530D01*
G01X14652Y3526D01*
G01X14656Y3521D01*
G01X14660Y3511D01*
G01X14661Y3505D01*
G01X14662Y3500D01*
G01X14660Y3488D01*
G01X14656Y3478D01*
G01X14652Y3473D01*
G01X14648Y3469D01*
G01X14644Y3466D01*
G01X14639Y3463D01*
G01X14634Y3461D01*
G01X14628Y3460D01*
G01X14607Y3456D01*
G01X14587Y3452D01*
G01X14547Y3440D01*
G01X14527Y3432D01*
G01X14508Y3425D01*
G01X14489Y3415D01*
G01X14465Y3403D01*
G01X14458Y3401D01*
G01X13540Y3401D01*
G01X13533Y3403D01*
G01X13527Y3405D01*
G01X13522Y3409D01*
G01X13505Y3421D01*
G01X13489Y3433D01*
G01X13471Y3444D01*
G01X13454Y3454D01*
G01X13436Y3464D01*
G01X13417Y3473D01*
G01X13398Y3481D01*
G01X13380Y3488D01*
G01X13360Y3495D01*
G01X13341Y3501D01*
G01X13301Y3511D01*
G01X13261Y3517D01*
G01X13240Y3519D01*
G01X13200Y3521D01*
G01X13179Y3520D01*
G01X13159Y3519D01*
G01X13138Y3517D01*
G01X13098Y3511D01*
G01X13058Y3501D01*
G01X13039Y3495D01*
G01X13019Y3488D01*
G01X13000Y3481D01*
G01X12981Y3473D01*
G01X12963Y3464D01*
G01X12927Y3444D01*
G01X12910Y3433D01*
G01X12893Y3421D01*
G01X12877Y3409D01*
G01X12861Y3396D01*
G01X12831Y3368D01*
G01X12803Y3338D01*
G01X12790Y3322D01*
G01X12778Y3306D01*
G01X12766Y3289D01*
G01X12755Y3272D01*
G01X12735Y3236D01*
G01X12726Y3218D01*
G01X12718Y3199D01*
G01X12704Y3161D01*
G01X12698Y3141D01*
G01X12693Y3121D01*
G01X12685Y3081D01*
G01X12682Y3061D01*
G01X12680Y3040D01*
G01X12678Y3000D01*
G01X12679Y2979D01*
G01X12680Y2959D01*
G01X12682Y2938D01*
G01X12685Y2918D01*
G01X12693Y2878D01*
G01X12698Y2858D01*
G01X12704Y2839D01*
G01X12711Y2819D01*
G01X12718Y2800D01*
G01X12726Y2782D01*
G01X12735Y2763D01*
G01X12745Y2745D01*
G01X12755Y2728D01*
G01X12766Y2711D01*
G01X12790Y2677D01*
G01X12803Y2661D01*
G01X12817Y2646D01*
G01X12831Y2632D01*
G01X12845Y2617D01*
G01X12893Y2578D01*
G01X12944Y2545D01*
G01X12962Y2536D01*
G01X12981Y2527D01*
G01X12999Y2519D01*
G01X13018Y2511D01*
G01X13038Y2504D01*
G01X13057Y2498D01*
G01X13077Y2493D01*
G01X13117Y2485D01*
G01X13138Y2482D01*
G01X13158Y2480D01*
G01X13200Y2478D01*
G01X13220Y2479D01*
G01X13241Y2480D01*
G01X13261Y2482D01*
G01X13282Y2485D01*
G01X13302Y2489D01*
G01X13324Y2494D01*
G01X13345Y2499D01*
G01X13387Y2513D01*
G01X13408Y2522D01*
G01X13428Y2531D01*
G01X13447Y2541D01*
G01X13467Y2552D01*
G01X13485Y2564D01*
G01X13504Y2577D01*
G01X13522Y2590D01*
G01X13527Y2594D01*
G01X13533Y2596D01*
G01X13540Y2598D01*
G01X14458Y2598D01*
G01X14465Y2596D01*
G01X14489Y2584D01*
G01X14508Y2575D01*
G01X14527Y2567D01*
G01X14547Y2559D01*
G01X14587Y2547D01*
G01X14607Y2543D01*
G01X14628Y2539D01*
G01X14652Y2536D01*
G01X14676Y2534D01*
G01X14723Y2534D01*
G01X14747Y2536D01*
G01X14771Y2539D01*
G01X14790Y2542D01*
G01X14809Y2546D01*
G01X14828Y2551D01*
G01X14847Y2557D01*
G01X14883Y2571D01*
G01X14901Y2579D01*
G01X14935Y2597D01*
G01X14951Y2607D01*
G01X14968Y2618D01*
G01X14998Y2642D01*
G01X15013Y2655D01*
G01X15027Y2668D01*
G01X15053Y2696D01*
G01X15066Y2711D01*
G01X15077Y2727D01*
G01X15089Y2743D01*
G01X15099Y2759D01*
G01X15109Y2776D01*
G01X15118Y2793D01*
G01X15126Y2811D01*
G01X15140Y2847D01*
G01X15146Y2865D01*
G01X15156Y2903D01*
G01X15159Y2922D01*
G01X15162Y2942D01*
G01X15164Y2961D01*
G01X15165Y2980D01*
G01X15165Y3019D01*
G01X15164Y3038D01*
G01X15162Y3057D01*
G01X15159Y3077D01*
G01X15156Y3096D01*
G01X15146Y3134D01*
G01X15140Y3152D01*
G01X15126Y3188D01*
G01X15118Y3206D01*
G01X15109Y3223D01*
G01X15099Y3240D01*
G01X15089Y3256D01*
G01X15077Y3272D01*
G01X15066Y3288D01*
G01X15053Y3303D01*
G01X15027Y3331D01*
G01X15013Y3344D01*
G01X14998Y3357D01*
G01X14968Y3381D01*
G01X14951Y3392D01*
G01X14935Y3402D01*
G01X14901Y3420D01*
G01X14883Y3428D01*
G01X14847Y3442D01*
G01X14828Y3448D01*
G01X14809Y3453D01*
G01X14790Y3457D01*
G01X14771Y3460D01*
G01X14765Y3461D01*
G01X14760Y3463D01*
G01X14755Y3466D01*
G01X14751Y3469D01*
G01X14747Y3473D01*
G01X14743Y3478D01*
G01X14739Y3488D01*
G01X14737Y3500D01*
G01X14738Y3505D01*
G01X14739Y3511D01*
G01X14743Y3521D01*
G01X14747Y3526D01*
G01X14751Y3530D01*
G01X14755Y3533D01*
G01X14760Y3536D01*
G01X14765Y3538D01*
G01X14771Y3539D01*
G01X14790Y3542D01*
G01X14809Y3546D01*
G01X14828Y3551D01*
G01X14847Y3557D01*
G01X14883Y3571D01*
G01X14901Y3579D01*
G01X14935Y3597D01*
G01X14951Y3607D01*
G01X14968Y3618D01*
G01X14998Y3642D01*
G01X15013Y3655D01*
G01X15027Y3668D01*
G01X15053Y3696D01*
G01X15066Y3711D01*
G01X15077Y3727D01*
G01X15089Y3743D01*
G01X15099Y3759D01*
G01X15109Y3776D01*
G01X15118Y3793D01*
G01X15126Y3811D01*
G01X15140Y3847D01*
G01X15146Y3865D01*
G01X15156Y3903D01*
G01X15159Y3922D01*
G01X15162Y3942D01*
G01X15164Y3961D01*
G01X15165Y3980D01*
G01X15165Y4019D01*
G01X15164Y4038D01*
G01X15162Y4058D01*
G01X15159Y4077D01*
G01X15151Y4115D01*
G01X15146Y4134D01*
G01X15140Y4153D01*
G01X15133Y4171D01*
G01X15117Y4207D01*
G01X15108Y4224D01*
G01X15098Y4241D01*
G01X15088Y4257D01*
G01X15077Y4273D01*
G01X15065Y4289D01*
G01X15052Y4304D01*
G01X15026Y4332D01*
G01X15011Y4346D01*
G01X14997Y4359D01*
G01X14981Y4371D01*
G01X14966Y4382D01*
G01X14949Y4393D01*
G01X14933Y4403D01*
G01X14916Y4412D01*
G01X14898Y4421D01*
G01X14880Y4429D01*
G01X14862Y4436D01*
G01X14844Y4442D01*
G01X14825Y4448D01*
G01X14813Y4454D01*
G01X14808Y4459D01*
G01X14801Y4465D01*
G01X14793Y4475D01*
G01X14791Y4481D01*
G01X14790Y4487D01*
G01X14789Y4494D01*
G01X14789Y4499D01*
G01X14791Y4505D01*
G01X14793Y4510D01*
G01X14799Y4520D01*
G01X14803Y4524D01*
G01X14807Y4527D01*
G01X14813Y4530D01*
G01X14818Y4532D01*
G01X14823Y4533D01*
G01X14829Y4534D01*
G01X15026Y4534D01*
G01X15037Y4535D01*
G01X15048Y4537D01*
G01X15059Y4540D01*
G01X15070Y4544D01*
G01X15080Y4548D01*
G01X15100Y4560D01*
G01X15109Y4567D01*
G01X15117Y4574D01*
G01X15125Y4582D01*
G01X15132Y4590D01*
G01X15139Y4600D01*
G01X15145Y4609D01*
G01X15151Y4619D01*
G01X15155Y4629D01*
G01X15159Y4640D01*
G01X15162Y4651D01*
G01X15164Y4662D01*
G01X15165Y4673D01*
G01X15165Y5326D01*
G01X15164Y5337D01*
G01X15162Y5348D01*
G01X15159Y5359D01*
G01X15155Y5370D01*
G01X15151Y5380D01*
G01X15139Y5400D01*
G01X15132Y5409D01*
G01X15125Y5417D01*
G01X15117Y5425D01*
G01X15109Y5432D01*
G01X15100Y5439D01*
G01X15080Y5451D01*
G01X15070Y5455D01*
G01X15059Y5459D01*
G01X15048Y5462D01*
G01X15037Y5464D01*
G01X15026Y5465D01*
G37*
G36*
G01X11176Y9790D02*
G01X10910Y9790D01*
G01X10910Y9523D01*
G01X10929Y9532D01*
G01X10967Y9552D01*
G01X10985Y9563D01*
G01X11002Y9576D01*
G01X11020Y9588D01*
G01X11052Y9616D01*
G01X11068Y9631D01*
G01X11083Y9646D01*
G01X11097Y9663D01*
G01X11110Y9679D01*
G01X11123Y9696D01*
G01X11147Y9732D01*
G01X11167Y9770D01*
G01X11176Y9790D01*
G37*
G36*
G01X18620Y17320D02*
G01X18600Y17321D01*
G01X18579Y17320D01*
G01X18559Y17319D01*
G01X18538Y17317D01*
G01X18498Y17311D01*
G01X18458Y17301D01*
G01X18439Y17295D01*
G01X18419Y17288D01*
G01X18400Y17281D01*
G01X18381Y17273D01*
G01X18363Y17264D01*
G01X18327Y17244D01*
G01X18310Y17233D01*
G01X18293Y17221D01*
G01X18277Y17209D01*
G01X18261Y17196D01*
G01X18231Y17168D01*
G01X18203Y17138D01*
G01X18190Y17122D01*
G01X18178Y17106D01*
G01X18166Y17089D01*
G01X18155Y17072D01*
G01X18135Y17036D01*
G01X18126Y17018D01*
G01X18118Y16999D01*
G01X18104Y16961D01*
G01X18098Y16941D01*
G01X18093Y16921D01*
G01X18085Y16881D01*
G01X18082Y16861D01*
G01X18080Y16840D01*
G01X18078Y16800D01*
G01X18080Y16758D01*
G01X18082Y16737D01*
G01X18085Y16717D01*
G01X18089Y16696D01*
G01X18093Y16676D01*
G01X18105Y16636D01*
G01X18112Y16616D01*
G01X18119Y16597D01*
G01X18137Y16559D01*
G01X18147Y16541D01*
G01X18158Y16523D01*
G01X18169Y16506D01*
G01X18181Y16489D01*
G01X18207Y16457D01*
G01X18221Y16441D01*
G01X18236Y16427D01*
G01X18251Y16412D01*
G01X18283Y16386D01*
G01X18300Y16373D01*
G01X18317Y16362D01*
G01X18335Y16351D01*
G01X18371Y16331D01*
G01X18409Y16315D01*
G01X18429Y16307D01*
G01X18448Y16301D01*
G01X18468Y16295D01*
G01X18474Y16293D01*
G01X18479Y16291D01*
G01X18484Y16287D01*
G01X18492Y16279D01*
G01X18495Y16273D01*
G01X18497Y16268D01*
G01X18498Y16262D01*
G01X18498Y10674D01*
G01X18497Y10668D01*
G01X18495Y10663D01*
G01X18492Y10657D01*
G01X18484Y10649D01*
G01X18479Y10645D01*
G01X18474Y10643D01*
G01X18468Y10641D01*
G01X18458Y10638D01*
G01X18447Y10634D01*
G01X18427Y10624D01*
G01X18418Y10618D01*
G01X18410Y10611D01*
G01X18401Y10604D01*
G01X18393Y10596D01*
G01X18386Y10587D01*
G01X18374Y10569D01*
G01X18364Y10549D01*
G01X18361Y10538D01*
G01X18358Y10528D01*
G01X18356Y10517D01*
G01X18355Y10505D01*
G01X18355Y9893D01*
G01X18356Y9882D01*
G01X18358Y9871D01*
G01X18361Y9860D01*
G01X18365Y9849D01*
G01X18369Y9839D01*
G01X18381Y9819D01*
G01X18388Y9810D01*
G01X18395Y9802D01*
G01X18411Y9786D01*
G01X18421Y9780D01*
G01X18430Y9774D01*
G01X18450Y9764D01*
G01X18461Y9760D01*
G01X18472Y9757D01*
G01X18483Y9755D01*
G01X18494Y9754D01*
G01X18506Y9753D01*
G01X19293Y9753D01*
G01X19305Y9754D01*
G01X19316Y9755D01*
G01X19327Y9757D01*
G01X19338Y9760D01*
G01X19349Y9764D01*
G01X19369Y9774D01*
G01X19378Y9780D01*
G01X19388Y9786D01*
G01X19404Y9802D01*
G01X19411Y9810D01*
G01X19418Y9819D01*
G01X19430Y9839D01*
G01X19434Y9849D01*
G01X19438Y9860D01*
G01X19441Y9871D01*
G01X19443Y9882D01*
G01X19444Y9893D01*
G01X19444Y10505D01*
G01X19443Y10517D01*
G01X19441Y10528D01*
G01X19438Y10538D01*
G01X19435Y10549D01*
G01X19425Y10569D01*
G01X19413Y10587D01*
G01X19406Y10596D01*
G01X19398Y10604D01*
G01X19389Y10611D01*
G01X19381Y10618D01*
G01X19372Y10624D01*
G01X19352Y10634D01*
G01X19341Y10638D01*
G01X19331Y10641D01*
G01X19325Y10643D01*
G01X19320Y10645D01*
G01X19315Y10649D01*
G01X19307Y10657D01*
G01X19304Y10663D01*
G01X19302Y10668D01*
G01X19301Y10674D01*
G01X19301Y16800D01*
G01X19299Y16836D01*
G01X19297Y16854D01*
G01X19294Y16872D01*
G01X19286Y16908D01*
G01X19274Y16942D01*
G01X19260Y16976D01*
G01X19242Y17008D01*
G01X19222Y17038D01*
G01X19211Y17053D01*
G01X19199Y17066D01*
G01X19186Y17080D01*
G01X19173Y17092D01*
G01X19160Y17105D01*
G01X19146Y17116D01*
G01X19131Y17127D01*
G01X19116Y17137D01*
G01X19100Y17147D01*
G01X19068Y17163D01*
G01X19051Y17171D01*
G01X19017Y17183D01*
G01X18999Y17188D01*
G01X18981Y17192D01*
G01X18964Y17195D01*
G01X18945Y17198D01*
G01X18931Y17202D01*
G01X18925Y17206D01*
G01X18909Y17219D01*
G01X18892Y17231D01*
G01X18856Y17253D01*
G01X18838Y17263D01*
G01X18820Y17272D01*
G01X18782Y17288D01*
G01X18762Y17294D01*
G01X18742Y17301D01*
G01X18722Y17306D01*
G01X18682Y17314D01*
G01X18661Y17317D01*
G01X18641Y17319D01*
G01X18620Y17320D01*
G37*
G36*
G01X4130Y2260D02*
G01X3859Y2260D01*
G01X3859Y2171D01*
G01X3860Y2160D01*
G01X3861Y2148D01*
G01X3863Y2137D01*
G01X3866Y2126D01*
G01X3870Y2115D01*
G01X3874Y2105D01*
G01X3880Y2095D01*
G01X3886Y2086D01*
G01X3893Y2076D01*
G01X3900Y2068D01*
G01X3904Y2063D01*
G01X3907Y2058D01*
G01X3909Y2052D01*
G01X3911Y2040D01*
G01X3910Y2035D01*
G01X3909Y2029D01*
G01X3907Y2024D01*
G01X3901Y2014D01*
G01X3897Y2010D01*
G01X3887Y2004D01*
G01X3882Y2002D01*
G01X3877Y2001D01*
G01X3149Y2001D01*
G01X3144Y2002D01*
G01X3138Y2004D01*
G01X3133Y2007D01*
G01X3129Y2010D01*
G01X3125Y2014D01*
G01X3117Y2023D01*
G01X3108Y2030D01*
G01X3099Y2038D01*
G01X3079Y2050D01*
G01X3057Y2058D01*
G01X3035Y2064D01*
G01X3023Y2065D01*
G01X2370Y2065D01*
G01X2359Y2064D01*
G01X2348Y2062D01*
G01X2337Y2059D01*
G01X2326Y2055D01*
G01X2316Y2051D01*
G01X2296Y2039D01*
G01X2287Y2032D01*
G01X2279Y2025D01*
G01X2263Y2009D01*
G01X2257Y2000D01*
G01X2251Y1990D01*
G01X2241Y1970D01*
G01X2237Y1959D01*
G01X2234Y1948D01*
G01X2232Y1937D01*
G01X2231Y1926D01*
G01X2231Y1273D01*
G01X2232Y1262D01*
G01X2234Y1251D01*
G01X2237Y1240D01*
G01X2241Y1229D01*
G01X2251Y1209D01*
G01X2257Y1199D01*
G01X2263Y1190D01*
G01X2287Y1166D01*
G01X2296Y1160D01*
G01X2316Y1148D01*
G01X2326Y1144D01*
G01X2337Y1140D01*
G01X2348Y1137D01*
G01X2359Y1135D01*
G01X2370Y1134D01*
G01X3023Y1134D01*
G01X3035Y1135D01*
G01X3057Y1141D01*
G01X3068Y1145D01*
G01X3079Y1150D01*
G01X3089Y1155D01*
G01X3099Y1161D01*
G01X3108Y1169D01*
G01X3117Y1176D01*
G01X3125Y1185D01*
G01X3129Y1189D01*
G01X3139Y1195D01*
G01X3144Y1197D01*
G01X3149Y1198D01*
G01X5400Y1198D01*
G01X5406Y1197D01*
G01X5411Y1195D01*
G01X5429Y1187D01*
G01X5447Y1180D01*
G01X5466Y1174D01*
G01X5484Y1168D01*
G01X5522Y1160D01*
G01X5541Y1157D01*
G01X5561Y1155D01*
G01X5580Y1153D01*
G01X5618Y1153D01*
G01X5675Y1159D01*
G01X5693Y1163D01*
G01X5712Y1167D01*
G01X5766Y1185D01*
G01X5800Y1201D01*
G01X5817Y1210D01*
G01X5833Y1219D01*
G01X5849Y1230D01*
G01X5865Y1240D01*
G01X5880Y1252D01*
G01X5894Y1264D01*
G01X5908Y1277D01*
G01X5922Y1291D01*
G01X5935Y1305D01*
G01X5947Y1319D01*
G01X5958Y1334D01*
G01X5969Y1350D01*
G01X5980Y1365D01*
G01X5989Y1382D01*
G01X5998Y1398D01*
G01X6006Y1415D01*
G01X6014Y1433D01*
G01X6026Y1469D01*
G01X6036Y1505D01*
G01X6042Y1543D01*
G01X6044Y1561D01*
G01X6045Y1580D01*
G01X6046Y1600D01*
G01X6045Y1618D01*
G01X6044Y1637D01*
G01X6042Y1656D01*
G01X6036Y1694D01*
G01X6026Y1730D01*
G01X6014Y1766D01*
G01X5998Y1800D01*
G01X5989Y1817D01*
G01X5980Y1833D01*
G01X5958Y1865D01*
G01X5947Y1880D01*
G01X5935Y1894D01*
G01X5922Y1908D01*
G01X5880Y1947D01*
G01X5865Y1958D01*
G01X5833Y1980D01*
G01X5817Y1989D01*
G01X5800Y1998D01*
G01X5783Y2006D01*
G01X5766Y2013D01*
G01X5748Y2020D01*
G01X5730Y2026D01*
G01X5712Y2031D01*
G01X5693Y2036D01*
G01X5675Y2039D01*
G01X5656Y2042D01*
G01X5637Y2044D01*
G01X5618Y2045D01*
G01X5600Y2046D01*
G01X5580Y2045D01*
G01X5561Y2044D01*
G01X5541Y2042D01*
G01X5522Y2039D01*
G01X5503Y2035D01*
G01X5484Y2030D01*
G01X5466Y2025D01*
G01X5447Y2019D01*
G01X5429Y2012D01*
G01X5411Y2004D01*
G01X5406Y2002D01*
G01X5394Y2000D01*
G01X4728Y2000D01*
G01X4722Y2001D01*
G01X4717Y2002D01*
G01X4712Y2004D01*
G01X4702Y2010D01*
G01X4698Y2014D01*
G01X4692Y2024D01*
G01X4690Y2029D01*
G01X4689Y2035D01*
G01X4688Y2040D01*
G01X4690Y2052D01*
G01X4692Y2058D01*
G01X4695Y2063D01*
G01X4699Y2068D01*
G01X4706Y2076D01*
G01X4713Y2086D01*
G01X4719Y2095D01*
G01X4725Y2105D01*
G01X4729Y2115D01*
G01X4733Y2126D01*
G01X4736Y2137D01*
G01X4738Y2148D01*
G01X4739Y2160D01*
G01X4740Y2171D01*
G01X4740Y2260D01*
G01X4469Y2260D01*
G01X4469Y2035D01*
G01X4468Y2029D01*
G01X4466Y2024D01*
G01X4460Y2014D01*
G01X4456Y2010D01*
G01X4446Y2004D01*
G01X4440Y2002D01*
G01X4435Y2001D01*
G01X4429Y2000D01*
G01X4309Y2000D01*
G01X4308Y2001D01*
G01X4164Y2001D01*
G01X4159Y2002D01*
G01X4153Y2004D01*
G01X4148Y2007D01*
G01X4144Y2010D01*
G01X4140Y2014D01*
G01X4136Y2019D01*
G01X4134Y2024D01*
G01X4131Y2029D01*
G01X4130Y2035D01*
G01X4130Y2260D01*
G37*
G36*
G01X16479Y11930D02*
G01X16239Y11930D01*
G01X16239Y11659D01*
G01X16328Y11659D01*
G01X16339Y11660D01*
G01X16351Y11661D01*
G01X16362Y11663D01*
G01X16372Y11666D01*
G01X16383Y11670D01*
G01X16393Y11674D01*
G01X16413Y11686D01*
G01X16422Y11692D01*
G01X16431Y11700D01*
G01X16439Y11707D01*
G01X16453Y11725D01*
G01X16459Y11735D01*
G01X16464Y11745D01*
G01X16468Y11755D01*
G01X16472Y11766D01*
G01X16475Y11776D01*
G01X16477Y11788D01*
G01X16479Y11810D01*
G01X16479Y11930D01*
G37*
G36*
G01X16339Y12540D02*
G01X16239Y12540D01*
G01X16239Y12269D01*
G01X16479Y12269D01*
G01X16479Y12389D01*
G01X16477Y12411D01*
G01X16475Y12423D01*
G01X16472Y12434D01*
G01X16468Y12444D01*
G01X16464Y12455D01*
G01X16459Y12464D01*
G01X16453Y12474D01*
G01X16439Y12492D01*
G01X16431Y12500D01*
G01X16413Y12514D01*
G01X16403Y12520D01*
G01X16383Y12530D01*
G01X16372Y12533D01*
G01X16362Y12536D01*
G01X16351Y12538D01*
G01X16339Y12540D01*
G37*
G36*
G01X16479Y12930D02*
G01X16239Y12930D01*
G01X16239Y12659D01*
G01X16328Y12659D01*
G01X16339Y12660D01*
G01X16351Y12661D01*
G01X16362Y12663D01*
G01X16372Y12666D01*
G01X16383Y12670D01*
G01X16393Y12674D01*
G01X16413Y12686D01*
G01X16422Y12692D01*
G01X16431Y12700D01*
G01X16439Y12707D01*
G01X16453Y12725D01*
G01X16459Y12735D01*
G01X16464Y12745D01*
G01X16468Y12755D01*
G01X16472Y12766D01*
G01X16475Y12776D01*
G01X16477Y12788D01*
G01X16479Y12810D01*
G01X16479Y12930D01*
G37*
G36*
G01X16339Y13540D02*
G01X16239Y13540D01*
G01X16239Y13269D01*
G01X16479Y13269D01*
G01X16479Y13389D01*
G01X16477Y13411D01*
G01X16475Y13423D01*
G01X16472Y13434D01*
G01X16468Y13444D01*
G01X16464Y13455D01*
G01X16459Y13464D01*
G01X16453Y13474D01*
G01X16439Y13492D01*
G01X16431Y13500D01*
G01X16413Y13514D01*
G01X16403Y13520D01*
G01X16383Y13530D01*
G01X16372Y13533D01*
G01X16362Y13536D01*
G01X16351Y13538D01*
G01X16339Y13540D01*
G37*
G36*
G01X16479Y13930D02*
G01X16239Y13930D01*
G01X16239Y13659D01*
G01X16339Y13659D01*
G01X16351Y13661D01*
G01X16361Y13663D01*
G01X16383Y13669D01*
G01X16403Y13679D01*
G01X16413Y13685D01*
G01X16422Y13692D01*
G01X16431Y13700D01*
G01X16439Y13707D01*
G01X16453Y13725D01*
G01X16459Y13734D01*
G01X16464Y13744D01*
G01X16468Y13755D01*
G01X16472Y13765D01*
G01X16475Y13776D01*
G01X16477Y13788D01*
G01X16479Y13810D01*
G01X16479Y13930D01*
G37*
G36*
G01X2125Y14325D02*
G01X1884Y14325D01*
G01X1892Y14307D01*
G01X1910Y14273D01*
G01X1920Y14256D01*
G01X1942Y14224D01*
G01X1954Y14209D01*
G01X1967Y14194D01*
G01X1994Y14167D01*
G01X2009Y14154D01*
G01X2024Y14142D01*
G01X2056Y14120D01*
G01X2072Y14110D01*
G01X2089Y14101D01*
G01X2107Y14092D01*
G01X2125Y14084D01*
G01X2125Y14325D01*
G37*
G36*
G01X2715Y14325D02*
G01X2475Y14325D01*
G01X2475Y14084D01*
G01X2492Y14092D01*
G01X2510Y14101D01*
G01X2527Y14110D01*
G01X2543Y14120D01*
G01X2575Y14142D01*
G01X2590Y14154D01*
G01X2605Y14167D01*
G01X2632Y14194D01*
G01X2645Y14209D01*
G01X2657Y14224D01*
G01X2679Y14256D01*
G01X2689Y14273D01*
G01X2707Y14307D01*
G01X2715Y14325D01*
G37*
G36*
G01X16328Y14540D02*
G01X16239Y14540D01*
G01X16239Y14269D01*
G01X16479Y14269D01*
G01X16479Y14389D01*
G01X16477Y14411D01*
G01X16475Y14423D01*
G01X16472Y14433D01*
G01X16468Y14444D01*
G01X16464Y14454D01*
G01X16459Y14464D01*
G01X16453Y14474D01*
G01X16439Y14492D01*
G01X16431Y14500D01*
G01X16422Y14507D01*
G01X16413Y14513D01*
G01X16393Y14525D01*
G01X16383Y14529D01*
G01X16372Y14533D01*
G01X16361Y14536D01*
G01X16351Y14538D01*
G01X16339Y14539D01*
G01X16328Y14540D01*
G37*
G36*
G01X13397Y14850D02*
G01X13136Y14850D01*
G01X13145Y14831D01*
G01X13155Y14812D01*
G01X13165Y14794D01*
G01X13189Y14758D01*
G01X13201Y14741D01*
G01X13229Y14709D01*
G01X13243Y14694D01*
G01X13259Y14679D01*
G01X13275Y14665D01*
G01X13291Y14652D01*
G01X13309Y14640D01*
G01X13326Y14628D01*
G01X13344Y14617D01*
G01X13363Y14606D01*
G01X13381Y14596D01*
G01X13388Y14593D01*
G01X13393Y14588D01*
G01X13398Y14582D01*
G01X13397Y14589D01*
G01X13397Y14850D01*
G37*
G36*
G01X14063Y14850D02*
G01X13802Y14850D01*
G01X13802Y14589D01*
G01X13801Y14582D01*
G01X13806Y14588D01*
G01X13811Y14593D01*
G01X13818Y14596D01*
G01X13836Y14606D01*
G01X13855Y14617D01*
G01X13873Y14628D01*
G01X13890Y14640D01*
G01X13908Y14652D01*
G01X13924Y14665D01*
G01X13940Y14679D01*
G01X13956Y14694D01*
G01X13970Y14709D01*
G01X13998Y14741D01*
G01X14010Y14758D01*
G01X14034Y14794D01*
G01X14044Y14812D01*
G01X14054Y14831D01*
G01X14063Y14850D01*
G37*
G36*
G01X2492Y14907D02*
G01X2475Y14915D01*
G01X2475Y14675D01*
G01X2715Y14675D01*
G01X2707Y14692D01*
G01X2689Y14726D01*
G01X2679Y14743D01*
G01X2657Y14775D01*
G01X2645Y14790D01*
G01X2632Y14805D01*
G01X2605Y14832D01*
G01X2590Y14845D01*
G01X2575Y14857D01*
G01X2543Y14879D01*
G01X2527Y14889D01*
G01X2510Y14898D01*
G01X2492Y14907D01*
G37*
G36*
G01X2125Y14675D02*
G01X2125Y14915D01*
G01X2107Y14907D01*
G01X2089Y14898D01*
G01X2072Y14889D01*
G01X2056Y14879D01*
G01X2024Y14857D01*
G01X2009Y14845D01*
G01X1994Y14832D01*
G01X1967Y14805D01*
G01X1954Y14790D01*
G01X1942Y14775D01*
G01X1920Y14743D01*
G01X1910Y14726D01*
G01X1892Y14692D01*
G01X1884Y14675D01*
G01X2125Y14675D01*
G37*
G36*
G01X13397Y15255D02*
G01X13397Y15516D01*
G01X13378Y15507D01*
G01X13360Y15497D01*
G01X13341Y15487D01*
G01X13323Y15476D01*
G01X13306Y15464D01*
G01X13289Y15451D01*
G01X13273Y15438D01*
G01X13257Y15424D01*
G01X13242Y15410D01*
G01X13228Y15395D01*
G01X13214Y15379D01*
G01X13201Y15363D01*
G01X13188Y15346D01*
G01X13176Y15328D01*
G01X13165Y15311D01*
G01X13155Y15292D01*
G01X13145Y15274D01*
G01X13136Y15255D01*
G01X13397Y15255D01*
G37*
G36*
G01X13821Y15507D02*
G01X13802Y15516D01*
G01X13802Y15255D01*
G01X14063Y15255D01*
G01X14054Y15274D01*
G01X14044Y15292D01*
G01X14034Y15311D01*
G01X14023Y15328D01*
G01X14011Y15346D01*
G01X13998Y15363D01*
G01X13985Y15379D01*
G01X13971Y15395D01*
G01X13957Y15410D01*
G01X13942Y15424D01*
G01X13926Y15438D01*
G01X13910Y15451D01*
G01X13893Y15464D01*
G01X13876Y15476D01*
G01X13858Y15487D01*
G01X13839Y15497D01*
G01X13821Y15507D01*
G37*
G36*
G01X18823Y20245D02*
G01X18800Y20246D01*
G01X18776Y20245D01*
G01X18752Y20243D01*
G01X18728Y20240D01*
G01X18708Y20236D01*
G01X18687Y20232D01*
G01X18647Y20220D01*
G01X18628Y20213D01*
G01X18608Y20205D01*
G01X18589Y20196D01*
G01X18571Y20186D01*
G01X18565Y20183D01*
G01X18558Y20181D01*
G01X18552Y20180D01*
G01X17260Y20180D01*
G01X17240Y20178D01*
G01X17221Y20176D01*
G01X17202Y20173D01*
G01X17182Y20169D01*
G01X17164Y20163D01*
G01X17145Y20157D01*
G01X17127Y20150D01*
G01X17091Y20134D01*
G01X17083Y20130D01*
G01X17064Y20125D01*
G01X17046Y20119D01*
G01X17010Y20103D01*
G01X16993Y20095D01*
G01X16976Y20086D01*
G01X16959Y20076D01*
G01X16943Y20065D01*
G01X16927Y20053D01*
G01X16912Y20041D01*
G01X16897Y20028D01*
G01X16870Y20001D01*
G01X16857Y19986D01*
G01X16845Y19971D01*
G01X16823Y19939D01*
G01X16803Y19905D01*
G01X16795Y19888D01*
G01X16787Y19870D01*
G01X16780Y19852D01*
G01X16774Y19834D01*
G01X16768Y19815D01*
G01X16760Y19777D01*
G01X16757Y19758D01*
G01X16755Y19738D01*
G01X16753Y19700D01*
G01X16754Y19680D01*
G01X16755Y19662D01*
G01X16757Y19643D01*
G01X16763Y19605D01*
G01X16773Y19569D01*
G01X16785Y19533D01*
G01X16793Y19516D01*
G01X16801Y19498D01*
G01X16810Y19482D01*
G01X16819Y19465D01*
G01X16830Y19450D01*
G01X16841Y19434D01*
G01X16852Y19419D01*
G01X16864Y19405D01*
G01X16877Y19391D01*
G01X16891Y19377D01*
G01X16905Y19365D01*
G01X16919Y19352D01*
G01X16934Y19341D01*
G01X16950Y19330D01*
G01X16965Y19319D01*
G01X16982Y19310D01*
G01X16998Y19301D01*
G01X17016Y19293D01*
G01X17033Y19286D01*
G01X17051Y19279D01*
G01X17069Y19273D01*
G01X17087Y19268D01*
G01X17106Y19263D01*
G01X17124Y19260D01*
G01X17143Y19257D01*
G01X17162Y19255D01*
G01X17200Y19253D01*
G01X17238Y19255D01*
G01X17257Y19257D01*
G01X17295Y19263D01*
G01X17314Y19268D01*
G01X17332Y19273D01*
G01X17351Y19280D01*
G01X17369Y19286D01*
G01X17386Y19294D01*
G01X17404Y19303D01*
G01X17421Y19312D01*
G01X17453Y19332D01*
G01X17469Y19344D01*
G01X17484Y19355D01*
G01X17498Y19368D01*
G01X17503Y19372D01*
G01X17508Y19375D01*
G01X17514Y19377D01*
G01X17519Y19378D01*
G01X18558Y19378D01*
G01X18565Y19376D01*
G01X18571Y19373D01*
G01X18589Y19363D01*
G01X18608Y19355D01*
G01X18628Y19346D01*
G01X18647Y19339D01*
G01X18687Y19327D01*
G01X18708Y19323D01*
G01X18728Y19319D01*
G01X18734Y19318D01*
G01X18739Y19316D01*
G01X18744Y19313D01*
G01X18756Y19301D01*
G01X18759Y19296D01*
G01X18760Y19291D01*
G01X18762Y19285D01*
G01X18762Y19274D01*
G01X18760Y19268D01*
G01X18759Y19263D01*
G01X18756Y19258D01*
G01X18752Y19253D01*
G01X18748Y19250D01*
G01X18744Y19246D01*
G01X18739Y19243D01*
G01X18734Y19241D01*
G01X18728Y19240D01*
G01X18671Y19228D01*
G01X18653Y19222D01*
G01X18617Y19208D01*
G01X18599Y19200D01*
G01X18581Y19191D01*
G01X18564Y19182D01*
G01X18548Y19172D01*
G01X18532Y19161D01*
G01X18516Y19149D01*
G01X18486Y19125D01*
G01X18472Y19111D01*
G01X18446Y19083D01*
G01X18433Y19068D01*
G01X18400Y19020D01*
G01X18382Y18986D01*
G01X18373Y18968D01*
G01X18359Y18932D01*
G01X18353Y18913D01*
G01X18348Y18895D01*
G01X18340Y18857D01*
G01X18337Y18838D01*
G01X18335Y18818D01*
G01X18334Y18799D01*
G01X18334Y18760D01*
G01X18335Y18740D01*
G01X18337Y18720D01*
G01X18340Y18701D01*
G01X18344Y18681D01*
G01X18348Y18662D01*
G01X18360Y18624D01*
G01X18367Y18606D01*
G01X18375Y18588D01*
G01X18393Y18552D01*
G01X18403Y18535D01*
G01X18425Y18503D01*
G01X18437Y18487D01*
G01X18463Y18457D01*
G01X18477Y18443D01*
G01X18507Y18417D01*
G01X18522Y18405D01*
G01X18539Y18394D01*
G01X18555Y18383D01*
G01X18572Y18373D01*
G01X18590Y18363D01*
G01X18607Y18355D01*
G01X18626Y18347D01*
G01X18644Y18340D01*
G01X18682Y18328D01*
G01X18701Y18324D01*
G01X18721Y18320D01*
G01X18740Y18317D01*
G01X18760Y18315D01*
G01X18800Y18313D01*
G01X18819Y18314D01*
G01X18839Y18315D01*
G01X18859Y18317D01*
G01X18878Y18320D01*
G01X18898Y18324D01*
G01X18917Y18328D01*
G01X18955Y18340D01*
G01X18973Y18347D01*
G01X18992Y18355D01*
G01X19009Y18363D01*
G01X19027Y18373D01*
G01X19044Y18383D01*
G01X19060Y18394D01*
G01X19077Y18405D01*
G01X19092Y18417D01*
G01X19122Y18443D01*
G01X19136Y18457D01*
G01X19162Y18487D01*
G01X19174Y18503D01*
G01X19196Y18535D01*
G01X19206Y18552D01*
G01X19224Y18588D01*
G01X19232Y18606D01*
G01X19239Y18624D01*
G01X19251Y18662D01*
G01X19255Y18681D01*
G01X19259Y18701D01*
G01X19262Y18720D01*
G01X19264Y18740D01*
G01X19265Y18760D01*
G01X19265Y18799D01*
G01X19264Y18818D01*
G01X19262Y18838D01*
G01X19259Y18857D01*
G01X19251Y18895D01*
G01X19246Y18913D01*
G01X19240Y18932D01*
G01X19226Y18968D01*
G01X19217Y18986D01*
G01X19199Y19020D01*
G01X19166Y19068D01*
G01X19153Y19083D01*
G01X19127Y19111D01*
G01X19113Y19125D01*
G01X19083Y19149D01*
G01X19067Y19161D01*
G01X19051Y19172D01*
G01X19035Y19182D01*
G01X19018Y19191D01*
G01X19000Y19200D01*
G01X18982Y19208D01*
G01X18946Y19222D01*
G01X18928Y19228D01*
G01X18871Y19240D01*
G01X18865Y19241D01*
G01X18860Y19243D01*
G01X18855Y19246D01*
G01X18851Y19250D01*
G01X18847Y19253D01*
G01X18843Y19258D01*
G01X18840Y19263D01*
G01X18839Y19268D01*
G01X18837Y19274D01*
G01X18837Y19285D01*
G01X18839Y19291D01*
G01X18840Y19296D01*
G01X18843Y19301D01*
G01X18855Y19313D01*
G01X18860Y19316D01*
G01X18865Y19318D01*
G01X18871Y19319D01*
G01X18909Y19327D01*
G01X18928Y19332D01*
G01X18946Y19337D01*
G01X18982Y19351D01*
G01X19000Y19359D01*
G01X19018Y19368D01*
G01X19035Y19377D01*
G01X19051Y19387D01*
G01X19067Y19398D01*
G01X19083Y19410D01*
G01X19113Y19434D01*
G01X19127Y19448D01*
G01X19153Y19476D01*
G01X19166Y19491D01*
G01X19199Y19539D01*
G01X19217Y19573D01*
G01X19226Y19591D01*
G01X19240Y19627D01*
G01X19246Y19646D01*
G01X19251Y19664D01*
G01X19259Y19702D01*
G01X19262Y19721D01*
G01X19264Y19741D01*
G01X19265Y19760D01*
G01X19265Y19799D01*
G01X19264Y19818D01*
G01X19262Y19838D01*
G01X19259Y19857D01*
G01X19251Y19895D01*
G01X19246Y19913D01*
G01X19240Y19932D01*
G01X19226Y19968D01*
G01X19217Y19986D01*
G01X19199Y20020D01*
G01X19166Y20068D01*
G01X19153Y20083D01*
G01X19127Y20111D01*
G01X19113Y20125D01*
G01X19083Y20149D01*
G01X19067Y20161D01*
G01X19051Y20172D01*
G01X19035Y20182D01*
G01X19018Y20191D01*
G01X19000Y20200D01*
G01X18982Y20208D01*
G01X18946Y20222D01*
G01X18928Y20228D01*
G01X18871Y20240D01*
G01X18847Y20243D01*
G01X18823Y20245D01*
G37*
G36*
G01X19228Y20597D02*
G01X18982Y20597D01*
G01X18982Y20351D01*
G01X19000Y20359D01*
G01X19018Y20368D01*
G01X19052Y20388D01*
G01X19068Y20399D01*
G01X19100Y20423D01*
G01X19115Y20436D01*
G01X19143Y20464D01*
G01X19156Y20479D01*
G01X19180Y20511D01*
G01X19191Y20527D01*
G01X19202Y20544D01*
G01X19211Y20561D01*
G01X19220Y20579D01*
G01X19228Y20597D01*
G37*
G36*
G01X18617Y20597D02*
G01X18371Y20597D01*
G01X18379Y20579D01*
G01X18388Y20561D01*
G01X18397Y20544D01*
G01X18408Y20527D01*
G01X18419Y20511D01*
G01X18443Y20479D01*
G01X18456Y20464D01*
G01X18484Y20436D01*
G01X18499Y20423D01*
G01X18531Y20399D01*
G01X18547Y20388D01*
G01X18581Y20368D01*
G01X18599Y20359D01*
G01X18617Y20351D01*
G01X18617Y20597D01*
G37*
G36*
G01X18617Y20962D02*
G01X18617Y21208D01*
G01X18599Y21200D01*
G01X18581Y21191D01*
G01X18564Y21182D01*
G01X18547Y21171D01*
G01X18531Y21160D01*
G01X18499Y21136D01*
G01X18484Y21123D01*
G01X18456Y21095D01*
G01X18443Y21080D01*
G01X18419Y21048D01*
G01X18408Y21032D01*
G01X18397Y21015D01*
G01X18388Y20998D01*
G01X18379Y20980D01*
G01X18371Y20962D01*
G01X18617Y20962D01*
G37*
G36*
G01X19000Y21200D02*
G01X18982Y21208D01*
G01X18982Y20962D01*
G01X19228Y20962D01*
G01X19220Y20980D01*
G01X19211Y20998D01*
G01X19202Y21015D01*
G01X19191Y21032D01*
G01X19180Y21048D01*
G01X19156Y21080D01*
G01X19143Y21095D01*
G01X19115Y21123D01*
G01X19100Y21136D01*
G01X19068Y21160D01*
G01X19052Y21171D01*
G01X19035Y21182D01*
G01X19018Y21191D01*
G01X19000Y21200D01*
G37*
G36*
G01X15485Y25505D02*
G01X15464Y25505D01*
G01X15424Y25501D01*
G01X15403Y25498D01*
G01X15384Y25495D01*
G01X15344Y25485D01*
G01X15325Y25479D01*
G01X15306Y25472D01*
G01X15286Y25465D01*
G01X15250Y25447D01*
G01X15214Y25427D01*
G01X15198Y25415D01*
G01X15181Y25404D01*
G01X15165Y25391D01*
G01X15150Y25378D01*
G01X15120Y25350D01*
G01X15106Y25335D01*
G01X15093Y25319D01*
G01X15069Y25287D01*
G01X15057Y25270D01*
G01X15047Y25253D01*
G01X15037Y25235D01*
G01X15025Y25211D01*
G01X15021Y25206D01*
G01X15016Y25202D01*
G01X15010Y25198D01*
G01X15005Y25196D01*
G01X14998Y25194D01*
G01X14988Y25194D01*
G01X14992Y25190D01*
G01X15000Y25180D01*
G01X15002Y25174D01*
G01X15004Y25162D01*
G01X15002Y25150D01*
G01X14996Y25129D01*
G01X14991Y25108D01*
G01X14987Y25086D01*
G01X14983Y25065D01*
G01X14981Y25043D01*
G01X14980Y25021D01*
G01X14979Y25000D01*
G01X14981Y24956D01*
G01X14983Y24934D01*
G01X14987Y24913D01*
G01X14991Y24891D01*
G01X14996Y24870D01*
G01X15002Y24849D01*
G01X15004Y24837D01*
G01X15002Y24825D01*
G01X15000Y24819D01*
G01X14992Y24809D01*
G01X14988Y24805D01*
G01X14998Y24805D01*
G01X15005Y24803D01*
G01X15010Y24801D01*
G01X15016Y24797D01*
G01X15021Y24793D01*
G01X15025Y24788D01*
G01X15037Y24764D01*
G01X15047Y24746D01*
G01X15058Y24728D01*
G01X15069Y24711D01*
G01X15081Y24695D01*
G01X15107Y24663D01*
G01X15136Y24634D01*
G01X15140Y24629D01*
G01X15144Y24623D01*
G01X15147Y24617D01*
G01X15148Y24611D01*
G01X15148Y23323D01*
G01X15147Y23317D01*
G01X15141Y23307D01*
G01X15137Y23302D01*
G01X15122Y23286D01*
G01X15107Y23269D01*
G01X15093Y23251D01*
G01X15080Y23233D01*
G01X15068Y23215D01*
G01X15056Y23196D01*
G01X15045Y23177D01*
G01X15034Y23157D01*
G01X15016Y23117D01*
G01X15008Y23096D01*
G01X15001Y23075D01*
G01X14994Y23053D01*
G01X14989Y23032D01*
G01X14984Y23010D01*
G01X14980Y22988D01*
G01X14977Y22966D01*
G01X14975Y22944D01*
G01X14973Y22900D01*
G01X14974Y22878D01*
G01X14975Y22857D01*
G01X14977Y22835D01*
G01X14980Y22814D01*
G01X14984Y22792D01*
G01X14988Y22771D01*
G01X14993Y22751D01*
G01X14999Y22730D01*
G01X15006Y22709D01*
G01X15013Y22689D01*
G01X15022Y22669D01*
G01X15031Y22650D01*
G01X15040Y22630D01*
G01X15051Y22611D01*
G01X15073Y22575D01*
G01X15086Y22557D01*
G01X15099Y22540D01*
G01X15127Y22508D01*
G01X15142Y22492D01*
G01X15158Y22477D01*
G01X15190Y22449D01*
G01X15207Y22436D01*
G01X15225Y22423D01*
G01X15261Y22401D01*
G01X15280Y22390D01*
G01X15300Y22380D01*
G01X15319Y22371D01*
G01X15339Y22363D01*
G01X15359Y22356D01*
G01X15380Y22349D01*
G01X15401Y22343D01*
G01X15421Y22338D01*
G01X15443Y22334D01*
G01X15464Y22330D01*
G01X15485Y22327D01*
G01X15506Y22325D01*
G01X15550Y22323D01*
G01X15571Y22324D01*
G01X15593Y22325D01*
G01X15614Y22327D01*
G01X15635Y22330D01*
G01X15656Y22334D01*
G01X15678Y22338D01*
G01X15698Y22343D01*
G01X15719Y22349D01*
G01X15740Y22356D01*
G01X15760Y22363D01*
G01X15780Y22371D01*
G01X15800Y22380D01*
G01X15819Y22390D01*
G01X15838Y22401D01*
G01X15874Y22423D01*
G01X15892Y22436D01*
G01X15909Y22449D01*
G01X15941Y22477D01*
G01X15957Y22492D01*
G01X15972Y22508D01*
G01X16000Y22540D01*
G01X16013Y22557D01*
G01X16026Y22575D01*
G01X16048Y22611D01*
G01X16059Y22630D01*
G01X16068Y22650D01*
G01X16077Y22669D01*
G01X16086Y22689D01*
G01X16093Y22709D01*
G01X16100Y22730D01*
G01X16106Y22751D01*
G01X16111Y22771D01*
G01X16115Y22792D01*
G01X16119Y22814D01*
G01X16122Y22835D01*
G01X16124Y22857D01*
G01X16125Y22878D01*
G01X16126Y22900D01*
G01X16124Y22944D01*
G01X16122Y22966D01*
G01X16119Y22988D01*
G01X16115Y23010D01*
G01X16110Y23032D01*
G01X16105Y23053D01*
G01X16098Y23075D01*
G01X16091Y23096D01*
G01X16083Y23117D01*
G01X16065Y23157D01*
G01X16054Y23177D01*
G01X16043Y23196D01*
G01X16031Y23215D01*
G01X16019Y23233D01*
G01X16006Y23251D01*
G01X15992Y23269D01*
G01X15977Y23286D01*
G01X15962Y23302D01*
G01X15958Y23307D01*
G01X15952Y23317D01*
G01X15951Y23323D01*
G01X15951Y24564D01*
G01X15952Y24570D01*
G01X15954Y24575D01*
G01X15960Y24585D01*
G01X15964Y24589D01*
G01X15974Y24595D01*
G01X15979Y24597D01*
G01X15985Y24598D01*
G01X17585Y24598D01*
G01X17597Y24594D01*
G01X17602Y24591D01*
G01X17638Y24567D01*
G01X17656Y24557D01*
G01X17675Y24547D01*
G01X17694Y24538D01*
G01X17713Y24530D01*
G01X17733Y24522D01*
G01X17753Y24516D01*
G01X17774Y24510D01*
G01X17794Y24505D01*
G01X17815Y24501D01*
G01X17836Y24498D01*
G01X17857Y24496D01*
G01X17878Y24495D01*
G01X17900Y24494D01*
G01X17920Y24494D01*
G01X17960Y24498D01*
G01X17981Y24501D01*
G01X18001Y24504D01*
G01X18020Y24509D01*
G01X18040Y24514D01*
G01X18060Y24520D01*
G01X18078Y24527D01*
G01X18097Y24534D01*
G01X18116Y24543D01*
G01X18134Y24552D01*
G01X18152Y24562D01*
G01X18169Y24572D01*
G01X18186Y24584D01*
G01X18203Y24595D01*
G01X18235Y24621D01*
G01X18249Y24635D01*
G01X18264Y24649D01*
G01X18277Y24664D01*
G01X18291Y24680D01*
G01X18315Y24712D01*
G01X18327Y24729D01*
G01X18337Y24746D01*
G01X18347Y24764D01*
G01X18359Y24788D01*
G01X18363Y24793D01*
G01X18373Y24801D01*
G01X18385Y24805D01*
G01X18398Y24805D01*
G01X18405Y24803D01*
G01X18410Y24801D01*
G01X18416Y24797D01*
G01X18421Y24793D01*
G01X18425Y24788D01*
G01X18428Y24782D01*
G01X18439Y24762D01*
G01X18450Y24741D01*
G01X18463Y24721D01*
G01X18476Y24702D01*
G01X18479Y24697D01*
G01X18483Y24685D01*
G01X18484Y24679D01*
G01X18484Y23496D01*
G01X18482Y23484D01*
G01X18480Y23478D01*
G01X18477Y23473D01*
G01X18469Y23465D01*
G01X18464Y23461D01*
G01X18454Y23457D01*
G01X18432Y23451D01*
G01X18411Y23444D01*
G01X18391Y23436D01*
G01X18370Y23428D01*
G01X18350Y23419D01*
G01X18331Y23409D01*
G01X18311Y23398D01*
G01X18292Y23387D01*
G01X18274Y23375D01*
G01X18256Y23362D01*
G01X18222Y23334D01*
G01X18205Y23319D01*
G01X18189Y23304D01*
G01X18174Y23288D01*
G01X18146Y23254D01*
G01X18132Y23236D01*
G01X18120Y23218D01*
G01X18116Y23213D01*
G01X18111Y23209D01*
G01X18105Y23205D01*
G01X18093Y23201D01*
G01X17500Y23201D01*
G01X17481Y23200D01*
G01X17464Y23199D01*
G01X17446Y23197D01*
G01X17428Y23194D01*
G01X17410Y23190D01*
G01X17393Y23186D01*
G01X17376Y23181D01*
G01X17359Y23175D01*
G01X17342Y23168D01*
G01X17326Y23161D01*
G01X17310Y23153D01*
G01X17294Y23144D01*
G01X17264Y23124D01*
G01X17236Y23102D01*
G01X17223Y23090D01*
G01X17210Y23077D01*
G01X17198Y23064D01*
G01X17186Y23050D01*
G01X17176Y23036D01*
G01X17165Y23021D01*
G01X17156Y23006D01*
G01X16684Y22220D01*
G01X16681Y22215D01*
G01X16677Y22211D01*
G01X16672Y22207D01*
G01X16667Y22204D01*
G01X16661Y22202D01*
G01X16656Y22201D01*
G01X11576Y22201D01*
G01X11564Y22205D01*
G01X11559Y22208D01*
G01X11554Y22212D01*
G01X10839Y22927D01*
G01X10835Y22932D01*
G01X10832Y22937D01*
G01X10828Y22949D01*
G01X10828Y23328D01*
G01X10619Y23328D01*
G01X10613Y23329D01*
G01X10608Y23330D01*
G01X10602Y23332D01*
G01X10597Y23335D01*
G01X10593Y23338D01*
G01X10589Y23342D01*
G01X10585Y23347D01*
G01X10582Y23352D01*
G01X10581Y23357D01*
G01X10579Y23363D01*
G01X10579Y23369D01*
G01X10580Y23378D01*
G01X10585Y23402D01*
G01X10589Y23427D01*
G01X10592Y23451D01*
G01X10594Y23476D01*
G01X10594Y23723D01*
G01X10592Y23748D01*
G01X10589Y23773D01*
G01X10585Y23797D01*
G01X10580Y23821D01*
G01X10579Y23830D01*
G01X10579Y23836D01*
G01X10581Y23842D01*
G01X10582Y23847D01*
G01X10585Y23852D01*
G01X10589Y23857D01*
G01X10593Y23861D01*
G01X10597Y23864D01*
G01X10602Y23867D01*
G01X10608Y23869D01*
G01X10613Y23870D01*
G01X10619Y23871D01*
G01X10828Y23871D01*
G01X10828Y24195D01*
G01X10808Y24186D01*
G01X10788Y24176D01*
G01X10769Y24165D01*
G01X10751Y24153D01*
G01X10732Y24141D01*
G01X10715Y24128D01*
G01X10697Y24114D01*
G01X10665Y24084D01*
G01X10635Y24052D01*
G01X10621Y24034D01*
G01X10608Y24017D01*
G01X10596Y23999D01*
G01X10584Y23980D01*
G01X10580Y23976D01*
G01X10576Y23971D01*
G01X10572Y23968D01*
G01X10567Y23965D01*
G01X10555Y23961D01*
G01X10544Y23961D01*
G01X10532Y23965D01*
G01X10527Y23968D01*
G01X10523Y23971D01*
G01X10519Y23976D01*
G01X10515Y23980D01*
G01X10504Y23998D01*
G01X10492Y24016D01*
G01X10479Y24033D01*
G01X10465Y24050D01*
G01X10451Y24066D01*
G01X10436Y24082D01*
G01X10421Y24097D01*
G01X10405Y24111D01*
G01X10388Y24125D01*
G01X10371Y24138D01*
G01X10335Y24162D01*
G01X10317Y24173D01*
G01X10298Y24183D01*
G01X10278Y24192D01*
G01X10259Y24201D01*
G01X10239Y24209D01*
G01X10218Y24216D01*
G01X10198Y24222D01*
G01X10177Y24228D01*
G01X10135Y24236D01*
G01X10114Y24239D01*
G01X10093Y24241D01*
G01X10071Y24242D01*
G01X10050Y24243D01*
G01X10006Y24241D01*
G01X9985Y24239D01*
G01X9964Y24236D01*
G01X9943Y24232D01*
G01X9901Y24222D01*
G01X9880Y24215D01*
G01X9860Y24209D01*
G01X9840Y24201D01*
G01X9820Y24192D01*
G01X9801Y24182D01*
G01X9781Y24172D01*
G01X9745Y24150D01*
G01X9727Y24137D01*
G01X9710Y24124D01*
G01X9694Y24110D01*
G01X9677Y24096D01*
G01X9662Y24081D01*
G01X9652Y24073D01*
G01X9640Y24069D01*
G01X9628Y24069D01*
G01X9622Y24071D01*
G01X9617Y24073D01*
G01X9611Y24076D01*
G01X9599Y24088D01*
G01X9595Y24100D01*
G01X9594Y24105D01*
G01X9593Y24117D01*
G01X9590Y24127D01*
G01X9587Y24138D01*
G01X9583Y24148D01*
G01X9579Y24159D01*
G01X9573Y24169D01*
G01X9567Y24178D01*
G01X9560Y24187D01*
G01X9553Y24195D01*
G01X9545Y24203D01*
G01X9537Y24210D01*
G01X9528Y24217D01*
G01X9518Y24223D01*
G01X9508Y24228D01*
G01X9488Y24236D01*
G01X9477Y24239D01*
G01X9466Y24241D01*
G01X9455Y24242D01*
G01X8644Y24242D01*
G01X8633Y24241D01*
G01X8622Y24239D01*
G01X8611Y24236D01*
G01X8600Y24232D01*
G01X8590Y24228D01*
G01X8580Y24222D01*
G01X8571Y24216D01*
G01X8561Y24209D01*
G01X8553Y24202D01*
G01X8545Y24194D01*
G01X8538Y24186D01*
G01X8531Y24177D01*
G01X8519Y24157D01*
G01X8515Y24147D01*
G01X8511Y24136D01*
G01X8508Y24125D01*
G01X8506Y24114D01*
G01X8505Y24103D01*
G01X8505Y23096D01*
G01X8506Y23085D01*
G01X8508Y23075D01*
G01X8514Y23053D01*
G01X8524Y23033D01*
G01X8536Y23015D01*
G01X8543Y23006D01*
G01X8551Y22998D01*
G01X8560Y22991D01*
G01X8568Y22984D01*
G01X8577Y22978D01*
G01X8597Y22968D01*
G01X8608Y22964D01*
G01X8618Y22961D01*
G01X8624Y22959D01*
G01X8629Y22957D01*
G01X8634Y22953D01*
G01X8638Y22949D01*
G01X8642Y22944D01*
G01X8645Y22940D01*
G01X8647Y22934D01*
G01X8648Y22928D01*
G01X8648Y22496D01*
G01X8647Y22489D01*
G01X8644Y22483D01*
G01X8636Y22473D01*
G01X8608Y22443D01*
G01X8594Y22427D01*
G01X8581Y22411D01*
G01X8569Y22394D01*
G01X8547Y22358D01*
G01X8537Y22340D01*
G01X8519Y22302D01*
G01X8512Y22283D01*
G01X8505Y22263D01*
G01X8499Y22244D01*
G01X8493Y22223D01*
G01X8489Y22203D01*
G01X8485Y22182D01*
G01X8482Y22162D01*
G01X8480Y22141D01*
G01X8479Y22120D01*
G01X8478Y22100D01*
G01X8479Y22079D01*
G01X8480Y22059D01*
G01X8482Y22038D01*
G01X8485Y22018D01*
G01X8493Y21978D01*
G01X8498Y21958D01*
G01X8504Y21938D01*
G01X8518Y21900D01*
G01X8526Y21881D01*
G01X8535Y21863D01*
G01X8555Y21827D01*
G01X8566Y21810D01*
G01X8578Y21793D01*
G01X8590Y21777D01*
G01X8603Y21761D01*
G01X8631Y21731D01*
G01X8661Y21703D01*
G01X8677Y21690D01*
G01X8693Y21678D01*
G01X8710Y21666D01*
G01X8727Y21655D01*
G01X8763Y21635D01*
G01X8781Y21626D01*
G01X8800Y21618D01*
G01X8819Y21611D01*
G01X8839Y21604D01*
G01X8858Y21598D01*
G01X8898Y21588D01*
G01X8938Y21582D01*
G01X8959Y21580D01*
G01X8979Y21579D01*
G01X9000Y21578D01*
G01X9040Y21580D01*
G01X9061Y21582D01*
G01X9101Y21588D01*
G01X9141Y21598D01*
G01X9160Y21604D01*
G01X9180Y21611D01*
G01X9199Y21618D01*
G01X9218Y21626D01*
G01X9236Y21635D01*
G01X9272Y21655D01*
G01X9289Y21666D01*
G01X9306Y21678D01*
G01X9322Y21690D01*
G01X9338Y21703D01*
G01X9368Y21731D01*
G01X9396Y21761D01*
G01X9409Y21777D01*
G01X9421Y21793D01*
G01X9433Y21810D01*
G01X9444Y21827D01*
G01X9464Y21863D01*
G01X9473Y21881D01*
G01X9481Y21900D01*
G01X9495Y21938D01*
G01X9501Y21958D01*
G01X9506Y21978D01*
G01X9514Y22018D01*
G01X9517Y22038D01*
G01X9519Y22059D01*
G01X9520Y22079D01*
G01X9521Y22100D01*
G01X9520Y22121D01*
G01X9519Y22143D01*
G01X9513Y22187D01*
G01X9509Y22208D01*
G01X9504Y22230D01*
G01X9498Y22251D01*
G01X9491Y22271D01*
G01X9484Y22292D01*
G01X9466Y22332D01*
G01X9453Y22358D01*
G01X9451Y22364D01*
G01X9451Y22928D01*
G01X9452Y22934D01*
G01X9454Y22940D01*
G01X9457Y22944D01*
G01X9461Y22949D01*
G01X9465Y22953D01*
G01X9470Y22957D01*
G01X9475Y22959D01*
G01X9481Y22961D01*
G01X9491Y22964D01*
G01X9502Y22968D01*
G01X9522Y22978D01*
G01X9531Y22984D01*
G01X9540Y22991D01*
G01X9556Y23007D01*
G01X9563Y23015D01*
G01X9570Y23025D01*
G01X9576Y23034D01*
G01X9581Y23044D01*
G01X9585Y23054D01*
G01X9587Y23060D01*
G01X9591Y23065D01*
G01X9595Y23069D01*
G01X9600Y23073D01*
G01X9605Y23076D01*
G01X9610Y23078D01*
G01X9616Y23080D01*
G01X9628Y23080D01*
G01X9634Y23078D01*
G01X9639Y23077D01*
G01X9644Y23073D01*
G01X9649Y23070D01*
G01X9653Y23066D01*
G01X9659Y23056D01*
G01X9661Y23050D01*
G01X9666Y23031D01*
G01X9672Y23013D01*
G01X9696Y22959D01*
G01X9706Y22942D01*
G01X9728Y22910D01*
G01X9752Y22880D01*
G01X11129Y21503D01*
G01X11143Y21491D01*
G01X11173Y21469D01*
G01X11189Y21459D01*
G01X11204Y21449D01*
G01X11221Y21440D01*
G01X11272Y21419D01*
G01X11308Y21409D01*
G01X11326Y21405D01*
G01X11344Y21402D01*
G01X11363Y21400D01*
G01X11381Y21399D01*
G01X11400Y21398D01*
G01X16900Y21398D01*
G01X16918Y21399D01*
G01X16935Y21400D01*
G01X16953Y21402D01*
G01X16971Y21405D01*
G01X16989Y21409D01*
G01X17006Y21413D01*
G01X17023Y21418D01*
G01X17040Y21424D01*
G01X17057Y21431D01*
G01X17073Y21438D01*
G01X17089Y21446D01*
G01X17105Y21455D01*
G01X17135Y21475D01*
G01X17163Y21497D01*
G01X17176Y21509D01*
G01X17189Y21522D01*
G01X17201Y21535D01*
G01X17213Y21549D01*
G01X17223Y21563D01*
G01X17234Y21578D01*
G01X17243Y21593D01*
G01X17715Y22379D01*
G01X17718Y22384D01*
G01X17722Y22388D01*
G01X17727Y22392D01*
G01X17732Y22395D01*
G01X17738Y22397D01*
G01X17743Y22398D01*
G01X18311Y22398D01*
G01X18318Y22396D01*
G01X18324Y22394D01*
G01X18364Y22374D01*
G01X18384Y22365D01*
G01X18405Y22357D01*
G01X18426Y22351D01*
G01X18447Y22344D01*
G01X18468Y22339D01*
G01X18490Y22334D01*
G01X18511Y22330D01*
G01X18533Y22327D01*
G01X18555Y22325D01*
G01X18577Y22324D01*
G01X18600Y22323D01*
G01X18622Y22324D01*
G01X18643Y22325D01*
G01X18665Y22327D01*
G01X18687Y22330D01*
G01X18709Y22334D01*
G01X18730Y22338D01*
G01X18772Y22350D01*
G01X18793Y22357D01*
G01X18814Y22365D01*
G01X18834Y22373D01*
G01X18853Y22382D01*
G01X18873Y22392D01*
G01X18892Y22403D01*
G01X18911Y22415D01*
G01X18929Y22427D01*
G01X18947Y22440D01*
G01X18964Y22453D01*
G01X18981Y22468D01*
G01X18997Y22482D01*
G01X19042Y22530D01*
G01X19056Y22548D01*
G01X19068Y22565D01*
G01X19081Y22583D01*
G01X19093Y22602D01*
G01X19103Y22621D01*
G01X19114Y22640D01*
G01X19132Y22680D01*
G01X19140Y22700D01*
G01X19147Y22721D01*
G01X19159Y22763D01*
G01X19164Y22785D01*
G01X19168Y22806D01*
G01X19171Y22828D01*
G01X19173Y22850D01*
G01X19175Y22871D01*
G01X19176Y22894D01*
G01X19176Y22899D01*
G01X19177Y22905D01*
G01X19179Y22910D01*
G01X19182Y22915D01*
G01X19185Y22919D01*
G01X19197Y22933D01*
G01X19208Y22948D01*
G01X19228Y22978D01*
G01X19237Y22994D01*
G01X19253Y23026D01*
G01X19260Y23043D01*
G01X19266Y23060D01*
G01X19271Y23077D01*
G01X19279Y23113D01*
G01X19282Y23130D01*
G01X19284Y23148D01*
G01X19285Y23167D01*
G01X19285Y24679D01*
G01X19286Y24685D01*
G01X19290Y24697D01*
G01X19293Y24702D01*
G01X19317Y24738D01*
G01X19327Y24756D01*
G01X19337Y24775D01*
G01X19346Y24794D01*
G01X19354Y24813D01*
G01X19362Y24833D01*
G01X19368Y24853D01*
G01X19374Y24874D01*
G01X19379Y24894D01*
G01X19383Y24915D01*
G01X19386Y24936D01*
G01X19388Y24957D01*
G01X19389Y24978D01*
G01X19390Y25000D01*
G01X19388Y25040D01*
G01X19386Y25061D01*
G01X19383Y25080D01*
G01X19380Y25101D01*
G01X19375Y25121D01*
G01X19370Y25140D01*
G01X19364Y25159D01*
G01X19357Y25179D01*
G01X19349Y25198D01*
G01X19341Y25216D01*
G01X19332Y25234D01*
G01X19322Y25252D01*
G01X19289Y25303D01*
G01X19276Y25319D01*
G01X19263Y25334D01*
G01X19249Y25350D01*
G01X19235Y25364D01*
G01X19219Y25378D01*
G01X19204Y25391D01*
G01X19172Y25415D01*
G01X19155Y25427D01*
G01X19119Y25447D01*
G01X19101Y25456D01*
G01X19082Y25464D01*
G01X19064Y25472D01*
G01X19044Y25479D01*
G01X19025Y25485D01*
G01X19006Y25490D01*
G01X18985Y25495D01*
G01X18965Y25498D01*
G01X18946Y25501D01*
G01X18925Y25503D01*
G01X18905Y25505D01*
G01X18864Y25505D01*
G01X18824Y25501D01*
G01X18803Y25498D01*
G01X18784Y25495D01*
G01X18744Y25485D01*
G01X18725Y25479D01*
G01X18706Y25472D01*
G01X18686Y25465D01*
G01X18650Y25447D01*
G01X18614Y25427D01*
G01X18598Y25415D01*
G01X18581Y25404D01*
G01X18565Y25391D01*
G01X18550Y25378D01*
G01X18520Y25350D01*
G01X18506Y25335D01*
G01X18493Y25319D01*
G01X18469Y25287D01*
G01X18457Y25270D01*
G01X18447Y25253D01*
G01X18437Y25235D01*
G01X18425Y25211D01*
G01X18421Y25206D01*
G01X18416Y25202D01*
G01X18410Y25198D01*
G01X18405Y25196D01*
G01X18398Y25194D01*
G01X18385Y25194D01*
G01X18373Y25198D01*
G01X18363Y25206D01*
G01X18359Y25211D01*
G01X18347Y25235D01*
G01X18337Y25253D01*
G01X18327Y25270D01*
G01X18315Y25287D01*
G01X18291Y25319D01*
G01X18277Y25335D01*
G01X18264Y25350D01*
G01X18249Y25364D01*
G01X18235Y25378D01*
G01X18203Y25404D01*
G01X18186Y25415D01*
G01X18169Y25427D01*
G01X18152Y25437D01*
G01X18134Y25447D01*
G01X18116Y25456D01*
G01X18097Y25465D01*
G01X18078Y25472D01*
G01X18060Y25479D01*
G01X18040Y25485D01*
G01X18020Y25490D01*
G01X18001Y25495D01*
G01X17981Y25498D01*
G01X17960Y25501D01*
G01X17920Y25505D01*
G01X17900Y25505D01*
G01X17878Y25504D01*
G01X17857Y25503D01*
G01X17836Y25501D01*
G01X17815Y25498D01*
G01X17794Y25494D01*
G01X17774Y25489D01*
G01X17753Y25483D01*
G01X17733Y25477D01*
G01X17713Y25469D01*
G01X17694Y25461D01*
G01X17675Y25452D01*
G01X17656Y25442D01*
G01X17638Y25432D01*
G01X17602Y25408D01*
G01X17597Y25405D01*
G01X17585Y25401D01*
G01X15799Y25401D01*
G01X15787Y25405D01*
G01X15782Y25408D01*
G01X15764Y25420D01*
G01X15747Y25432D01*
G01X15709Y25452D01*
G01X15690Y25461D01*
G01X15671Y25469D01*
G01X15651Y25477D01*
G01X15631Y25483D01*
G01X15610Y25489D01*
G01X15590Y25494D01*
G01X15569Y25498D01*
G01X15548Y25501D01*
G01X15527Y25503D01*
G01X15485Y25505D01*
G37*
G36*
G01X11566Y23328D02*
G01X11271Y23328D01*
G01X11271Y23004D01*
G01X11291Y23013D01*
G01X11310Y23023D01*
G01X11328Y23033D01*
G01X11347Y23045D01*
G01X11364Y23057D01*
G01X11382Y23069D01*
G01X11399Y23083D01*
G01X11415Y23097D01*
G01X11431Y23112D01*
G01X11446Y23127D01*
G01X11474Y23159D01*
G01X11487Y23177D01*
G01X11500Y23194D01*
G01X11522Y23230D01*
G01X11532Y23249D01*
G01X11542Y23269D01*
G01X11551Y23288D01*
G01X11559Y23308D01*
G01X11566Y23328D01*
G37*
G36*
G01X11291Y24186D02*
G01X11271Y24195D01*
G01X11271Y23871D01*
G01X11566Y23871D01*
G01X11559Y23891D01*
G01X11551Y23911D01*
G01X11542Y23930D01*
G01X11532Y23950D01*
G01X11522Y23969D01*
G01X11500Y24005D01*
G01X11487Y24023D01*
G01X11474Y24040D01*
G01X11446Y24072D01*
G01X11431Y24087D01*
G01X11415Y24102D01*
G01X11399Y24116D01*
G01X11382Y24130D01*
G01X11364Y24142D01*
G01X11347Y24154D01*
G01X11328Y24166D01*
G01X11310Y24176D01*
G01X11291Y24186D01*
G37*
G36*
G01X4447Y24380D02*
G01X4188Y24380D01*
G01X4188Y24121D01*
G01X4206Y24130D01*
G01X4225Y24139D01*
G01X4261Y24161D01*
G01X4295Y24185D01*
G01X4311Y24198D01*
G01X4327Y24212D01*
G01X4342Y24226D01*
G01X4356Y24241D01*
G01X4370Y24257D01*
G01X4383Y24273D01*
G01X4396Y24290D01*
G01X4407Y24307D01*
G01X4429Y24343D01*
G01X4438Y24361D01*
G01X4447Y24380D01*
G37*
G36*
G01X3788Y24380D02*
G01X3528Y24380D01*
G01X3537Y24361D01*
G01X3546Y24343D01*
G01X3568Y24307D01*
G01X3592Y24273D01*
G01X3605Y24257D01*
G01X3619Y24241D01*
G01X3633Y24226D01*
G01X3648Y24212D01*
G01X3664Y24198D01*
G01X3680Y24185D01*
G01X3714Y24161D01*
G01X3750Y24139D01*
G01X3768Y24130D01*
G01X3788Y24121D01*
G01X3788Y24380D01*
G37*
G36*
G01X14297Y24797D02*
G01X14036Y24797D01*
G01X14045Y24778D01*
G01X14055Y24760D01*
G01X14065Y24741D01*
G01X14076Y24723D01*
G01X14088Y24706D01*
G01X14101Y24689D01*
G01X14114Y24673D01*
G01X14128Y24657D01*
G01X14142Y24642D01*
G01X14157Y24628D01*
G01X14173Y24614D01*
G01X14189Y24601D01*
G01X14206Y24588D01*
G01X14223Y24576D01*
G01X14241Y24565D01*
G01X14260Y24555D01*
G01X14278Y24545D01*
G01X14297Y24536D01*
G01X14297Y24797D01*
G37*
G36*
G01X14963Y24793D02*
G01X14968Y24798D01*
G01X14964Y24797D01*
G01X14702Y24797D01*
G01X14702Y24536D01*
G01X14721Y24545D01*
G01X14740Y24555D01*
G01X14758Y24565D01*
G01X14794Y24589D01*
G01X14811Y24602D01*
G01X14827Y24615D01*
G01X14843Y24629D01*
G01X14859Y24644D01*
G01X14873Y24659D01*
G01X14887Y24675D01*
G01X14901Y24692D01*
G01X14913Y24709D01*
G01X14925Y24727D01*
G01X14936Y24745D01*
G01X14946Y24763D01*
G01X14956Y24782D01*
G01X14959Y24788D01*
G01X14963Y24793D01*
G37*
G36*
G01X4206Y25031D02*
G01X4188Y25040D01*
G01X4188Y24780D01*
G01X4447Y24780D01*
G01X4438Y24800D01*
G01X4429Y24818D01*
G01X4407Y24854D01*
G01X4396Y24871D01*
G01X4383Y24888D01*
G01X4370Y24904D01*
G01X4356Y24920D01*
G01X4342Y24935D01*
G01X4327Y24949D01*
G01X4311Y24963D01*
G01X4295Y24976D01*
G01X4261Y25000D01*
G01X4225Y25022D01*
G01X4206Y25031D01*
G37*
G36*
G01X3788Y24780D02*
G01X3788Y25040D01*
G01X3768Y25031D01*
G01X3750Y25022D01*
G01X3714Y25000D01*
G01X3680Y24976D01*
G01X3664Y24963D01*
G01X3648Y24949D01*
G01X3633Y24935D01*
G01X3619Y24920D01*
G01X3605Y24904D01*
G01X3592Y24888D01*
G01X3568Y24854D01*
G01X3546Y24818D01*
G01X3537Y24800D01*
G01X3528Y24780D01*
G01X3788Y24780D01*
G37*
G36*
G01X14721Y25454D02*
G01X14702Y25463D01*
G01X14702Y25202D01*
G01X14968Y25202D01*
G01X14963Y25206D01*
G01X14959Y25211D01*
G01X14956Y25217D01*
G01X14946Y25236D01*
G01X14936Y25254D01*
G01X14925Y25272D01*
G01X14913Y25290D01*
G01X14901Y25307D01*
G01X14887Y25324D01*
G01X14873Y25340D01*
G01X14859Y25355D01*
G01X14843Y25370D01*
G01X14811Y25398D01*
G01X14794Y25410D01*
G01X14758Y25434D01*
G01X14740Y25444D01*
G01X14721Y25454D01*
G37*
G36*
G01X14297Y25202D02*
G01X14297Y25463D01*
G01X14278Y25454D01*
G01X14260Y25444D01*
G01X14241Y25434D01*
G01X14223Y25423D01*
G01X14206Y25411D01*
G01X14189Y25398D01*
G01X14173Y25385D01*
G01X14157Y25371D01*
G01X14142Y25357D01*
G01X14128Y25342D01*
G01X14114Y25326D01*
G01X14101Y25310D01*
G01X14088Y25293D01*
G01X14076Y25276D01*
G01X14065Y25258D01*
G01X14055Y25239D01*
G01X14045Y25221D01*
G01X14036Y25202D01*
G01X14297Y25202D01*
G37*
G36*
G01X10489Y9790D02*
G01X10223Y9790D01*
G01X10232Y9770D01*
G01X10252Y9732D01*
G01X10276Y9696D01*
G01X10289Y9679D01*
G01X10302Y9663D01*
G01X10316Y9646D01*
G01X10331Y9631D01*
G01X10347Y9616D01*
G01X10379Y9588D01*
G01X10397Y9576D01*
G01X10414Y9563D01*
G01X10432Y9552D01*
G01X10470Y9532D01*
G01X10489Y9523D01*
G01X10489Y9790D01*
G37*

%LPD*%
G54D11*
G01X2700Y6784D02*
G01X1480Y6784D01*
G01X1400Y6865D01*
G01X2700Y5800D02*
G01X7500Y5800D01*
G01X8900Y7200D01*
G01X8900Y9008D02*
G01X11512Y9008D01*
G01X11521Y9000D01*
G01X11050Y23600D02*
G01X11050Y24987D01*
G01X11037Y25000D01*
G01X2697Y2600D02*
G01X1408Y2600D01*
G01X1400Y2591D01*
G01X1400Y3100D02*
G01X1400Y7400D01*
G01X2300Y8000D01*
G01X4700Y8000D02*
G01X2400Y8000D01*
G01X2400Y8000D01*
G01X9200Y4200D02*
G01X9300Y4200D01*
G01X9300Y4100D01*
G01X14700Y2000D02*
G01X14700Y680D01*
G01X14780Y600D01*
G01X1400Y3100D02*
G01X1400Y900D01*
G01X1700Y600D01*
G01X18000Y600D01*
G01X18700Y1300D01*
G01X18700Y6700D01*
G01X17900Y7500D01*
G01X17900Y9043D01*
G01X17743Y9200D01*
G01X17700Y4000D02*
G01X17100Y4000D01*
G01X16700Y4400D01*
G01X16700Y8000D01*
G01X15700Y9000D01*
G01X11521Y9000D01*
G01X17700Y3000D02*
G01X16000Y3000D01*
G01X15700Y3300D01*
G01X15700Y5800D01*
G01X15100Y6400D01*
G01X12400Y6400D01*
G01X13200Y1900D02*
G01X14600Y1900D01*
G01X14700Y2000D01*
G01X13200Y3000D02*
G01X14700Y3000D01*
G01X13200Y4200D02*
G01X14500Y4200D01*
G01X14700Y4000D01*
G01X13200Y4200D02*
G01X12300Y4200D01*
G01X11100Y3000D01*
G01X11100Y2100D01*
G01X11000Y2000D01*
G01X10900Y1900D01*
G01X9200Y1900D01*
G01X2697Y2600D02*
G01X4100Y2600D01*
G01X4300Y2400D01*
G01X12400Y6400D02*
G01X9900Y6400D01*
G01X8000Y4500D01*
G01X5900Y4500D01*
G01X12360Y7407D02*
G01X12360Y6439D01*
G01X12400Y6400D01*
G01X12400Y5400D02*
G01X10400Y5400D01*
G01X9200Y4200D01*
G01X9200Y3000D02*
G01X7799Y1599D01*
G01X4300Y1599D02*
G01X5599Y1599D01*
G01X5600Y1600D01*
G01X4700Y12000D02*
G01X2300Y12000D01*
G01X4800Y11000D02*
G01X2314Y11000D01*
G01X2300Y11015D01*
G01X4800Y14000D02*
G01X5700Y14000D01*
G01X5900Y13800D01*
G01X2696Y1600D02*
G01X4300Y1600D01*
G01X4300Y1599D01*
G01X10800Y10000D02*
G01X16092Y10000D01*
G01X16300Y10000D01*
G01X4800Y8000D02*
G01X4800Y8100D01*
G01X2300Y9046D02*
G01X2300Y8000D01*
G01X2400Y8000D01*
G01X9000Y17000D02*
G01X7700Y17000D01*
G01X2697Y3600D02*
G01X4100Y3600D01*
G01X9000Y13000D02*
G01X8100Y12100D01*
G01X8100Y10000D01*
G01X7702Y10000D01*
G01X7700Y10000D01*
G01X10800Y17000D02*
G01X9000Y17000D01*
G01X8900Y7200D02*
G01X8900Y10000D01*
G01X4800Y10000D01*
G01X8900Y11200D02*
G01X10800Y11200D01*
G01X10800Y11000D01*
G01X8900Y11200D02*
G01X8900Y11100D01*
G01X3988Y21588D02*
G01X5110Y21588D01*
G01X6100Y20550D01*
G01X6100Y15800D01*
G01X6900Y15000D01*
G01X10800Y15000D01*
G01X3988Y24580D02*
G01X7272Y24580D01*
G01X7300Y24609D01*
G01X18900Y9200D02*
G01X17200Y9200D01*
G01X16300Y10100D01*
G01X16300Y11900D01*
G01X16100Y12100D01*
G01X4800Y10000D02*
G01X2331Y10000D01*
G01X2300Y10030D01*
G01X18800Y19780D02*
G01X17280Y19780D01*
G01X17200Y19700D01*
G01X10800Y11000D02*
G01X10800Y11100D01*
G01X18600Y16800D02*
G01X18900Y16800D01*
G01X18900Y10200D01*
G01X10800Y16000D02*
G01X14200Y16000D01*
G01X14300Y16100D01*
G01X14600Y16800D01*
G01X16000Y15100D02*
G01X16000Y20744D01*
G01X16015Y20759D01*
G01X16100Y12100D02*
G01X16100Y14999D01*
G01X16000Y15100D01*
G01X13647Y15100D01*
G01X13600Y15053D01*
G01X13600Y12100D02*
G01X15300Y12100D01*
G01X15300Y12100D01*
G01X13600Y13084D02*
G01X15285Y13084D01*
G01X15300Y13100D01*
G01X13600Y14069D02*
G01X15268Y14069D01*
G01X15299Y14099D01*
G01X10800Y12000D02*
G01X13600Y12000D01*
G01X13600Y12100D01*
G01X10800Y13000D02*
G01X13514Y13000D01*
G01X13600Y13085D01*
G01X10800Y14000D02*
G01X13531Y14000D01*
G01X13600Y14068D01*
G01X9000Y18100D02*
G01X10800Y18100D01*
G01X10800Y18000D01*
G01X18800Y20780D02*
G01X8000Y20700D01*
G01X7300Y21100D01*
G01X7300Y25000D01*
G01X14500Y25000D01*
G01X10050Y23600D02*
G01X10050Y23150D01*
G01X11400Y21800D01*
G01X16900Y21800D01*
G01X17500Y22800D01*
G01X17500Y22800D01*
G01X17500Y22800D01*
G01X18500Y22800D01*
G01X18600Y22900D01*
G01X15550Y22900D02*
G01X15550Y24934D01*
G01X15485Y25000D01*
G01X17900Y25000D02*
G01X15485Y25000D01*
G01X18885Y25000D02*
G01X18885Y23184D01*
G01X18600Y22900D01*
G01X9050Y23600D02*
G01X9050Y22150D01*
G01X9000Y22100D01*
G54D31*
G01X30400Y11800D02*
G01X30400Y9196D01*
G01X26900Y7200D02*
G01X28200Y7200D01*
G01X29000Y8000D01*
G01X29000Y20400D01*
G01X30400Y21800D01*
G01X30400Y6203D02*
G01X30400Y1859D01*
G01X30340Y1800D01*
G01X26900Y6200D02*
G01X30396Y6200D01*
G01X30400Y6203D01*
G01X30400Y21800D02*
G01X30400Y24605D01*
G01X31900Y1794D02*
G01X31900Y24540D01*
G01X31959Y24600D01*
G54D11*
G01X23300Y9800D02*
G01X22900Y10200D01*
G01X21900Y10200D01*
G01X23300Y5800D02*
G01X23300Y6800D01*
G01X23700Y7200D01*
G01X26900Y7200D01*
G01X26900Y8200D02*
G01X21900Y8200D01*
G01X25400Y17900D02*
G01X25400Y15100D01*
G01X21800Y19780D02*
G01X24019Y19780D01*
G01X24200Y19600D01*
G01X24200Y16000D01*
G01X23400Y15200D01*
G01X21700Y15200D01*
G01X25700Y24000D02*
G01X24300Y24000D01*
G01X23100Y22800D01*
G01X21800Y18780D02*
G01X23080Y18780D01*
G01X23100Y18800D01*
G01X25400Y21900D02*
G01X27600Y21900D01*
G01X28200Y22500D01*
G01X28200Y24900D01*
G01X28900Y25600D01*
G01X31600Y25600D01*
G01X31900Y25300D01*
G01X31900Y24659D01*
G01X31959Y24600D01*
G01X25400Y19900D02*
G01X28879Y19900D01*
G01X28900Y19879D01*
G01X10800Y11000D02*
G01X13000Y11000D01*
G01X13000Y11100D01*
G36*
G01X16328Y14389D02*
G01X15871Y14389D01*
G01X15871Y13810D01*
G01X16328Y13810D01*
G01X16328Y14389D01*
G37*
G36*
G01X15528Y14389D02*
G01X15071Y14389D01*
G01X15071Y13810D01*
G01X15528Y13810D01*
G01X15528Y14389D01*
G37*
G36*
G01X15071Y12810D02*
G01X15528Y12810D01*
G01X15528Y13389D01*
G01X15071Y13389D01*
G01X15071Y12810D01*
G37*
G36*
G01X15871Y12810D02*
G01X16328Y12810D01*
G01X16328Y13389D01*
G01X15871Y13389D01*
G01X15871Y12810D01*
G37*
G36*
G01X15071Y11810D02*
G01X15528Y11810D01*
G01X15528Y12389D01*
G01X15071Y12389D01*
G01X15071Y11810D01*
G37*
G36*
G01X15871Y11810D02*
G01X16328Y11810D01*
G01X16328Y12389D01*
G01X15871Y12389D01*
G01X15871Y11810D01*
G37*
G36*
G01X4010Y2628D02*
G01X4010Y2171D01*
G01X4589Y2171D01*
G01X4589Y2628D01*
G01X4010Y2628D01*
G37*
G36*
G01X4010Y1828D02*
G01X4010Y1371D01*
G01X4589Y1371D01*
G01X4589Y1828D01*
G01X4010Y1828D01*
G37*
G54D13*
G01X21000Y24800D03*
G01X21000Y1700D03*
G01X2300Y14500D03*
G36*
G01X8656Y24092D02*
G01X9443Y24092D01*
G01X9443Y23107D01*
G01X8656Y23107D01*
G01X8656Y24092D01*
G37*
G54D15*
G01X30340Y1800D03*
G01X31900Y1794D03*
G54D16*
G01X17900Y25000D03*
G01X18885Y25000D03*
G01X14500Y25000D03*
G01X15485Y25000D03*
G54D13*
G01X12400Y6400D03*
G01X12400Y5400D03*
G01X12360Y7407D03*
G54D16*
G01X13600Y12100D03*
G01X13600Y13084D03*
G01X13600Y14069D03*
G01X13600Y15053D03*
G54D17*
G01X8900Y11200D03*
G01X8900Y7200D03*
G01X9000Y17000D03*
G01X9000Y13000D03*
G01X9200Y3000D03*
G01X13200Y3000D03*
G54D18*
G01X3988Y21588D03*
G01X3988Y24580D03*
G54D17*
G01X14600Y16800D03*
G01X18600Y16800D03*
G01X23300Y9800D03*
G01X23300Y5800D03*
G01X9000Y18100D03*
G01X9000Y22100D03*
G01X23100Y18800D03*
G01X23100Y22800D03*
G01X21400Y15100D03*
G01X25400Y15100D03*
G54D19*
G01X18600Y22900D03*
G01X15550Y22900D03*
G54D16*
G01X30400Y9196D03*
G01X30400Y6203D03*
G36*
G01X18506Y10494D02*
G01X19293Y10494D01*
G01X19293Y9905D01*
G01X18506Y9905D01*
G01X18506Y10494D01*
G37*
G54D17*
G01X5900Y4500D03*
G01X5900Y8500D03*
G54D21*
G01X25300Y2200D03*
G01X25300Y12200D03*
G54D22*
G01X10000Y25901D03*
G54D15*
G01X31959Y24600D03*
G01X30400Y24605D03*
G54D23*
G01X30400Y11800D03*
G01X30400Y21800D03*
G36*
G01X22094Y18465D02*
G01X21505Y18465D01*
G01X21505Y19094D01*
G01X22094Y19094D01*
G01X22094Y18465D01*
G37*
G54D25*
G01X21800Y19780D03*
G01X21800Y20780D03*
G01X18800Y18780D03*
G01X18800Y20780D03*
G01X18800Y19780D03*
G54D16*
G01X2300Y12000D03*
G01X2300Y11015D03*
G01X2300Y10030D03*
G01X2300Y9046D03*
G54D17*
G01X10700Y10000D03*
G01X10700Y11000D03*
G01X10700Y12000D03*
G01X10700Y13000D03*
G01X10700Y14000D03*
G01X10700Y15000D03*
G01X10700Y16000D03*
G01X10700Y17000D03*
G01X10700Y18000D03*
G01X4700Y18000D03*
G01X4700Y17000D03*
G01X4700Y16000D03*
G01X4700Y15000D03*
G01X4700Y14000D03*
G01X4700Y13000D03*
G01X4700Y12000D03*
G01X4700Y11000D03*
G01X4700Y10000D03*
G01X4700Y9000D03*
G01X4700Y8000D03*
G01X4700Y7000D03*
G54D26*
G01X14700Y5000D03*
G54D27*
G01X14700Y4000D03*
G01X14700Y3000D03*
G01X14700Y2000D03*
G01X17700Y2000D03*
G01X17700Y3000D03*
G01X17700Y4000D03*
G01X17700Y5000D03*
G54D17*
G01X13200Y1900D03*
G01X9200Y1900D03*
G01X13200Y4200D03*
G01X9200Y4200D03*
G54D28*
G01X2696Y1600D03*
G54D25*
G01X2697Y2600D03*
G01X2697Y3600D03*
G54D16*
G01X2700Y5800D03*
G01X2700Y6784D03*
G54D12*
G01X13000Y11100D03*
G01X17200Y19700D03*
G01X4100Y3600D03*
G01X7700Y17000D03*
G01X5900Y13800D03*
G01X5599Y1599D03*
G01X7799Y1599D03*
G54D22*
G01X11050Y23698D02*
G01X11050Y23501D01*
G01X10050Y23698D02*
G01X10050Y23501D01*
G54D29*
G01X26800Y7200D02*
G01X27000Y7200D01*
G01X26800Y8200D02*
G01X27000Y8200D01*
G01X26800Y6200D02*
G01X27000Y6200D01*
G54D30*
G01X18801Y9200D02*
G01X18998Y9200D01*
G01X18801Y8200D02*
G01X18998Y8200D01*
G01X21801Y10200D02*
G01X21998Y10200D01*
G01X21801Y9200D02*
G01X21998Y9200D01*
G01X21801Y8200D02*
G01X21998Y8200D01*
G54D22*
G01X25400Y21801D02*
G01X25400Y21998D01*
G01X25400Y23801D02*
G01X25400Y23998D01*
G01X25400Y19801D02*
G01X25400Y19998D01*
G01X25400Y17801D02*
G01X25400Y17998D01*
M00*
M02*
